<svg width="28" height="14" viewBox="0 0 28 14" fill="none" xmlns="http://www.w3.org/2000/svg">
<path d="M27.6792 6.00703C27.6789 6.0067 27.6786 6.00632 27.6782 6.00599L21.9632 0.318496C21.535 -0.107574 20.8425 -0.105988 20.4163 0.322215C19.9902 0.750363 19.9918 1.44287 20.42 1.86899L24.2571 5.68749H1.09375C0.489672 5.68749 0 6.17716 0 6.78124C0 7.38532 0.489672 7.87499 1.09375 7.87499H24.257L20.42 11.6935C19.9919 12.1196 19.9902 12.8121 20.4164 13.2403C20.8426 13.6685 21.5351 13.67 21.9632 13.244L27.6783 7.55649C27.6786 7.55616 27.6789 7.55578 27.6793 7.55545C28.1076 7.12791 28.1063 6.43316 27.6792 6.00703Z" fill="#4F4F4F"/>
</svg>
