<svg width="28" height="14" viewBox="0 0 28 14" fill="none" xmlns="http://www.w3.org/2000/svg">
<path d="M0.320797 6.00703C0.321125 6.0067 0.321398 6.00632 0.321781 6.00599L6.03684 0.318496C6.46499 -0.107574 7.1575 -0.105988 7.58368 0.322215C8.00981 0.750363 8.00816 1.44287 7.58002 1.86899L3.74292 5.68749H26.9062C27.5103 5.68749 28 6.17716 28 6.78124C28 7.38532 27.5103 7.87499 26.9062 7.87499H3.74298L7.57996 11.6935C8.00811 12.1196 8.00975 12.8121 7.58363 13.2403C7.15745 13.6685 6.46488 13.67 6.03679 13.244L0.321726 7.55649C0.321398 7.55616 0.321125 7.55578 0.320742 7.55545C-0.107626 7.12791 -0.106258 6.43316 0.320797 6.00703Z" fill="#4F4F4F"/>
</svg>
