<svg width="24" height="30" viewBox="0 0 24 30" fill="none" xmlns="http://www.w3.org/2000/svg">
<path d="M15.3923 24.6681C14.9802 24.6681 14.5963 24.4464 14.3903 24.0896L13.6569 22.8194C13.7326 22.6224 13.7745 22.4087 13.7745 22.1853V20.1188C13.7745 19.8813 13.582 19.6887 13.3444 19.6887C13.1067 19.6887 12.9142 19.8813 12.9142 20.1188V22.1853C12.9142 22.6894 12.5042 23.0995 12 23.0995C11.4959 23.0995 11.0859 22.6894 11.0859 22.1853V17.1535C11.0859 16.6495 11.4959 16.2393 12 16.2393C12.5042 16.2393 12.9142 16.6495 12.9142 17.1535V18.2442C12.9142 18.4818 13.1067 18.6744 13.3444 18.6744C13.582 18.6744 13.7745 18.4818 13.7745 18.2442V17.1535C13.7745 16.7319 13.6264 16.3444 13.3799 16.0396V1.37987C13.38 0.618993 12.761 0 12.0001 0C11.2392 0 10.6202 0.618993 10.6202 1.37987V8.33333C10.6202 8.57088 10.8127 8.76346 11.0503 8.76346C11.2879 8.76346 11.4804 8.57088 11.4804 8.33333V1.37987C11.4804 1.09335 11.7135 0.860271 12.0001 0.860271C12.2866 0.860271 12.5197 1.0934 12.5197 1.37987V15.4568C12.3553 15.4063 12.1808 15.379 12.0001 15.379C11.8194 15.379 11.6449 15.4064 11.4804 15.4568V10.208C11.4804 9.97042 11.2879 9.77784 11.0503 9.77784C10.8127 9.77784 10.6202 9.97042 10.6202 10.208V16.0396C10.3737 16.3443 10.2256 16.7319 10.2256 17.1535V22.1853C10.2256 22.4087 10.2675 22.6224 10.3432 22.8194L9.60981 24.0896C9.4038 24.4464 9.01989 24.6681 8.60782 24.6681L2.17609 24.6683C1.89375 24.6683 1.63693 24.8348 1.52171 25.0924L0.0628059 28.3543C-0.0367561 28.577 -0.0170845 28.8322 0.115684 29.0369C0.248338 29.2417 0.47327 29.3639 0.717243 29.3639H2.77455C3.01216 29.3639 3.20469 29.1713 3.20469 28.9338C3.20469 28.6962 3.01216 28.5036 2.77455 28.5036H0.938561L2.26917 25.5285H4.46091V26.1234C4.46091 26.9802 5.1579 27.6771 6.01462 27.6771H17.9856C18.8423 27.6771 19.5393 26.9802 19.5393 26.1234V25.5285H21.731L23.0616 28.5036H4.64914C4.41153 28.5036 4.219 28.6962 4.219 28.9338C4.219 29.1713 4.41153 29.3639 4.64914 29.3639H23.2828C23.5267 29.3639 23.7517 29.2417 23.8843 29.0369C24.017 28.8322 24.0368 28.577 23.9372 28.3544L22.4783 25.0925C22.3631 24.8348 22.1063 24.6683 21.8239 24.6683L15.3923 24.6681ZM18.679 26.1234C18.679 26.5058 18.3679 26.8169 17.9856 26.8169H6.01462C5.63226 26.8169 5.32118 26.5058 5.32118 26.1234V25.5284H8.60793C9.32632 25.5284 9.99572 25.1419 10.3549 24.5197L10.8998 23.5759C11.2025 23.8159 11.5847 23.9597 12.0001 23.9597C12.4155 23.9597 12.7977 23.8159 13.1004 23.5759L13.6453 24.5197C14.0045 25.1419 14.6739 25.5284 15.3923 25.5284H18.679V26.1234Z" fill="white"/>
<path d="M11.5703 22.0354C11.5703 22.2729 11.7629 22.4655 12.0004 22.4655C12.238 22.4655 12.4306 22.2729 12.4306 22.0354C12.4306 21.7978 12.238 21.6052 12.0004 21.6052C11.7629 21.6052 11.5703 21.7978 11.5703 22.0354Z" fill="white"/>
</svg>
