<svg width="26" height="30" viewBox="0 0 26 30" fill="none" xmlns="http://www.w3.org/2000/svg">
<path d="M25.289 15.0454H24.8944C24.8381 14.6443 24.6572 14.2578 24.3506 13.95C24.0871 13.6855 23.7558 13.5051 23.396 13.4266C23.2764 13.1055 23.0893 12.8125 22.8454 12.5677C22.392 12.1126 21.7891 11.8619 21.1478 11.8619C21.0578 11.8619 20.9686 11.8674 20.8804 11.8772C20.5504 10.9397 19.6587 10.2661 18.6127 10.2661C17.6676 10.2661 16.8486 10.8164 16.4561 11.6141C16.1472 10.9753 15.495 10.5337 14.7421 10.5337C13.7 10.5337 12.8508 11.3793 12.8378 12.4237C12.1334 12.5863 11.578 13.143 11.4119 13.8493H7.37035V10.2376C7.37035 10.002 7.17936 9.81107 6.94378 9.81107C6.7082 9.81107 6.51721 10.002 6.51721 10.2376V22.2895H6.28572V4.77003H6.51721V8.30385C6.51721 8.53949 6.7082 8.73042 6.94378 8.73042C7.17936 8.73042 7.37035 8.53949 7.37035 8.30385V0.710951C7.37035 0.318904 7.05144 0 6.6594 0H6.14353C5.75148 0 5.43258 0.318904 5.43258 0.710951V13.8493H5.12835C4.7363 13.8493 4.4174 14.1682 4.4174 14.5603V16.8408C4.4174 17.2329 4.7363 17.5518 5.12835 17.5518H5.43258V22.2895H5.36018C4.96813 22.2895 4.64922 22.6084 4.64922 23.0004V24.4589H3.13057C2.73853 24.4589 2.41962 24.7778 2.41962 25.1698V25.9654H1.24343C0.557784 25.9654 0 26.5232 0 27.2088C0 27.6286 0.209361 28.0002 0.528891 28.2255L0.36196 28.3924C0.195369 28.559 0.195369 28.8291 0.36196 28.9957C0.445226 29.0789 0.554371 29.1206 0.663573 29.1206C0.772719 29.1206 0.881921 29.0789 0.965187 28.9957L1.5087 28.4522H1.75878C1.644 28.6184 1.66027 28.8477 1.80821 28.9957C1.89147 29.0789 2.00067 29.1206 2.10982 29.1206C2.21902 29.1206 2.32817 29.0789 2.41143 28.9957L2.95494 28.4522H3.20497C3.09025 28.6184 3.10652 28.8477 3.25439 28.9956C3.33772 29.0789 3.44686 29.1206 3.55606 29.1206C3.66521 29.1206 3.77441 29.0789 3.85768 28.9957L4.40119 28.4522H4.65121C4.53649 28.6184 4.55276 28.8477 4.70064 28.9956C4.78396 29.0789 4.89311 29.1206 5.00231 29.1206C5.11146 29.1206 5.22066 29.0789 5.30392 28.9957L5.84743 28.4522H6.06714V28.694C6.06714 28.9296 6.25813 29.1206 6.49372 29.1206C6.7293 29.1206 6.92029 28.9296 6.92029 28.694V28.4522H7.14L7.68351 28.9957C7.76683 29.0789 7.87598 29.1206 7.98512 29.1206C8.09427 29.1206 8.20347 29.0789 8.28679 28.9956C8.43467 28.8477 8.45094 28.6184 8.33622 28.4522H8.5863L9.12981 28.9957C9.21308 29.0789 9.32228 29.1206 9.43142 29.1206C9.54057 29.1206 9.64977 29.0789 9.73304 28.9957C9.88097 28.8477 9.89724 28.6184 9.78246 28.4522H10.0325L10.576 28.9957C10.6593 29.0789 10.7685 29.1206 10.8776 29.1206C10.9868 29.1206 11.096 29.0789 11.1792 28.9957C11.3272 28.8477 11.3434 28.6184 11.2287 28.4522H11.4787L12.0222 28.9957C12.1055 29.0789 12.2147 29.1206 12.3238 29.1206C12.433 29.1206 12.5421 29.0789 12.6254 28.9957C12.792 28.829 12.792 28.559 12.6254 28.3924L12.3774 28.1443C12.4915 28.0445 12.5872 27.9243 12.6588 27.7894H17.8913C18.1269 27.7894 18.3179 27.5984 18.3179 27.3628C18.3179 27.1272 18.1269 26.9362 17.8913 26.9362H12.7727C12.648 26.3814 12.1516 25.9654 11.5597 25.9654H10.3834V25.1699C10.3834 24.7778 10.0645 24.4589 9.67241 24.4589H8.15376V23.0005C8.15376 22.6085 7.83485 22.2895 7.44281 22.2895H7.3704V17.5519H23.8834L22.7943 23.4556L17.4769 20.6229C17.427 19.4148 16.429 18.4472 15.2088 18.4472C13.9568 18.4472 12.9382 19.4657 12.9382 20.7177C12.9382 21.9698 13.9568 22.9884 15.2088 22.9884C15.6352 22.9884 16.0342 22.8695 16.3754 22.664L22.353 25.8485L22.1911 26.7261C22.1716 26.8322 22.0465 26.9362 21.9387 26.9362H20.1664C19.9308 26.9362 19.7398 27.1272 19.7398 27.3628C19.7398 27.5984 19.9308 27.7894 20.1664 27.7894H21.9386C22.4567 27.7894 22.9361 27.3903 23.03 26.8808L23.1804 26.0659C23.5628 26.027 23.903 25.8019 24.0862 25.458C24.3869 24.8936 24.1724 24.1899 23.6081 23.8892L23.5842 23.8765L24.7509 17.5519H25.289C25.6811 17.5519 26 17.2329 26 16.8409V15.7564C26 15.3643 25.6811 15.0454 25.289 15.0454ZM6.28578 0.853142H6.51726V3.91689H6.28578V0.853142ZM5.50242 23.1425H7.30067V24.4588H5.50242V23.1425ZM5.27065 14.7025H5.43269V15.5026H5.27065V14.7025ZM5.27065 16.6987V16.3558H5.43269V16.6987H5.27065ZM9.53033 25.312V25.9653H9.53027H9.01867C8.78309 25.9653 8.5921 26.1562 8.5921 26.3919C8.5921 26.6275 8.78309 26.8184 9.01867 26.8184H11.5597C11.7749 26.8184 11.95 26.9935 11.95 27.2087C11.95 27.4239 11.7749 27.599 11.5597 27.599H1.24343C1.02821 27.599 0.853141 27.4239 0.853141 27.2087C0.853141 26.9935 1.02826 26.8184 1.24343 26.8184H6.80051C7.03609 26.8184 7.22708 26.6275 7.22708 26.3919C7.22708 26.1562 7.03609 25.9653 6.80051 25.9653H3.27276V25.312H9.53033ZM15.2088 22.1352C14.4272 22.1352 13.7913 21.4993 13.7913 20.7177C13.7913 19.9362 14.4272 19.3003 15.2088 19.3003C15.7657 19.3003 16.2481 19.6233 16.4797 20.0916L16.0118 19.8423C15.8444 19.7531 15.6561 19.706 15.4672 19.706C15.0374 19.706 14.645 19.9416 14.4431 20.3206C14.2973 20.594 14.2669 20.9077 14.3572 21.204C14.4476 21.5003 14.6479 21.7437 14.9213 21.8893L15.3651 22.1258C15.3137 22.1315 15.2617 22.1352 15.2088 22.1352ZM23.3334 25.0568C23.28 25.157 23.176 25.2193 23.0622 25.2193C23.012 25.2193 22.9638 25.2071 22.9187 25.1831L15.3224 21.1364C15.2501 21.0979 15.1972 21.0335 15.1733 20.9551C15.1494 20.8769 15.1575 20.794 15.196 20.7217C15.2494 20.6214 15.3534 20.5592 15.4672 20.5592C15.5173 20.5592 15.5656 20.5713 15.6106 20.5953L23.207 24.642C23.3561 24.7215 23.4128 24.9076 23.3334 25.0568ZM21.1478 12.7151C21.5606 12.7151 21.9489 12.8766 22.2411 13.1699C22.4442 13.3738 22.5865 13.6295 22.6524 13.9092C22.6959 14.0932 22.8553 14.2268 23.0441 14.2372C23.3092 14.2518 23.5585 14.3637 23.7462 14.5521C23.8871 14.6935 23.9803 14.8646 24.0266 15.0454H22.281C22.0889 14.4031 21.4955 13.9336 20.7944 13.9336H20.5338C20.4556 13.6301 20.2949 13.3601 20.0787 13.147C20.368 12.8684 20.7461 12.7151 21.1478 12.7151ZM18.6128 11.1193C19.2733 11.1193 19.8383 11.5364 20.0615 12.1222C19.8386 12.236 19.6322 12.3851 19.4503 12.5678C19.4037 12.6146 19.3602 12.6632 19.3184 12.7128C19.1828 12.6775 19.0408 12.6586 18.8944 12.6586C18.5392 12.6586 18.1985 12.7719 17.9167 12.9726C17.7126 12.6808 17.431 12.4527 17.1049 12.314C17.2686 11.6295 17.8824 11.1193 18.6128 11.1193ZM13.145 13.2359C13.1537 13.2349 13.2307 13.2288 13.2609 13.2286C13.2731 13.2295 13.3025 13.2303 13.3049 13.2303C13.5493 13.2398 13.7825 13.3335 13.9652 13.4986C14.14 13.6566 14.4097 13.643 14.5677 13.4681C14.7256 13.2934 14.712 13.0237 14.5372 12.8657C14.2952 12.6469 14.0043 12.4964 13.6921 12.4242C13.7046 11.8502 14.1704 11.3869 14.7422 11.3869C15.3219 11.3869 15.7935 11.8628 15.7935 12.4478C15.7935 12.483 15.7917 12.518 15.7881 12.5549C15.7754 12.6822 15.8207 12.8085 15.9112 12.8989C16.0017 12.9893 16.128 13.0344 16.2554 13.0213C16.2917 13.0177 16.3262 13.0159 16.3608 13.0159C16.7992 13.0159 17.1826 13.2874 17.3379 13.6906C17.25 13.8962 17.201 14.1225 17.201 14.3601C17.201 14.5957 17.392 14.7867 17.6276 14.7867C17.8631 14.7867 18.0541 14.5957 18.0541 14.3601C18.0541 14.1962 18.1013 14.0437 18.1815 13.9138C18.186 13.9064 18.2183 13.8579 18.2307 13.8417C18.3886 13.6358 18.6338 13.5116 18.8943 13.5116C19.3576 13.5116 19.7345 13.8922 19.7345 14.36C19.7345 14.5957 19.9255 14.7866 20.1611 14.7866H20.7944C21.0117 14.7866 21.2056 14.8876 21.3338 15.0453H15.4141V14.5603C15.4141 14.1682 15.0952 13.8493 14.7032 13.8493H12.3103C12.4602 13.5188 12.7727 13.2786 13.145 13.2359ZM7.37046 14.7025H14.561V15.5026H7.37046V14.7025ZM25.1469 16.6987H7.37046V16.3558H14.7033C15.0058 16.3558 15.2641 16.1655 15.3666 15.8986H25.1469V16.6987Z" fill="white"/>
</svg>
