<svg width="30" height="30" viewBox="0 0 30 30" fill="none" xmlns="http://www.w3.org/2000/svg">
<path d="M27.5768 26.6035H26.6094V27.5709H27.5768V26.6035Z" fill="white"/>
<path d="M17.901 27.0872H16.9336V28.0546H17.901V27.0872Z" fill="white"/>
<path d="M29.9604 26.6238C29.8931 26.217 29.7399 25.8291 29.5109 25.4861V16.9295C29.5074 14.74 28.1641 12.7758 26.125 11.9783V10.1577C26.125 9.89056 25.9084 9.67399 25.6413 9.67399H22.9394L24.3905 8.22289H27.5761C27.7044 8.22289 27.8274 8.17186 27.9181 8.08117L29.8529 6.14637C29.9436 6.05567 29.9946 5.93269 29.9946 5.80439V3.3859C29.9946 3.25759 29.9436 3.13461 29.8529 3.04392L27.9181 1.10912C27.8274 1.01843 27.7044 0.967399 27.5761 0.967399H25.6413V0.483699C25.6413 0.216576 25.4247 0 25.1576 0H18.3858C18.2575 0 18.1345 0.0510303 18.0439 0.141724L14.1743 4.01132L4.61007 13.5755L1.86024 14.0341V14.0423C1.7612 14.0556 1.66894 14.1 1.59662 14.169L0.145524 15.6201C-0.0432998 15.809 -0.0432998 16.1152 0.145524 16.3041L4.49882 20.6573C4.6877 20.8462 4.99389 20.8462 5.18277 20.6573L6.63387 19.2062C6.70316 19.1339 6.74754 19.0414 6.7606 18.9421H6.76882L7.22737 16.1928L16.793 6.63007L20.5209 2.9022H25.1576C25.4247 2.9022 25.6413 2.68562 25.6413 2.4185V1.9348H27.3759L29.0272 3.58615V5.60414L27.3759 7.25549H24.1902C24.0619 7.25549 23.9389 7.30652 23.8482 7.39721L21.5715 9.67399H18.8695C18.6024 9.67399 18.3858 9.89056 18.3858 10.1577V11.9783C16.3467 12.7758 15.0035 14.74 14.9999 16.9295V27.5709C14.9999 28.9065 16.0828 29.9894 17.4184 29.9894C18.7541 29.9894 19.8369 28.9065 19.8369 27.5709H24.2338C24.4953 29.1522 25.9892 30.2221 27.5706 29.9606C29.1519 29.6991 30.2219 28.2052 29.9604 26.6238ZM4.84225 19.6314L1.1729 15.9621L1.94005 15.1949L5.60939 18.8643L4.84225 19.6314ZM6.43507 15.6201C6.36378 15.6914 6.31662 15.7833 6.30011 15.8828L5.97072 17.8577L2.94663 14.8336L4.92206 14.5042C5.02133 14.4876 5.113 14.4404 5.18422 14.3693L14.5162 5.03724L15.7671 6.28809L6.43507 15.6201ZM16.451 5.60414L15.2002 4.35329L18.3858 1.16765L19.6367 2.4185L16.451 5.60414ZM24.6739 1.9348H20.5209L19.5535 0.967399H24.6739V1.9348ZM19.3532 10.6414H25.1576V11.7012C24.8387 11.6409 24.5148 11.61 24.1902 11.6088H20.3206C19.996 11.61 19.6722 11.6409 19.3532 11.7012V10.6414ZM20.3206 12.5762H24.1902C26.4063 12.5788 28.2678 14.2437 28.5169 16.4458H15.9939C16.243 14.2437 18.1045 12.5788 20.3206 12.5762ZM15.9673 17.4132H28.5435V18.3806H15.9673V17.4132ZM28.5435 19.348V21.2828H25.6413V19.348H28.5435ZM15.9673 19.348H24.6739V20.3154H15.9673V19.348ZM15.9673 21.2828H24.6739V21.7665C24.6739 22.0336 24.8905 22.2502 25.1576 22.2502H28.5435V24.5777C28.2446 24.4043 27.9169 24.2861 27.5761 24.2285V23.7013C27.5761 23.4341 27.3595 23.2176 27.0924 23.2176H17.4184C17.1513 23.2176 16.9347 23.4341 16.9347 23.7013V25.2007C16.5828 25.2753 16.2521 25.4283 15.9673 25.6482V21.2828ZM17.4184 29.022C16.617 29.022 15.9673 28.3723 15.9673 27.5709C15.9673 26.7694 16.617 26.1198 17.4184 26.1198C18.2199 26.1198 18.8695 26.7694 18.8695 27.5709C18.8695 28.3723 18.2199 29.022 17.4184 29.022ZM24.2338 26.6035H19.6318C19.3167 25.8832 18.672 25.3603 17.9021 25.2007V24.185H26.6087V24.2285C25.3934 24.4362 24.4414 25.3882 24.2338 26.6035ZM27.0924 29.022C26.0239 29.022 25.1576 28.1557 25.1576 27.0872C25.1576 26.0186 26.0239 25.1524 27.0924 25.1524C28.161 25.1524 29.0272 26.0186 29.0272 27.0872C29.0272 28.1557 28.161 29.022 27.0924 29.022Z" fill="white"/>
<path d="M1.9387 26.1199C0.870151 26.1199 0.00390625 26.9861 0.00390625 28.0547C0.00390625 29.1232 0.870151 29.9895 1.9387 29.9895C3.00726 29.9895 3.8735 29.1232 3.8735 28.0547C3.8735 26.9861 3.00726 26.1199 1.9387 26.1199ZM1.9387 29.0221C1.4044 29.0221 0.971305 28.589 0.971305 28.0547C0.971305 27.5204 1.4044 27.0873 1.9387 27.0873C2.47301 27.0873 2.9061 27.5204 2.9061 28.0547C2.9061 28.589 2.47301 29.0221 1.9387 29.0221Z" fill="white"/>
<path d="M8.70891 23.7012C7.90748 23.7012 7.25781 24.3508 7.25781 25.1523C7.25781 25.9537 7.90748 26.6034 8.70891 26.6034C9.51034 26.6034 10.16 25.9537 10.16 25.1523C10.16 24.3508 9.51034 23.7012 8.70891 23.7012ZM8.70891 25.636C8.44179 25.636 8.22521 25.4194 8.22521 25.1523C8.22521 24.8851 8.44179 24.6686 8.70891 24.6686C8.97604 24.6686 9.19261 24.8851 9.19261 25.1523C9.19261 25.4194 8.97604 25.636 8.70891 25.636Z" fill="white"/>
<path d="M9.19261 18.3804C8.12406 18.3804 7.25781 19.2466 7.25781 20.3152C7.25781 21.3837 8.12406 22.25 9.19261 22.25C10.2612 22.25 11.1274 21.3837 11.1274 20.3152C11.1274 19.2466 10.2612 18.3804 9.19261 18.3804ZM9.19261 21.2826C8.6583 21.2826 8.22521 20.8495 8.22521 20.3152C8.22521 19.7809 8.6583 19.3478 9.19261 19.3478C9.72691 19.3478 10.16 19.7809 10.16 20.3152C10.16 20.8495 9.72691 21.2826 9.19261 21.2826Z" fill="white"/>
</svg>
