<svg width="26" height="26" viewBox="0 0 26 26" fill="none" xmlns="http://www.w3.org/2000/svg">
<path d="M3.25 21.8215H4.17857V23.6787H3.25V21.8215Z" fill="white"/>
<path d="M10.593 2.78564H10.2137V3.71422H10.678C11.555 3.71422 12.4098 3.99016 13.1213 4.50295C13.8327 5.01575 14.3648 5.7394 14.6422 6.57141C14.9195 7.40341 14.928 8.30158 14.6665 9.1387C14.405 9.97582 13.8868 10.7094 13.1852 11.2356L11.6994 12.3499C10.9515 12.9137 10.3442 13.643 9.92537 14.4807C9.50649 15.3185 9.28736 16.2419 9.28516 17.1785C9.28666 18.4522 9.76342 19.6795 10.6221 20.6202C11.4809 21.561 12.6597 22.1474 13.928 22.2647V21.3315C12.907 21.2159 11.9642 20.7288 11.2793 19.963C10.5943 19.1971 10.215 18.206 10.2137 17.1785V16.7142C10.2153 16.0658 10.367 15.4265 10.657 14.8466C10.947 14.2666 11.3674 13.7617 11.8852 13.3714L13.8103 11.9275C14.4221 11.4664 14.9188 10.8698 15.2615 10.1845C15.6041 9.49927 15.7833 8.74396 15.7852 7.97781C15.7836 6.60125 15.2361 5.28151 14.2627 4.30813C13.2893 3.33475 11.9696 2.78721 10.593 2.78564Z" fill="white"/>
<path d="M0.656558 24.6072L0 25.2637V26H7.42857V25.2637L6.77201 24.6072H0.656558Z" fill="white"/>
<path d="M14.8555 20.893V22.7501V23.2144H15.784V20.4287H14.8555V20.893Z" fill="white"/>
<path d="M3.25 7.42847H4.17857V20.8927H3.25V7.42847Z" fill="white"/>
<path d="M4.64286 4.1785C4.64286 4.05536 4.69177 3.93727 4.77884 3.8502C4.86591 3.76313 4.98401 3.71422 5.10714 3.71422H9.28571V2.78564H4.29464C4.01769 2.78597 3.75216 2.89613 3.55632 3.09197C3.36049 3.28781 3.25032 3.55333 3.25 3.83029V6.49993H4.64286V4.1785Z" fill="white"/>
<path d="M5.5731 0.928571C5.5731 0.805435 5.62202 0.687342 5.70909 0.600272C5.79616 0.513201 5.91425 0.464286 6.03739 0.464286H7.89453C8.01767 0.464286 8.13576 0.513201 8.22283 0.600272C8.3099 0.687342 8.35882 0.805435 8.35882 0.928571V1.85714H9.28739V0.580357C9.28722 0.426489 9.22602 0.278971 9.11722 0.170169C9.00842 0.0613678 8.8609 0.000168977 8.70703 0H5.22489C5.07102 0.000168977 4.9235 0.0613678 4.8147 0.170169C4.7059 0.278971 4.6447 0.426489 4.64453 0.580357V1.85714H5.5731V0.928571Z" fill="white"/>
<path d="M20.8917 21.3569C20.4326 21.3569 19.9838 21.4931 19.602 21.7482C19.2203 22.0032 18.9227 22.3658 18.747 22.79C18.5713 23.2142 18.5253 23.6809 18.6149 24.1313C18.7045 24.5816 18.9256 24.9952 19.2502 25.3199C19.5749 25.6445 19.9885 25.8656 20.4389 25.9552C20.8892 26.0448 21.3559 25.9988 21.7801 25.8231C22.2043 25.6474 22.5669 25.3498 22.8219 24.9681C23.077 24.5863 23.2132 24.1375 23.2132 23.6784C23.2125 23.0629 22.9677 22.4728 22.5325 22.0376C22.0973 21.6024 21.5072 21.3576 20.8917 21.3569ZM20.8917 25.0712C20.6163 25.0712 20.347 24.9895 20.1179 24.8365C19.8889 24.6834 19.7103 24.4659 19.6049 24.2114C19.4995 23.9569 19.4719 23.6768 19.5256 23.4066C19.5794 23.1364 19.7121 22.8883 19.9068 22.6935C20.1016 22.4987 20.3498 22.366 20.62 22.3123C20.8902 22.2585 21.1703 22.2861 21.4248 22.3915C21.6793 22.497 21.8968 22.6755 22.0499 22.9045C22.2029 23.1336 22.2846 23.4029 22.2846 23.6784C22.2842 24.0476 22.1373 24.4017 21.8762 24.6628C21.6151 24.9239 21.261 25.0708 20.8917 25.0712Z" fill="white"/>
<path d="M16.7148 19.9643V24.1429H17.6771C17.6105 23.6851 17.6424 23.2184 17.7706 22.774C17.8989 22.3295 18.1205 21.9176 18.4207 21.5657C18.7209 21.2137 19.0928 20.93 19.5114 20.7333C19.9301 20.5366 20.386 20.4316 20.8485 20.4252C21.311 20.4188 21.7696 20.5113 22.1935 20.6963C22.6174 20.8814 22.997 21.1548 23.3068 21.4983C23.6166 21.8418 23.8495 22.2475 23.9899 22.6883C24.1303 23.129 24.175 23.5946 24.1211 24.0541C24.3998 23.9514 24.6403 23.7658 24.8103 23.5223C24.9803 23.2787 25.0716 22.989 25.072 22.692V19.5H16.7148V19.9643Z" fill="white"/>
<path d="M23.6211 13.4644H22.6116C21.7132 13.4616 20.8261 13.6654 20.0191 14.0601C19.212 14.4549 18.5065 15.03 17.9572 15.7409C17.3197 16.5638 16.91 17.5401 16.7695 18.5715H25.0719V14.9153C25.0715 14.5306 24.9185 14.1618 24.6465 13.8898C24.3745 13.6178 24.0057 13.4648 23.6211 13.4644ZM20.4291 17.1787C20.4291 17.3018 20.3802 17.4199 20.2931 17.507C20.206 17.594 20.0879 17.643 19.9648 17.643C19.8417 17.643 19.7236 17.594 19.6365 17.507C19.5494 17.4199 19.5005 17.3018 19.5005 17.1787V16.2501C19.5005 16.127 19.5494 16.0089 19.6365 15.9218C19.7236 15.8347 19.8417 15.7858 19.9648 15.7858C20.0879 15.7858 20.206 15.8347 20.2931 15.9218C20.3802 16.0089 20.4291 16.127 20.4291 16.2501V17.1787ZM22.2862 17.1787C22.2862 17.3018 22.2373 17.4199 22.1502 17.507C22.0632 17.594 21.9451 17.643 21.8219 17.643C21.6988 17.643 21.5807 17.594 21.4936 17.507C21.4066 17.4199 21.3577 17.3018 21.3577 17.1787V16.2501C21.3577 16.127 21.4066 16.0089 21.4936 15.9218C21.5807 15.8347 21.6988 15.7858 21.8219 15.7858C21.9451 15.7858 22.0632 15.8347 22.1502 15.9218C22.2373 16.0089 22.2862 16.127 22.2862 16.2501V17.1787ZM24.1434 17.1787C24.1434 17.3018 24.0945 17.4199 24.0074 17.507C23.9203 17.594 23.8022 17.643 23.6791 17.643C23.556 17.643 23.4379 17.594 23.3508 17.507C23.2637 17.4199 23.2148 17.3018 23.2148 17.1787V16.2501C23.2148 16.127 23.2637 16.0089 23.3508 15.9218C23.4379 15.8347 23.556 15.7858 23.6791 15.7858C23.8022 15.7858 23.9203 15.8347 24.0074 15.9218C24.0945 16.0089 24.1434 16.127 24.1434 16.2501V17.1787Z" fill="white"/>
<path d="M20.894 24.1429C21.1504 24.1429 21.3583 23.9351 21.3583 23.6786C21.3583 23.4222 21.1504 23.2144 20.894 23.2144C20.6376 23.2144 20.4297 23.4222 20.4297 23.6786C20.4297 23.9351 20.6376 24.1429 20.894 24.1429Z" fill="white"/>
</svg>
