<svg width="28" height="29" viewBox="0 0 28 29" fill="none" xmlns="http://www.w3.org/2000/svg">
<path d="M23.2997 19.8329V17.4159C23.2997 17.1809 23.1091 16.9903 22.874 16.9903C22.6389 16.9903 22.4483 17.1809 22.4483 17.4159V19.8329C20.1142 20.0485 18.2802 22.0168 18.2802 24.4063C18.2802 25.9489 19.0453 27.3153 20.2151 28.1487H16.1156C15.0392 28.1487 14.0276 27.6737 13.3402 26.8454C12.6527 26.0172 12.3721 24.9354 12.5704 23.8774L13.3743 19.588H17.86C18.7205 19.588 19.4207 18.8878 19.4207 18.0273V12.3965C19.9963 12.2604 20.5946 12.1883 21.2072 12.1883C21.8916 12.1883 22.4484 12.7452 22.4484 13.4295V15.7134C22.4484 15.9485 22.639 16.1391 22.8741 16.1391C23.1091 16.1391 23.2997 15.9485 23.2997 15.7134V13.4295C23.2997 12.5769 22.7869 11.8424 22.0538 11.5166V9.25887C22.0538 9.02381 21.8632 8.83322 21.6281 8.83322H21.6217V3.11314C21.6216 1.39653 20.2251 0 18.5085 0C17.282 0 16.1663 0.723584 15.666 1.84354L13.2463 7.2607C13.1504 7.47532 13.2467 7.72703 13.4613 7.82292C13.676 7.91893 13.9277 7.82252 14.0236 7.60791L16.4432 2.19075C16.8067 1.37705 17.6174 0.851309 18.5085 0.851309C19.7557 0.851309 20.7704 1.86597 20.7704 3.11314V8.83328H19.9191V3.11314C19.9191 2.33535 19.2863 1.70256 18.5085 1.70256C17.9528 1.70256 17.4473 2.0304 17.2205 2.5379L7.50037 24.2989H6.56807L13.329 9.16275C13.4249 8.94814 13.3286 8.69643 13.114 8.60054C12.8992 8.50448 12.6476 8.60094 12.5518 8.81555L5.63576 24.2989H5.40625C4.85865 24.2989 4.41312 24.7445 4.41312 25.2921V26.1817H2.96867C1.57825 26.1817 0.363143 27.1216 0.0136701 28.4674C-0.0194647 28.5949 0.0084025 28.7305 0.0889455 28.8347C0.169545 28.9389 0.293871 28.9999 0.425617 28.9999H7.11929C7.35435 28.9999 7.54495 28.8094 7.54495 28.5743C7.54495 28.3392 7.35435 28.1486 7.11929 28.1486H1.0532C1.43699 27.4717 2.16194 27.0329 2.96867 27.0329H10.1853C10.7942 27.0329 11.3264 27.4445 11.4795 28.034L11.5093 28.1486H8.82191C8.58685 28.1486 8.39626 28.3392 8.39626 28.5743C8.39626 28.8093 8.58685 28.9999 8.82191 28.9999H12.0595C12.1913 28.9999 12.3156 28.9389 12.3962 28.8347C12.4768 28.7305 12.5046 28.5949 12.4715 28.4673L12.3034 27.8201C12.0529 26.8554 11.1819 26.1816 10.1852 26.1816H9.24751V25.292C9.24751 24.8029 8.89175 24.3962 8.4256 24.3147L17.9977 2.88505C18.0876 2.6838 18.2881 2.55381 18.5085 2.55381C18.8169 2.55381 19.0677 2.80473 19.0677 3.11314V8.83328H18.995C18.7599 8.83328 18.5693 9.02381 18.5693 9.25893V11.7504C15.6253 12.6982 13.3318 15.1936 12.737 18.3671L11.7337 23.7206C11.4886 25.0282 11.8354 26.3654 12.6851 27.3891C13.5349 28.4129 14.7852 29 16.1156 29H22.874C25.407 29 27.4678 26.9392 27.4678 24.4062C27.4678 22.0168 25.6338 20.0485 23.2997 19.8329ZM5.26431 26.1817V25.2921C5.26431 25.2139 5.32798 25.1503 5.4062 25.1503H8.25437C8.33259 25.1503 8.39626 25.2139 8.39626 25.2921V26.1817H5.26431ZM19.4207 9.68453H21.2025V11.3371C20.5936 11.3374 19.9974 11.402 19.4207 11.5241V9.68453ZM18.5694 12.6499V18.0272C18.5694 18.4184 18.2512 18.7366 17.8599 18.7366H13.5338L13.5737 18.5239C14.0922 15.7582 16.0421 13.5641 18.5694 12.6499ZM22.874 28.1487C20.8104 28.1487 19.1315 26.4699 19.1315 24.4063C19.1315 22.3427 20.8104 20.6638 22.874 20.6638C24.9376 20.6638 26.6165 22.3427 26.6165 24.4063C26.6165 26.4699 24.9376 28.1487 22.874 28.1487Z" fill="white"/>
<path d="M22.8727 22.4946C21.8185 22.4946 20.9609 23.3523 20.9609 24.4064C20.9609 25.4606 21.8186 26.3182 22.8727 26.3182C23.9269 26.3182 24.7845 25.4606 24.7845 24.4064C24.7845 23.3523 23.9269 22.4946 22.8727 22.4946ZM22.8727 25.467C22.288 25.467 21.8122 24.9912 21.8122 24.4064C21.8122 23.8217 22.288 23.3459 22.8727 23.3459C23.4575 23.3459 23.9333 23.8217 23.9333 24.4064C23.9333 24.9912 23.4575 25.467 22.8727 25.467Z" fill="white"/>
</svg>
