<svg width="15" height="30" viewBox="0 0 15 30" fill="none" xmlns="http://www.w3.org/2000/svg">
<path d="M14.5653 0.452313C14.3577 0.236433 14.0933 0.0894074 13.8055 0.0298289C13.5177 -0.0297496 13.2193 0.000795264 12.9481 0.117601C12.677 0.234406 12.4452 0.432225 12.2822 0.686042C12.1191 0.939858 12.032 1.23827 12.032 1.54354V4.83594H2.96795V1.54354C2.96795 1.13417 2.8116 0.741562 2.5333 0.452092C2.255 0.162623 1.87755 0 1.48398 0C1.0904 0 0.712946 0.162623 0.434646 0.452092C0.156347 0.741562 1.17294e-08 1.13417 0 1.54354V4.29123C0 4.38733 0.0367013 4.47949 0.10203 4.54744C0.167358 4.61539 0.255963 4.65357 0.348351 4.65357C0.44074 4.65357 0.529344 4.61539 0.594672 4.54744C0.660001 4.47949 0.696702 4.38733 0.696702 4.29123V1.54354C0.696702 1.32636 0.779646 1.11808 0.927289 0.964509C1.07493 0.810941 1.27518 0.724667 1.48398 0.724667C1.69277 0.724667 1.89302 0.810941 2.04066 0.964509C2.1883 1.11808 2.27125 1.32636 2.27125 1.54354V28.4565C2.27125 28.564 2.25089 28.6705 2.21132 28.7698C2.17176 28.8692 2.11377 28.9594 2.04066 29.0355C1.96756 29.1115 1.88077 29.1718 1.78525 29.213C1.68974 29.2542 1.58736 29.2753 1.48398 29.2753C1.38059 29.2753 1.27822 29.2542 1.1827 29.213C1.08718 29.1718 1.00039 29.1115 0.927289 29.0355C0.854184 28.9594 0.796194 28.8692 0.756629 28.7698C0.717065 28.6705 0.696702 28.564 0.696702 28.4565V5.72004C0.696702 5.62394 0.660001 5.53178 0.594672 5.46383C0.529344 5.39588 0.44074 5.3577 0.348351 5.3577C0.255963 5.3577 0.167358 5.39588 0.10203 5.46383C0.0367013 5.53178 0 5.62394 0 5.72004V28.4565C-5.80783e-09 28.6592 0.0383842 28.8599 0.112961 29.0471C0.187538 29.2344 0.296846 29.4046 0.434646 29.5479C0.572446 29.6912 0.736039 29.8049 0.916083 29.8825C1.09613 29.9601 1.2891 30 1.48398 30C1.67885 30 1.87182 29.9601 2.05187 29.8825C2.23191 29.8049 2.3955 29.6912 2.5333 29.5479C2.6711 29.4046 2.78041 29.2344 2.85499 29.0471C2.92957 28.8599 2.96795 28.6592 2.96795 28.4565V25.1641H12.032V28.4565C12.032 28.8658 12.1884 29.2584 12.4667 29.5479C12.745 29.8374 13.1224 30 13.516 30C13.9096 30 14.2871 29.8374 14.5653 29.5479C14.8436 29.2584 15 28.8658 15 28.4565V1.54354C15.0005 1.34079 14.9623 1.13994 14.8877 0.952634C14.8131 0.765325 14.7035 0.59527 14.5653 0.452313ZM12.032 24.4394H2.96795V23.44H12.032V24.4394ZM12.032 22.7153H2.96795V18.7785H12.032V22.7153ZM12.032 16.3298H10.2674C10.175 16.3298 10.0864 16.3679 10.0211 16.4359C9.95576 16.5038 9.91906 16.596 9.91906 16.6921C9.91906 16.7882 9.95576 16.8804 10.0211 16.9483C10.0864 17.0163 10.175 17.0544 10.2674 17.0544H12.032V18.0539H2.96795V17.0544H8.75801C8.8504 17.0544 8.939 17.0163 9.00433 16.9483C9.06966 16.8804 9.10636 16.7882 9.10636 16.6921C9.10636 16.596 9.06966 16.5038 9.00433 16.4359C8.939 16.3679 8.8504 16.3298 8.75801 16.3298H2.96795V13.0313H12.032V16.3298ZM12.032 12.3067H2.96795V11.3078H12.032V12.3067ZM12.032 10.5832H2.96795V7.28471H12.032V10.5832ZM12.032 6.56005H2.96795V5.56061H12.032V6.56005ZM14.3033 28.4565C14.3033 28.6736 14.2203 28.8819 14.0727 29.0355C13.9251 29.1891 13.7248 29.2753 13.516 29.2753C13.3072 29.2753 13.107 29.1891 12.9593 29.0355C12.8117 28.8819 12.7287 28.6736 12.7287 28.4565V1.54354C12.7287 1.32636 12.8117 1.11808 12.9593 0.964509C13.107 0.810941 13.3072 0.724667 13.516 0.724667C13.7248 0.724667 13.9251 0.810941 14.0727 0.964509C14.2203 1.11808 14.3033 1.32636 14.3033 1.54354V28.4565Z" fill="white"/>
</svg>
