<svg width="30" height="30" viewBox="0 0 30 30" fill="none" xmlns="http://www.w3.org/2000/svg">
<path d="M9.58906 20.4512C9.32188 20.6255 9.05516 20.8135 8.79688 21.0099L9.36453 21.7562C9.605 21.5734 9.85297 21.3985 10.1014 21.2363L9.58906 20.4512Z" fill="white"/>
<path d="M5.25391 25.0829L6.07094 25.5423C6.76234 24.3137 7.64922 23.2206 8.70765 22.2934L8.08984 21.5884C6.95125 22.5859 5.99734 23.7615 5.25391 25.0829Z" fill="white"/>
<path d="M16.6136 18.75C13.4781 18.75 10.7655 20.768 9.86453 23.7713L9.68359 24.375H21.3456L22.563 22.5487L20.935 18.75H16.6136ZM14.6186 23.4375C14.8127 22.8933 15.3283 22.5 15.9386 22.5H16.8761C17.4864 22.5 18.002 22.8933 18.1961 23.4375H14.6186ZM20.8441 23.4375H19.1725C18.9545 22.3692 18.0081 21.5625 16.8761 21.5625H15.9386C14.807 21.5625 13.8602 22.3692 13.6422 23.4375H10.9773C11.9191 21.1702 14.1109 19.6875 16.6136 19.6875H20.3167L21.5013 22.4513L20.8441 23.4375Z" fill="white"/>
<path d="M26.9941 12.6562L24.61 15.0403L23.9069 14.3372L21.8378 16.4062H16.9164C14.7489 16.4062 12.6723 16.8633 10.7819 17.6892V15.9375H7.96938V19.2905C5.38516 21.157 3.38828 23.8341 2.36641 27.0455L2.17188 27.6562H3.28188V29.5312H22.9694V27.3436L25.8508 23.5017L23.7592 18.6225L25.9759 16.4062L25.2728 15.7031L27.3822 13.5938H29.5319V12.6562H26.9941ZM8.90688 16.875H9.84438V18.1327C9.52563 18.2986 9.2125 18.4744 8.90688 18.6623V16.875ZM4.21938 28.5938V27.6562H22.0319V28.5938H4.21938ZM22.2663 26.7188H3.46938C5.53984 21.0848 10.8648 17.3438 16.9169 17.3438H22.1913L24.7755 23.3728L22.2663 26.7188ZM23.3617 17.6948L22.9155 16.6542L23.9069 15.6628L24.6503 16.4062L23.3617 17.6948Z" fill="white"/>
<path d="M3.7606 8.67469C3.75779 8.70984 3.75685 8.745 3.75545 8.78063C3.75357 8.82281 3.74889 8.86406 3.74889 8.90625H3.75545C3.75545 9.10359 3.76998 9.30281 3.81264 9.5025C4.03951 10.5628 4.86123 11.4033 5.9056 11.6433C6.36123 11.7473 6.82201 11.7427 7.26076 11.6302C7.72435 12.5194 7.96763 13.5108 7.96763 14.5312L8.90513 14.5148C8.90513 13.2141 8.55123 11.9367 7.88185 10.8211L7.67185 10.4709L7.29638 10.6313C6.92748 10.7883 6.5192 10.823 6.11607 10.7297C5.43498 10.5731 4.8781 10.0013 4.72951 9.30656C4.69998 9.16922 4.68639 9.03188 4.68732 8.89594C4.68732 8.88188 4.69107 8.86828 4.69154 8.85422C4.69529 8.73234 4.70795 8.61141 4.73514 8.49375C4.73748 8.48344 4.7417 8.47406 4.74451 8.46422C4.8092 8.20875 4.92685 7.96594 5.10029 7.7475L5.14763 7.68797C5.49217 7.28953 5.99467 7.03125 6.56138 7.03125V6.09375C5.7392 6.09375 5.00092 6.45047 4.48623 7.01437C4.39201 7.02469 4.30201 7.03125 4.21764 7.03125C3.37482 7.03125 2.58357 6.65766 2.04639 6.00656C1.50967 5.35547 1.29592 4.49672 1.46045 3.65016C1.67232 2.55797 2.54889 1.67906 3.64154 1.46344C4.6231 1.26937 5.60513 1.59469 6.26935 2.30953C6.15685 2.61281 6.09263 2.93906 6.09263 3.28125H7.03013C7.03013 3.03328 7.08076 2.79797 7.16888 2.58094L7.24013 2.44031C7.36763 2.18906 7.54388 1.98094 7.74966 1.81594C7.77216 1.79813 7.79232 1.77797 7.81576 1.76156C7.8617 1.72828 7.91091 1.70062 7.95966 1.67156C8.00795 1.64297 8.05716 1.61531 8.10826 1.59094C8.15279 1.56984 8.19826 1.55016 8.24466 1.53281C8.30841 1.50844 8.37404 1.48922 8.4406 1.47188C8.48092 1.46156 8.51982 1.44891 8.56107 1.44141C8.66842 1.42125 8.7781 1.40906 8.89107 1.40812C8.98576 1.40719 9.08185 1.41234 9.17841 1.42594C9.87076 1.52344 10.4619 2.025 10.685 2.70375C10.8392 3.17297 10.8059 3.64125 10.5865 4.09406L10.1647 4.96453L11.1092 4.75594C11.7368 4.61766 12.3293 4.6875 12.9195 4.97156C13.7792 5.385 14.3867 6.20813 14.5053 7.11984C14.6126 7.94391 14.3736 8.73797 13.8317 9.35484C13.2664 9.99891 12.4193 10.3402 11.5765 10.3022C10.5514 10.2497 9.61904 9.63891 9.1756 8.70563L8.32857 9.10781C8.79826 10.0964 9.67951 10.8164 10.7065 11.1066C10.1431 12.1528 9.84263 13.3233 9.84263 14.5148V14.5312L10.7801 14.5148C10.7801 13.3837 11.0876 12.2733 11.6693 11.3034L11.7017 11.25C11.7045 11.25 11.7078 11.2495 11.7106 11.2495C11.7129 11.2495 11.7153 11.25 11.7176 11.25V11.2491C12.7854 11.2434 13.8237 10.7845 14.5362 9.97359C15.2478 9.16313 15.5754 8.07891 15.4348 6.99891C15.2759 5.77688 14.4678 4.67578 13.3254 4.12641C12.7911 3.86953 12.237 3.73734 11.6754 3.75047C11.7537 3.30703 11.7209 2.85375 11.5751 2.41031C11.2414 1.395 10.3517 0.644062 9.30873 0.496875C9.17373 0.478125 9.03873 0.471562 8.90513 0.472031V0.46875C8.04591 0.46875 7.27623 0.857344 6.76013 1.46672C5.88451 0.655313 4.66998 0.304687 3.46014 0.54375C1.99764 0.8325 0.823887 2.00906 0.540294 3.47156C0.322325 4.59422 0.607794 5.73563 1.32311 6.60281C1.97467 7.39313 2.90748 7.87641 3.91717 7.95656C3.83514 8.18438 3.78123 8.42484 3.7606 8.67469Z" fill="white"/>
<path d="M11.7188 8.4375V9.375C12.7528 9.375 13.5938 8.53406 13.5938 7.5C13.5938 6.46594 12.7528 5.625 11.7188 5.625V6.5625C12.2358 6.5625 12.6562 6.98297 12.6562 7.5C12.6562 8.01703 12.2358 8.4375 11.7188 8.4375Z" fill="white"/>
<path d="M4.21875 3.28125V2.34375C3.18469 2.34375 2.34375 3.18469 2.34375 4.21875C2.34375 5.25281 3.18469 6.09375 4.21875 6.09375V5.15625C3.70172 5.15625 3.28125 4.73578 3.28125 4.21875C3.28125 3.70172 3.70172 3.28125 4.21875 3.28125Z" fill="white"/>
</svg>
