<svg width="20" height="29" viewBox="0 0 20 29" fill="none" xmlns="http://www.w3.org/2000/svg">
<path d="M17.7777 24.4699H17.3321C17.3321 24.4694 17.3321 24.4694 17.3321 24.469V23.109C17.3321 22.3598 16.7335 21.75 15.998 21.75H15.1058V18.1205C15.1058 17.3712 14.5072 16.7614 13.7717 16.7614H8.45504C8.45104 16.7614 8.44792 16.7637 8.44436 16.7637C8.44214 16.7637 8.43992 16.7623 8.43769 16.7623C7.70213 16.7623 7.10353 17.3721 7.10353 18.1214V18.5807H4.88259V4.53102H5.77115C6.01708 4.53102 6.21587 4.32853 6.21587 4.07801V0.453012C6.21587 0.202496 6.01708 0 5.77115 0H1.32393C1.078 0 0.879214 0.202496 0.879214 0.453012V4.07801C0.879214 4.32853 1.078 4.53102 1.32393 4.53102H2.22538V6.75576C2.22227 6.77706 2.21338 6.79563 2.21338 6.81737C2.21338 6.83912 2.22272 6.85769 2.22538 6.87898V22.0164C0.922352 22.555 0 23.857 0 25.375C0 27.3737 1.59655 29 3.55866 29C4.87236 29 6.0193 28.2693 6.63613 27.187H7.59495C7.8013 28.2195 8.69964 28.9991 9.77319 28.9991H17.7773C19.0029 28.9991 20 27.983 20 26.734C20.0004 25.4855 19.0034 24.4699 17.7777 24.4699ZM13.3203 21.75V19.4868H14.2168V21.75H13.3203ZM11.5525 21.75V19.4868H12.4308V21.75H11.5525ZM9.7852 21.75V19.4868H10.6635V21.75H9.7852ZM7.99297 21.75V19.4868H8.89531V21.75H7.99297ZM7.99297 18.1214C7.99297 17.8713 8.19221 17.6684 8.43769 17.6684C8.4417 17.6684 8.44481 17.6661 8.44837 17.6661C8.45059 17.6661 8.45282 17.6675 8.45504 17.6675H13.7717C14.0172 17.6675 14.2164 17.8704 14.2164 18.1205V18.5807H7.99297V18.1214ZM7.10353 19.4868V21.75H4.88259V19.4868H7.10353ZM1.76866 0.906023H3.54754H5.32643V3.625H1.76866V0.906023ZM3.99315 4.53102V6.36436H3.11483V4.53102H3.99315ZM3.11527 7.27038H3.9936V21.7794C3.85129 21.7618 3.70631 21.75 3.5591 21.75C3.40834 21.75 3.26114 21.7627 3.11527 21.7813V7.27038ZM3.5591 28.094C2.08708 28.094 0.889887 26.8745 0.889887 25.375C0.889887 23.8755 2.08708 22.656 3.5591 22.656C5.03113 22.656 6.22832 23.8755 6.22832 25.375C6.22832 26.8745 5.03069 28.094 3.5591 28.094ZM5.90456 22.656H9.33158C9.3347 22.656 9.33737 22.6578 9.34048 22.6578C9.34359 22.6578 9.34626 22.656 9.34937 22.656H11.0998C11.1029 22.656 11.1056 22.6578 11.1087 22.6578C11.1118 22.6578 11.1145 22.656 11.1176 22.656H12.868C12.8711 22.656 12.8738 22.6578 12.8769 22.6578C12.88 22.6578 12.8827 22.656 12.8858 22.656H15.9997C16.2452 22.656 16.4445 22.859 16.4445 23.109V24.469V24.4699H9.77808C9.77631 24.4699 9.77542 24.469 9.77364 24.469C8.70008 24.469 7.8013 25.2486 7.59539 26.281H7.00036C7.07418 25.9906 7.11776 25.688 7.11776 25.375C7.11776 24.2918 6.64636 23.321 5.90456 22.656ZM17.7777 28.0931H9.77364C9.03807 28.0931 8.43947 27.4833 8.43947 26.734C8.43947 25.9857 9.03629 25.3768 9.77052 25.3754C9.77186 25.3754 9.77275 25.3759 9.77364 25.3759H17.7777C18.5129 25.3759 19.111 25.9852 19.111 26.734C19.111 27.4833 18.5133 28.0931 17.7777 28.0931Z" fill="white"/>
</svg>
