<svg width="19" height="31" viewBox="0 0 19 31" fill="none" xmlns="http://www.w3.org/2000/svg">
<path d="M16.051 24.4347C16.0117 24.3986 15.9671 24.3688 15.9187 24.3464L16.719 13.95V8.2667C17.2671 8.2667 17.7928 8.04897 18.1804 7.66139C18.568 7.27382 18.7857 6.74815 18.7857 6.20004V1.55005C18.7857 1.13896 18.6224 0.744714 18.3317 0.454034C18.041 0.163353 17.6468 4.97966e-05 17.2357 4.97966e-05C17.0331 -0.00159531 16.8323 0.0375365 16.6452 0.115115C16.4581 0.192693 16.2885 0.307132 16.1466 0.451616C15.9998 0.594279 15.8833 0.765098 15.8041 0.95384C15.7249 1.14258 15.6847 1.34537 15.6857 1.55005V5.16671H12.5857C12.3118 5.15726 12.0388 5.20426 11.7838 5.30478C11.5288 5.4053 11.2972 5.55719 11.1033 5.75101C10.9095 5.94483 10.7576 6.17645 10.6571 6.43146C10.5566 6.68647 10.5096 6.95943 10.519 7.23337V11.3667H9.48571V2.58338C9.48571 2.17229 9.32241 1.77805 9.03173 1.48737C8.74105 1.19668 8.3468 1.03338 7.93571 1.03338C7.52463 1.03338 7.13038 1.19668 6.8397 1.48737C6.54902 1.77805 6.38572 2.17229 6.38572 2.58338V11.3667H5.35238V4.65004C5.35238 4.23896 5.18908 3.84471 4.8984 3.55403C4.60772 3.26335 4.21347 3.10004 3.80239 3.10004C3.3913 3.10004 2.99705 3.26335 2.70637 3.55403C2.41569 3.84471 2.25239 4.23896 2.25239 4.65004V13.9898L3.05115 24.3464C3.00277 24.3688 2.95815 24.3986 2.91889 24.4347L0.314375 27.0403C0.140693 27.273 0.0343689 27.5491 0.00703164 27.8382C-0.0203056 28.1274 0.0323973 28.4185 0.159376 28.6797C0.197349 28.7565 0.241587 28.8301 0.291642 28.8998C0.222897 29.0751 0.186994 29.2616 0.185725 29.45C0.185725 29.8611 0.349028 30.2553 0.639709 30.546C0.93039 30.8367 1.32464 31 1.73572 31C2.14681 31 2.54106 30.8367 2.83174 30.546C3.12242 30.2553 3.28572 29.8611 3.28572 29.45H4.83572C4.97275 29.45 5.10416 29.3956 5.20106 29.2987C5.29795 29.2018 5.35238 29.0704 5.35238 28.9333V27.9H13.619V28.9333C13.619 29.0704 13.6735 29.2018 13.7704 29.2987C13.8673 29.3956 13.9987 29.45 14.1357 29.45H15.169C15.169 29.8611 15.3323 30.2553 15.623 30.546C15.9137 30.8367 16.3079 31 16.719 31C17.1301 31 17.5244 30.8367 17.815 30.546C18.1057 30.2553 18.269 29.8611 18.269 29.45C18.269 29.4014 18.2546 29.3554 18.2499 29.3074C18.5008 29.1649 18.6983 28.9445 18.8126 28.6797C18.9404 28.4135 18.9914 28.117 18.9599 27.8235C18.9284 27.5299 18.8157 27.251 18.6343 27.0181L16.051 24.4347ZM16.719 5.68337V1.55005C16.7189 1.48111 16.7328 1.41286 16.76 1.34951C16.7872 1.28615 16.827 1.22903 16.8771 1.18166C16.924 1.13424 16.9798 1.09668 17.0414 1.07121C17.103 1.04574 17.1691 1.03288 17.2357 1.03338C17.3727 1.03338 17.5041 1.08782 17.601 1.18471C17.6979 1.2816 17.7524 1.41302 17.7524 1.55005V6.20004C17.7524 6.4741 17.6435 6.73693 17.4497 6.93072C17.2559 7.1245 16.9931 7.23337 16.719 7.23337C16.7215 6.85042 16.6208 6.47386 16.4276 6.14321C16.5145 6.10162 16.5878 6.03644 16.6394 5.95513C16.6909 5.87381 16.7185 5.77964 16.719 5.68337ZM11.5524 7.23337C11.5444 7.09559 11.5657 6.95769 11.6148 6.82871C11.6639 6.69974 11.7398 6.58262 11.8374 6.48503C11.935 6.38744 12.0521 6.3116 12.181 6.26248C12.31 6.21337 12.4479 6.19209 12.5857 6.20004H14.6524C14.7901 6.19209 14.9281 6.21337 15.057 6.26248C15.186 6.3116 15.3031 6.38744 15.4007 6.48503C15.4983 6.58262 15.5741 6.69974 15.6233 6.82871C15.6724 6.95769 15.6937 7.09559 15.6857 7.23337V11.3667H11.5524V7.23337ZM7.41905 2.58338C7.41905 2.44635 7.47348 2.31493 7.57038 2.21804C7.66727 2.12115 7.79869 2.06671 7.93571 2.06671C8.07274 2.06671 8.20416 2.12115 8.30105 2.21804C8.39795 2.31493 8.45238 2.44635 8.45238 2.58338V11.3667H7.41905V2.58338ZM3.28572 4.65004C3.28572 4.51301 3.34015 4.3816 3.43705 4.2847C3.53394 4.18781 3.66536 4.13338 3.80239 4.13338C3.93941 4.13338 4.07083 4.18781 4.16773 4.2847C4.26462 4.3816 4.31905 4.51301 4.31905 4.65004V11.3667H3.28572V4.65004ZM3.28572 12.4H15.6857V13.4334H3.28572V12.4ZM1.73572 29.9667C1.59869 29.9667 1.46728 29.9122 1.37038 29.8153C1.27349 29.7184 1.21906 29.587 1.21906 29.45H2.25239C2.25239 29.587 2.19796 29.7184 2.10106 29.8153C2.00417 29.9122 1.87275 29.9667 1.73572 29.9667ZM4.31905 28.4167H1.22267C1.13651 28.3479 1.07889 28.2496 1.06096 28.1408C1.01943 28.0128 1.0218 27.8746 1.06767 27.7481L3.49962 25.3167H4.31905V28.4167ZM13.619 24.8V26.8667H5.35238V24.8C5.35238 24.663 5.29795 24.5316 5.20106 24.4347C5.10416 24.3378 4.97275 24.2833 4.83572 24.2833H4.08449L3.3255 14.4667H15.6444L14.8869 24.2833H14.1357C13.9987 24.2833 13.8673 24.3378 13.7704 24.4347C13.6735 24.5316 13.619 24.663 13.619 24.8ZM16.719 29.9667C16.582 29.9667 16.4506 29.9122 16.3537 29.8153C16.2568 29.7184 16.2024 29.587 16.2024 29.45H17.2357C17.2357 29.587 17.1813 29.7184 17.0844 29.8153C16.9875 29.9122 16.8561 29.9667 16.719 29.9667ZM17.9105 28.1413C17.8917 28.2488 17.8357 28.3463 17.7524 28.4167H14.6524V25.3167H15.4718L17.8826 27.7264C17.9151 27.7901 17.9344 27.8597 17.9392 27.931C17.944 28.0023 17.9342 28.0739 17.9105 28.1413Z" fill="white"/>
<path d="M9.91379 15.7299C9.86381 15.6631 9.79893 15.6088 9.72431 15.5715C9.64969 15.5341 9.56738 15.5146 9.48393 15.5146C9.40047 15.5146 9.31817 15.5341 9.24355 15.5715C9.16893 15.6088 9.10405 15.6631 9.05406 15.7299L5.95406 20.3799C5.90215 20.4577 5.87233 20.5482 5.8678 20.6416C5.86326 20.735 5.88417 20.8279 5.9283 20.9104C5.97242 20.9929 6.03812 21.0618 6.11836 21.1099C6.1986 21.158 6.29039 21.1833 6.38393 21.1833H12.5839C12.6775 21.1833 12.7692 21.158 12.8495 21.1099C12.9297 21.0618 12.9954 20.9929 13.0396 20.9104C13.0837 20.8279 13.1046 20.735 13.1001 20.6416C13.0955 20.5482 13.0657 20.4577 13.0138 20.3799L9.91379 15.7299ZM7.34958 20.15L9.48393 16.9467L11.6183 20.15H7.34958Z" fill="white"/>
<path d="M12.5867 22.2166H6.38672V23.2499H12.5867V22.2166Z" fill="white"/>
<path d="M13.6193 9.30005H12.5859V10.3334H13.6193V9.30005Z" fill="white"/>
</svg>
