<svg width="19" height="25" viewBox="0 0 19 25" fill="none" xmlns="http://www.w3.org/2000/svg">
<path d="M14.5126 9.83284V6.89559L13.042 6.88824V5.88235H14.0224V2.45098C14.0208 1.09804 12.9243 0.00159314 11.5714 0H10.591C9.42672 0.00147059 8.42353 0.820404 8.18903 1.96078H2.25766C1.17476 1.96078 0.296875 2.83866 0.296875 3.92157V7.35294H3.23805V4.90196H8.14001V5.88235H9.12041V6.86765L7.64982 6.86275V9.9201C5.64565 10.3787 4.22298 12.1597 4.21844 14.2157V22.549C4.22004 23.902 5.31648 24.9984 6.66943 25H15.9832C17.3361 24.9984 18.4325 23.902 18.4341 22.549V14.2157C18.4308 11.9704 16.7437 10.0847 14.5126 9.83284ZM8.14001 3.92157H2.25766V6.37255H1.27727V3.92157C1.27727 3.38009 1.71618 2.94118 2.25766 2.94118H8.14001V3.92157ZM13.5322 7.87108V9.80392L12.5518 9.79853V7.86569L13.5322 7.87108ZM9.12041 2.45098C9.12041 1.63879 9.7788 0.980392 10.591 0.980392H11.5714C12.3836 0.980392 13.042 1.63879 13.042 2.45098V4.90196H9.12041V2.45098ZM10.591 15.1961V10.7843H11.5714V15.1961H10.591ZM11.5714 16.1765V20.5882H10.591V16.1765H11.5714ZM10.591 9.78627V7.85588L11.5714 7.86078V9.79118L10.591 9.78627ZM10.1008 6.86275V5.88235H12.0616V6.86275H10.1008ZM8.63021 7.84314L9.6106 7.84853V9.77892L8.63021 9.77353V7.84314ZM5.19884 14.2157C5.20098 12.3215 6.73603 10.7865 8.63021 10.7843H9.6106V15.1961H5.19884V14.2157ZM17.4537 22.549C17.4537 23.3612 16.7953 24.0196 15.9832 24.0196H6.66943C5.85723 24.0196 5.19884 23.3612 5.19884 22.549V16.1765H9.6106V21.5686H12.5518V16.1765H17.4537V22.549ZM17.4537 15.1961H12.5518V10.7843H14.0224C15.9167 10.7862 17.4518 12.3214 17.4537 14.2157V15.1961Z" fill="white"/>
<path d="M1.76588 8.32153L0.17519 11.1206L0.15019 11.1696C-0.0963172 11.7457 -0.0366359 12.4072 0.309014 12.9299C0.827703 13.7345 1.90044 13.9663 2.70503 13.4476C2.91251 13.3138 3.08898 13.1373 3.22274 12.9299C3.56839 12.4072 3.62807 11.7457 3.38156 11.1696L1.76588 8.32153ZM2.40313 12.3907C2.16257 12.7437 1.68132 12.8348 1.32832 12.5943C1.24829 12.5397 1.17923 12.4707 1.1247 12.3907C0.965448 12.1498 0.934137 11.8462 1.04088 11.5779L1.76588 10.3058L2.48892 11.5779C2.59504 11.8465 2.563 12.1501 2.40313 12.3907Z" fill="white"/>
</svg>
