<svg width="36" height="27" viewBox="0 0 36 27" fill="none" xmlns="http://www.w3.org/2000/svg">
<path d="M33.6873 27C34.3657 27 34.9177 26.458 34.9177 25.7918V22.685H35.1211C35.6058 22.685 36 22.2979 36 21.822V21.0273C36 19.6965 34.9646 18.5988 33.6433 18.4696C32.8811 14.3625 29.2023 11.318 24.9061 11.318H24.2349L24.9599 5.22899H26.5726C27.0573 5.22899 27.4515 4.84189 27.4515 4.36601V0.862984C27.4515 0.3871 27.0573 0 26.5726 0H22.5831C22.2918 0 22.0558 0.231832 22.0558 0.51779C22.0558 0.803749 22.2918 1.03558 22.5831 1.03558H26.3968V4.19341H24.4982C24.498 4.19341 24.498 4.19341 24.4978 4.19341H2.6083V1.03558H20.2849C20.5761 1.03558 20.8123 0.803749 20.8123 0.51779C20.8123 0.231832 20.5761 0 20.2849 0H2.43252C1.94785 0 1.55361 0.3871 1.55361 0.862984V4.36601C1.55361 4.84189 1.94785 5.22899 2.43252 5.22899H4.04521L4.71733 10.8744L3.50296 11.53C1.23713 12.7534 -0.102745 15.0892 0.00616885 17.6259C0.115013 20.1627 1.65036 22.3795 4.01301 23.4114L6.33051 24.4236L6.49026 25.7654C6.55151 26.4587 7.2123 27 8.00016 27H33.6873ZM32.566 18.4568H31.3651C30.633 15.5612 27.9853 13.5018 24.9062 13.5018H20.6391C20.3167 13.5018 20.0544 13.2442 20.0544 12.9277C20.0544 12.6112 20.3167 12.3536 20.6391 12.3536H23.6425C23.6427 12.3536 23.6429 12.3536 23.643 12.3536C23.6432 12.3536 23.6435 12.3536 23.6437 12.3536H24.9061C28.6227 12.3536 31.8146 14.9387 32.566 18.4568ZM13.021 5.68002V5.22899H15.9842V5.68002C15.9842 6.48218 15.3196 7.13474 14.5026 7.13474C13.6856 7.1348 13.021 6.48218 13.021 5.68002ZM5.10707 5.22899H11.9664V5.68002C11.9664 6.08694 12.0669 6.47093 12.2439 6.81053L5.71507 10.3356L5.10707 5.22899ZM7.54073 25.6741C7.54017 25.6673 7.53954 25.6606 7.53877 25.6539L6.72919 18.8538C6.69536 18.5698 6.4338 18.3665 6.14418 18.3996C5.85492 18.4328 5.64778 18.69 5.68167 18.974L6.18813 23.2281L4.44156 22.4653C2.41733 21.5812 1.15304 19.7558 1.0598 17.5823C0.966499 15.4089 2.06978 13.4856 4.01118 12.4374L4.84952 11.9848L5.41476 16.7326C5.44612 16.9962 5.674 17.1903 5.93782 17.1903C5.95828 17.1903 5.97895 17.1891 5.99976 17.1868C6.28903 17.1536 6.49617 16.8964 6.46228 16.6124L5.84718 11.4461L12.9225 7.62588C13.3562 7.96617 13.9054 8.17032 14.5025 8.17032C15.9011 8.17032 17.0388 7.05313 17.0388 5.68002V5.22899H23.898L23.1731 11.318H20.639C19.7351 11.318 18.9997 12.0401 18.9997 12.9277C18.9997 13.8153 19.7351 14.5374 20.639 14.5374H22.7898L22.3231 18.4568H16.9143C15.4707 18.4568 14.2963 19.61 14.2963 21.0273V21.8221C14.2963 22.298 14.6906 22.6851 15.1752 22.6851H15.3786V25.7919C15.3786 25.8506 15.3843 25.9079 15.3926 25.9645H8.00002C7.73895 25.9644 7.55177 25.8143 7.54073 25.6741ZM30.8543 22.6851V25.9645H28.7922V22.6851H30.8543ZM27.7376 25.9644H25.6755V22.685H27.7376V25.9644ZM24.6208 25.9644H22.5588V22.685H24.6208V25.9644ZM21.5041 25.9644H19.4421V22.685H21.5041V25.9644ZM18.3874 25.9644H16.6091C16.5121 25.9644 16.4333 25.887 16.4333 25.7918V22.685H18.3874V25.9644ZM33.8631 25.7918C33.8631 25.887 33.7842 25.9644 33.6873 25.9644H31.909V22.685H33.8631V25.7918ZM34.9453 21.6495H15.3511V21.0273C15.3511 20.181 16.0524 19.4924 16.9143 19.4924H22.7926H22.7932H22.7939H26.237C26.5283 19.4924 26.7644 19.2606 26.7644 18.9746C26.7644 18.6886 26.5283 18.4568 26.237 18.4568H23.3851L23.8517 14.5374H24.9062C27.4079 14.5374 29.5712 16.1526 30.2722 18.4568H28.5354C28.2441 18.4568 28.0081 18.6886 28.0081 18.9746C28.0081 19.2606 28.2441 19.4924 28.5354 19.4924H30.9373C30.9381 19.4924 30.9389 19.4925 30.9397 19.4925C30.9404 19.4925 30.9412 19.4924 30.942 19.4924H33.382C34.2441 19.4924 34.9453 20.181 34.9453 21.0273V21.6495Z" fill="white"/>
</svg>
