<svg width="28" height="28" viewBox="0 0 28 28" fill="none" xmlns="http://www.w3.org/2000/svg">
<path d="M2.94991 18.8797C1.97969 19.3082 0.831824 18.8708 0.540069 17.8511C-0.167105 15.3795 -0.183375 12.7477 0.512355 10.2472C1.38058 7.12678 3.30392 4.40392 5.95465 2.54259C8.60538 0.681251 11.8195 -0.203394 15.0494 0.0393823C18.2792 0.282159 21.325 1.63734 23.6677 3.87401C26.0104 6.11068 27.5051 9.09046 27.8971 12.3056C28.2891 15.5208 27.5542 18.7724 25.8175 21.5064C24.0808 24.2405 21.4499 26.2878 18.373 27.2995C15.9074 28.1102 13.2777 28.2158 10.776 27.6237C9.74388 27.3795 9.25382 26.2531 9.63691 25.2641C10.02 24.2751 11.1327 23.8037 12.1761 23.9941C13.8345 24.2968 15.5528 24.1837 17.1733 23.6508C19.4061 22.9167 21.3152 21.4311 22.5754 19.4471C23.8356 17.4631 24.3689 15.1036 24.0845 12.7705C23.8 10.4374 22.7154 8.27508 21.0154 6.65203C19.3154 5.02897 17.1052 4.04558 14.7615 3.86941C12.4177 3.69324 10.0854 4.33519 8.16185 5.68587C6.23834 7.03656 4.84266 9.01241 4.21263 11.2768C3.75535 12.9202 3.72194 14.6419 4.10101 16.2845C4.3395 17.318 3.92014 18.4513 2.94991 18.8797Z" fill="#C4C4C4"/>
<path d="M2.94991 18.8797C1.97969 19.3082 0.831824 18.8708 0.540069 17.8511C-0.167105 15.3795 -0.183375 12.7477 0.512355 10.2472C1.38058 7.12678 3.30392 4.40392 5.95465 2.54259C8.60538 0.681251 11.8195 -0.203394 15.0494 0.0393823C18.2792 0.282159 21.325 1.63734 23.6677 3.87401C26.0104 6.11068 27.5051 9.09046 27.8971 12.3056C28.2891 15.5208 27.5542 18.7724 25.8175 21.5064C24.0808 24.2405 21.4499 26.2878 18.373 27.2995C15.9074 28.1102 13.2777 28.2158 10.776 27.6237C9.74388 27.3795 9.25382 26.2531 9.63691 25.2641C10.02 24.2751 11.1327 23.8037 12.1761 23.9941C13.8345 24.2968 15.5528 24.1837 17.1733 23.6508C19.4061 22.9167 21.3152 21.4311 22.5754 19.4471C23.8356 17.4631 24.3689 15.1036 24.0845 12.7705C23.8 10.4374 22.7154 8.27508 21.0154 6.65203C19.3154 5.02897 17.1052 4.04558 14.7615 3.86941C12.4177 3.69324 10.0854 4.33519 8.16185 5.68587C6.23834 7.03656 4.84266 9.01241 4.21263 11.2768C3.75535 12.9202 3.72194 14.6419 4.10101 16.2845C4.3395 17.318 3.92014 18.4513 2.94991 18.8797Z" fill="url(#paint0_linear)"/>
<defs>
<linearGradient id="paint0_linear" x1="28" y1="0" x2="23.9585" y2="31.1122" gradientUnits="userSpaceOnUse">
<stop stop-color="#CCA5FF"/>
<stop offset="0.489583" stop-color="#A1ABFF"/>
<stop offset="1" stop-color="#60B4FF"/>
</linearGradient>
</defs>
</svg>
