<svg width="52" height="53" viewBox="0 0 52 53" fill="none" xmlns="http://www.w3.org/2000/svg">
<path d="M36.2953 48.6812C36.7978 49.8191 36.285 51.1587 35.1085 51.5628C30.7677 53.0538 26.1005 53.396 21.5658 52.5366C16.2912 51.537 11.4446 48.959 7.66764 45.1438C3.8907 41.3287 1.36157 36.4564 0.415093 31.172C-0.53138 25.8876 0.149446 20.4404 2.36743 15.5515C4.58542 10.6627 8.23595 6.56272 12.8357 3.79456C17.4355 1.02639 22.7675 -0.279451 28.1259 0.0499231C33.4842 0.379297 38.6162 2.32835 42.8423 5.63904C46.4756 8.48534 49.292 12.2227 51.029 16.471C51.4997 17.6224 50.8294 18.8906 49.6422 19.2619C48.455 19.6332 47.2022 18.9657 46.7115 17.8227C45.2603 14.4425 42.979 11.4684 40.0644 9.18506C36.5566 6.43714 32.297 4.81939 27.8495 4.54601C23.402 4.27262 18.9763 5.35649 15.1584 7.65411C11.3405 9.95174 8.31054 13.3547 6.46958 17.4126C4.62861 21.4704 4.06352 25.9917 4.8491 30.3778C5.63469 34.764 7.73391 38.8081 10.8688 41.9747C14.0038 45.1413 18.0265 47.2811 22.4045 48.1108C26.0423 48.8002 29.7827 48.558 33.2821 47.4237C34.4654 47.0402 35.7928 47.5433 36.2953 48.6812Z" fill="#7892FF"/>
</svg>
