<svg width="53" height="53" viewBox="0 0 53 53" fill="none" xmlns="http://www.w3.org/2000/svg">
<path d="M36.2953 48.6812C36.7978 49.8191 36.285 51.1587 35.1085 51.5628C30.7677 53.0538 26.1005 53.396 21.5658 52.5366C16.2912 51.537 11.4446 48.959 7.66764 45.1438C3.8907 41.3287 1.36157 36.4564 0.415093 31.172C-0.53138 25.8876 0.149446 20.4404 2.36743 15.5515C4.58542 10.6627 8.23595 6.56272 12.8357 3.79456C17.4355 1.02639 22.7675 -0.279451 28.1259 0.0499231C33.4842 0.379297 38.6162 2.32835 42.8423 5.63904C46.4756 8.48534 49.292 12.2227 51.029 16.471C51.4997 17.6224 50.8294 18.8906 49.6422 19.2619C48.455 19.6332 47.2022 18.9657 46.7115 17.8227C45.2603 14.4425 42.979 11.4684 40.0644 9.18506C36.5566 6.43714 32.297 4.81939 27.8495 4.54601C23.402 4.27262 18.9763 5.35649 15.1584 7.65411C11.3405 9.95174 8.31054 13.3547 6.46958 17.4126C4.62861 21.4704 4.06352 25.9917 4.8491 30.3778C5.63469 34.764 7.73391 38.8081 10.8688 41.9747C14.0038 45.1413 18.0265 47.2811 22.4045 48.1108C26.0423 48.8002 29.7827 48.558 33.2821 47.4237C34.4654 47.0402 35.7928 47.5433 36.2953 48.6812Z" fill="#7892FF"/>
<path d="M14.9499 30.8797C13.9797 31.3082 12.8318 30.8708 12.5401 29.8511C11.8329 27.3795 11.8166 24.7477 12.5124 22.2472C13.3806 19.1268 15.3039 16.4039 17.9547 14.5426C20.6054 12.6813 23.8195 11.7966 27.0494 12.0394C30.2792 12.2822 33.325 13.6373 35.6677 15.874C38.0104 18.1107 39.5051 21.0905 39.8971 24.3056C40.2891 27.5208 39.5542 30.7724 37.8175 33.5064C36.0808 36.2405 33.4499 38.2878 30.373 39.2995C27.9074 40.1102 25.2777 40.2158 22.776 39.6237C21.7439 39.3795 21.2538 38.2531 21.6369 37.2641C22.02 36.2751 23.1327 35.8037 24.1761 35.9941C25.8345 36.2968 27.5528 36.1837 29.1733 35.6508C31.4061 34.9167 33.3152 33.4311 34.5754 31.4471C35.8356 29.4631 36.3689 27.1036 36.0845 24.7705C35.8 22.4374 34.7154 20.2751 33.0154 18.652C31.3154 17.029 29.1052 16.0456 26.7615 15.8694C24.4177 15.6932 22.0854 16.3352 20.1619 17.6859C18.2383 19.0366 16.8427 21.0124 16.2126 23.2768C15.7554 24.9202 15.7219 26.6419 16.101 28.2845C16.3395 29.318 15.9201 30.4513 14.9499 30.8797Z" fill="#C4C4C4"/>
<path d="M14.9499 30.8797C13.9797 31.3082 12.8318 30.8708 12.5401 29.8511C11.8329 27.3795 11.8166 24.7477 12.5124 22.2472C13.3806 19.1268 15.3039 16.4039 17.9547 14.5426C20.6054 12.6813 23.8195 11.7966 27.0494 12.0394C30.2792 12.2822 33.325 13.6373 35.6677 15.874C38.0104 18.1107 39.5051 21.0905 39.8971 24.3056C40.2891 27.5208 39.5542 30.7724 37.8175 33.5064C36.0808 36.2405 33.4499 38.2878 30.373 39.2995C27.9074 40.1102 25.2777 40.2158 22.776 39.6237C21.7439 39.3795 21.2538 38.2531 21.6369 37.2641C22.02 36.2751 23.1327 35.8037 24.1761 35.9941C25.8345 36.2968 27.5528 36.1837 29.1733 35.6508C31.4061 34.9167 33.3152 33.4311 34.5754 31.4471C35.8356 29.4631 36.3689 27.1036 36.0845 24.7705C35.8 22.4374 34.7154 20.2751 33.0154 18.652C31.3154 17.029 29.1052 16.0456 26.7615 15.8694C24.4177 15.6932 22.0854 16.3352 20.1619 17.6859C18.2383 19.0366 16.8427 21.0124 16.2126 23.2768C15.7554 24.9202 15.7219 26.6419 16.101 28.2845C16.3395 29.318 15.9201 30.4513 14.9499 30.8797Z" fill="url(#paint0_linear)"/>
<defs>
<linearGradient id="paint0_linear" x1="40" y1="12" x2="35.9585" y2="43.1122" gradientUnits="userSpaceOnUse">
<stop stop-color="#CCA5FF"/>
<stop offset="0.489583" stop-color="#A1ABFF"/>
<stop offset="1" stop-color="#60B4FF"/>
</linearGradient>
</defs>
</svg>
