<svg width="59" height="59" viewBox="0 0 59 59" fill="none" xmlns="http://www.w3.org/2000/svg">
<path d="M59 29.5C59 45.7924 45.7924 59 29.5 59C13.2076 59 0 45.7924 0 29.5C0 13.2076 13.2076 0 29.5 0C45.7924 0 59 13.2076 59 29.5ZM15.5578 29.5C15.5578 37.2 21.8 43.4422 29.5 43.4422C37.2 43.4422 43.4422 37.2 43.4422 29.5C43.4422 21.8 37.2 15.5578 29.5 15.5578C21.8 15.5578 15.5578 21.8 15.5578 29.5Z" fill="#D0DEFF"/>
<path d="M59 28C59 33.5228 55.4183 38 51 38C46.5817 38 43.5 33.5228 43.5 28C43.5 22.4772 46.5817 18 51 18C55.4183 18 59 22.4772 59 28Z" fill="#7892FF"/>
</svg>
