<svg width="52" height="52" viewBox="0 0 52 52" fill="none" xmlns="http://www.w3.org/2000/svg">
<path d="M47.8419 26C50.1383 26 52.0339 24.1266 51.6682 21.8595C51.0537 18.0499 49.5957 14.4067 47.3801 11.205C44.3718 6.85775 40.1097 3.53082 35.1622 1.66784C30.2147 -0.195136 24.8168 -0.505636 19.6883 0.777743C14.5598 2.06112 9.94434 4.87739 6.4574 8.85105C2.97045 12.8247 0.777691 17.7669 0.171493 23.0187C-0.434706 28.2705 0.574463 33.5823 3.06444 38.2458C5.55442 42.9094 9.40688 46.7031 14.1082 49.1211C17.5706 50.9019 21.3722 51.8742 25.2294 51.9886C27.5249 52.0567 29.1361 49.9338 28.8377 47.6567C28.5394 45.3797 26.4331 43.827 24.1492 43.5866C21.9846 43.3588 19.8686 42.732 17.9118 41.7256C14.7143 40.0811 12.0941 37.5008 10.4005 34.3289C8.707 31.157 8.02062 27.5442 8.43292 23.9723C8.84522 20.4003 10.3366 17.0389 12.7082 14.3363C15.0799 11.6336 18.219 9.71814 21.7071 8.84525C25.1953 7.97237 28.8666 8.18356 32.2316 9.45065C35.5966 10.7177 38.4955 12.9805 40.5415 15.9373C41.7936 17.7467 42.69 19.7633 43.1971 21.88C43.7321 24.1133 45.5454 26 47.8419 26Z" fill="#C4C4C4"/>
<path d="M47.8419 26C50.1383 26 52.0339 24.1266 51.6682 21.8595C51.0537 18.0499 49.5957 14.4067 47.3801 11.205C44.3718 6.85775 40.1097 3.53082 35.1622 1.66784C30.2147 -0.195136 24.8168 -0.505636 19.6883 0.777743C14.5598 2.06112 9.94434 4.87739 6.4574 8.85105C2.97045 12.8247 0.777691 17.7669 0.171493 23.0187C-0.434706 28.2705 0.574463 33.5823 3.06444 38.2458C5.55442 42.9094 9.40688 46.7031 14.1082 49.1211C17.5706 50.9019 21.3722 51.8742 25.2294 51.9886C27.5249 52.0567 29.1361 49.9338 28.8377 47.6567C28.5394 45.3797 26.4331 43.827 24.1492 43.5866C21.9846 43.3588 19.8686 42.732 17.9118 41.7256C14.7143 40.0811 12.0941 37.5008 10.4005 34.3289C8.707 31.157 8.02062 27.5442 8.43292 23.9723C8.84522 20.4003 10.3366 17.0389 12.7082 14.3363C15.0799 11.6336 18.219 9.71814 21.7071 8.84525C25.1953 7.97237 28.8666 8.18356 32.2316 9.45065C35.5966 10.7177 38.4955 12.9805 40.5415 15.9373C41.7936 17.7467 42.69 19.7633 43.1971 21.88C43.7321 24.1133 45.5454 26 47.8419 26Z" fill="url(#paint0_linear)"/>
<defs>
<linearGradient id="paint0_linear" x1="0" y1="0" x2="57.7798" y2="7.50561" gradientUnits="userSpaceOnUse">
<stop stop-color="#CCA5FF"/>
<stop offset="0.489583" stop-color="#A1ABFF"/>
<stop offset="1" stop-color="#60B4FF"/>
</linearGradient>
</defs>
</svg>
