<svg width="38" height="28" viewBox="0 0 38 28" fill="none" xmlns="http://www.w3.org/2000/svg">
<path d="M9.59359 0.864C13.0016 0.864 15.4856 2.304 17.0456 5.184C18.2696 7.416 18.8816 10.404 18.8816 14.148C18.8816 17.94 18.2936 20.94 17.1176 23.148C15.5576 26.028 13.0496 27.468 9.59359 27.468C6.13759 27.468 3.62959 26.028 2.06959 23.148C0.869594 20.916 0.269594 17.916 0.269594 14.148C0.269594 10.38 0.881594 7.38 2.10559 5.148C3.66559 2.292 6.16159 0.864 9.59359 0.864ZM6.02959 14.292C6.02959 17.22 6.32959 19.284 6.92959 20.484C7.45759 21.54 8.34559 22.068 9.59359 22.068C11.2256 22.068 12.2696 21.048 12.7256 19.008C13.0136 17.808 13.1576 16.188 13.1576 14.148V13.356C13.1576 13.044 13.1456 12.732 13.1216 12.42C13.0976 11.676 13.0376 10.992 12.9416 10.368C12.6776 8.688 12.2216 7.548 11.5736 6.948C11.1176 6.516 10.4456 6.3 9.55759 6.3C8.71759 6.3 8.05759 6.528 7.57759 6.984C6.90559 7.608 6.44959 8.772 6.20959 10.476C6.13759 11.076 6.08959 11.772 6.06559 12.564C6.04159 12.852 6.02959 13.164 6.02959 13.5V14.292ZM36.417 21.636C36.873 21.636 37.245 21.792 37.533 22.104C37.845 22.392 38.001 22.764 38.001 23.22V25.416C38.001 25.848 37.857 26.22 37.569 26.532C37.257 26.844 36.873 27 36.417 27L24.141 26.964C23.517 26.964 22.989 26.76 22.557 26.352C22.125 25.92 21.909 25.392 21.909 24.768V22.608C21.909 21.432 22.305 20.436 23.097 19.62C28.641 13.5 31.521 10.308 31.737 10.044C32.025 9.636 32.169 9.144 32.169 8.568C32.169 7.008 31.257 6.228 29.433 6.228C29.169 6.228 28.965 6.24 28.821 6.264C27.813 6.36 26.733 6.744 25.581 7.416C24.933 7.776 24.465 8.076 24.177 8.316L23.493 7.272L23.457 7.2L23.385 7.056C23.313 6.936 23.253 6.792 23.205 6.624C23.037 6.144 22.965 5.664 22.989 5.184C23.037 3.744 23.865 2.592 25.473 1.728C25.857 1.512 26.445 1.308 27.237 1.116C28.125 0.899998 28.977 0.791998 29.793 0.791998C32.193 0.791998 34.113 1.452 35.553 2.772C37.041 4.164 37.785 6.048 37.785 8.424C37.785 10.08 37.353 11.544 36.489 12.816C35.937 13.584 33.297 16.524 28.569 21.636H36.417Z" fill="white"/>
<path d="M9.59359 0.864C13.0016 0.864 15.4856 2.304 17.0456 5.184C18.2696 7.416 18.8816 10.404 18.8816 14.148C18.8816 17.94 18.2936 20.94 17.1176 23.148C15.5576 26.028 13.0496 27.468 9.59359 27.468C6.13759 27.468 3.62959 26.028 2.06959 23.148C0.869594 20.916 0.269594 17.916 0.269594 14.148C0.269594 10.38 0.881594 7.38 2.10559 5.148C3.66559 2.292 6.16159 0.864 9.59359 0.864ZM6.02959 14.292C6.02959 17.22 6.32959 19.284 6.92959 20.484C7.45759 21.54 8.34559 22.068 9.59359 22.068C11.2256 22.068 12.2696 21.048 12.7256 19.008C13.0136 17.808 13.1576 16.188 13.1576 14.148V13.356C13.1576 13.044 13.1456 12.732 13.1216 12.42C13.0976 11.676 13.0376 10.992 12.9416 10.368C12.6776 8.688 12.2216 7.548 11.5736 6.948C11.1176 6.516 10.4456 6.3 9.55759 6.3C8.71759 6.3 8.05759 6.528 7.57759 6.984C6.90559 7.608 6.44959 8.772 6.20959 10.476C6.13759 11.076 6.08959 11.772 6.06559 12.564C6.04159 12.852 6.02959 13.164 6.02959 13.5V14.292ZM36.417 21.636C36.873 21.636 37.245 21.792 37.533 22.104C37.845 22.392 38.001 22.764 38.001 23.22V25.416C38.001 25.848 37.857 26.22 37.569 26.532C37.257 26.844 36.873 27 36.417 27L24.141 26.964C23.517 26.964 22.989 26.76 22.557 26.352C22.125 25.92 21.909 25.392 21.909 24.768V22.608C21.909 21.432 22.305 20.436 23.097 19.62C28.641 13.5 31.521 10.308 31.737 10.044C32.025 9.636 32.169 9.144 32.169 8.568C32.169 7.008 31.257 6.228 29.433 6.228C29.169 6.228 28.965 6.24 28.821 6.264C27.813 6.36 26.733 6.744 25.581 7.416C24.933 7.776 24.465 8.076 24.177 8.316L23.493 7.272L23.457 7.2L23.385 7.056C23.313 6.936 23.253 6.792 23.205 6.624C23.037 6.144 22.965 5.664 22.989 5.184C23.037 3.744 23.865 2.592 25.473 1.728C25.857 1.512 26.445 1.308 27.237 1.116C28.125 0.899998 28.977 0.791998 29.793 0.791998C32.193 0.791998 34.113 1.452 35.553 2.772C37.041 4.164 37.785 6.048 37.785 8.424C37.785 10.08 37.353 11.544 36.489 12.816C35.937 13.584 33.297 16.524 28.569 21.636H36.417Z" fill="url(#paint0_linear)"/>
<defs>
<linearGradient id="paint0_linear" x1="-2" y1="-1.14054" x2="47.0478" y2="11.3707" gradientUnits="userSpaceOnUse">
<stop stop-color="#967EF5"/>
<stop offset="0.320028" stop-color="#7CA1FF"/>
<stop offset="1" stop-color="#85C4FF"/>
</linearGradient>
</defs>
</svg>
