<svg width="37" height="28" viewBox="0 0 37 28" fill="none" xmlns="http://www.w3.org/2000/svg">
<path d="M10.1834 0.864C13.5914 0.864 16.0754 2.304 17.6354 5.184C18.8594 7.416 19.4714 10.404 19.4714 14.148C19.4714 17.94 18.8834 20.94 17.7074 23.148C16.1474 26.028 13.6394 27.468 10.1834 27.468C6.72744 27.468 4.21944 26.028 2.65944 23.148C1.45944 20.916 0.859438 17.916 0.859438 14.148C0.859438 10.38 1.47144 7.38 2.69544 5.148C4.25544 2.292 6.75144 0.864 10.1834 0.864ZM6.61944 14.292C6.61944 17.22 6.91944 19.284 7.51944 20.484C8.04744 21.54 8.93544 22.068 10.1834 22.068C11.8154 22.068 12.8594 21.048 13.3154 19.008C13.6034 17.808 13.7474 16.188 13.7474 14.148V13.356C13.7474 13.044 13.7354 12.732 13.7114 12.42C13.6874 11.676 13.6274 10.992 13.5314 10.368C13.2674 8.688 12.8114 7.548 12.1634 6.948C11.7074 6.516 11.0354 6.3 10.1474 6.3C9.30744 6.3 8.64744 6.528 8.16744 6.984C7.49544 7.608 7.03944 8.772 6.79944 10.476C6.72744 11.076 6.67944 11.772 6.65544 12.564C6.63144 12.852 6.61944 13.164 6.61944 13.5V14.292ZM32.7228 21.528L35.1348 21.636C35.5188 21.636 35.8788 21.768 36.2148 22.032C36.5508 22.344 36.7188 22.74 36.7188 23.22V25.416C36.7188 25.824 36.5748 26.184 36.2868 26.496C35.9748 26.832 35.5908 27 35.1348 27H24.7668C24.3108 27 23.9268 26.832 23.6148 26.496C23.3268 26.184 23.1828 25.824 23.1828 25.416V23.22C23.1828 22.764 23.3388 22.38 23.6508 22.068C23.9628 21.78 24.3348 21.636 24.7668 21.636H27.0708L27.1788 8.136H25.1268C24.6468 8.136 24.2268 7.968 23.8668 7.632C23.5308 7.272 23.3628 6.852 23.3628 6.372V6.264C23.3628 5.448 23.3868 4.752 23.4348 4.176L29.0508 1.332C29.3148 1.188 29.5908 1.116 29.8788 1.116H30.9588C31.4628 1.116 31.8708 1.296 32.1828 1.656C32.5428 1.968 32.7228 2.376 32.7228 2.88V21.528Z" fill="white"/>
<path d="M10.1834 0.864C13.5914 0.864 16.0754 2.304 17.6354 5.184C18.8594 7.416 19.4714 10.404 19.4714 14.148C19.4714 17.94 18.8834 20.94 17.7074 23.148C16.1474 26.028 13.6394 27.468 10.1834 27.468C6.72744 27.468 4.21944 26.028 2.65944 23.148C1.45944 20.916 0.859438 17.916 0.859438 14.148C0.859438 10.38 1.47144 7.38 2.69544 5.148C4.25544 2.292 6.75144 0.864 10.1834 0.864ZM6.61944 14.292C6.61944 17.22 6.91944 19.284 7.51944 20.484C8.04744 21.54 8.93544 22.068 10.1834 22.068C11.8154 22.068 12.8594 21.048 13.3154 19.008C13.6034 17.808 13.7474 16.188 13.7474 14.148V13.356C13.7474 13.044 13.7354 12.732 13.7114 12.42C13.6874 11.676 13.6274 10.992 13.5314 10.368C13.2674 8.688 12.8114 7.548 12.1634 6.948C11.7074 6.516 11.0354 6.3 10.1474 6.3C9.30744 6.3 8.64744 6.528 8.16744 6.984C7.49544 7.608 7.03944 8.772 6.79944 10.476C6.72744 11.076 6.67944 11.772 6.65544 12.564C6.63144 12.852 6.61944 13.164 6.61944 13.5V14.292ZM32.7228 21.528L35.1348 21.636C35.5188 21.636 35.8788 21.768 36.2148 22.032C36.5508 22.344 36.7188 22.74 36.7188 23.22V25.416C36.7188 25.824 36.5748 26.184 36.2868 26.496C35.9748 26.832 35.5908 27 35.1348 27H24.7668C24.3108 27 23.9268 26.832 23.6148 26.496C23.3268 26.184 23.1828 25.824 23.1828 25.416V23.22C23.1828 22.764 23.3388 22.38 23.6508 22.068C23.9628 21.78 24.3348 21.636 24.7668 21.636H27.0708L27.1788 8.136H25.1268C24.6468 8.136 24.2268 7.968 23.8668 7.632C23.5308 7.272 23.3628 6.852 23.3628 6.372V6.264C23.3628 5.448 23.3868 4.752 23.4348 4.176L29.0508 1.332C29.3148 1.188 29.5908 1.116 29.8788 1.116H30.9588C31.4628 1.116 31.8708 1.296 32.1828 1.656C32.5428 1.968 32.7228 2.376 32.7228 2.88V21.528Z" fill="url(#paint0_linear)"/>
<defs>
<linearGradient id="paint0_linear" x1="-1" y1="-1.14054" x2="44.9309" y2="9.73875" gradientUnits="userSpaceOnUse">
<stop stop-color="#967EF5"/>
<stop offset="0.320028" stop-color="#7CA1FF"/>
<stop offset="1" stop-color="#85C4FF"/>
</linearGradient>
</defs>
</svg>
