<svg width="42" height="28" viewBox="0 0 42 28" fill="none" xmlns="http://www.w3.org/2000/svg">
<path d="M10.1873 0.864C13.5953 0.864 16.0793 2.304 17.6393 5.184C18.8633 7.416 19.4753 10.404 19.4753 14.148C19.4753 17.94 18.8873 20.94 17.7113 23.148C16.1513 26.028 13.6433 27.468 10.1873 27.468C6.73134 27.468 4.22334 26.028 2.66334 23.148C1.46334 20.916 0.863344 17.916 0.863344 14.148C0.863344 10.38 1.47534 7.38 2.69934 5.148C4.25934 2.292 6.75534 0.864 10.1873 0.864ZM6.62334 14.292C6.62334 17.22 6.92334 19.284 7.52334 20.484C8.05134 21.54 8.93934 22.068 10.1873 22.068C11.8193 22.068 12.8633 21.048 13.3193 19.008C13.6073 17.808 13.7513 16.188 13.7513 14.148V13.356C13.7513 13.044 13.7393 12.732 13.7153 12.42C13.6913 11.676 13.6313 10.992 13.5353 10.368C13.2713 8.688 12.8153 7.548 12.1673 6.948C11.7113 6.516 11.0393 6.3 10.1513 6.3C9.31134 6.3 8.65134 6.528 8.17134 6.984C7.49934 7.608 7.04334 8.772 6.80334 10.476C6.73134 11.076 6.68334 11.772 6.65934 12.564C6.63534 12.852 6.62334 13.164 6.62334 13.5V14.292ZM41.7987 18.396C41.7987 20.892 40.8987 23.028 39.0987 24.804C37.3227 26.556 35.1987 27.432 32.7267 27.432C30.2067 27.432 28.0707 26.544 26.3187 24.768C24.5667 23.016 23.6907 20.892 23.6907 18.396L23.7267 17.604C22.7907 17.388 22.0947 16.86 21.6387 16.02C21.3987 15.588 21.2547 15.18 21.2067 14.796C21.7827 14.556 22.2627 14.34 22.6467 14.148C22.7427 14.076 22.9227 13.968 23.1867 13.824C23.3787 13.704 23.6187 13.56 23.9067 13.392C24.3867 8.856 26.2227 5.508 29.4147 3.348C29.7027 3.156 29.9067 3.024 30.0267 2.952C31.9467 1.824 34.0587 1.26 36.3627 1.26H37.0827C37.4907 1.26 37.8507 1.392 38.1627 1.656C38.4987 1.968 38.6667 2.364 38.6667 2.844V5.04C38.6667 5.496 38.5107 5.88 38.1987 6.192C37.8867 6.48 37.5147 6.624 37.0827 6.624H36.3627C35.0427 6.624 33.7467 6.96 32.4747 7.632L32.3307 7.704L32.1507 7.812C32.0067 7.932 31.9227 7.992 31.8987 7.992C31.2027 8.496 30.6387 9.132 30.2067 9.9L30.4227 9.828L30.6027 9.756C31.4667 9.468 32.2827 9.324 33.0507 9.324C35.4987 9.324 37.5747 10.224 39.2787 12.024C40.9587 13.776 41.7987 15.9 41.7987 18.396ZM36.2187 18.396C36.2187 17.436 35.8707 16.596 35.1747 15.876C34.4787 15.132 33.6627 14.76 32.7267 14.76C31.7187 14.76 30.8907 15.108 30.2427 15.804C29.6187 16.5 29.3067 17.364 29.3067 18.396C29.3067 19.452 29.6427 20.316 30.3147 20.988C30.9147 21.66 31.7187 21.996 32.7267 21.996C33.6867 21.996 34.5147 21.636 35.2107 20.916C35.8827 20.22 36.2187 19.38 36.2187 18.396Z" fill="white"/>
<path d="M10.1873 0.864C13.5953 0.864 16.0793 2.304 17.6393 5.184C18.8633 7.416 19.4753 10.404 19.4753 14.148C19.4753 17.94 18.8873 20.94 17.7113 23.148C16.1513 26.028 13.6433 27.468 10.1873 27.468C6.73134 27.468 4.22334 26.028 2.66334 23.148C1.46334 20.916 0.863344 17.916 0.863344 14.148C0.863344 10.38 1.47534 7.38 2.69934 5.148C4.25934 2.292 6.75534 0.864 10.1873 0.864ZM6.62334 14.292C6.62334 17.22 6.92334 19.284 7.52334 20.484C8.05134 21.54 8.93934 22.068 10.1873 22.068C11.8193 22.068 12.8633 21.048 13.3193 19.008C13.6073 17.808 13.7513 16.188 13.7513 14.148V13.356C13.7513 13.044 13.7393 12.732 13.7153 12.42C13.6913 11.676 13.6313 10.992 13.5353 10.368C13.2713 8.688 12.8153 7.548 12.1673 6.948C11.7113 6.516 11.0393 6.3 10.1513 6.3C9.31134 6.3 8.65134 6.528 8.17134 6.984C7.49934 7.608 7.04334 8.772 6.80334 10.476C6.73134 11.076 6.68334 11.772 6.65934 12.564C6.63534 12.852 6.62334 13.164 6.62334 13.5V14.292ZM41.7987 18.396C41.7987 20.892 40.8987 23.028 39.0987 24.804C37.3227 26.556 35.1987 27.432 32.7267 27.432C30.2067 27.432 28.0707 26.544 26.3187 24.768C24.5667 23.016 23.6907 20.892 23.6907 18.396L23.7267 17.604C22.7907 17.388 22.0947 16.86 21.6387 16.02C21.3987 15.588 21.2547 15.18 21.2067 14.796C21.7827 14.556 22.2627 14.34 22.6467 14.148C22.7427 14.076 22.9227 13.968 23.1867 13.824C23.3787 13.704 23.6187 13.56 23.9067 13.392C24.3867 8.856 26.2227 5.508 29.4147 3.348C29.7027 3.156 29.9067 3.024 30.0267 2.952C31.9467 1.824 34.0587 1.26 36.3627 1.26H37.0827C37.4907 1.26 37.8507 1.392 38.1627 1.656C38.4987 1.968 38.6667 2.364 38.6667 2.844V5.04C38.6667 5.496 38.5107 5.88 38.1987 6.192C37.8867 6.48 37.5147 6.624 37.0827 6.624H36.3627C35.0427 6.624 33.7467 6.96 32.4747 7.632L32.3307 7.704L32.1507 7.812C32.0067 7.932 31.9227 7.992 31.8987 7.992C31.2027 8.496 30.6387 9.132 30.2067 9.9L30.4227 9.828L30.6027 9.756C31.4667 9.468 32.2827 9.324 33.0507 9.324C35.4987 9.324 37.5747 10.224 39.2787 12.024C40.9587 13.776 41.7987 15.9 41.7987 18.396ZM36.2187 18.396C36.2187 17.436 35.8707 16.596 35.1747 15.876C34.4787 15.132 33.6627 14.76 32.7267 14.76C31.7187 14.76 30.8907 15.108 30.2427 15.804C29.6187 16.5 29.3067 17.364 29.3067 18.396C29.3067 19.452 29.6427 20.316 30.3147 20.988C30.9147 21.66 31.7187 21.996 32.7267 21.996C33.6867 21.996 34.5147 21.636 35.2107 20.916C35.8827 20.22 36.2187 19.38 36.2187 18.396Z" fill="url(#paint0_linear)"/>
<defs>
<linearGradient id="paint0_linear" x1="-1" y1="-1.14054" x2="50.0791" y2="12.5093" gradientUnits="userSpaceOnUse">
<stop stop-color="#967EF5"/>
<stop offset="0.320028" stop-color="#7CA1FF"/>
<stop offset="1" stop-color="#85C4FF"/>
</linearGradient>
</defs>
</svg>
