<svg width="38" height="28" viewBox="0 0 38 28" fill="none" xmlns="http://www.w3.org/2000/svg">
<path d="M10.2616 0.864C13.6696 0.864 16.1536 2.304 17.7136 5.184C18.9376 7.416 19.5496 10.404 19.5496 14.148C19.5496 17.94 18.9616 20.94 17.7856 23.148C16.2256 26.028 13.7176 27.468 10.2616 27.468C6.80556 27.468 4.29756 26.028 2.73756 23.148C1.53756 20.916 0.937563 17.916 0.937563 14.148C0.937563 10.38 1.54956 7.38 2.77356 5.148C4.33356 2.292 6.82956 0.864 10.2616 0.864ZM6.69756 14.292C6.69756 17.22 6.99756 19.284 7.59756 20.484C8.12556 21.54 9.01356 22.068 10.2616 22.068C11.8936 22.068 12.9376 21.048 13.3936 19.008C13.6816 17.808 13.8256 16.188 13.8256 14.148V13.356C13.8256 13.044 13.8136 12.732 13.7896 12.42C13.7656 11.676 13.7056 10.992 13.6096 10.368C13.3456 8.688 12.8896 7.548 12.2416 6.948C11.7856 6.516 11.1136 6.3 10.2256 6.3C9.38556 6.3 8.72556 6.528 8.24556 6.984C7.57356 7.608 7.11756 8.772 6.87756 10.476C6.80556 11.076 6.75756 11.772 6.73356 12.564C6.70956 12.852 6.69756 13.164 6.69756 13.5V14.292ZM37.6969 5.184C37.6969 5.496 37.6489 5.784 37.5529 6.048C32.6569 18.552 30.0769 25.128 29.8129 25.776C29.6449 26.208 29.3689 26.532 28.9849 26.748C28.6729 26.916 28.3369 27 27.9769 27H25.2049C24.6049 27 24.1969 26.748 23.9809 26.244C23.7889 25.836 23.7649 25.44 23.9089 25.056C24.0769 24.696 26.5249 18.492 31.2529 6.444H22.6849V5.22C22.6849 4.092 23.0809 3.132 23.8729 2.34C24.7609 1.476 25.9489 1.044 27.4369 1.044H35.3569C36.0049 1.044 36.5569 1.272 37.0129 1.728C37.4689 2.184 37.6969 2.736 37.6969 3.384V5.184Z" fill="white"/>
<path d="M10.2616 0.864C13.6696 0.864 16.1536 2.304 17.7136 5.184C18.9376 7.416 19.5496 10.404 19.5496 14.148C19.5496 17.94 18.9616 20.94 17.7856 23.148C16.2256 26.028 13.7176 27.468 10.2616 27.468C6.80556 27.468 4.29756 26.028 2.73756 23.148C1.53756 20.916 0.937563 17.916 0.937563 14.148C0.937563 10.38 1.54956 7.38 2.77356 5.148C4.33356 2.292 6.82956 0.864 10.2616 0.864ZM6.69756 14.292C6.69756 17.22 6.99756 19.284 7.59756 20.484C8.12556 21.54 9.01356 22.068 10.2616 22.068C11.8936 22.068 12.9376 21.048 13.3936 19.008C13.6816 17.808 13.8256 16.188 13.8256 14.148V13.356C13.8256 13.044 13.8136 12.732 13.7896 12.42C13.7656 11.676 13.7056 10.992 13.6096 10.368C13.3456 8.688 12.8896 7.548 12.2416 6.948C11.7856 6.516 11.1136 6.3 10.2256 6.3C9.38556 6.3 8.72556 6.528 8.24556 6.984C7.57356 7.608 7.11756 8.772 6.87756 10.476C6.80556 11.076 6.75756 11.772 6.73356 12.564C6.70956 12.852 6.69756 13.164 6.69756 13.5V14.292ZM37.6969 5.184C37.6969 5.496 37.6489 5.784 37.5529 6.048C32.6569 18.552 30.0769 25.128 29.8129 25.776C29.6449 26.208 29.3689 26.532 28.9849 26.748C28.6729 26.916 28.3369 27 27.9769 27H25.2049C24.6049 27 24.1969 26.748 23.9809 26.244C23.7889 25.836 23.7649 25.44 23.9089 25.056C24.0769 24.696 26.5249 18.492 31.2529 6.444H22.6849V5.22C22.6849 4.092 23.0809 3.132 23.8729 2.34C24.7609 1.476 25.9489 1.044 27.4369 1.044H35.3569C36.0049 1.044 36.5569 1.272 37.0129 1.728C37.4689 2.184 37.6969 2.736 37.6969 3.384V5.184Z" fill="url(#paint0_linear)"/>
<defs>
<linearGradient id="paint0_linear" x1="-1" y1="-1.14054" x2="45.979" y2="10.2723" gradientUnits="userSpaceOnUse">
<stop stop-color="#967EF5"/>
<stop offset="0.320028" stop-color="#7CA1FF"/>
<stop offset="1" stop-color="#85C4FF"/>
</linearGradient>
</defs>
</svg>
