<svg width="40" height="28" viewBox="0 0 40 28" fill="none" xmlns="http://www.w3.org/2000/svg">
<path d="M9.4432 0.864C12.8512 0.864 15.3352 2.304 16.8952 5.184C18.1192 7.416 18.7312 10.404 18.7312 14.148C18.7312 17.94 18.1432 20.94 16.9672 23.148C15.4072 26.028 12.8992 27.468 9.4432 27.468C5.9872 27.468 3.4792 26.028 1.9192 23.148C0.719203 20.916 0.119203 17.916 0.119203 14.148C0.119203 10.38 0.731203 7.38 1.9552 5.148C3.5152 2.292 6.0112 0.864 9.4432 0.864ZM5.8792 14.292C5.8792 17.22 6.1792 19.284 6.7792 20.484C7.3072 21.54 8.1952 22.068 9.4432 22.068C11.0752 22.068 12.1192 21.048 12.5752 19.008C12.8632 17.808 13.0072 16.188 13.0072 14.148V13.356C13.0072 13.044 12.9952 12.732 12.9712 12.42C12.9472 11.676 12.8872 10.992 12.7912 10.368C12.5272 8.688 12.0712 7.548 11.4232 6.948C10.9672 6.516 10.2952 6.3 9.4072 6.3C8.5672 6.3 7.9072 6.528 7.4272 6.984C6.7552 7.608 6.2992 8.772 6.0592 10.476C5.9872 11.076 5.9392 11.772 5.9152 12.564C5.8912 12.852 5.8792 13.164 5.8792 13.5V14.292ZM34.0706 9.972C35.6786 10.74 36.9506 11.856 37.8866 13.32C38.8226 14.784 39.2906 16.404 39.2906 18.18C39.2906 20.724 38.3786 22.908 36.5546 24.732C34.7066 26.532 32.5226 27.432 30.0026 27.432C28.2986 27.432 26.6666 27.012 25.1066 26.172C23.5706 25.356 22.3346 24.228 21.3986 22.788C20.8466 21.876 20.9906 21.108 21.8306 20.484L23.6306 19.152C23.8466 18.96 24.1466 18.864 24.5306 18.864C25.0826 18.864 25.5266 19.068 25.8626 19.476C27.0146 21.156 28.3946 21.996 30.0026 21.996C31.0586 21.996 31.9466 21.612 32.6666 20.844C33.3626 20.1 33.7106 19.212 33.7106 18.18C33.7106 17.316 33.4346 16.536 32.8826 15.84C32.3066 15.144 31.5986 14.712 30.7586 14.544L30.0746 15.444C29.7866 15.852 29.4026 16.056 28.9226 16.056C28.5866 16.056 28.2746 15.96 27.9866 15.768C27.1946 15.216 26.5586 14.76 26.0786 14.4C25.7186 14.136 25.5266 13.764 25.5026 13.284C25.4546 12.828 25.5506 12.468 25.7906 12.204L29.7146 6.66H22.6946V5.184C22.6946 4.128 23.0666 3.228 23.8106 2.484C24.6506 1.668 25.7666 1.26 27.1586 1.26H34.5026C35.3666 1.26 36.0866 1.536 36.6626 2.088C37.2626 2.64 37.5626 3.348 37.5626 4.212C37.5626 4.884 37.3466 5.496 36.9146 6.048L34.0706 9.972Z" fill="white"/>
<path d="M9.4432 0.864C12.8512 0.864 15.3352 2.304 16.8952 5.184C18.1192 7.416 18.7312 10.404 18.7312 14.148C18.7312 17.94 18.1432 20.94 16.9672 23.148C15.4072 26.028 12.8992 27.468 9.4432 27.468C5.9872 27.468 3.4792 26.028 1.9192 23.148C0.719203 20.916 0.119203 17.916 0.119203 14.148C0.119203 10.38 0.731203 7.38 1.9552 5.148C3.5152 2.292 6.0112 0.864 9.4432 0.864ZM5.8792 14.292C5.8792 17.22 6.1792 19.284 6.7792 20.484C7.3072 21.54 8.1952 22.068 9.4432 22.068C11.0752 22.068 12.1192 21.048 12.5752 19.008C12.8632 17.808 13.0072 16.188 13.0072 14.148V13.356C13.0072 13.044 12.9952 12.732 12.9712 12.42C12.9472 11.676 12.8872 10.992 12.7912 10.368C12.5272 8.688 12.0712 7.548 11.4232 6.948C10.9672 6.516 10.2952 6.3 9.4072 6.3C8.5672 6.3 7.9072 6.528 7.4272 6.984C6.7552 7.608 6.2992 8.772 6.0592 10.476C5.9872 11.076 5.9392 11.772 5.9152 12.564C5.8912 12.852 5.8792 13.164 5.8792 13.5V14.292ZM34.0706 9.972C35.6786 10.74 36.9506 11.856 37.8866 13.32C38.8226 14.784 39.2906 16.404 39.2906 18.18C39.2906 20.724 38.3786 22.908 36.5546 24.732C34.7066 26.532 32.5226 27.432 30.0026 27.432C28.2986 27.432 26.6666 27.012 25.1066 26.172C23.5706 25.356 22.3346 24.228 21.3986 22.788C20.8466 21.876 20.9906 21.108 21.8306 20.484L23.6306 19.152C23.8466 18.96 24.1466 18.864 24.5306 18.864C25.0826 18.864 25.5266 19.068 25.8626 19.476C27.0146 21.156 28.3946 21.996 30.0026 21.996C31.0586 21.996 31.9466 21.612 32.6666 20.844C33.3626 20.1 33.7106 19.212 33.7106 18.18C33.7106 17.316 33.4346 16.536 32.8826 15.84C32.3066 15.144 31.5986 14.712 30.7586 14.544L30.0746 15.444C29.7866 15.852 29.4026 16.056 28.9226 16.056C28.5866 16.056 28.2746 15.96 27.9866 15.768C27.1946 15.216 26.5586 14.76 26.0786 14.4C25.7186 14.136 25.5266 13.764 25.5026 13.284C25.4546 12.828 25.5506 12.468 25.7906 12.204L29.7146 6.66H22.6946V5.184C22.6946 4.128 23.0666 3.228 23.8106 2.484C24.6506 1.668 25.7666 1.26 27.1586 1.26H34.5026C35.3666 1.26 36.0866 1.536 36.6626 2.088C37.2626 2.64 37.5626 3.348 37.5626 4.212C37.5626 4.884 37.3466 5.496 36.9146 6.048L34.0706 9.972Z" fill="url(#paint0_linear)"/>
<defs>
<linearGradient id="paint0_linear" x1="-2" y1="-1.14054" x2="48.0682" y2="11.935" gradientUnits="userSpaceOnUse">
<stop stop-color="#967EF5"/>
<stop offset="0.320028" stop-color="#7CA1FF"/>
<stop offset="1" stop-color="#85C4FF"/>
</linearGradient>
</defs>
</svg>
