<svg width="41" height="28" viewBox="0 0 41 28" fill="none" xmlns="http://www.w3.org/2000/svg">
<path d="M10.2674 0.864C13.6754 0.864 16.1594 2.304 17.7194 5.184C18.9434 7.416 19.5554 10.404 19.5554 14.148C19.5554 17.94 18.9674 20.94 17.7914 23.148C16.2314 26.028 13.7234 27.468 10.2674 27.468C6.81142 27.468 4.30342 26.028 2.74342 23.148C1.54342 20.916 0.943422 17.916 0.943422 14.148C0.943422 10.38 1.55542 7.38 2.77942 5.148C4.33942 2.292 6.83542 0.864 10.2674 0.864ZM6.70342 14.292C6.70342 17.22 7.00342 19.284 7.60342 20.484C8.13142 21.54 9.01942 22.068 10.2674 22.068C11.8994 22.068 12.9434 21.048 13.3994 19.008C13.6874 17.808 13.8314 16.188 13.8314 14.148V13.356C13.8314 13.044 13.8194 12.732 13.7954 12.42C13.7714 11.676 13.7114 10.992 13.6154 10.368C13.3514 8.688 12.8954 7.548 12.2474 6.948C11.7914 6.516 11.1194 6.3 10.2314 6.3C9.39142 6.3 8.73142 6.528 8.25142 6.984C7.57942 7.608 7.12342 8.772 6.88342 10.476C6.81142 11.076 6.76342 11.772 6.73942 12.564C6.71542 12.852 6.70342 13.164 6.70342 13.5V14.292ZM40.3668 18.108C40.3668 20.652 39.4308 22.848 37.5588 24.696C35.7108 26.544 33.5148 27.468 30.9708 27.468C29.9868 27.468 29.0148 27.336 28.0548 27.072C27.3108 26.88 26.6748 26.64 26.1468 26.352C25.6428 26.112 25.1388 25.728 24.6348 25.2C24.4668 25.032 24.3108 24.852 24.1668 24.66C24.1188 24.612 24.0588 24.552 23.9868 24.48L23.9508 24.408L23.9148 24.372C23.0988 23.124 22.8468 21.912 23.1588 20.736C23.3988 19.728 23.9748 18.924 24.8868 18.324C25.1508 18.156 25.3668 18.036 25.5348 17.964C25.7028 18.276 25.9788 18.72 26.3628 19.296L26.8308 19.872L27.2988 20.412C28.5468 21.492 29.7708 22.032 30.9708 22.032C32.5308 22.032 33.6468 21.384 34.3188 20.088C34.6788 19.512 34.8588 18.852 34.8588 18.108C34.8588 16.596 34.2228 15.492 32.9508 14.796C32.4468 14.46 31.8348 14.292 31.1148 14.292C29.9628 14.292 28.8948 14.712 27.9108 15.552C27.4548 15.912 26.9988 16.092 26.5428 16.092C26.4948 16.092 26.2788 16.068 25.8948 16.02L24.5268 15.624C24.1428 15.552 23.8548 15.336 23.6628 14.976C23.4708 14.64 23.4108 14.316 23.4828 14.004L25.2468 2.844C25.2708 2.7 25.3188 2.544 25.3908 2.376C25.4868 2.208 25.5948 2.04 25.7148 1.872C26.0748 1.488 26.5068 1.296 27.0108 1.296C27.7788 1.296 31.2948 1.284 37.5588 1.26C37.9668 1.26 38.3268 1.392 38.6388 1.656C38.9748 1.968 39.1428 2.364 39.1428 2.844V5.328C39.1428 6.216 38.6988 6.66 37.8108 6.66H30.0708L29.6748 9.468C30.3708 9.276 31.0668 9.18 31.7628 9.18C34.2108 9.18 36.2628 10.056 37.9188 11.808C39.5508 13.536 40.3668 15.636 40.3668 18.108Z" fill="white"/>
<path d="M10.2674 0.864C13.6754 0.864 16.1594 2.304 17.7194 5.184C18.9434 7.416 19.5554 10.404 19.5554 14.148C19.5554 17.94 18.9674 20.94 17.7914 23.148C16.2314 26.028 13.7234 27.468 10.2674 27.468C6.81142 27.468 4.30342 26.028 2.74342 23.148C1.54342 20.916 0.943422 17.916 0.943422 14.148C0.943422 10.38 1.55542 7.38 2.77942 5.148C4.33942 2.292 6.83542 0.864 10.2674 0.864ZM6.70342 14.292C6.70342 17.22 7.00342 19.284 7.60342 20.484C8.13142 21.54 9.01942 22.068 10.2674 22.068C11.8994 22.068 12.9434 21.048 13.3994 19.008C13.6874 17.808 13.8314 16.188 13.8314 14.148V13.356C13.8314 13.044 13.8194 12.732 13.7954 12.42C13.7714 11.676 13.7114 10.992 13.6154 10.368C13.3514 8.688 12.8954 7.548 12.2474 6.948C11.7914 6.516 11.1194 6.3 10.2314 6.3C9.39142 6.3 8.73142 6.528 8.25142 6.984C7.57942 7.608 7.12342 8.772 6.88342 10.476C6.81142 11.076 6.76342 11.772 6.73942 12.564C6.71542 12.852 6.70342 13.164 6.70342 13.5V14.292ZM40.3668 18.108C40.3668 20.652 39.4308 22.848 37.5588 24.696C35.7108 26.544 33.5148 27.468 30.9708 27.468C29.9868 27.468 29.0148 27.336 28.0548 27.072C27.3108 26.88 26.6748 26.64 26.1468 26.352C25.6428 26.112 25.1388 25.728 24.6348 25.2C24.4668 25.032 24.3108 24.852 24.1668 24.66C24.1188 24.612 24.0588 24.552 23.9868 24.48L23.9508 24.408L23.9148 24.372C23.0988 23.124 22.8468 21.912 23.1588 20.736C23.3988 19.728 23.9748 18.924 24.8868 18.324C25.1508 18.156 25.3668 18.036 25.5348 17.964C25.7028 18.276 25.9788 18.72 26.3628 19.296L26.8308 19.872L27.2988 20.412C28.5468 21.492 29.7708 22.032 30.9708 22.032C32.5308 22.032 33.6468 21.384 34.3188 20.088C34.6788 19.512 34.8588 18.852 34.8588 18.108C34.8588 16.596 34.2228 15.492 32.9508 14.796C32.4468 14.46 31.8348 14.292 31.1148 14.292C29.9628 14.292 28.8948 14.712 27.9108 15.552C27.4548 15.912 26.9988 16.092 26.5428 16.092C26.4948 16.092 26.2788 16.068 25.8948 16.02L24.5268 15.624C24.1428 15.552 23.8548 15.336 23.6628 14.976C23.4708 14.64 23.4108 14.316 23.4828 14.004L25.2468 2.844C25.2708 2.7 25.3188 2.544 25.3908 2.376C25.4868 2.208 25.5948 2.04 25.7148 1.872C26.0748 1.488 26.5068 1.296 27.0108 1.296C27.7788 1.296 31.2948 1.284 37.5588 1.26C37.9668 1.26 38.3268 1.392 38.6388 1.656C38.9748 1.968 39.1428 2.364 39.1428 2.844V5.328C39.1428 6.216 38.6988 6.66 37.8108 6.66H30.0708L29.6748 9.468C30.3708 9.276 31.0668 9.18 31.7628 9.18C34.2108 9.18 36.2628 10.056 37.9188 11.808C39.5508 13.536 40.3668 15.636 40.3668 18.108Z" fill="url(#paint0_linear)"/>
<defs>
<linearGradient id="paint0_linear" x1="-1" y1="-1.14054" x2="49.0682" y2="11.935" gradientUnits="userSpaceOnUse">
<stop stop-color="#967EF5"/>
<stop offset="0.320028" stop-color="#7CA1FF"/>
<stop offset="1" stop-color="#85C4FF"/>
</linearGradient>
</defs>
</svg>
