<svg width="43" height="28" viewBox="0 0 43 28" fill="none" xmlns="http://www.w3.org/2000/svg">
<path d="M10.1698 0.864C13.5778 0.864 16.0618 2.304 17.6218 5.184C18.8458 7.416 19.4578 10.404 19.4578 14.148C19.4578 17.94 18.8698 20.94 17.6938 23.148C16.1338 26.028 13.6258 27.468 10.1698 27.468C6.71377 27.468 4.20577 26.028 2.64577 23.148C1.44577 20.916 0.845766 17.916 0.845766 14.148C0.845766 10.38 1.45777 7.38 2.68177 5.148C4.24177 2.292 6.73777 0.864 10.1698 0.864ZM6.60577 14.292C6.60577 17.22 6.90577 19.284 7.50577 20.484C8.03377 21.54 8.92177 22.068 10.1698 22.068C11.8018 22.068 12.8458 21.048 13.3018 19.008C13.5898 17.808 13.7338 16.188 13.7338 14.148V13.356C13.7338 13.044 13.7218 12.732 13.6978 12.42C13.6738 11.676 13.6138 10.992 13.5178 10.368C13.2538 8.688 12.7978 7.548 12.1498 6.948C11.6938 6.516 11.0218 6.3 10.1338 6.3C9.29377 6.3 8.63377 6.528 8.15377 6.984C7.48177 7.608 7.02577 8.772 6.78577 10.476C6.71377 11.076 6.66577 11.772 6.64177 12.564C6.61777 12.852 6.60577 13.164 6.60577 13.5V14.292ZM37.9651 11.988V16.272L40.4491 16.236C40.9051 16.236 41.2891 16.404 41.6011 16.74C41.8891 17.076 42.0331 17.436 42.0331 17.82V20.124C42.0331 20.508 41.8891 20.856 41.6011 21.168C41.2891 21.528 40.9051 21.708 40.4491 21.708H38.0371V25.416C38.0371 25.848 37.8811 26.22 37.5691 26.532C37.2571 26.844 36.8851 27 36.4531 27H34.1851C33.7531 27 33.3811 26.844 33.0691 26.532C32.7571 26.22 32.6011 25.848 32.6011 25.416L32.5651 22.716V21.672H23.9611C23.3851 21.672 22.9171 21.468 22.5571 21.06C22.1731 20.7 21.9811 20.232 21.9811 19.656V18.144C21.9811 17.64 22.1131 17.16 22.3771 16.704L29.7571 4.968C30.7891 3.408 32.1811 2.292 33.9331 1.62C34.5091 1.404 35.0971 1.248 35.6971 1.152C35.9131 1.104 36.1171 1.068 36.3091 1.044H36.6691C37.0531 1.044 37.6291 1.056 38.3971 1.08L28.8931 16.272H32.5651C32.5651 14.928 33.0691 13.848 34.0771 13.032C34.9651 12.336 35.9611 11.988 37.0651 11.988H37.9651Z" fill="white"/>
<path d="M10.1698 0.864C13.5778 0.864 16.0618 2.304 17.6218 5.184C18.8458 7.416 19.4578 10.404 19.4578 14.148C19.4578 17.94 18.8698 20.94 17.6938 23.148C16.1338 26.028 13.6258 27.468 10.1698 27.468C6.71377 27.468 4.20577 26.028 2.64577 23.148C1.44577 20.916 0.845766 17.916 0.845766 14.148C0.845766 10.38 1.45777 7.38 2.68177 5.148C4.24177 2.292 6.73777 0.864 10.1698 0.864ZM6.60577 14.292C6.60577 17.22 6.90577 19.284 7.50577 20.484C8.03377 21.54 8.92177 22.068 10.1698 22.068C11.8018 22.068 12.8458 21.048 13.3018 19.008C13.5898 17.808 13.7338 16.188 13.7338 14.148V13.356C13.7338 13.044 13.7218 12.732 13.6978 12.42C13.6738 11.676 13.6138 10.992 13.5178 10.368C13.2538 8.688 12.7978 7.548 12.1498 6.948C11.6938 6.516 11.0218 6.3 10.1338 6.3C9.29377 6.3 8.63377 6.528 8.15377 6.984C7.48177 7.608 7.02577 8.772 6.78577 10.476C6.71377 11.076 6.66577 11.772 6.64177 12.564C6.61777 12.852 6.60577 13.164 6.60577 13.5V14.292ZM37.9651 11.988V16.272L40.4491 16.236C40.9051 16.236 41.2891 16.404 41.6011 16.74C41.8891 17.076 42.0331 17.436 42.0331 17.82V20.124C42.0331 20.508 41.8891 20.856 41.6011 21.168C41.2891 21.528 40.9051 21.708 40.4491 21.708H38.0371V25.416C38.0371 25.848 37.8811 26.22 37.5691 26.532C37.2571 26.844 36.8851 27 36.4531 27H34.1851C33.7531 27 33.3811 26.844 33.0691 26.532C32.7571 26.22 32.6011 25.848 32.6011 25.416L32.5651 22.716V21.672H23.9611C23.3851 21.672 22.9171 21.468 22.5571 21.06C22.1731 20.7 21.9811 20.232 21.9811 19.656V18.144C21.9811 17.64 22.1131 17.16 22.3771 16.704L29.7571 4.968C30.7891 3.408 32.1811 2.292 33.9331 1.62C34.5091 1.404 35.0971 1.248 35.6971 1.152C35.9131 1.104 36.1171 1.068 36.3091 1.044H36.6691C37.0531 1.044 37.6291 1.056 38.3971 1.08L28.8931 16.272H32.5651C32.5651 14.928 33.0691 13.848 34.0771 13.032C34.9651 12.336 35.9611 11.988 37.0651 11.988H37.9651Z" fill="url(#paint0_linear)"/>
<defs>
<linearGradient id="paint0_linear" x1="-1" y1="-1.14054" x2="50.0791" y2="12.5093" gradientUnits="userSpaceOnUse">
<stop stop-color="#967EF5"/>
<stop offset="0.320028" stop-color="#7CA1FF"/>
<stop offset="1" stop-color="#85C4FF"/>
</linearGradient>
</defs>
</svg>
