<svg width="43" height="28" viewBox="0 0 43 28" fill="none" xmlns="http://www.w3.org/2000/svg">
<path d="M10.1873 0.864C13.5953 0.864 16.0793 2.304 17.6393 5.184C18.8633 7.416 19.4753 10.404 19.4753 14.148C19.4753 17.94 18.8873 20.94 17.7113 23.148C16.1513 26.028 13.6433 27.468 10.1873 27.468C6.73134 27.468 4.22334 26.028 2.66334 23.148C1.46334 20.916 0.863344 17.916 0.863344 14.148C0.863344 10.38 1.47534 7.38 2.69934 5.148C4.25934 2.292 6.75534 0.864 10.1873 0.864ZM6.62334 14.292C6.62334 17.22 6.92334 19.284 7.52334 20.484C8.05134 21.54 8.93934 22.068 10.1873 22.068C11.8193 22.068 12.8633 21.048 13.3193 19.008C13.6073 17.808 13.7513 16.188 13.7513 14.148V13.356C13.7513 13.044 13.7393 12.732 13.7153 12.42C13.6913 11.676 13.6313 10.992 13.5353 10.368C13.2713 8.688 12.8153 7.548 12.1673 6.948C11.7113 6.516 11.0393 6.3 10.1513 6.3C9.31134 6.3 8.65134 6.528 8.17134 6.984C7.49934 7.608 7.04334 8.772 6.80334 10.476C6.73134 11.076 6.68334 11.772 6.65934 12.564C6.63534 12.852 6.62334 13.164 6.62334 13.5V14.292ZM22.3227 9.864C22.3227 7.368 23.2227 5.232 25.0227 3.456C26.7987 1.704 28.9227 0.827998 31.3947 0.827998C33.9147 0.827998 36.0507 1.704 37.8027 3.456C39.5547 5.208 40.4307 7.344 40.4307 9.864L40.3947 10.656C40.8987 10.776 41.3427 10.992 41.7267 11.304C42.0387 11.568 42.2907 11.88 42.4827 12.24C42.7227 12.672 42.8667 13.08 42.9147 13.464C42.7947 13.512 42.6507 13.572 42.4827 13.644L42.0147 13.86L41.4747 14.112C41.3787 14.184 41.1987 14.292 40.9347 14.436C40.7427 14.556 40.5027 14.7 40.2147 14.868C39.7347 19.404 37.9107 22.752 34.7427 24.912L34.5627 25.056L34.3827 25.164C34.2627 25.236 34.1667 25.284 34.0947 25.308C32.1747 26.436 30.0627 27 27.7587 27H27.0387C26.6547 27 26.3067 26.856 25.9947 26.568C25.6347 26.28 25.4547 25.896 25.4547 25.416V23.22C25.4547 22.764 25.6107 22.38 25.9227 22.068C26.2347 21.78 26.6067 21.636 27.0387 21.636H27.7587C28.4067 21.636 29.1867 21.516 30.0987 21.276C31.1307 20.988 31.8387 20.652 32.2227 20.268C32.8947 19.788 33.4587 19.152 33.9147 18.36L33.7347 18.432L33.5187 18.504C32.6547 18.792 31.8387 18.936 31.0707 18.936C28.6227 18.936 26.5467 18.036 24.8427 16.236C23.1627 14.484 22.3227 12.36 22.3227 9.864ZM28.4067 8.064C28.0947 8.592 27.9387 9.192 27.9387 9.864C27.9387 10.824 28.2747 11.664 28.9467 12.384C29.6187 13.128 30.4347 13.5 31.3947 13.5C32.4267 13.5 33.2547 13.14 33.8787 12.42C34.5027 11.748 34.8147 10.896 34.8147 9.864C34.8147 8.832 34.5027 7.98 33.8787 7.308C33.2547 6.612 32.4267 6.264 31.3947 6.264C30.0267 6.264 29.0307 6.864 28.4067 8.064Z" fill="white"/>
<path d="M10.1873 0.864C13.5953 0.864 16.0793 2.304 17.6393 5.184C18.8633 7.416 19.4753 10.404 19.4753 14.148C19.4753 17.94 18.8873 20.94 17.7113 23.148C16.1513 26.028 13.6433 27.468 10.1873 27.468C6.73134 27.468 4.22334 26.028 2.66334 23.148C1.46334 20.916 0.863344 17.916 0.863344 14.148C0.863344 10.38 1.47534 7.38 2.69934 5.148C4.25934 2.292 6.75534 0.864 10.1873 0.864ZM6.62334 14.292C6.62334 17.22 6.92334 19.284 7.52334 20.484C8.05134 21.54 8.93934 22.068 10.1873 22.068C11.8193 22.068 12.8633 21.048 13.3193 19.008C13.6073 17.808 13.7513 16.188 13.7513 14.148V13.356C13.7513 13.044 13.7393 12.732 13.7153 12.42C13.6913 11.676 13.6313 10.992 13.5353 10.368C13.2713 8.688 12.8153 7.548 12.1673 6.948C11.7113 6.516 11.0393 6.3 10.1513 6.3C9.31134 6.3 8.65134 6.528 8.17134 6.984C7.49934 7.608 7.04334 8.772 6.80334 10.476C6.73134 11.076 6.68334 11.772 6.65934 12.564C6.63534 12.852 6.62334 13.164 6.62334 13.5V14.292ZM22.3227 9.864C22.3227 7.368 23.2227 5.232 25.0227 3.456C26.7987 1.704 28.9227 0.827998 31.3947 0.827998C33.9147 0.827998 36.0507 1.704 37.8027 3.456C39.5547 5.208 40.4307 7.344 40.4307 9.864L40.3947 10.656C40.8987 10.776 41.3427 10.992 41.7267 11.304C42.0387 11.568 42.2907 11.88 42.4827 12.24C42.7227 12.672 42.8667 13.08 42.9147 13.464C42.7947 13.512 42.6507 13.572 42.4827 13.644L42.0147 13.86L41.4747 14.112C41.3787 14.184 41.1987 14.292 40.9347 14.436C40.7427 14.556 40.5027 14.7 40.2147 14.868C39.7347 19.404 37.9107 22.752 34.7427 24.912L34.5627 25.056L34.3827 25.164C34.2627 25.236 34.1667 25.284 34.0947 25.308C32.1747 26.436 30.0627 27 27.7587 27H27.0387C26.6547 27 26.3067 26.856 25.9947 26.568C25.6347 26.28 25.4547 25.896 25.4547 25.416V23.22C25.4547 22.764 25.6107 22.38 25.9227 22.068C26.2347 21.78 26.6067 21.636 27.0387 21.636H27.7587C28.4067 21.636 29.1867 21.516 30.0987 21.276C31.1307 20.988 31.8387 20.652 32.2227 20.268C32.8947 19.788 33.4587 19.152 33.9147 18.36L33.7347 18.432L33.5187 18.504C32.6547 18.792 31.8387 18.936 31.0707 18.936C28.6227 18.936 26.5467 18.036 24.8427 16.236C23.1627 14.484 22.3227 12.36 22.3227 9.864ZM28.4067 8.064C28.0947 8.592 27.9387 9.192 27.9387 9.864C27.9387 10.824 28.2747 11.664 28.9467 12.384C29.6187 13.128 30.4347 13.5 31.3947 13.5C32.4267 13.5 33.2547 13.14 33.8787 12.42C34.5027 11.748 34.8147 10.896 34.8147 9.864C34.8147 8.832 34.5027 7.98 33.8787 7.308C33.2547 6.612 32.4267 6.264 31.3947 6.264C30.0267 6.264 29.0307 6.864 28.4067 8.064Z" fill="url(#paint0_linear)"/>
<defs>
<linearGradient id="paint0_linear" x1="-1" y1="-1.14054" x2="50.0791" y2="12.5093" gradientUnits="userSpaceOnUse">
<stop stop-color="#967EF5"/>
<stop offset="0.320028" stop-color="#7CA1FF"/>
<stop offset="1" stop-color="#85C4FF"/>
</linearGradient>
</defs>
</svg>
