<svg width="43" height="28" viewBox="0 0 43 28" fill="none" xmlns="http://www.w3.org/2000/svg">
<path d="M10.2303 0.864C13.6383 0.864 16.1223 2.304 17.6823 5.184C18.9063 7.416 19.5183 10.404 19.5183 14.148C19.5183 17.94 18.9303 20.94 17.7543 23.148C16.1943 26.028 13.6863 27.468 10.2303 27.468C6.77431 27.468 4.26631 26.028 2.70631 23.148C1.50631 20.916 0.906313 17.916 0.906313 14.148C0.906313 10.38 1.51831 7.38 2.74231 5.148C4.30231 2.292 6.79831 0.864 10.2303 0.864ZM6.66631 14.292C6.66631 17.22 6.96631 19.284 7.56631 20.484C8.09431 21.54 8.98231 22.068 10.2303 22.068C11.8623 22.068 12.9063 21.048 13.3623 19.008C13.6503 17.808 13.7943 16.188 13.7943 14.148V13.356C13.7943 13.044 13.7823 12.732 13.7583 12.42C13.7343 11.676 13.6743 10.992 13.5783 10.368C13.3143 8.688 12.8583 7.548 12.2103 6.948C11.7543 6.516 11.0823 6.3 10.1943 6.3C9.35431 6.3 8.69431 6.528 8.21431 6.984C7.54231 7.608 7.08631 8.772 6.84631 10.476C6.77431 11.076 6.72631 11.772 6.70231 12.564C6.67831 12.852 6.66631 13.164 6.66631 13.5V14.292ZM39.3577 13.428C41.2537 14.868 42.2017 16.788 42.2017 19.188C42.2017 21.636 41.2057 23.652 39.2137 25.236C37.3657 26.724 35.1937 27.468 32.6977 27.468C30.1537 27.468 27.9697 26.712 26.1457 25.2C24.2017 23.592 23.2297 21.54 23.2297 19.044C23.2297 16.764 24.1057 14.748 25.8577 12.996C25.4497 12.468 25.1377 11.904 24.9217 11.304C24.5617 10.44 24.3817 9.528 24.3817 8.568C24.3817 6.336 25.2337 4.5 26.9377 3.06C28.5457 1.716 30.4657 1.044 32.6977 1.044C34.9297 1.044 36.8617 1.728 38.4937 3.096C40.1977 4.536 41.0497 6.348 41.0497 8.532C41.0497 10.164 40.4857 11.784 39.3577 13.392V13.428ZM36.5857 19.008C36.5857 18 35.9017 17.268 34.5337 16.812C33.8137 16.572 32.6857 16.284 31.1497 15.948L30.2857 15.768C29.3257 16.536 28.8457 17.592 28.8457 18.936C28.8457 19.968 29.2417 20.796 30.0337 21.42C30.7537 21.996 31.6417 22.284 32.6977 22.284C33.7297 22.284 34.6177 22.008 35.3617 21.456C36.1777 20.832 36.5857 20.016 36.5857 19.008ZM35.1457 10.224C35.3617 9.72 35.4697 9.216 35.4697 8.712C35.4697 7.968 35.1937 7.356 34.6417 6.876C34.1377 6.444 33.5017 6.228 32.7337 6.228C31.9657 6.228 31.3297 6.42 30.8257 6.804C30.2737 7.236 29.9977 7.824 29.9977 8.568C29.9977 9.288 30.3217 9.816 30.9697 10.152C31.7377 10.56 32.9257 10.956 34.5337 11.34C34.7977 11.004 35.0017 10.632 35.1457 10.224Z" fill="white"/>
<path d="M10.2303 0.864C13.6383 0.864 16.1223 2.304 17.6823 5.184C18.9063 7.416 19.5183 10.404 19.5183 14.148C19.5183 17.94 18.9303 20.94 17.7543 23.148C16.1943 26.028 13.6863 27.468 10.2303 27.468C6.77431 27.468 4.26631 26.028 2.70631 23.148C1.50631 20.916 0.906313 17.916 0.906313 14.148C0.906313 10.38 1.51831 7.38 2.74231 5.148C4.30231 2.292 6.79831 0.864 10.2303 0.864ZM6.66631 14.292C6.66631 17.22 6.96631 19.284 7.56631 20.484C8.09431 21.54 8.98231 22.068 10.2303 22.068C11.8623 22.068 12.9063 21.048 13.3623 19.008C13.6503 17.808 13.7943 16.188 13.7943 14.148V13.356C13.7943 13.044 13.7823 12.732 13.7583 12.42C13.7343 11.676 13.6743 10.992 13.5783 10.368C13.3143 8.688 12.8583 7.548 12.2103 6.948C11.7543 6.516 11.0823 6.3 10.1943 6.3C9.35431 6.3 8.69431 6.528 8.21431 6.984C7.54231 7.608 7.08631 8.772 6.84631 10.476C6.77431 11.076 6.72631 11.772 6.70231 12.564C6.67831 12.852 6.66631 13.164 6.66631 13.5V14.292ZM39.3577 13.428C41.2537 14.868 42.2017 16.788 42.2017 19.188C42.2017 21.636 41.2057 23.652 39.2137 25.236C37.3657 26.724 35.1937 27.468 32.6977 27.468C30.1537 27.468 27.9697 26.712 26.1457 25.2C24.2017 23.592 23.2297 21.54 23.2297 19.044C23.2297 16.764 24.1057 14.748 25.8577 12.996C25.4497 12.468 25.1377 11.904 24.9217 11.304C24.5617 10.44 24.3817 9.528 24.3817 8.568C24.3817 6.336 25.2337 4.5 26.9377 3.06C28.5457 1.716 30.4657 1.044 32.6977 1.044C34.9297 1.044 36.8617 1.728 38.4937 3.096C40.1977 4.536 41.0497 6.348 41.0497 8.532C41.0497 10.164 40.4857 11.784 39.3577 13.392V13.428ZM36.5857 19.008C36.5857 18 35.9017 17.268 34.5337 16.812C33.8137 16.572 32.6857 16.284 31.1497 15.948L30.2857 15.768C29.3257 16.536 28.8457 17.592 28.8457 18.936C28.8457 19.968 29.2417 20.796 30.0337 21.42C30.7537 21.996 31.6417 22.284 32.6977 22.284C33.7297 22.284 34.6177 22.008 35.3617 21.456C36.1777 20.832 36.5857 20.016 36.5857 19.008ZM35.1457 10.224C35.3617 9.72 35.4697 9.216 35.4697 8.712C35.4697 7.968 35.1937 7.356 34.6417 6.876C34.1377 6.444 33.5017 6.228 32.7337 6.228C31.9657 6.228 31.3297 6.42 30.8257 6.804C30.2737 7.236 29.9977 7.824 29.9977 8.568C29.9977 9.288 30.3217 9.816 30.9697 10.152C31.7377 10.56 32.9257 10.956 34.5337 11.34C34.7977 11.004 35.0017 10.632 35.1457 10.224Z" fill="url(#paint0_linear)"/>
<defs>
<linearGradient id="paint0_linear" x1="-1" y1="-1.14054" x2="51.0804" y2="13.0932" gradientUnits="userSpaceOnUse">
<stop stop-color="#967EF5"/>
<stop offset="0.320028" stop-color="#7CA1FF"/>
<stop offset="1" stop-color="#85C4FF"/>
</linearGradient>
</defs>
</svg>
