<svg width="16" height="16" viewBox="0 0 16 16" fill="none" xmlns="http://www.w3.org/2000/svg">
<path d="M8.00036 8.72728C10.4103 8.72728 12.364 6.77361 12.364 4.36364C12.364 1.95367 10.4103 0 8.00036 0C5.59039 0 3.63672 1.95367 3.63672 4.36364C3.63672 6.77361 5.59039 8.72728 8.00036 8.72728Z" fill="#FEFFFF"/>
<path d="M14.2102 11.0945C13.5227 10.7419 12.4275 10.2472 11.1179 9.89388L9.09093 9.45459H6.90911L4.88213 9.89388C3.57246 10.2472 2.47729 10.7419 1.78981 11.0945C0.68608 11.6613 0 12.7799 0 14.0132V14.5455C0 15.3477 0.652705 16.0001 1.45456 16.0001H6.90911H9.09093H14.5455C15.3473 16.0001 16 15.3478 16 14.5455V14.0132C16 12.7799 15.3139 11.6613 14.2102 11.0945Z" fill="#FEFFFF"/>
</svg>
