<svg width="14" height="19" viewBox="0 0 14 19" fill="none" xmlns="http://www.w3.org/2000/svg">
<path d="M9.32365 5.0429H13.5515L8.67969 0.311035V4.23093C8.67963 4.62296 8.93162 5.0429 9.32365 5.0429Z" fill="#FEFFFF"/>
<path d="M7.84022 4.23113V0.00323901H1.20438C0.587644 -0.0433862 0.0498465 0.418846 0.00316773 1.03564C0.000273755 1.07412 -0.000637312 1.1127 0.000434531 1.15124V17.3907C0.000434531 18.0907 0.504415 18.7627 1.20438 18.7627H12.684C13.4135 18.719 13.9867 18.1215 14 17.3907V5.88311H9.32413C8.48419 5.88311 7.84022 5.07113 7.84022 4.23113ZM2.32435 8.40301H7.0842C7.31614 8.40301 7.5042 8.59106 7.5042 8.82301C7.5042 9.05496 7.31614 9.24301 7.0842 9.24301H2.32435C2.09241 9.24301 1.90435 9.05496 1.90435 8.82301C1.90435 8.59106 2.09241 8.40301 2.32435 8.40301ZM11.2841 15.9628H2.32435C2.09241 15.9628 1.90435 15.7747 1.90435 15.5428C1.90435 15.3108 2.09241 15.1228 2.32435 15.1228H11.2841C11.5161 15.1228 11.7041 15.3108 11.7041 15.5428C11.7041 15.7747 11.5161 15.9628 11.2841 15.9628ZM11.7041 12.1829C11.7041 12.4149 11.5161 12.6029 11.2841 12.6029H2.32435C2.09241 12.6029 1.90435 12.4149 1.90435 12.1829C1.90435 11.951 2.09241 11.7629 2.32435 11.7629H11.2841C11.5161 11.7629 11.7041 11.951 11.7041 12.1829Z" fill="#FEFFFF"/>
</svg>
