<?xml version="1.0" encoding="utf-8"?>
<svg width="145" height="40" viewBox="0 0 145 40" fill="none" xmlns="http://www.w3.org/2000/svg">
<path d="M67.0484 7.31055C67.0484 7.37953 67.0484 7.44847 67.0484 7.58639V22.8967C67.0484 23.0347 67.0484 23.1726 67.0484 23.1726C66.9771 23.2416 66.9058 23.2416 66.7632 23.2416H65.5522C65.4096 23.2416 65.2671 23.2416 65.2671 23.1726C65.1958 23.1726 65.1958 23.0347 65.1958 22.8967V18.483C64.7681 18.7588 64.3408 19.0347 63.7709 19.2416C62.7733 19.5864 61.348 19.7933 59.638 19.7933H57.7141C55.9328 19.7933 54.5079 19.5864 53.5103 19.2416C52.5127 18.8967 51.729 18.345 51.3013 17.6554C50.8027 16.9657 50.5176 16.0692 50.375 15.1036C50.3037 14.1381 50.2324 12.9657 50.2324 11.6554V7.65537C50.2324 7.51745 50.2324 7.37953 50.3037 7.37953C50.3037 7.37953 50.4463 7.37953 50.5888 7.37953H51.8003C51.9429 7.37953 52.085 7.37953 52.085 7.37953C52.1563 7.44847 52.1563 7.51745 52.1563 7.65537V12.0002C52.1563 13.0347 52.2276 13.7933 52.4414 14.345C52.6553 14.9657 53.0113 15.3795 53.5103 15.7244C54.0089 16.0002 54.7213 16.2071 55.5768 16.2761C56.3605 16.345 57.4294 16.414 58.7117 16.414C59.9944 16.414 61.0629 16.345 61.847 16.2761C62.702 16.2071 63.4145 16.0002 63.913 15.7244C64.412 15.3795 64.7681 14.9657 64.9106 14.345C65.1245 13.7933 65.1958 12.9657 65.1958 12.0002V7.65537C65.1958 7.51745 65.1958 7.37953 65.2671 7.37953C65.2671 7.37953 65.4096 7.37953 65.5522 7.37953H66.7632C66.9058 7.31055 66.9771 7.31055 67.0484 7.31055Z" fill="black"/>
<path d="M86.5728 7.5863C87.214 7.93112 87.6417 8.4139 87.9268 9.10355C88.2115 9.7932 88.3541 10.6208 88.4254 11.6553C88.4967 12.6897 88.4967 13.8622 88.4967 15.2415V22.9656C88.4967 23.1035 88.4967 23.2415 88.4967 23.2415C88.4254 23.3104 88.3541 23.3104 88.2115 23.3104H87.1427C87.0005 23.3104 86.8579 23.3104 86.8579 23.2415C86.7867 23.2415 86.7867 23.1035 86.7867 22.9656V15.2415C86.7867 14.2759 86.7154 13.4484 86.5728 12.8966C86.4302 12.3449 86.2877 11.9311 86.0742 11.6553C85.7891 11.3794 85.5039 11.2415 85.2192 11.1725C84.8628 11.1035 84.5064 11.1036 84.0078 11.1036C83.5088 11.1036 83.0815 11.1035 82.725 11.1725C82.369 11.2415 82.0839 11.3794 81.87 11.6553C81.6562 11.9311 81.3714 12.3449 81.1576 12.8277C80.9437 13.3794 80.659 14.138 80.3739 15.0346C79.8036 16.7587 79.3763 18.138 78.9486 19.2415C78.5213 20.3449 78.1648 21.1725 77.8088 21.7932C77.3811 22.4139 76.9538 22.8277 76.5261 23.0346C76.0275 23.2415 75.4572 23.3794 74.7448 23.3794C73.6046 23.3794 72.7496 23.1725 72.1797 22.8277C71.5386 22.4828 71.1109 21.9311 70.8257 21.2415C70.541 20.5518 70.3984 19.6553 70.3271 18.6208C70.2559 17.5863 70.2559 16.4139 70.2559 15.0346V7.5863C70.2559 7.44837 70.2559 7.31045 70.3271 7.31045C70.3271 7.31045 70.4697 7.31045 70.6123 7.31045H71.6807C71.8233 7.31045 71.9659 7.31045 71.9659 7.31045C71.9659 7.37939 71.9659 7.44837 71.9659 7.5863V15.1036C71.9659 16.069 72.0372 16.8966 72.1797 17.4484C72.3223 18.069 72.4649 18.4828 72.7496 18.7587C72.9635 19.0346 73.2486 19.1725 73.6046 19.2415C73.9611 19.3105 74.3175 19.3105 74.7448 19.3105C75.3147 19.3105 75.7424 19.2415 76.0275 19.1725C76.3835 19.1035 76.6687 18.8966 76.8825 18.6208C77.096 18.3449 77.3098 17.9311 77.5237 17.3794C77.7375 16.8277 78.0223 16.069 78.3074 15.1725C78.8777 13.5173 79.305 12.138 79.6614 11.1036C80.0887 10.069 80.4451 9.24147 80.8724 8.62077C81.2289 8.0001 81.6562 7.5863 82.1552 7.37939C82.6538 7.17249 83.224 7.10355 83.9365 7.10355C85.0766 7.03457 85.9316 7.24147 86.5728 7.5863Z" fill="black"/>
<path d="M99.8968 11.1731C98.4719 11.1731 97.3318 11.1731 96.4055 11.2421C95.4792 11.311 94.7667 11.4489 94.2677 11.7248C93.7691 12.0006 93.4127 12.4145 93.1993 12.8972C92.9854 13.4489 92.9141 14.2075 92.9141 15.2421C92.9141 16.2765 92.9854 17.0352 93.1993 17.5869C93.4127 18.1386 93.7691 18.5524 94.2677 18.7593C94.7667 19.0352 95.4792 19.1731 96.4055 19.2421C97.3318 19.311 98.4719 19.311 99.8968 19.311H106.88C107.236 19.311 107.378 19.311 107.45 19.38C107.521 19.4489 107.521 19.6558 107.521 19.9317V20.6214C107.521 21.5869 107.165 22.3455 106.381 22.6903C105.597 23.1041 104.386 23.311 102.676 23.311H99.8968C97.8308 23.311 96.1916 23.1731 94.9806 22.8283C93.7691 22.4834 92.9141 22.0006 92.3443 21.311C91.774 20.6214 91.418 19.7938 91.3467 18.7593C91.2041 17.7248 91.1328 16.5524 91.1328 15.1731C91.1328 13.7938 91.2041 12.6214 91.3467 11.5869C91.4892 10.5524 91.8453 9.7248 92.3443 9.03516C92.8428 8.34551 93.7691 7.86273 94.9806 7.5179C96.1916 7.17308 97.7595 7.03516 99.8968 7.03516H102.676C104.386 7.03516 105.668 7.24206 106.381 7.65582C107.165 8.06963 107.521 8.75927 107.521 9.7248V10.4145C107.521 10.7593 107.521 10.8972 107.45 10.9662C107.378 11.0352 107.165 11.0352 106.88 11.0352H99.8968V11.1731Z" fill="black"/>
<path d="M116.856 23.2417C116.713 23.2417 116.571 23.2417 116.571 23.1728C116.571 23.1728 116.499 23.0348 116.499 22.8969V11.5176C116.499 11.3796 116.499 11.2417 116.428 11.2417C116.428 11.2417 116.285 11.1728 116.143 11.1728H109.659C109.303 11.1728 109.16 11.1728 109.089 11.1038C109.018 11.0348 109.018 10.8279 109.018 10.5521V10.0693C109.018 9.58652 109.089 9.17276 109.231 8.8279C109.374 8.48307 109.659 8.20723 110.015 7.93135C110.372 7.72448 110.799 7.51758 111.44 7.37962C112.01 7.2417 112.723 7.2417 113.578 7.2417H121.629C123.339 7.2417 124.48 7.4486 125.192 7.93135C125.834 8.41413 126.19 9.10378 126.19 10.0693V10.5521C126.19 10.8969 126.19 11.0348 126.118 11.1038C126.047 11.1728 125.834 11.1728 125.548 11.1728H119.064C118.922 11.1728 118.779 11.1728 118.779 11.2417C118.779 11.2417 118.708 11.3796 118.708 11.5176V22.9659C118.708 23.1038 118.708 23.2417 118.637 23.2417C118.637 23.2417 118.494 23.3107 118.352 23.3107H116.856V23.2417Z" fill="black"/>
<path d="M145.001 15.2418C145.001 16.6211 144.929 17.7935 144.787 18.828C144.645 19.8625 144.288 20.7591 143.79 21.4487C143.219 22.1383 142.364 22.6901 141.153 23.0349C139.942 23.3798 138.374 23.5866 136.237 23.5866C134.099 23.5866 132.531 23.3798 131.32 23.0349C130.109 22.6901 129.254 22.1383 128.684 21.4487C128.114 20.7591 127.757 19.8625 127.686 18.828C127.544 17.7935 127.473 16.6211 127.473 15.2418C127.473 13.8625 127.544 12.6901 127.686 11.6556C127.829 10.6211 128.185 9.72458 128.684 9.03493C129.254 8.34525 130.109 7.79352 131.32 7.4487C132.531 7.10387 134.099 6.89697 136.237 6.89697C138.374 6.89697 139.942 7.10387 141.153 7.4487C142.364 7.79352 143.219 8.34525 143.79 9.03493C144.359 9.72458 144.716 10.6211 144.787 11.6556C144.929 12.6901 145.001 13.8625 145.001 15.2418ZM129.254 15.2418C129.254 16.2763 129.325 17.0349 129.539 17.6556C129.753 18.2073 130.109 18.6211 130.608 18.897C131.107 19.1729 131.819 19.3108 132.745 19.3798C133.672 19.4487 134.812 19.4487 136.237 19.4487C137.662 19.4487 138.802 19.4487 139.657 19.3798C140.512 19.3108 141.295 19.1729 141.794 18.897C142.293 18.6211 142.649 18.2073 142.863 17.6556C143.077 17.1039 143.148 16.2763 143.148 15.2418C143.148 14.2073 143.077 13.4487 142.863 12.828C142.649 12.2763 142.293 11.8625 141.794 11.5866C141.295 11.3108 140.583 11.1729 139.657 11.1039C138.73 11.0349 137.59 11.0349 136.237 11.0349C134.812 11.0349 133.672 11.0349 132.745 11.1039C131.819 11.1729 131.107 11.3108 130.608 11.5866C130.109 11.8625 129.753 12.2763 129.539 12.828C129.325 13.3798 129.254 14.2073 129.254 15.2418Z" fill="black"/>
<path d="M54.0812 36.7588H53.4396L50.4472 33.9312V36.7588H50.0195V31.0347H50.4472V33.7243L53.3683 31.0347H53.9386L50.9458 33.7933L54.0812 36.7588Z" fill="black"/>
<path d="M58.5001 32.6212V36.6902H58.0724V32.966H55.9351V34.966C55.9351 35.6557 55.7925 36.0695 55.5786 36.3453C55.2935 36.6212 55.0088 36.6902 54.5098 36.6902V36.2764C54.8662 36.2764 55.0796 36.2074 55.2935 36.0005C55.5073 35.7937 55.5073 35.4488 55.5073 34.8971V32.5522H58.5001V32.6212Z" fill="black"/>
<path d="M63.1314 32.6211H63.4874V36.6901H63.0601V33.3107L60.3525 36.6901H59.9961V32.6211H60.4238V36.0004L63.1314 32.6211Z" fill="black"/>
<path d="M68.1187 32.6211H68.546V36.6901H68.1187V34.828H65.4824V36.6901H65.0547V32.6211H65.4824V34.4832H68.1187V32.6211Z" fill="black"/>
<path d="M73.1779 32.6211H73.5343V36.6901H73.1066V33.3107L70.399 36.6901H70.043V32.6211H70.4703V36.0004L73.1779 32.6211Z" fill="black"/>
<path d="M78.1656 32.6211H78.5929V36.6901H78.1656V34.828H75.5289V36.6901H75.1016V32.6211H75.5289V34.4832H78.1656V32.6211Z" fill="black"/>
<path d="M82.7965 32.6211V33.0349H80.5879V36.759H80.1602V32.6901H82.7965V32.6211Z" fill="black"/>
<path d="M85.5762 36.8281C84.9346 36.8281 84.4361 36.6212 84.0083 36.2074C83.581 35.7937 83.3672 35.3109 83.3672 34.6902C83.3672 34.0695 83.581 33.5868 84.0083 33.173C84.4361 32.7591 84.9346 32.5522 85.5762 32.5522C86.2174 32.5522 86.716 32.7591 87.1437 33.173C87.5714 33.5868 87.7848 34.0695 87.7848 34.6902C87.7848 35.3109 87.5714 35.7937 87.1437 36.2074C86.716 36.6212 86.1461 36.8281 85.5762 36.8281ZM84.2935 35.9316C84.6499 36.2764 85.0772 36.4143 85.5762 36.4143C86.0748 36.4143 86.5025 36.2764 86.8585 35.9316C87.215 35.5868 87.3575 35.1729 87.3575 34.6902C87.3575 34.2074 87.215 33.7936 86.8585 33.4488C86.5025 33.104 86.0748 32.966 85.5762 32.966C85.0772 32.966 84.6499 33.104 84.2935 33.4488C83.9375 33.7936 83.7949 34.2074 83.7949 34.6902C83.7236 35.1729 83.9375 35.5868 84.2935 35.9316Z" fill="black"/>
<path d="M91.6314 34.621C92.13 34.7589 92.3439 35.1037 92.3439 35.5865C92.3439 35.9313 92.2013 36.2072 91.9875 36.4141C91.774 36.621 91.4176 36.7589 90.9903 36.7589H88.9238V32.6899H90.8477C91.275 32.6899 91.5602 32.7589 91.774 32.9658C91.9875 33.1727 92.13 33.4486 92.13 33.7244C92.2013 34.1382 91.9875 34.483 91.6314 34.621ZM90.919 33.0348H89.4224V34.483H90.919C91.2037 34.483 91.4176 34.4141 91.5602 34.2761C91.7027 34.1382 91.774 34.0003 91.774 33.7244C91.774 33.5175 91.7027 33.3106 91.5602 33.2417C91.4176 33.1727 91.2037 33.0348 90.919 33.0348ZM91.0612 36.3451C91.3463 36.3451 91.5602 36.2761 91.7027 36.1382C91.8453 36.0003 91.9166 35.7934 91.9166 35.5865C91.9166 35.3796 91.8453 35.1727 91.7027 35.0348C91.5602 34.8968 91.3463 34.8279 91.0612 34.8279H89.4224V36.2761H91.0612V36.3451Z" fill="black"/>
<path d="M97.2599 32.6212H97.6872V36.6902H97.2599V35.7937C97.046 36.1385 96.8322 36.3454 96.5474 36.5522C96.2623 36.7591 95.9059 36.8281 95.4786 36.8281C94.9087 36.8281 94.3384 36.6212 93.9111 36.2074C93.4834 35.7937 93.2695 35.3109 93.2695 34.6902C93.2695 34.0695 93.4834 33.5868 93.9111 33.173C94.3384 32.7591 94.8374 32.5522 95.4786 32.5522C95.9059 32.5522 96.2623 32.6212 96.5474 32.8281C96.8322 33.035 97.1173 33.2419 97.2599 33.5868V32.6212ZM94.1958 35.9316C94.5523 36.2764 94.9796 36.4143 95.4786 36.4143C95.9771 36.4143 96.4049 36.2764 96.7609 35.9316C97.1173 35.5868 97.2599 35.1729 97.2599 34.6902C97.2599 34.2074 97.1173 33.7936 96.7609 33.4488C96.4049 33.104 95.9771 32.966 95.4786 32.966C94.9796 32.966 94.5523 33.104 94.1958 33.4488C93.8398 33.7936 93.6972 34.2074 93.6972 34.6902C93.6972 35.1729 93.8398 35.5868 94.1958 35.9316Z" fill="black"/>
<path d="M102.178 32.6211V36.6901H101.751V35.1728H100.824L99.4703 36.759H98.9004L100.254 35.1728C99.898 35.1038 99.6128 35.0349 99.399 34.759C99.1851 34.4832 99.043 34.2763 99.043 33.9314C99.043 33.5866 99.1851 33.2418 99.4703 33.0349C99.7554 32.828 100.04 32.6901 100.468 32.6901H102.178V32.6211ZM100.468 34.759H101.751V33.0349H100.468C100.183 33.0349 99.9693 33.1038 99.7554 33.2418C99.5416 33.3797 99.4703 33.5866 99.4703 33.8625C99.4703 34.1384 99.5416 34.3453 99.7554 34.4832C99.9693 34.6901 100.183 34.759 100.468 34.759Z" fill="black"/>
<path d="M109.445 36.759H108.876L106.596 34.759V36.759H106.168V32.6901H106.596V34.4832L108.733 32.6211H109.303L107.023 34.6211L109.445 36.759Z" fill="black"/>
<path d="M112.009 36.8281C111.368 36.8281 110.87 36.6212 110.442 36.2074C110.015 35.7937 109.801 35.3109 109.801 34.6902C109.801 34.0695 110.015 33.5868 110.442 33.173C110.87 32.7591 111.368 32.5522 112.009 32.5522C112.651 32.5522 113.15 32.7591 113.577 33.173C114.005 33.5868 114.218 34.0695 114.218 34.6902C114.218 35.3109 114.005 35.7937 113.577 36.2074C113.15 36.6212 112.651 36.8281 112.009 36.8281ZM110.727 35.9316C111.083 36.2764 111.511 36.4143 112.009 36.4143C112.508 36.4143 112.936 36.2764 113.292 35.9316C113.648 35.5868 113.791 35.1729 113.791 34.6902C113.791 34.2074 113.648 33.7936 113.292 33.4488C112.936 33.104 112.508 32.966 112.009 32.966C111.511 32.966 111.083 33.104 110.727 33.4488C110.371 33.7936 110.228 34.2074 110.228 34.6902C110.228 35.1729 110.371 35.5868 110.727 35.9316Z" fill="black"/>
<path d="M119.563 32.6211V36.6901H119.136V33.2418L117.568 35.6556H117.497L115.929 33.2418V36.759H115.502V32.6901H116.001L117.568 35.0349L119.136 32.6901H119.563V32.6211Z" fill="black"/>
<path d="M124.623 32.6211V36.6901H124.195V32.9659H121.559V36.6901H121.131V32.6211H124.623Z" fill="black"/>
<path d="M129.894 32.6212H130.322V36.6902H129.894V35.7937C129.68 36.1385 129.467 36.3454 129.182 36.5522C128.897 36.7591 128.541 36.8281 128.113 36.8281C127.543 36.8281 126.973 36.6212 126.545 36.2074C126.118 35.7937 125.904 35.3109 125.904 34.6902C125.904 34.0695 126.118 33.5868 126.545 33.173C126.973 32.7591 127.472 32.5522 128.113 32.5522C128.541 32.5522 128.897 32.6212 129.182 32.8281C129.467 33.035 129.752 33.2419 129.894 33.5868V32.6212ZM126.831 35.9316C127.187 36.2764 127.614 36.4143 128.113 36.4143C128.612 36.4143 129.039 36.2764 129.396 35.9316C129.752 35.5868 129.894 35.1729 129.894 34.6902C129.894 34.2074 129.752 33.7936 129.396 33.4488C129.039 33.104 128.612 32.966 128.113 32.966C127.614 32.966 127.187 33.104 126.831 33.4488C126.474 33.7936 126.332 34.2074 126.332 34.6902C126.332 35.1729 126.474 35.5868 126.831 35.9316Z" fill="black"/>
<path d="M134.882 32.6211H135.31V36.6901H134.882V34.828H132.246V36.6901H131.818V32.6211H132.246V34.4832H134.882V32.6211Z" fill="black"/>
<path d="M140.012 32.6211H140.368V36.6901H139.941V33.3107L137.233 36.6901H136.877V32.6211H137.305V36.0004L140.012 32.6211Z" fill="black"/>
<path d="M144.858 32.6211V36.6901H144.43V35.1728H143.504L142.15 36.759H141.58L142.934 35.1728C142.578 35.1038 142.293 35.0349 142.079 34.759C141.865 34.4832 141.723 34.2763 141.723 33.9314C141.723 33.5866 141.865 33.2418 142.15 33.0349C142.435 32.828 142.72 32.6901 143.148 32.6901H144.858V32.6211ZM143.148 34.759H144.43V33.0349H143.148C142.862 33.0349 142.649 33.1038 142.435 33.2418C142.221 33.3797 142.15 33.5866 142.15 33.8625C142.15 34.1384 142.221 34.3453 142.435 34.4832C142.649 34.6901 142.862 34.759 143.148 34.759Z" fill="black"/>
<path d="M27.0064 16.7587C26.2938 16.4828 25.0113 15.9311 23.3012 15.9311C22.8024 15.9311 21.5911 15.9311 20.2373 16.4139C19.9523 16.4828 19.7386 16.6208 19.0973 16.8277C19.0973 16.8277 18.0997 17.2415 17.2447 17.4484C16.3897 17.7242 12.3282 18.6897 8.76557 16.5518C7.98176 16.069 6.69924 15.3104 6.12921 13.7932C5.77294 12.8277 5.84419 11.9311 5.91543 11.3794C5.48793 12.0001 5.06042 12.6208 4.63287 13.2415C4.34789 13.7242 4.06288 14.207 3.77785 14.6208C3.35033 15.1725 2.85156 16.069 2.85156 17.0346C2.92282 19.7242 6.69924 21.5173 8.76557 22.5518C10.9744 23.5863 12.6845 23.7932 13.2545 23.8621C14.7508 24.0001 15.8196 23.7932 16.5321 23.7242C19.026 23.3794 23.3725 23.3794 25.9375 24.7587C29.9277 26.8277 30.4978 32.5518 30.569 34.0001C31.2815 33.0346 32.7066 30.9656 33.0629 27.9311C33.4191 25.3794 32.9203 23.1035 32.2078 21.3104C31.6378 20.207 29.9277 18.0001 27.0064 16.7587Z" fill="url(#paint0_linear)"/>
<path d="M30.6394 34.0005C31.3519 33.1039 32.3494 31.5867 32.9907 29.5177C33.7032 27.035 33.4895 24.966 33.347 24.0694C33.2044 23.1039 32.6344 18.2763 28.7155 14.7591C23.0153 9.72461 15.1774 11.5867 14.6074 11.7936C15.1774 12.0005 16.1037 12.2763 17.2437 12.5522C18.8113 12.966 19.6664 13.1039 20.3789 13.2419C22.7303 13.7936 24.6541 14.7591 25.4379 15.2419C25.7229 15.3798 28.858 17.2419 30.7106 20.6212C34.0595 26.6212 31.0669 33.1729 30.6394 34.0005Z" fill="url(#paint1_linear)"/>
<path d="M27.2891 32.6897C27.0041 30.4139 25.5078 29.0346 25.009 28.6208C24.7953 28.4139 24.0115 27.7932 22.4439 27.1725C18.5963 25.7242 14.3211 26.0001 11.6847 26.8966C11.3997 27.0346 10.5447 27.3104 9.26211 27.7242C8.19332 28.0691 7.05325 28.3449 6.48321 28.4139C5.48567 28.6208 3.49061 28.8277 0.355469 27.8622C0.426723 28.0691 0.497975 28.207 0.569228 28.4139C0.711733 28.6897 0.925494 29.1035 1.28176 29.5173C1.28176 29.5173 2.1368 30.8277 3.06309 31.9311C4.34564 33.4484 15.1761 42.8275 23.2277 38.8966C24.0115 38.4829 25.3653 37.7242 26.6479 36.0691C26.9329 35.5863 27.5029 34.3449 27.2891 32.6897Z" fill="url(#paint2_linear)"/>
<path d="M13.8952 11.3105C16.1753 13.0346 18.1704 12.207 22.0894 12.9657C24.0844 13.3105 26.7921 14.1381 29.9272 16.0691C29.7134 15.7933 29.4284 15.3795 29.0009 14.8277C27.6471 13.1036 26.4358 12.207 25.7945 11.5864C23.5144 9.51739 21.0918 5.51739 20.7356 1.65532C20.6643 0.965665 20.6643 0.482909 20.308 0.207045C19.0967 -0.758472 15.249 2.20705 12.1139 4.89672C11.8289 5.17256 11.4726 5.65531 11.3301 6.27601C10.6889 8.82774 13.6815 11.1726 13.8952 11.3105Z" fill="url(#paint3_linear)"/>
<path d="M5.98652 11.3797C6.12905 11.1728 6.6278 10.3451 7.34033 10.2072C8.40916 10.0003 9.12168 11.3797 10.6892 12.759C13.1831 15.0348 16.8883 16.4831 20.0947 16.3451C21.0209 16.2762 21.7334 16.1382 21.7334 16.2072C21.8047 16.4141 18.4558 18.1382 14.6081 18.1382C10.903 18.1382 6.34278 16.4831 5.7015 13.9314C5.34524 12.4831 5.98652 11.3797 5.98652 11.3797Z" fill="url(#paint4_linear)"/>
<path d="M0.712557 28.414C-0.783758 26.7588 0.427547 22.8967 1.21133 22.8277C1.5676 22.7588 1.7101 23.5864 2.7789 24.6898C3.9902 25.8623 5.34403 26.276 5.98527 26.4829C7.12534 26.8277 8.12288 26.8277 10.118 26.8967C11.8993 26.9657 12.5562 26.5978 12.5562 26.6668C12.6987 27.0806 3.20641 31.1726 0.712557 28.414Z" fill="url(#paint5_linear)"/>
<path d="M31.6358 8.41384C33.7214 8.41384 35.4122 6.77737 35.4122 4.75871C35.4122 2.73999 33.7214 1.10352 31.6358 1.10352C29.5501 1.10352 27.8594 2.73999 27.8594 4.75871C27.8594 6.77737 29.5501 8.41384 31.6358 8.41384Z" fill="url(#paint6_linear)"/>
<defs>
<linearGradient id="paint0_linear" x1="2.91369" y1="22.673" x2="33.2826" y2="22.673" gradientUnits="userSpaceOnUse">
<stop stop-color="#3DDEED"/>
<stop offset="1" stop-color="#6118D5"/>
</linearGradient>
<linearGradient id="paint1_linear" x1="14.5734" y1="22.6244" x2="33.5051" y2="22.6244" gradientUnits="userSpaceOnUse">
<stop stop-color="#3DDEED"/>
<stop offset="1" stop-color="#6118D5"/>
</linearGradient>
<linearGradient id="paint2_linear" x1="0.398862" y1="33.11" x2="27.3373" y2="33.11" gradientUnits="userSpaceOnUse">
<stop stop-color="#3DDEED"/>
<stop offset="1" stop-color="#6118D5"/>
</linearGradient>
<linearGradient id="paint3_linear" x1="11.2319" y1="8.00982" x2="29.9314" y2="8.00982" gradientUnits="userSpaceOnUse">
<stop stop-color="#3DDEED"/>
<stop offset="1" stop-color="#6118D5"/>
</linearGradient>
<linearGradient id="paint4_linear" x1="5.58388" y1="14.1449" x2="21.7665" y2="14.1449" gradientUnits="userSpaceOnUse">
<stop stop-color="#3D91ED"/>
<stop offset="0.0304878" stop-color="#3D93ED" stop-opacity="0.9695"/>
<stop offset="0.9512" stop-color="#3DDEED" stop-opacity="0"/>
<stop offset="1" stop-color="#3DDEED" stop-opacity="0.0833333"/>
</linearGradient>
<linearGradient id="paint5_linear" x1="2.72397e-05" y1="26.1229" x2="12.4702" y2="26.1229" gradientUnits="userSpaceOnUse">
<stop stop-color="#3D91ED"/>
<stop offset="0.9512" stop-color="#3DDEED" stop-opacity="0"/>
<stop offset="1" stop-color="#3DDEED" stop-opacity="0.0833333"/>
</linearGradient>
<linearGradient id="paint6_linear" x1="34.2799" y1="2.20975" x2="29.1559" y2="7.5037" gradientUnits="userSpaceOnUse">
<stop stop-color="#3DDEED"/>
<stop offset="0.5976" stop-color="#6118D5"/>
</linearGradient>
</defs>
</svg>
