<svg width="11" height="11" viewBox="0 0 11 11" fill="none" xmlns="http://www.w3.org/2000/svg">
<path d="M9.99972 7.73823V9.09309C10.0002 9.21887 9.97442 9.34337 9.92393 9.45861C9.87344 9.57385 9.79939 9.6773 9.70652 9.76233C9.61366 9.84736 9.50402 9.9121 9.38464 9.95239C9.26525 9.99269 9.13875 10.0077 9.01323 9.99633C7.62076 9.84533 6.28319 9.37045 5.10801 8.60986C4.01465 7.91647 3.08767 6.99133 2.3929 5.90013C1.62814 4.72194 1.15221 3.38054 1.00367 1.98458C0.992365 1.85969 1.00724 1.73382 1.04734 1.61498C1.08745 1.49614 1.1519 1.38694 1.23661 1.29433C1.32132 1.20172 1.42443 1.12772 1.53936 1.07706C1.65429 1.02639 1.77854 1.00016 1.90418 1.00004H3.26174C3.48134 0.997887 3.69425 1.0755 3.86076 1.21842C4.02727 1.36133 4.13603 1.5598 4.16677 1.77683C4.22407 2.21042 4.33033 2.63614 4.48353 3.04589C4.54442 3.20753 4.55759 3.38321 4.5215 3.5521C4.48541 3.72099 4.40157 3.87602 4.2799 3.99881L3.7052 4.57237C4.34939 5.70302 5.28741 6.63918 6.42031 7.28209L6.995 6.70853C7.11804 6.58711 7.27337 6.50343 7.4426 6.46741C7.61182 6.43139 7.78785 6.44454 7.94982 6.5053C8.36037 6.6582 8.78694 6.76425 9.22139 6.82144C9.44121 6.85239 9.64196 6.96289 9.78547 7.13193C9.92898 7.30096 10.0052 7.51674 9.99972 7.73823Z" fill="#4F4F4F" stroke="#4F4F4F" stroke-linecap="round" stroke-linejoin="round"/>
</svg>
