<svg width="13" height="13" viewBox="0 0 13 13" fill="none" xmlns="http://www.w3.org/2000/svg">
<path d="M6.44588 0.777832C3.25981 0.777832 0.667969 3.36962 0.667969 6.55561C0.667969 9.7416 3.25981 12.3334 6.44588 12.3334C9.63195 12.3334 12.2238 9.7416 12.2238 6.55561C12.2238 3.36962 9.63195 0.777832 6.44588 0.777832ZM9.19377 9.54412C9.09988 9.63801 8.97662 9.68527 8.85337 9.68527C8.73012 9.68527 8.60678 9.63801 8.51297 9.54412L6.10548 7.13677C6.01493 7.04676 5.96442 6.92439 5.96442 6.79638V3.66672C5.96442 3.40047 6.18006 3.18527 6.44588 3.18527C6.71169 3.18527 6.92734 3.40047 6.92734 3.66672V6.59705L9.19377 8.86334C9.382 9.05165 9.382 9.3559 9.19377 9.54412Z" fill="#4F4F4F"/>
</svg>
