<svg width="10" height="10" viewBox="0 0 10 10" fill="none" xmlns="http://www.w3.org/2000/svg">
<g clip-path="url(#clip0)">
<path d="M9.98827 2.94003C9.96485 2.40869 9.87892 2.0434 9.75584 1.72687C9.62886 1.39088 9.43351 1.09007 9.17757 0.840008C8.9275 0.586052 8.62471 0.388717 8.29261 0.263723C7.97425 0.140637 7.61087 0.0547134 7.07953 0.0312866C6.54423 0.00587578 6.37429 0 5.0166 0C3.65891 0 3.48897 0.00587578 2.95565 0.0293026C2.42431 0.0527294 2.05902 0.138729 1.74257 0.261739C1.40651 0.388717 1.1057 0.584068 0.855633 0.840008C0.601677 1.09007 0.404418 1.39287 0.279348 1.72496C0.156262 2.0434 0.0703384 2.4067 0.0469116 2.93804C0.0215008 3.47335 0.015625 3.64329 0.015625 5.00098C0.015625 6.35866 0.0215008 6.5286 0.0449276 7.06193C0.0683544 7.59326 0.154354 7.95855 0.277441 8.27508C0.404418 8.61107 0.601677 8.91188 0.855633 9.16195C1.1057 9.4159 1.40849 9.61324 1.74059 9.73823C2.05902 9.86132 2.42233 9.94724 2.95374 9.97067C3.48699 9.99417 3.65701 9.99997 5.01469 9.99997C6.37238 9.99997 6.54232 9.99417 7.07564 9.97067C7.60698 9.94724 7.97227 9.86132 8.28872 9.73823C8.96078 9.4784 9.49211 8.94706 9.75195 8.27508C9.87496 7.95665 9.96095 7.59326 9.98438 7.06193C10.0078 6.5286 10.0137 6.35866 10.0137 5.00098C10.0137 3.64329 10.0117 3.47335 9.98827 2.94003ZM9.08775 7.02286C9.06623 7.51123 8.9842 7.77496 8.91583 7.95077C8.7478 8.38642 8.40204 8.73217 7.96639 8.90021C7.79058 8.96858 7.52495 9.05061 7.03848 9.07205C6.51103 9.09556 6.35284 9.10136 5.01858 9.10136C3.68432 9.10136 3.52415 9.09556 2.99861 9.07205C2.51024 9.05061 2.24651 8.96858 2.0707 8.90021C1.8539 8.82008 1.65657 8.6931 1.4964 8.52706C1.33035 8.3649 1.20337 8.16955 1.12325 7.95276C1.05488 7.77694 0.972843 7.51123 0.9514 7.02484C0.927897 6.49739 0.922098 6.33913 0.922098 5.00487C0.922098 3.67061 0.927897 3.51044 0.9514 2.98497C0.972843 2.4966 1.05488 2.23287 1.12325 2.05706C1.20337 1.84019 1.33035 1.64293 1.49838 1.48268C1.66046 1.31663 1.85581 1.18965 2.07268 1.10961C2.2485 1.04123 2.5142 0.959202 3.0006 0.937683C3.52804 0.914256 3.68631 0.908381 5.02049 0.908381C6.35674 0.908381 6.51492 0.914256 7.04046 0.937683C7.52884 0.959202 7.79256 1.04123 7.96838 1.10961C8.18517 1.18965 8.38251 1.31663 8.54268 1.48268C8.70873 1.64484 8.8357 1.84019 8.91583 2.05706C8.9842 2.23287 9.06623 2.4985 9.08775 2.98497C9.11118 3.51242 9.11706 3.67061 9.11706 5.00487C9.11706 6.33913 9.11118 6.49541 9.08775 7.02286Z" fill="white"/>
<path d="M5.01808 2.43213C3.59988 2.43213 2.44922 3.58271 2.44922 5.00099C2.44922 6.41927 3.59988 7.56985 5.01808 7.56985C6.43636 7.56985 7.58694 6.41927 7.58694 5.00099C7.58694 3.58271 6.43636 2.43213 5.01808 2.43213ZM5.01808 6.66735C4.09802 6.66735 3.35172 5.92112 3.35172 5.00099C3.35172 4.08086 4.09802 3.33463 5.01808 3.33463C5.93821 3.33463 6.68444 4.08086 6.68444 5.00099C6.68444 5.92112 5.93821 6.66735 5.01808 6.66735Z" fill="white"/>
<path d="M8.28934 2.33067C8.28934 2.66185 8.02081 2.93038 7.68955 2.93038C7.35837 2.93038 7.08984 2.66185 7.08984 2.33067C7.08984 1.99941 7.35837 1.73096 7.68955 1.73096C8.02081 1.73096 8.28934 1.99941 8.28934 2.33067Z" fill="white"/>
</g>
<defs>
<clipPath id="clip0">
<rect width="10" height="10" fill="white"/>
</clipPath>
</defs>
</svg>
