<svg width="14" height="14" viewBox="0 0 14 14" fill="none" xmlns="http://www.w3.org/2000/svg">
<path d="M12.8207 3.731L12.817 3.71647C12.5231 2.52826 11.1981 1.25329 9.98123 0.988045L9.96752 0.985209C7.99932 0.609748 6.00366 0.609748 4.03588 0.985209L4.02175 0.988045C2.80531 1.25329 1.48022 2.52835 1.18593 3.71647L1.18266 3.731C0.819321 5.39032 0.819321 7.07315 1.18266 8.73247L1.18593 8.747C1.46771 9.88447 2.69407 11.1009 3.86551 11.4354V12.7618C3.86551 13.2419 4.45053 13.4776 4.78319 13.1312L6.12702 11.7343C6.41852 11.7506 6.71014 11.7597 7.00168 11.7597C7.9924 11.7597 8.98359 11.666 9.96748 11.4783L9.98119 11.4755C11.198 11.2102 12.5231 9.93517 12.817 8.74704L12.8206 8.73252C13.184 7.07315 13.184 5.39041 12.8207 3.731ZM11.7572 8.49189C11.5609 9.26709 10.5549 10.2308 9.75547 10.4089C8.70898 10.6079 7.65415 10.6929 6.6004 10.6637C6.57943 10.6631 6.55928 10.6713 6.54471 10.6863C6.39514 10.8398 5.56353 11.6936 5.56353 11.6936L4.51992 12.7647C4.44361 12.8443 4.30955 12.7901 4.30955 12.6804V10.4831C4.30955 10.4468 4.28364 10.416 4.24797 10.4089C4.24776 10.4089 4.24759 10.4089 4.24737 10.4088C3.44799 10.2308 2.44228 9.26705 2.2457 8.49185C1.91866 6.99198 1.91866 5.47149 2.2457 3.97162C2.44228 3.19642 3.44799 2.23272 4.24737 2.05466C6.07507 1.70704 7.92821 1.70704 9.75552 2.05466C10.5553 2.23272 11.561 3.19642 11.7572 3.97162C12.0846 5.47153 12.0846 6.99202 11.7572 8.49189Z" fill="white"/>
<path d="M8.73854 9.50572C8.61565 9.46838 8.49856 9.44333 8.38972 9.39826C7.26262 8.93063 6.22537 8.32734 5.40377 7.40261C4.93653 6.87676 4.57083 6.28306 4.26172 5.65477C4.11511 5.35683 3.99158 5.04724 3.86564 4.73958C3.75082 4.45908 3.91995 4.1693 4.09801 3.95789C4.26511 3.75951 4.48017 3.60774 4.71306 3.49581C4.89481 3.4085 5.07408 3.45886 5.20685 3.6129C5.49379 3.94599 5.75744 4.2961 5.97082 4.68222C6.10209 4.91971 6.06608 5.21 5.82817 5.37161C5.77033 5.41088 5.71765 5.45703 5.66382 5.50138C5.61655 5.54026 5.57212 5.57954 5.53972 5.63217C5.48056 5.72847 5.47772 5.84212 5.51579 5.94683C5.80913 6.75297 6.30357 7.37988 7.11503 7.71758C7.24488 7.77159 7.37524 7.83445 7.52486 7.81705C7.77536 7.78779 7.85649 7.51296 8.03206 7.3694C8.20363 7.22911 8.42294 7.22726 8.60774 7.34422C8.79264 7.46127 8.97181 7.58682 9.14996 7.71379C9.32484 7.8384 9.49891 7.96022 9.66017 8.10232C9.81528 8.23891 9.86869 8.4181 9.78134 8.60342C9.6215 8.94292 9.38882 9.22526 9.05328 9.40556C8.95854 9.45635 8.84536 9.47281 8.73854 9.50572C8.84536 9.47281 8.61565 9.46838 8.73854 9.50572Z" fill="white"/>
<path d="M7.00396 3.10849C8.47816 3.14983 9.68905 4.12818 9.94853 5.58568C9.99275 5.83404 10.0085 6.0879 10.0282 6.34C10.0364 6.446 9.97638 6.54672 9.862 6.54814C9.74383 6.54956 9.69068 6.45064 9.68295 6.34473C9.66778 6.13495 9.65725 5.92419 9.62833 5.71622C9.47575 4.61799 8.60006 3.70941 7.50695 3.51446C7.34242 3.48511 7.17416 3.47742 7.00748 3.45993C6.90217 3.44889 6.76424 3.44253 6.74091 3.31156C6.72136 3.20178 6.814 3.11438 6.91854 3.10875C6.94685 3.10708 6.97543 3.10841 7.00396 3.10849C6.97543 3.10841 8.47824 3.14983 7.00396 3.10849Z" fill="white"/>
<path d="M9.2471 6.01193C9.24465 6.03036 9.24341 6.07363 9.23258 6.11437C9.19348 6.26235 8.96901 6.28087 8.91741 6.13155C8.90207 6.08725 8.89979 6.03681 8.8997 5.98911C8.89919 5.6769 8.83134 5.36495 8.67386 5.09326C8.512 4.814 8.26468 4.57935 7.97468 4.43725C7.79929 4.3514 7.60967 4.29799 7.41743 4.26624C7.33342 4.25232 7.24852 4.24394 7.16409 4.23216C7.06178 4.21794 7.00712 4.15276 7.01202 4.05195C7.01653 3.95751 7.08558 3.88949 7.18854 3.89537C7.52682 3.91454 7.85364 3.98776 8.15446 4.147C8.76607 4.47094 9.11549 4.98218 9.2175 5.66491C9.2221 5.69589 9.22949 5.72649 9.23185 5.75751C9.23761 5.83408 9.24126 5.91078 9.2471 6.01193C9.24126 5.91078 9.24465 6.03028 9.2471 6.01193Z" fill="white"/>
<path d="M8.32689 5.97675C8.20357 5.97899 8.13757 5.91067 8.12481 5.79766C8.116 5.71886 8.10895 5.63893 8.09013 5.56219C8.05309 5.41107 7.97279 5.27108 7.84569 5.17848C7.7857 5.13478 7.71768 5.10294 7.64648 5.08232C7.55604 5.05615 7.46202 5.06337 7.37183 5.04128C7.27382 5.01726 7.21959 4.93786 7.23502 4.84595C7.24903 4.76225 7.33041 4.69693 7.42189 4.70359C7.99345 4.74484 8.40195 5.04034 8.46026 5.71323C8.46443 5.76071 8.46924 5.81085 8.45871 5.85636C8.44058 5.934 8.383 5.97297 8.32689 5.97675C8.383 5.97297 8.20353 5.97895 8.32689 5.97675Z" fill="white"/>
</svg>
