<svg width="12" height="8" viewBox="0 0 12 8" fill="none" xmlns="http://www.w3.org/2000/svg">
<path d="M11.5396 6.68029C11.5088 6.62798 11.3182 6.20803 10.4008 5.34489C9.44049 4.44106 9.56949 4.58782 10.7262 3.02501C11.4307 2.07323 11.7124 1.49199 11.6242 1.24351C11.5404 1.00665 11.0222 1.06914 11.0222 1.06914L9.2993 1.07931C9.2993 1.07931 9.17173 1.06187 9.07641 1.11927C8.98396 1.17594 8.92447 1.30672 8.92447 1.30672C8.92447 1.30672 8.65142 2.04344 8.28734 2.66973C7.51978 3.99132 7.21232 4.06107 7.0869 3.97897C6.79521 3.78789 6.86831 3.21028 6.86831 2.80051C6.86831 1.5196 7.05967 0.985582 6.49492 0.847537C6.30715 0.801764 6.16955 0.771249 5.69009 0.766163C5.07518 0.759624 4.55415 0.768343 4.25959 0.91438C4.06322 1.01174 3.912 1.22898 4.00445 1.24133C4.11841 1.25659 4.37641 1.3118 4.5133 1.50071C4.69032 1.7441 4.68387 2.29192 4.68387 2.29192C4.68387 2.29192 4.78564 3.79952 4.44665 3.98697C4.21373 4.11556 3.8948 3.85328 3.21037 2.65374C2.85991 2.03981 2.59474 1.36048 2.59474 1.36048C2.59474 1.36048 2.54386 1.23406 2.45284 1.16649C2.34247 1.08439 2.18767 1.05824 2.18767 1.05824L0.549332 1.06841C0.549332 1.06841 0.303511 1.07567 0.213209 1.18393C0.13294 1.28056 0.206759 1.47964 0.206759 1.47964C0.206759 1.47964 1.48962 4.52171 2.94162 6.05546C4.27393 7.46133 5.78613 7.36906 5.78613 7.36906H6.47127C6.47127 7.36906 6.67839 7.34581 6.78375 7.23029C6.88122 7.12421 6.87763 6.92514 6.87763 6.92514C6.87763 6.92514 6.86401 5.99297 7.29116 5.85566C7.71185 5.72052 8.25223 6.75658 8.82486 7.15546C9.25773 7.45697 9.58669 7.39086 9.58669 7.39086L11.1182 7.36906C11.1182 7.36906 11.9195 7.31893 11.5396 6.68029Z" fill="white"/>
</svg>
