<svg width="46" height="48" viewBox="0 0 46 48" fill="none" xmlns="http://www.w3.org/2000/svg">
<path d="M43.4743 17.6747L39.2647 13.4655L39.4035 12.8831L44.0065 11.5214C44.3561 11.4181 44.5965 11.0966 44.5965 10.732C44.5965 10.3673 44.3561 10.0459 44.0065 9.94255L39.4035 8.5808L38.4002 4.36756C38.3117 3.99652 37.9806 3.73495 37.5995 3.73495C37.2183 3.73495 36.8872 3.99652 36.7987 4.36756L35.7963 8.5808L34.7035 8.90411L28.1288 2.33019C26.9133 1.11436 25.2966 0.444702 23.578 0.444702C21.8586 0.444702 20.2427 1.11436 19.0273 2.33019L3.68199 17.6747C1.17233 20.1839 1.17233 24.2677 3.68199 26.777L4.45043 27.5454L3.54679 30.7525C3.07243 33.2498 0.171339 37.5438 0.142322 37.5868C-0.0795249 37.9136 -0.0385718 38.3521 0.241103 38.6314L9.36852 47.7588C9.5276 47.9179 9.73833 48 9.9505 48C10.1049 48 10.2608 47.9566 10.3975 47.8677L15.302 44.6931C16.5615 43.8777 17.7672 42.9774 18.9217 42.0163L19.0271 42.1215C20.2425 43.3373 21.8584 44.0065 23.5778 44.0065C25.2966 44.0065 26.9131 43.3373 28.1286 42.1215L43.4739 26.777C45.9831 24.2673 45.9831 20.1843 43.4743 17.6747ZM36.7199 10.0245C37.0029 9.9409 37.2191 9.71247 37.2875 9.42559L37.5995 8.11406L37.9123 9.42559C37.9806 9.71267 38.1969 9.9409 38.4798 10.0245L40.8714 10.732L38.4798 11.4395C38.1969 11.5231 37.9806 11.7515 37.9123 12.0384L37.5995 13.3499L37.2875 12.0384C37.2191 11.7513 37.0029 11.5231 36.7199 11.4395L34.3283 10.732L36.7199 10.0245ZM14.4072 43.3114L10.0623 46.1242L1.87944 37.9413C2.72669 36.6251 4.73011 33.3418 5.14808 31.1295L8.65791 18.6717C8.79538 17.9498 9.43602 17.4539 10.182 17.5271C10.5623 17.5633 10.9048 17.7465 11.146 18.0432C11.3783 18.3287 11.4884 18.6847 11.458 19.0498L9.82127 26.1425C9.73936 26.5006 9.90317 26.8696 10.2248 27.0476C10.544 27.2256 10.9451 27.1698 11.2056 26.9097L23.0236 15.0921C23.4842 14.632 24.2825 14.6334 24.7416 15.0921C24.9706 15.3216 25.0976 15.6268 25.0976 15.9511C25.0976 16.2759 24.9706 16.5811 24.7416 16.8105C24.7416 16.8105 24.7416 16.8107 24.7414 16.8107L16.0468 25.5058C15.7253 25.8272 15.7253 26.3483 16.0468 26.6698C16.3682 26.9912 16.8893 26.9912 17.2107 26.6698L28.3076 15.5725C28.782 15.0989 29.5521 15.0989 30.0264 15.5725C30.2555 15.8019 30.3818 16.1071 30.3818 16.4319C30.3818 16.7562 30.2557 17.0614 30.0264 17.2909L27.1259 20.1911C27.1255 20.1915 27.1249 20.192 27.1243 20.1924L18.9287 28.3879C18.6073 28.7094 18.6073 29.2305 18.9287 29.5519C19.0894 29.7126 19.3002 29.7931 19.5107 29.7931C19.7212 29.7931 19.932 29.7126 20.0927 29.5519L28.2893 21.3557C28.7733 20.8725 29.5605 20.8727 30.0458 21.3563C30.5298 21.8408 30.5298 22.6294 30.0458 23.1136L27.6824 25.477L21.4081 31.7508C21.0867 32.0723 21.0867 32.5934 21.4081 32.9148C21.7296 33.2363 22.2507 33.2363 22.5721 32.9148L23.0131 32.4738C23.0135 32.4734 23.014 32.4734 23.0142 32.473L28.8464 26.6407C29.2942 26.1925 30.0764 26.1913 30.5257 26.6412C30.75 26.8651 30.8737 27.1633 30.8737 27.4804C30.8737 27.7975 30.7498 28.0957 30.5257 28.32L20.3001 38.5458C18.512 40.3337 16.5296 41.9371 14.4072 43.3114ZM42.3101 25.613L26.9648 40.9575C26.0597 41.8621 24.857 42.3602 23.578 42.3602C22.2982 42.3602 21.0957 41.8622 20.1913 40.9571L20.1709 40.9367C20.6107 40.5368 21.0441 40.1302 21.4639 39.7102L31.6894 29.4844C32.2249 28.9489 32.5198 28.2375 32.5198 27.4808C32.5198 26.7235 32.2247 26.012 31.6894 25.4776C31.3925 25.18 31.0315 24.9738 30.6459 24.8415L31.2095 24.2778C32.3358 23.1515 32.3358 21.3187 31.2095 20.192C30.8936 19.8767 30.5199 19.6591 30.1244 19.5206L31.1902 18.4548C31.7304 17.9146 32.0278 17.196 32.0278 16.4319C32.0278 15.6673 31.7304 14.9487 31.1902 14.4081C30.0719 13.2919 28.2584 13.2939 27.1434 14.4085L26.5662 14.9858C26.4283 14.6001 26.2139 14.2362 25.9056 13.9282C24.826 12.8473 22.9409 12.8457 21.8596 13.9282L12.0716 23.7162L13.0749 19.3684C13.0821 19.3371 13.087 19.3056 13.0909 19.2743C13.1817 18.4524 12.9454 17.6465 12.4237 17.0046C11.9021 16.3631 11.1616 15.9664 10.3384 15.888C8.7499 15.7383 7.33753 16.8019 7.05703 18.2947L4.96266 25.7291L4.84638 25.6128C2.979 23.745 2.979 20.7062 4.84638 18.8384L20.1917 3.49396C21.0961 2.58929 22.2986 2.09086 23.5784 2.09086C24.8575 2.09086 26.0601 2.58929 26.9652 3.49396L32.9071 9.43526L31.1929 9.94234C30.8432 10.0456 30.6028 10.3671 30.6028 10.7318C30.6028 11.0964 30.8432 11.4179 31.1929 11.5212L35.7967 12.8829L36.7991 17.0962C36.8876 17.4672 37.2187 17.7288 37.5999 17.7288C37.981 17.7288 38.3121 17.4672 38.4006 17.0962L38.8173 15.3457L42.3107 18.8386C44.1769 20.7064 44.1769 23.7452 42.3101 25.613Z" fill="#7892FF"/>
<path d="M4.64349 3.29272C5.0985 3.29272 5.46667 2.92414 5.46667 2.46954V0.823179C5.46667 0.368579 5.0985 0 4.64349 0C4.18848 0 3.82031 0.368579 3.82031 0.823179V2.46954C3.82031 2.92414 4.18848 3.29272 4.64349 3.29272Z" fill="#7892FF"/>
<path d="M4.64349 4.93896C4.18848 4.93896 3.82031 5.30754 3.82031 5.76214V7.4085C3.82031 7.8631 4.18848 8.23168 4.64349 8.23168C5.0985 8.23168 5.46667 7.8631 5.46667 7.4085V5.76214C5.46667 5.30754 5.0985 4.93896 4.64349 4.93896Z" fill="#7892FF"/>
<path d="M1.35052 4.93908H2.99688C3.45189 4.93908 3.82006 4.5705 3.82006 4.1159C3.82006 3.6613 3.45189 3.29272 2.99688 3.29272H1.35052C0.895511 3.29272 0.527344 3.6613 0.527344 4.1159C0.527344 4.5705 0.895511 4.93908 1.35052 4.93908Z" fill="#7892FF"/>
<path d="M6.29193 4.93908H7.93829C8.3933 4.93908 8.76147 4.5705 8.76147 4.1159C8.76147 3.6613 8.3933 3.29272 7.93829 3.29272H6.29193C5.83692 3.29272 5.46875 3.6613 5.46875 4.1159C5.46875 4.5705 5.83692 4.93908 6.29193 4.93908Z" fill="#7892FF"/>
<path d="M39.6311 40.3357C38.0426 40.3357 36.75 41.6283 36.75 43.2168C36.75 44.8054 38.0426 46.0979 39.6311 46.0979C41.2197 46.0979 42.5123 44.8054 42.5123 43.2168C42.5123 41.6283 41.2197 40.3357 39.6311 40.3357ZM39.6311 44.4516C38.9502 44.4516 38.3964 43.8978 38.3964 43.2168C38.3964 42.5358 38.9502 41.9821 39.6311 41.9821C40.3121 41.9821 40.8659 42.5358 40.8659 43.2168C40.8659 43.8978 40.3119 44.4516 39.6311 44.4516Z" fill="#7892FF"/>
</svg>
