<svg width="49" height="43" viewBox="0 0 49 43" fill="none" xmlns="http://www.w3.org/2000/svg">
<path d="M28.832 26.8153C28.8759 26.8296 33.183 28.303 33.881 31.7941L35.4437 31.481C34.5663 27.0942 29.5492 25.3745 29.3365 25.3036L28.832 26.8153Z" fill="#7892FF"/>
<path d="M23.5055 16.4963L21.9125 16.462C21.9117 16.4748 21.7627 17.804 19.043 19.8432L19.9992 21.1182C23.3373 18.6152 23.5055 16.8286 23.5055 16.4963Z" fill="#7892FF"/>
<path d="M40.4688 3.98364L44.4525 -9.19789e-05L45.5793 1.12669L41.5955 5.11042L40.4688 3.98364Z" fill="#7892FF"/>
<path d="M43.4258 5.34021H48.207V6.93396H43.4258V5.34021Z" fill="#7892FF"/>
<path d="M40.4648 8.29736L41.5916 7.17058L45.5754 11.1543L44.4486 12.2811L40.4648 8.29736Z" fill="#7892FF"/>
<path d="M0 31.7423L0.7905 33.1256L5.78372 30.2728C6.49852 31.0394 7.03402 31.4387 7.10414 31.4889C7.242 31.5877 7.40456 31.6371 7.56713 31.6371C7.70658 31.6371 7.84763 31.6004 7.97274 31.5263L23.7293 22.2156C23.0568 25.3521 22.7078 28.5643 22.7078 31.7734V41.9965C22.7078 42.4363 23.0648 42.7933 23.5046 42.7933H37.0515C37.4069 42.7933 37.7201 42.5575 37.8173 42.2156L38.9688 38.1858C39.2828 37.0869 39.4421 35.9498 39.4421 34.8078C39.4421 31.5223 38.1631 28.4344 35.8395 26.1116L32.2703 22.5416V20.3342C33.1954 20.0043 33.864 19.1277 33.864 18.0902C33.864 17.4758 33.6241 16.9204 33.2424 16.4965C33.6249 16.0725 33.864 15.5171 33.864 14.9027C33.864 14.3816 33.6919 13.9018 33.4074 13.509L34.5597 12.7408L35.6912 13.8724L36.818 12.7456L36.2769 12.2045L37.7456 11.9104C38.7281 11.7144 39.4421 10.8434 39.4421 9.84096C39.4421 8.67832 38.497 7.73243 37.285 7.73243C37.2842 7.73243 37.2834 7.73243 37.2826 7.73243L37.0977 7.74358L37.2443 7.70693C37.5998 7.61848 37.8484 7.29973 37.8484 6.93396V5.34021C37.8484 4.97444 37.599 4.65569 37.2451 4.56724L34.0576 3.77037L34.0537 3.78471C33.9915 3.76877 33.9309 3.74646 33.864 3.74646H24.3015C23.8616 3.74646 23.5046 4.10346 23.5046 4.54333V8.52771C23.5046 8.82973 23.6752 9.10544 23.9453 9.24091L24.3421 9.43933L17.6229 14.1425L1.87106 16.5052C1.48059 16.5634 1.19213 16.8989 1.19213 17.2933C1.19213 17.6065 1.21364 17.8974 1.2248 18.1986L0.274125 18.3444L0.516375 19.9198L1.33477 19.7939C1.78978 24.1385 3.35644 27.1515 4.75177 29.0273L0 31.7423ZM24.3015 41.1996V39.6058H36.9057L36.4499 41.1996H24.3015ZM34.7127 27.2375C36.7351 29.26 37.8484 31.9479 37.8484 34.8078C37.8484 35.8023 37.7097 36.7921 37.4364 37.7483L37.3615 38.0121H24.3015V31.7734C24.3015 28.5675 24.6537 25.3561 25.3494 22.2276L27.3312 13.309H28.9074C28.5249 13.7329 28.2859 14.2883 28.2859 14.9027C28.2859 15.5171 28.5257 16.0725 28.9074 16.4965C28.5249 16.9204 28.2859 17.4758 28.2859 18.0902C28.2859 19.4082 29.3585 20.4808 30.6765 20.4808V22.8715C30.6765 23.0826 30.7602 23.2858 30.91 23.4349L34.7127 27.2375ZM32.2703 14.9027C32.2703 15.3418 31.9125 15.6996 31.4734 15.6996H30.6765C30.2374 15.6996 29.8796 15.3418 29.8796 14.9027C29.8796 14.4636 30.2374 14.1058 30.6765 14.1058H31.4734C31.9125 14.1058 32.2703 14.4636 32.2703 14.9027ZM31.4734 18.8871H30.6765C30.2374 18.8871 29.8796 18.5293 29.8796 18.0902C29.8796 17.6511 30.2374 17.2933 30.6765 17.2933H31.4734C31.9125 17.2933 32.2703 17.6511 32.2703 18.0902C32.2703 18.5293 31.9125 18.8871 31.4734 18.8871ZM31.9555 12.5607C31.8001 12.5288 31.6383 12.5121 31.4734 12.5121H30.8518C31.2343 12.0881 31.4734 11.5327 31.4734 10.9183C31.4734 10.4753 31.3443 10.0657 31.1339 9.70948L31.5053 9.68637L33.4098 11.5909L31.9555 12.5607ZM37.332 9.32458C37.6165 9.32458 37.8484 9.55648 37.8484 9.84096C37.8484 10.0864 37.6739 10.3 37.4332 10.3478L34.923 10.8498L33.6273 9.55409L37.332 9.32458ZM36.2546 6.3116L34.6609 6.71004V5.56413L36.2546 5.96257V6.3116ZM25.0984 5.34021H33.0671V7.19135L29.5864 8.58349C29.4238 8.54843 29.2557 8.52771 29.0828 8.52771H26.0833L25.0984 8.03524V5.34021ZM18.0444 15.6908C18.1664 15.6725 18.2819 15.6263 18.3831 15.5561L26.1463 10.1215H29.0828C29.5218 10.1215 29.8796 10.4793 29.8796 10.9183C29.8796 11.3574 29.5218 11.7152 29.0828 11.7152H25.8953C25.5932 11.7152 25.3175 11.8857 25.1821 12.1559L23.5883 15.3434L25.0139 16.0566L25.147 15.7896L24.1907 20.0912L7.64602 29.868C6.47063 28.8026 3.00741 25.0724 2.79623 17.9786L18.0444 15.6908Z" fill="#7892FF"/>
</svg>
