<svg width="45" height="45" viewBox="0 0 45 45" fill="none" xmlns="http://www.w3.org/2000/svg">
<g clip-path="url(#clip0)">
<path d="M36.5938 9.81146L34.4542 7.67188L32.3146 9.81146L31.3203 8.8172L34.4542 5.68335L37.588 8.8172L36.5938 9.81146Z" fill="#7892FF"/>
<path d="M33.75 7.02917H35.1562V14.7635H33.75V7.02917Z" fill="#7892FF"/>
<path d="M37.9688 23.9042H36.5625V20.8805C41.8675 19.7977 45.491 14.8738 44.9464 9.48669C44.4023 4.09996 39.8677 0 34.4531 0C29.0386 0 24.504 4.09996 23.9598 9.48669C23.4153 14.8738 27.0387 19.7977 32.3438 20.8805V23.9042H30.9375V43.5917H28.125V21.0917H21.0938V43.5917H18.2812V26.7167H11.25V43.5917H8.4375V33.7479H1.40625V43.5917H0V44.9979H45V43.5917H37.9688V23.9042ZM7.03125 43.5917H2.8125V35.1542H7.03125V43.5917ZM16.875 43.5917H12.6562V28.1229H16.875V43.5917ZM26.7188 43.5917H22.5V22.4979H26.7188V43.5917ZM25.3125 10.5448C25.3125 5.6662 29.1436 1.64761 34.0168 1.41483C38.8895 1.18172 43.0867 4.81682 43.5522 9.67278C44.0174 14.5291 40.5873 18.8951 35.7588 19.5917L35.1562 19.6782V23.9042H33.75V19.6782L33.1475 19.5917C28.6596 18.9253 25.331 15.0818 25.3125 10.5448ZM36.5625 43.5917H32.3438V25.3104H36.5625V43.5917Z" fill="#7892FF"/>
<path d="M42.1875 10.5448C42.1875 6.27318 38.7247 2.81042 34.4531 2.81042C30.1815 2.81042 26.7188 6.27318 26.7188 10.5448C26.7188 14.8164 30.1815 18.2792 34.4531 18.2792C38.7227 18.274 42.1824 14.8144 42.1875 10.5448ZM28.125 10.5448C28.125 7.04977 30.9581 4.21667 34.4531 4.21667C37.9482 4.21667 40.7812 7.04977 40.7812 10.5448C40.7812 14.0395 37.9482 16.8729 34.4531 16.8729C30.9598 16.8688 28.1288 14.0381 28.125 10.5448Z" fill="#7892FF"/>
<path d="M10.1198 23.9042H15.0578L21.0948 17.8672V19.6854H22.501V15.4667H18.2823V16.8729H20.1005L14.4755 22.4979H9.56975L0.226562 31.1222L1.18169 32.1546L10.1198 23.9042Z" fill="#7892FF"/>
<path d="M40.7812 23.9042H45V25.3104H40.7812V23.9042Z" fill="#7892FF"/>
<path d="M40.7812 26.7167H45V28.1229H40.7812V26.7167Z" fill="#7892FF"/>
<path d="M40.7812 29.5292H45V30.9354H40.7812V29.5292Z" fill="#7892FF"/>
<path d="M40.7812 32.3417H45V33.7479H40.7812V32.3417Z" fill="#7892FF"/>
<path d="M40.7812 35.1542H45V36.5604H40.7812V35.1542Z" fill="#7892FF"/>
<path d="M40.7812 37.9667H45V39.3729H40.7812V37.9667Z" fill="#7892FF"/>
<path d="M40.7812 40.7792H45V42.1854H40.7812V40.7792Z" fill="#7892FF"/>
</g>
<defs>
<clipPath id="clip0">
<rect width="45" height="45" fill="white"/>
</clipPath>
</defs>
</svg>
