<svg width="48" height="46" viewBox="0 0 48 46" fill="none" xmlns="http://www.w3.org/2000/svg">
<path d="M36.0983 21.1919L42.3823 17.6991C44.0831 16.7655 44.8281 14.7155 44.1235 12.9077C43.4189 11.0999 41.4831 10.0947 39.5991 10.5583L30.3326 12.8215C29.8894 9.21182 27.0661 6.35589 23.4617 5.87128C19.8573 5.38667 16.3799 7.39547 14.999 10.7599C13.5722 10.6689 12.2113 11.3713 11.459 12.5871L1.90945 26.9999L1.14945 28.2399C1.13745 28.2591 1.10945 28.3119 1.09905 28.3319C-0.513558 31.5575 -0.342295 35.3878 1.55174 38.4565C3.44578 41.5253 6.79286 43.3955 10.399 43.3999H28.799C28.8254 43.3999 28.8502 43.3927 28.879 43.3927L30.0919 44.6055C30.6895 45.2074 31.5029 45.5453 32.351 45.5439C33.1996 45.5497 34.0144 45.2121 34.6102 44.6079C35.0103 44.2134 35.2985 43.7198 35.4454 43.1775L35.7503 43.4831C37.0204 44.6775 39.0014 44.6751 40.2687 43.4775C40.6737 43.0731 40.9624 42.5672 41.1047 42.0127C42.3898 42.9935 44.1978 42.8916 45.3647 41.7727C46.5082 40.6199 46.6112 38.7949 45.6047 37.5207C46.7149 37.2314 47.5854 36.3698 47.886 35.2626C48.1866 34.1553 47.8714 32.9718 47.0599 32.1607L36.0983 21.1919ZM22.399 7.39994C24.9307 7.40102 27.2238 8.89437 28.2486 11.2094C29.2733 13.5244 28.8371 16.2259 27.1359 18.1007C26.9352 18.321 26.8735 18.6345 26.9759 18.9144C27.0782 19.1942 27.3276 19.394 27.623 19.4327C29.2106 19.645 30.3968 20.9983 30.399 22.5999H16.4918L18.4718 15.6687C18.9787 13.9151 18.1833 12.0468 16.5678 11.1967C17.5845 8.88494 19.8736 7.3945 22.399 7.39994ZM1.59905 32.9999C1.59506 31.6382 1.90813 30.2942 2.51345 29.0743L3.27345 27.8343C3.27985 27.8239 3.28865 27.8071 3.29825 27.7887L12.799 13.4583C12.8061 13.4491 12.8123 13.4392 12.8174 13.4287C13.3243 12.5833 14.3242 12.1686 15.2806 12.4071H15.2862H15.3142C15.4714 12.4468 15.624 12.5028 15.7694 12.5743C16.5429 12.9556 17.0299 13.7457 17.023 14.6079C17.023 14.8181 16.9928 15.0271 16.9334 15.2287L14.6614 23.1807C14.5927 23.4221 14.6412 23.6817 14.7924 23.882C14.9436 24.0823 15.1801 24.2 15.431 24.1999H31.9991C32.8827 24.1999 33.599 24.9163 33.599 25.7999C33.599 26.6836 32.8827 27.3999 31.9991 27.3999H19.999C19.5572 27.3999 19.199 27.7581 19.199 28.1999C19.199 28.6418 19.5572 28.9999 19.999 28.9999H34.3991C35.2827 28.9999 35.9991 29.7163 35.9991 30.5999C35.9991 31.4836 35.2827 32.1999 34.3991 32.1999H19.199C18.7572 32.1999 18.399 32.5581 18.399 32.9999C18.399 33.4418 18.7572 33.7999 19.199 33.7999H31.9991C32.8827 33.7999 33.599 34.5163 33.599 35.3999C33.599 36.2836 32.8827 36.9999 31.9991 36.9999H18.399C17.9572 36.9999 17.599 37.3581 17.599 37.7999C17.599 38.2418 17.9572 38.5999 18.399 38.5999H28.799C29.6827 38.5999 30.399 39.3163 30.399 40.1999C30.399 41.0836 29.6827 41.7999 28.799 41.7999H10.399C5.54132 41.7942 1.60478 37.8577 1.59905 32.9999ZM33.4758 43.4799C32.8432 44.0805 31.8503 44.078 31.2206 43.4743L30.5935 42.8463C30.7609 42.733 30.9173 42.6042 31.0606 42.4615C31.6631 41.8634 32.001 41.0489 31.9991 40.1999C31.9977 40.0275 31.9824 39.8555 31.9535 39.6855L33.4814 41.2143L33.4919 41.2255C33.7905 41.5256 33.9568 41.9327 33.9535 42.356C33.9502 42.7794 33.7776 43.1838 33.4743 43.4791L33.4758 43.4799ZM39.1375 42.3463C38.5008 42.94 37.5133 42.94 36.8767 42.3463L34.6278 40.0975L34.6102 40.0799L32.9655 38.4399C34.0641 38.1037 34.8921 37.1953 35.1255 36.0703L39.1367 40.0823C39.4402 40.3808 39.6112 40.7885 39.6114 41.2142C39.6115 41.6398 39.4408 42.0477 39.1375 42.3463ZM44.2335 40.6423C43.6023 41.2515 42.6022 41.2515 41.9711 40.6423L40.2671 38.9463L35.0454 33.7199C36.175 33.5002 37.092 32.6764 37.4311 31.5767L42.5326 36.6799L42.5375 36.6839L42.5687 36.7151L44.2311 38.3775C44.8535 39.0038 44.8546 40.0148 44.2335 40.6423ZM45.9295 35.5543C45.308 36.1513 44.3297 36.1629 43.6943 35.5807L43.6687 35.5543L37.2094 29.0959C36.7169 28.1693 35.8013 27.543 34.7591 27.4199C35.3399 26.4304 35.3466 25.2056 34.7764 24.2098C34.2062 23.2141 33.1465 22.5998 31.9991 22.5999C31.9951 20.6807 30.8506 18.9476 29.087 18.1903C29.8138 17.074 30.2484 15.7929 30.351 14.4647L39.9831 12.1127C40.9688 11.8719 41.9945 12.3152 42.4946 13.1981C42.9948 14.081 42.8476 15.1887 42.1343 15.9103C41.9807 16.0613 41.8067 16.19 41.6175 16.2927L34.3942 20.3087C34.1749 20.4307 34.0256 20.6486 33.9908 20.8971C33.9561 21.1456 34.04 21.3961 34.2174 21.5735L45.9295 33.2935C46.553 33.9182 46.553 34.9297 45.9295 35.5543Z" fill="#7892FF"/>
<path d="M19.5741 11.7767C19.7841 11.7756 19.9852 11.692 20.1341 11.5439C21.0643 10.6121 22.4703 10.3451 23.6773 10.8711C24.0825 11.0478 24.5542 10.8627 24.7309 10.4575C24.9076 10.0523 24.7225 9.58063 24.3173 9.4039C22.5098 8.61311 20.4023 9.01238 19.0093 10.4095C18.7801 10.6374 18.7106 10.9808 18.8332 11.2799C18.9557 11.579 19.2461 11.775 19.5693 11.7767H19.5741Z" fill="#7892FF"/>
<path d="M31.1992 6.1999C31.1992 7.7463 32.4528 8.9999 33.9992 8.9999C35.5456 8.9999 36.7992 7.7463 36.7992 6.1999C36.7992 4.65351 35.5456 3.3999 33.9992 3.3999C32.4528 3.3999 31.1992 4.65351 31.1992 6.1999ZM35.1992 6.1999C35.1992 6.86264 34.662 7.3999 33.9992 7.3999C33.3365 7.3999 32.7992 6.86264 32.7992 6.1999C32.7992 5.53716 33.3365 4.9999 33.9992 4.9999C34.662 4.9999 35.1992 5.53716 35.1992 6.1999Z" fill="#7892FF"/>
<path d="M44 0.199951C41.7909 0.199951 40 1.99081 40 4.19995C40 6.40909 41.7909 8.19995 44 8.19995C46.2092 8.19995 48 6.40909 48 4.19995C47.9974 1.99191 46.2081 0.202596 44 0.199951ZM44 6.59995C42.6745 6.59995 41.6 5.52543 41.6 4.19995C41.6 2.87447 42.6745 1.79995 44 1.79995C45.3255 1.79995 46.4 2.87447 46.4 4.19995C46.4 4.83647 46.1472 5.44692 45.6971 5.89701C45.247 6.34709 44.6365 6.59995 44 6.59995Z" fill="#7892FF"/>
<path d="M41.5977 22.5999C41.5977 23.9254 42.6722 24.9999 43.9977 24.9999C45.3231 24.9999 46.3977 23.9254 46.3977 22.5999C46.3977 21.2745 45.3231 20.2 43.9977 20.2C42.6722 20.2 41.5977 21.2745 41.5977 22.5999ZM43.9977 21.7999C44.4395 21.7999 44.7977 22.1581 44.7977 22.5999C44.7977 23.0418 44.4395 23.3999 43.9977 23.3999C43.5558 23.3999 43.1977 23.0418 43.1977 22.5999C43.1977 22.1581 43.5558 21.7999 43.9977 21.7999Z" fill="#7892FF"/>
</svg>
