<svg width="39" height="41" viewBox="0 0 39 41" fill="none" xmlns="http://www.w3.org/2000/svg">
<path d="M34.1071 28.65H33.0389C32.2897 28.6507 31.551 28.8251 30.8806 29.1596C29.9052 29.6444 28.7591 29.6444 27.7837 29.1596C27.3946 28.9686 26.9816 28.8309 26.5558 28.7503L27.8853 18.4179H29.3321C29.7089 18.4179 30.0143 18.1124 30.0143 17.7357V15.0071C30.0143 14.6304 29.7089 14.325 29.3321 14.325H26.6036V12.2786C26.6036 12.0976 26.5316 11.9242 26.4037 11.7963L23.1929 8.58545V6.46671L24.227 5.63996L25.9931 9.17277L27.2141 8.56294L25.3164 4.76818L26.1602 4.09286H28.65C29.0267 4.09286 29.3321 3.78743 29.3321 3.41071V0.682143C29.3321 0.305429 29.0267 0 28.65 0H21.8286C18.4397 0.00409286 15.6934 2.7504 15.6893 6.13929C15.6893 6.516 15.9947 6.82143 16.3714 6.82143H17.7357V8.58545L15.8892 10.432C15.7613 10.5599 15.6893 10.7333 15.6893 10.9143V14.325H14.325V8.86786C14.324 8.78336 14.3071 8.69988 14.2752 8.6216C14.2628 8.59509 14.2486 8.56933 14.2329 8.54452C14.2165 8.50879 14.1974 8.47435 14.1756 8.44152L11.5964 5.21839V0.682143C11.5964 0.305429 11.291 0 10.9143 0H6.82143C6.44472 0 6.13929 0.305429 6.13929 0.682143V5.21839L3.5601 8.44152C3.53836 8.47435 3.51918 8.50879 3.5028 8.54452C3.48711 8.56933 3.47296 8.59509 3.46051 8.6216C3.42862 8.69988 3.41174 8.78336 3.41071 8.86786V14.325H0.682143C0.305429 14.325 0 14.6304 0 15.0071V17.7357C0 18.1124 0.305429 18.4179 0.682143 18.4179H2.12897L4.78046 38.9695C4.82437 39.3097 5.11411 39.5644 5.45714 39.5643H21.5148C22.2884 40.4315 23.395 40.9277 24.5571 40.9286H25.6254C26.3745 40.9279 27.1133 40.7535 27.7837 40.419C28.7591 39.9342 29.9052 39.9342 30.8806 40.419C31.551 40.7535 32.2897 40.9279 33.0389 40.9286H34.1071C36.3667 40.9264 38.1978 39.0952 38.2 36.8357V32.7429C38.1978 30.4833 36.3667 28.6522 34.1071 28.65ZM26.6036 1.36429H27.9679V2.72857H26.6036V1.36429ZM28.65 15.6893V17.0536H19.1V15.6893H28.65ZM17.102 5.45714C17.4442 3.10929 19.4559 1.36727 21.8286 1.36429H25.2393V3.08329L22.2713 5.45714H17.102ZM21.8286 6.82143V8.18571H19.1V6.82143H21.8286ZM17.0536 11.1967L18.7003 9.55H22.2283L25.2393 12.561V14.325H17.0536V11.1967ZM16.3714 15.6893H17.7357V20.4643C17.7343 20.7241 17.8806 20.9621 18.1129 21.0782L22.2058 23.1246C22.4054 23.223 22.5567 23.3979 22.6253 23.6096C22.696 23.8369 22.6714 24.0831 22.5571 24.2918C22.3608 24.6856 21.8825 24.8458 21.4886 24.6494C21.488 24.6491 21.4874 24.6488 21.4868 24.6486L18.7173 23.2638C18.3788 23.0984 17.9704 23.2387 17.805 23.5772C17.7597 23.67 17.736 23.7718 17.7357 23.875V30.6964C17.7357 31.4499 17.1249 32.0607 16.3714 32.0607V25.9214H15.0071V32.0607H13.6429V25.9214H12.2786V32.0607H10.9143V25.9214H9.55V32.0607C8.79649 32.0607 8.18571 31.4499 8.18571 30.6964V15.6893H16.3714ZM7.50357 1.36429H10.2321V4.775H7.50357V1.36429ZM7.14886 6.13929H10.5869L12.224 8.18571H5.51171L7.14886 6.13929ZM4.775 9.55H12.9607V14.325H4.775V9.55ZM1.36429 17.0536V15.6893H6.82143V17.0536H1.36429ZM20.4643 32.7429V36.8357C20.4655 37.3008 20.5462 37.7621 20.703 38.2H6.05675L3.50417 18.4179H6.82143V30.6964C6.82143 32.2034 8.04306 33.425 9.55 33.425H16.3714C17.8784 33.425 19.1 32.2034 19.1 30.6964V24.9787L20.8818 25.8696C21.9584 26.401 23.262 25.9589 23.7934 24.8823C23.7956 24.8778 23.7977 24.8733 23.8 24.8689C24.0642 24.3451 24.1091 23.7375 23.9248 23.1806C23.743 22.6234 23.3448 22.1627 22.8197 21.9022L19.1 20.0427V18.4179H26.5101L25.1895 28.65H24.5571C22.2976 28.6522 20.4665 30.4833 20.4643 32.7429ZM36.8357 36.8357C36.8357 38.3427 35.6141 39.5643 34.1071 39.5643H33.0389C32.5016 39.5635 31.9719 39.4384 31.4911 39.1987C30.1311 38.5229 28.5332 38.5229 27.1732 39.1987C26.6924 39.4384 26.1627 39.5635 25.6254 39.5643H24.5571C23.0502 39.5643 21.8286 38.3427 21.8286 36.8357V35.7852C22.5766 36.4611 23.5489 36.8355 24.5571 36.8357H25.6254C26.3745 36.835 27.1133 36.6607 27.7837 36.3262C28.7591 35.8413 29.9052 35.8413 30.8806 36.3262C31.551 36.6607 32.2897 36.835 33.0389 36.8357H34.1071C35.1153 36.8355 36.0877 36.4611 36.8357 35.7852V36.8357ZM34.1071 35.4714H33.0389C32.5016 35.4707 31.9719 35.3456 31.4911 35.1058C30.1311 34.4301 28.5332 34.4301 27.1732 35.1058C26.6924 35.3456 26.1627 35.4707 25.6254 35.4714H24.5571C23.0502 35.4714 21.8286 34.2498 21.8286 32.7429C21.8286 31.2359 23.0502 30.0143 24.5571 30.0143H25.6254C26.1627 30.0151 26.6924 30.1401 27.1732 30.3799C28.5333 31.0552 30.131 31.0552 31.4911 30.3799C31.9719 30.1401 32.5016 30.0151 33.0389 30.0143H34.1071C35.6141 30.0143 36.8357 31.2359 36.8357 32.7429C36.8357 34.2498 35.6141 35.4714 34.1071 35.4714Z" fill="#7892FF"/>
</svg>
