<svg width="46" height="46" viewBox="0 0 46 46" fill="none" xmlns="http://www.w3.org/2000/svg">
<path d="M10.0625 36.9028C10.0625 39.7167 11.1579 42.3624 13.1481 44.3519C13.2825 44.487 13.4658 44.5625 13.6562 44.5625H32.3438C32.5342 44.5625 32.7175 44.487 32.8519 44.3519C34.8421 42.3624 35.9375 39.7167 35.9375 36.9028V22.2812C35.9375 17.9314 32.9626 12.3984 28.6947 11.413L28.1376 11.2844C27.4656 11.1298 26.9452 10.6519 26.7188 10.0373C27.0537 9.97625 27.3125 9.69594 27.3125 9.34375V2.875C27.3125 2.08222 26.6678 1.4375 25.875 1.4375H20.125C19.3322 1.4375 18.6875 2.08222 18.6875 2.875V9.34375C18.6875 9.69594 18.9462 9.97625 19.2812 10.0373C19.0548 10.6519 18.5344 11.1298 17.8624 11.2844L17.3053 11.413C13.0374 12.3984 10.0625 17.9314 10.0625 22.2812V36.9028ZM20.125 2.875H25.875V8.625H20.125V2.875ZM11.5 22.2812C11.5 18.4798 14.1206 13.6232 17.6281 12.8139L18.1851 12.6852C19.509 12.379 20.4872 11.3455 20.7597 10.0625H25.2389C25.5113 11.3455 26.4895 12.3798 27.8142 12.6852L28.3712 12.8139C31.8794 13.6232 34.5 18.4798 34.5 22.2812V36.9028C34.5 39.2351 33.6289 41.4323 32.0397 43.125H13.9603C12.3711 41.4331 11.5 39.2351 11.5 36.9028V22.2812Z" fill="#7892FF"/>
<path d="M30.1875 33.7812C31.7731 33.7812 33.0625 32.4918 33.0625 30.9062V22.2812C33.0625 20.6957 31.7731 19.4062 30.1875 19.4062C28.6019 19.4062 27.3125 20.6957 27.3125 22.2812V30.9062C27.3125 32.4918 28.6019 33.7812 30.1875 33.7812ZM28.75 22.2812C28.75 21.4885 29.3947 20.8438 30.1875 20.8438C30.9803 20.8438 31.625 21.4885 31.625 22.2812V30.9062C31.625 31.699 30.9803 32.3438 30.1875 32.3438C29.3947 32.3438 28.75 31.699 28.75 30.9062V22.2812Z" fill="#7892FF"/>
<path d="M23 40.9688C24.5856 40.9688 25.875 39.6793 25.875 38.0938V20.8438C25.875 19.2582 24.5856 17.9688 23 17.9688H15.8125C14.2269 17.9688 12.9375 19.2582 12.9375 20.8438V38.0938C12.9375 39.6793 14.2269 40.9688 15.8125 40.9688H23ZM14.375 38.0938V20.8438C14.375 20.051 15.0197 19.4062 15.8125 19.4062H23C23.7928 19.4062 24.4375 20.051 24.4375 20.8438V38.0938C24.4375 38.8865 23.7928 39.5312 23 39.5312H15.8125C15.0197 39.5312 14.375 38.8865 14.375 38.0938Z" fill="#7892FF"/>
<path d="M40.9688 14.375C39.3832 14.375 38.0938 15.6644 38.0938 17.25C38.0938 18.8356 39.3832 20.125 40.9688 20.125C42.5543 20.125 43.8438 18.8356 43.8438 17.25C43.8438 15.6644 42.5543 14.375 40.9688 14.375ZM40.9688 18.6875C40.176 18.6875 39.5312 18.0428 39.5312 17.25C39.5312 16.4572 40.176 15.8125 40.9688 15.8125C41.7615 15.8125 42.4062 16.4572 42.4062 17.25C42.4062 18.0428 41.7615 18.6875 40.9688 18.6875Z" fill="#7892FF"/>
<path d="M3.47372 14.9162L2.40278 15.9872L3.41909 17.0035L4.49003 15.9325C4.86666 16.1827 5.29216 16.3652 5.75 16.4587V17.9688H7.1875V16.4587C7.64534 16.3652 8.07084 16.1827 8.44747 15.9325L9.51841 17.0035L10.5347 15.9872L9.46378 14.9162C9.71391 14.5396 9.89647 14.1141 9.98991 13.6562H11.5V12.2188H9.98991C9.89647 11.7609 9.71391 11.3354 9.46378 10.9588L10.5347 9.88784L9.51841 8.87153L8.44747 9.94247C8.07084 9.69234 7.64534 9.50978 7.1875 9.41634V7.90625H5.75V9.41634C5.29216 9.50978 4.86666 9.69234 4.49003 9.94247L3.41909 8.87153L2.40278 9.88784L3.47372 10.9588C3.22359 11.3354 3.04103 11.7609 2.94759 12.2188H1.4375V13.6562H2.94759C3.04103 14.1141 3.22359 14.5396 3.47372 14.9162ZM6.46875 10.7812C7.65756 10.7812 8.625 11.7487 8.625 12.9375C8.625 14.1263 7.65756 15.0938 6.46875 15.0938C5.27994 15.0938 4.3125 14.1263 4.3125 12.9375C4.3125 11.7487 5.27994 10.7812 6.46875 10.7812Z" fill="#7892FF"/>
<path d="M31.625 5.75V7.1875H33.1351C33.2285 7.64534 33.4111 8.07084 33.6612 8.44747L32.5903 9.51841L33.6066 10.5347L34.6775 9.46378C35.0542 9.71391 35.4797 9.89647 35.9375 9.98991V11.5H37.375V9.98991C37.8328 9.89647 38.2583 9.71391 38.635 9.46378L39.7059 10.5347L40.7222 9.51841L39.6513 8.44747C39.9014 8.07084 40.084 7.64534 40.1774 7.1875H41.6875V5.75H40.1774C40.084 5.29216 39.9014 4.86666 39.6513 4.49003L40.7222 3.41909L39.7059 2.40278L38.635 3.47372C38.2583 3.22359 37.8328 3.04103 37.375 2.94759V1.4375H35.9375V2.94759C35.4797 3.04103 35.0542 3.22359 34.6775 3.47372L33.6066 2.40278L32.5903 3.41909L33.6612 4.49003C33.4111 4.86666 33.2285 5.29216 33.1351 5.75H31.625ZM36.6562 4.3125C37.8451 4.3125 38.8125 5.27994 38.8125 6.46875C38.8125 7.65756 37.8451 8.625 36.6562 8.625C35.4674 8.625 34.5 7.65756 34.5 6.46875C34.5 5.27994 35.4674 4.3125 36.6562 4.3125Z" fill="#7892FF"/>
<path d="M6.46875 23C6.46875 21.8112 5.50131 20.8438 4.3125 20.8438C3.12369 20.8438 2.15625 21.8112 2.15625 23C2.15625 24.1888 3.12369 25.1562 4.3125 25.1562C5.50131 25.1562 6.46875 24.1888 6.46875 23ZM3.59375 23C3.59375 22.604 3.91647 22.2812 4.3125 22.2812C4.70853 22.2812 5.03125 22.604 5.03125 23C5.03125 23.396 4.70853 23.7188 4.3125 23.7188C3.91647 23.7188 3.59375 23.396 3.59375 23Z" fill="#7892FF"/>
<path d="M19.1389 33.0114C19.2251 33.0452 19.3157 33.0625 19.4062 33.0625C19.4968 33.0625 19.5874 33.0452 19.6736 33.0114C22.131 32.0282 23.7188 29.6822 23.7188 27.0358V25.1562C23.7188 24.9068 23.5894 24.6761 23.3781 24.5446C23.166 24.4137 22.9008 24.4023 22.6787 24.5129L21.988 24.8587C21.7573 24.9729 21.4813 24.9564 21.2678 24.8134L20.6037 24.3706C19.8763 23.8869 18.9376 23.8862 18.211 24.3706L17.5461 24.8134C17.3319 24.9557 17.0559 24.9722 16.8267 24.8587L16.1352 24.5129C15.9124 24.4023 15.6479 24.4137 15.4359 24.5446C15.2231 24.6761 15.0938 24.9068 15.0938 25.1562V27.0358C15.0938 29.6822 16.6815 32.0282 19.1389 33.0114ZM16.5312 26.2825C17.1386 26.4622 17.8056 26.368 18.3432 26.0101L19.0081 25.5673C19.2488 25.4056 19.5622 25.4056 19.8052 25.5673L20.4693 26.0101C21.0062 26.368 21.6732 26.4622 22.2812 26.2825V27.0358C22.2812 28.9943 21.1622 30.7395 19.4062 31.561C17.6503 30.7395 16.5312 28.9943 16.5312 27.0358V26.2825Z" fill="#7892FF"/>
<path d="M18.6875 30.1875H20.125V29.4688H20.8438V28.0312H20.125V27.3125H18.6875V28.0312H17.9688V29.4688H18.6875V30.1875Z" fill="#7892FF"/>
<path d="M15.8125 35.9375H23V37.375H15.8125V35.9375Z" fill="#7892FF"/>
</svg>
