<svg width="15" height="15" viewBox="0 0 15 15" fill="none" xmlns="http://www.w3.org/2000/svg">
<g clip-path="url(#clip0)">
<path d="M14.9824 4.41004C14.9473 3.61303 14.8184 3.0651 14.6338 2.5903C14.4433 2.08632 14.1503 1.63511 13.7664 1.26001C13.3913 0.879078 12.9371 0.583076 12.4389 0.395585C11.9614 0.210956 11.4163 0.0820702 10.6193 0.0469299C9.81634 0.00881367 9.56143 0 7.5249 0C5.48837 0 5.23346 0.00881367 4.43348 0.0439539C3.63647 0.0790941 3.08853 0.208094 2.61385 0.392609C2.10976 0.583076 1.65854 0.876102 1.28345 1.26001C0.902515 1.63511 0.606628 2.0893 0.419022 2.58744C0.234393 3.0651 0.105508 3.61006 0.0703674 4.40706C0.0322512 5.21002 0.0234375 5.46493 0.0234375 7.50147C0.0234375 9.538 0.0322512 9.79291 0.0673914 10.5929C0.102532 11.3899 0.231532 11.9378 0.416161 12.4126C0.606628 12.9166 0.902515 13.3678 1.28345 13.7429C1.65854 14.1239 2.11273 14.4199 2.61088 14.6073C3.08853 14.792 3.63349 14.9209 4.43062 14.956C5.23048 14.9913 5.48551 15 7.52204 15C9.55857 15 9.81348 14.9913 10.6135 14.956C11.4105 14.9209 11.9584 14.792 12.4331 14.6073C13.4412 14.2176 14.2382 13.4206 14.6279 12.4126C14.8124 11.935 14.9414 11.3899 14.9766 10.5929C15.0117 9.79291 15.0205 9.538 15.0205 7.50147C15.0205 5.46493 15.0175 5.21002 14.9824 4.41004ZM13.6316 10.5343C13.5993 11.2668 13.4763 11.6624 13.3737 11.9262C13.1217 12.5796 12.6031 13.0983 11.9496 13.3503C11.6859 13.4529 11.2874 13.5759 10.5577 13.6081C9.76655 13.6433 9.52927 13.652 7.52788 13.652C5.52649 13.652 5.28623 13.6433 4.49792 13.6081C3.76536 13.5759 3.36977 13.4529 3.10605 13.3503C2.78086 13.2301 2.48485 13.0397 2.2446 12.7906C1.99552 12.5473 1.80506 12.2543 1.68487 11.9291C1.58231 11.6654 1.45926 11.2668 1.4271 10.5373C1.39185 9.74609 1.38315 9.50869 1.38315 7.5073C1.38315 5.50591 1.39185 5.26565 1.4271 4.47746C1.45926 3.74489 1.58231 3.34931 1.68487 3.08559C1.80506 2.76028 1.99552 2.46439 2.24757 2.22402C2.49069 1.97495 2.78372 1.78448 3.10902 1.66441C3.37275 1.56185 3.77131 1.4388 4.5009 1.40652C5.29207 1.37138 5.52946 1.36257 7.53074 1.36257C9.5351 1.36257 9.77239 1.37138 10.5607 1.40652C11.2933 1.4388 11.6888 1.56185 11.9526 1.66441C12.2778 1.78448 12.5738 1.97495 12.814 2.22402C13.0631 2.46726 13.2536 2.76028 13.3737 3.08559C13.4763 3.34931 13.5993 3.74776 13.6316 4.47746C13.6668 5.26863 13.6756 5.50591 13.6756 7.5073C13.6756 9.50869 13.6668 9.74311 13.6316 10.5343Z" fill="white"/>
<path d="M7.52907 3.64819C5.40177 3.64819 3.67578 5.37407 3.67578 7.50148C3.67578 9.6289 5.40177 11.3548 7.52907 11.3548C9.65649 11.3548 11.3824 9.6289 11.3824 7.50148C11.3824 5.37407 9.65649 3.64819 7.52907 3.64819ZM7.52907 10.001C6.14899 10.001 5.02954 8.88168 5.02954 7.50148C5.02954 6.12129 6.14899 5.00195 7.52907 5.00195C8.90927 5.00195 10.0286 6.12129 10.0286 7.50148C10.0286 8.88168 8.90927 10.001 7.52907 10.001Z" fill="white"/>
<path d="M12.4321 3.49576C12.4321 3.99253 12.0293 4.39533 11.5324 4.39533C11.0356 4.39533 10.6328 3.99253 10.6328 3.49576C10.6328 2.99887 11.0356 2.59619 11.5324 2.59619C12.0293 2.59619 12.4321 2.99887 12.4321 3.49576Z" fill="white"/>
</g>
<defs>
<clipPath id="clip0">
<rect width="15" height="15" fill="white"/>
</clipPath>
</defs>
</svg>
