<svg width="19" height="20" viewBox="0 0 19 20" fill="none" xmlns="http://www.w3.org/2000/svg">
<path d="M18.4073 4.67868L18.4018 4.65624C17.9475 2.81991 15.8997 0.849502 14.0191 0.439576L13.9979 0.435193C10.9561 -0.145064 7.87186 -0.145064 4.83072 0.435193L4.80887 0.439576C2.92891 0.849502 0.881012 2.82004 0.426196 4.65624L0.421148 4.67868C-0.140383 7.24309 -0.140383 9.84383 0.421148 12.4082L0.426196 12.4307C0.861688 14.1886 2.75699 16.0686 4.56742 16.5855V18.6354C4.56742 19.3773 5.47154 19.7417 5.98566 19.2062L8.06252 17.0474C8.51301 17.0726 8.96372 17.0867 9.41428 17.0867C10.9454 17.0867 12.4773 16.9419 13.9978 16.6518L14.019 16.6474C15.8996 16.2375 17.9475 14.267 18.4017 12.4308L18.4073 12.4083C18.9688 9.84383 18.9688 7.24323 18.4073 4.67868ZM16.7637 12.0364C16.4604 13.2345 14.9056 14.7238 13.6702 14.999C12.0529 15.3066 10.4227 15.438 8.79411 15.3929C8.76171 15.392 8.73056 15.4046 8.70805 15.4279C8.47689 15.6651 7.19166 16.9846 7.19166 16.9846L5.57879 18.6399C5.46085 18.7629 5.25366 18.6792 5.25366 18.5095V15.1138C5.25366 15.0576 5.21362 15.01 5.1585 14.9991C5.15817 14.999 5.15791 14.999 5.15757 14.9989C3.92215 14.7238 2.36785 13.2344 2.06404 12.0364C1.55862 9.71839 1.55862 7.36854 2.06404 5.05056C2.36785 3.85253 3.92215 2.36317 5.15757 2.08798C7.98223 1.55075 10.8462 1.55075 13.6703 2.08798C14.9063 2.36317 16.4605 3.85253 16.7638 5.05056C17.2697 7.3686 17.2697 9.71845 16.7637 12.0364Z" fill="white"/>
<path d="M12.1006 13.6035C11.9107 13.5458 11.7297 13.5071 11.5615 13.4374C9.81963 12.7147 8.21659 11.7824 6.94683 10.3533C6.22473 9.54059 5.65955 8.62305 5.18182 7.65206C4.95525 7.1916 4.76433 6.71314 4.56969 6.23767C4.39225 5.80417 4.65363 5.35633 4.92881 5.02961C5.18707 4.72301 5.51943 4.48847 5.87935 4.31548C6.16025 4.18054 6.4373 4.25837 6.64249 4.49643C7.08596 5.01122 7.49343 5.55229 7.8232 6.14902C8.02607 6.51605 7.97042 6.96469 7.60273 7.21444C7.51335 7.27514 7.43193 7.34646 7.34873 7.41499C7.27568 7.47509 7.20701 7.53578 7.15694 7.61713C7.0655 7.76595 7.06112 7.94159 7.11996 8.10342C7.57331 9.34927 8.33745 10.3181 9.59153 10.84C9.79221 10.9235 9.99369 11.0207 10.2249 10.9938C10.6121 10.9485 10.7374 10.5238 11.0088 10.3019C11.2739 10.0851 11.6129 10.0823 11.8985 10.263C12.1842 10.4439 12.4611 10.638 12.7365 10.8342C13.0067 11.0268 13.2757 11.215 13.525 11.4346C13.7647 11.6457 13.8472 11.9226 13.7122 12.2091C13.4652 12.7337 13.1056 13.1701 12.5871 13.4487C12.4406 13.5272 12.2657 13.5527 12.1006 13.6035C11.9107 13.5458 12.2657 13.5527 12.1006 13.6035Z" fill="white"/>
<path d="M9.41841 3.71648C11.6967 3.78036 13.5681 5.29236 13.9692 7.54486C14.0375 7.92869 14.0618 8.32102 14.0922 8.71062C14.105 8.87445 14.0122 9.0301 13.8354 9.03229C13.6528 9.03449 13.5707 8.88162 13.5587 8.71793C13.5353 8.39373 13.519 8.06801 13.4743 7.7466C13.2385 6.04933 11.8851 4.64517 10.1958 4.34388C9.94149 4.29853 9.68145 4.28664 9.42386 4.25961C9.26109 4.24255 9.04793 4.23272 9.01187 4.03031C8.98166 3.86064 9.12483 3.72558 9.28639 3.71688C9.33015 3.71429 9.37432 3.71634 9.41841 3.71648C11.6969 3.78036 9.37432 3.71634 9.41841 3.71648Z" fill="white"/>
<path d="M12.8805 8.20396C12.8767 8.23245 12.8748 8.29932 12.8581 8.36227C12.7976 8.59098 12.4507 8.6196 12.371 8.38883C12.3473 8.32037 12.3437 8.24241 12.3436 8.1687C12.3428 7.68619 12.238 7.20408 11.9946 6.78419C11.7444 6.35262 11.3622 5.98998 10.914 5.77037C10.6429 5.63769 10.3499 5.55515 10.0528 5.50607C9.92297 5.48456 9.79175 5.47161 9.66126 5.45341C9.50315 5.43143 9.41868 5.33069 9.42625 5.17491C9.43322 5.02894 9.53994 4.92382 9.69905 4.93292C10.2219 4.96254 10.7269 5.07569 11.1919 5.3218C12.1371 5.82243 12.6771 6.61253 12.8348 7.66766C12.8419 7.71554 12.8533 7.76282 12.8569 7.81077C12.8658 7.9291 12.8715 8.04764 12.8805 8.20396C12.8767 8.23232 12.8715 8.04764 12.8805 8.20396Z" fill="white"/>
<path d="M11.4649 8.14973C11.2743 8.15319 11.1723 8.0476 11.1526 7.87295C11.139 7.75116 11.1281 7.62765 11.099 7.50905C11.0418 7.2755 10.9176 7.05915 10.7212 6.91604C10.6285 6.84851 10.5234 6.7993 10.4134 6.76742C10.2736 6.72698 10.1283 6.73814 9.98889 6.70401C9.83742 6.66688 9.75361 6.54417 9.77745 6.40212C9.7991 6.27276 9.92488 6.17183 10.0663 6.18212C10.9496 6.24587 11.5809 6.70254 11.671 7.74246C11.6775 7.81584 11.6849 7.89334 11.6686 7.96366C11.6406 8.08366 11.5516 8.14389 11.4649 8.14973C11.2743 8.15312 11.5516 8.14389 11.4649 8.14973Z" fill="white"/>
<path d="M18.4058 4.67864L18.4003 4.6562C18.1457 3.62684 17.3901 2.55544 16.4441 1.74023L15.1651 2.87366C15.9256 3.47961 16.5772 4.31905 16.7624 5.05045C17.2684 7.36849 17.2684 9.71828 16.7624 12.0364C16.4591 13.2344 14.9042 14.7238 13.6688 14.999C12.0515 15.3066 10.4213 15.438 8.79273 15.3929C8.76033 15.392 8.72918 15.4046 8.70667 15.4278C8.47551 15.665 7.19029 16.9845 7.19029 16.9845L5.57741 18.6399C5.45947 18.7629 5.25229 18.6793 5.25229 18.5095V15.1137C5.25229 15.0576 5.21224 15.01 5.15713 14.9991C5.15679 14.9991 5.15653 14.999 5.1562 14.999C4.45408 14.8426 3.6493 14.2939 3.02934 13.6296L1.76562 14.7494C2.55486 15.608 3.5728 16.3021 4.56584 16.5856V18.6354C4.56584 19.3774 5.46996 19.7418 5.98408 19.2063L8.06094 17.0475C8.51144 17.0727 8.96201 17.0868 9.4127 17.0868C10.9438 17.0868 12.4757 16.9419 13.9963 16.6519L14.0174 16.6476C15.8981 16.2376 17.9459 14.2672 18.4001 12.4309L18.4057 12.4085C18.9673 9.84379 18.9673 7.24319 18.4058 4.67864Z" fill="white"/>
<path d="M12.1005 13.6037C12.2656 13.5529 11.9106 13.546 12.1005 13.6037V13.6037Z" fill="#333333"/>
<path d="M13.5248 11.4345C13.2756 11.215 13.0064 11.0266 12.7363 10.834C12.461 10.6378 12.1841 10.4437 11.8983 10.2629C11.6127 10.0821 11.2738 10.0849 11.0086 10.3018C10.7373 10.5236 10.612 10.9484 10.2247 10.9936C9.99358 11.0205 9.79203 10.9233 9.59135 10.8399C8.81978 10.5188 8.23434 10.028 7.79188 9.4082L6.85156 10.2416C6.8835 10.2786 6.91398 10.3166 6.94646 10.3531C8.21628 11.7822 9.81939 12.7146 11.5612 13.4373C11.7292 13.507 11.9103 13.5458 12.1002 13.6034C11.9103 13.5456 12.2655 13.5526 12.1002 13.6034C12.2655 13.5526 12.4402 13.527 12.5868 13.4485C13.1055 13.1699 13.465 12.7334 13.712 12.2088C13.8471 11.9225 13.7645 11.6456 13.5248 11.4345Z" fill="white"/>
<path d="M9.42468 3.71682C9.42264 3.71682 9.42067 3.71661 9.41863 3.71661C9.41666 3.71647 9.41919 3.71661 9.42468 3.71682Z" fill="#333333"/>
<path d="M9.41797 3.71631C9.41989 3.71631 9.42175 3.71651 9.42368 3.71651C9.55012 3.72102 11.6066 3.77766 9.41797 3.71631Z" fill="#333333"/>
<path d="M12.6861 5.0708L12.2852 5.42614C12.9152 6.03907 13.3496 6.85142 13.4738 7.74538C13.5184 8.06692 13.5348 8.39251 13.5582 8.71671C13.5701 8.88053 13.6522 9.03333 13.8349 9.03121C14.0118 9.02902 14.1046 8.87343 14.0917 8.70954C14.0613 8.32 14.037 7.92753 13.9687 7.54377C13.7932 6.55777 13.3358 5.71368 12.6861 5.0708Z" fill="white"/>
<path d="M12.836 7.66795C12.7212 6.8991 12.4022 6.27169 11.8724 5.7937L11.4727 6.14798C11.6794 6.33146 11.8582 6.54695 11.9959 6.78462C12.2393 7.2045 12.3442 7.68661 12.345 8.16912C12.3451 8.24283 12.3486 8.32079 12.3723 8.38939C12.4522 8.62029 12.799 8.59167 12.8594 8.36283C12.8762 8.29974 12.8781 8.23287 12.8819 8.20452C12.8781 8.233 12.8727 8.04826 12.8819 8.20452C12.8727 8.04826 12.8671 7.92966 12.8582 7.81119C12.8546 7.76305 12.8432 7.71577 12.836 7.66795Z" fill="white"/>
<path d="M12.88 8.2047C12.871 8.04839 12.8762 8.23305 12.88 8.2047V8.2047Z" fill="#333333"/>
<path d="M11.462 8.15002C11.4651 8.14982 11.4679 8.14828 11.4708 8.14795C11.4627 8.14795 11.4503 8.14815 11.4375 8.14862C11.4458 8.14882 11.4533 8.15009 11.462 8.15002Z" fill="#333333"/>
<path d="M11.463 8.15081C11.4544 8.15094 11.4468 8.14968 11.4386 8.14941C11.3973 8.15054 11.3548 8.15273 11.463 8.15081Z" fill="#333333"/>
<path d="M11.4736 8.14795C11.4706 8.14828 11.4677 8.14982 11.4648 8.15002C11.4873 8.14848 11.4854 8.14795 11.4736 8.14795Z" fill="#333333"/>
<path d="M11.0632 6.51147L10.6562 6.87219C10.6787 6.88581 10.7007 6.90002 10.722 6.91549C10.9184 7.0586 11.0425 7.27495 11.0998 7.5085C11.1289 7.6271 11.1396 7.75048 11.1534 7.8724C11.1722 8.03928 11.2669 8.14188 11.4413 8.14786C11.454 8.14753 11.4665 8.14726 11.4744 8.14719C11.5583 8.1379 11.6425 8.07906 11.6694 7.96298C11.6856 7.89279 11.6782 7.81516 11.6717 7.74178C11.6211 7.1604 11.4013 6.76149 11.0632 6.51147Z" fill="white"/>
</svg>
