<svg width="18" height="11" viewBox="0 0 18 11" fill="none" xmlns="http://www.w3.org/2000/svg">
<path d="M17.5624 9.14235C17.5147 9.06151 17.2201 8.4125 15.8024 7.07855C14.3182 5.68173 14.5176 5.90854 16.3052 3.49329C17.394 2.02235 17.8293 1.12407 17.693 0.740055C17.5635 0.374005 16.7627 0.47057 16.7627 0.47057L14.1 0.48629C14.1 0.48629 13.9028 0.459342 13.7555 0.548047C13.6127 0.635629 13.5207 0.837743 13.5207 0.837743C13.5207 0.837743 13.0987 1.97631 12.5361 2.94421C11.3498 4.98668 10.8747 5.09447 10.6808 4.96759C10.23 4.67228 10.343 3.77961 10.343 3.14633C10.343 1.16674 10.6387 0.341442 9.76596 0.1281C9.47577 0.0573605 9.26311 0.0102008 8.52212 0.00234082C7.5718 -0.00776484 6.76658 0.00570937 6.31135 0.231403C6.00787 0.381865 5.77417 0.717598 5.91705 0.736686C6.09315 0.760266 6.49189 0.845603 6.70344 1.13754C6.97702 1.5137 6.96705 2.36033 6.96705 2.36033C6.96705 2.36033 7.12433 4.69025 6.60044 4.97994C6.24047 5.17869 5.74758 4.77334 4.68983 2.91951C4.14821 1.9707 3.7384 0.920834 3.7384 0.920834C3.7384 0.920834 3.65976 0.725458 3.51909 0.621032C3.34852 0.49415 3.10928 0.453727 3.10928 0.453727L0.577307 0.469447C0.577307 0.469447 0.1974 0.480676 0.0578425 0.647981C-0.0662087 0.79732 0.0478741 1.10498 0.0478741 1.10498C0.0478741 1.10498 2.03048 5.80636 4.27448 8.1767C6.3335 10.3494 8.67054 10.2068 8.67054 10.2068H9.72941C9.72941 10.2068 10.0495 10.1709 10.2123 9.99235C10.363 9.82842 10.3574 9.52076 10.3574 9.52076C10.3574 9.52076 10.3364 8.08014 10.9965 7.86792C11.6467 7.65907 12.4818 9.26025 13.3668 9.8767C14.0358 10.3427 14.5441 10.2405 14.5441 10.2405L16.9111 10.2068C16.9111 10.2068 18.1494 10.1293 17.5624 9.14235Z" fill="white"/>
</svg>
