<svg width="145" height="40" viewBox="0 0 145 40" fill="none" xmlns="http://www.w3.org/2000/svg">
<g clip-path="url(#clip0)">
<path d="M66.9829 7.31055C66.9829 7.37953 66.9829 7.44847 66.9829 7.58639V22.8967C66.9829 23.0347 66.9829 23.1726 66.9829 23.1726C66.9117 23.2416 66.8408 23.2416 66.6982 23.2416H65.488C65.3458 23.2416 65.2033 23.2416 65.2033 23.1726C65.1324 23.1726 65.1324 23.0347 65.1324 22.8967V18.483C64.7051 18.7588 64.2782 19.0347 63.7087 19.2416C62.7119 19.5864 61.2882 19.7933 59.5798 19.7933H57.658C55.8783 19.7933 54.4546 19.5864 53.4582 19.2416C52.4615 18.8967 51.6786 18.345 51.2517 17.6554C50.7531 16.9657 50.4683 16.0692 50.3262 15.1036C50.2549 14.1381 50.1836 12.9657 50.1836 11.6554V7.65537C50.1836 7.51745 50.1836 7.37953 50.2549 7.37953C50.2549 7.37953 50.3974 7.37953 50.5396 7.37953H51.7498C51.892 7.37953 52.0346 7.37953 52.0346 7.37953C52.1059 7.44847 52.1059 7.51745 52.1059 7.65537V12.0002C52.1059 13.0347 52.1767 13.7933 52.3906 14.345C52.604 14.9657 52.9601 15.3795 53.4582 15.7244C53.9564 16.0002 54.6685 16.2071 55.5223 16.2761C56.3056 16.345 57.3732 16.414 58.6543 16.414C59.9359 16.414 61.0035 16.345 61.7864 16.2761C62.6406 16.2071 63.3527 16.0002 63.8509 15.7244C64.349 15.3795 64.7051 14.9657 64.8476 14.345C65.0611 13.7933 65.1324 12.9657 65.1324 12.0002V7.65537C65.1324 7.51745 65.1324 7.37953 65.2033 7.37953C65.2033 7.37953 65.3458 7.37953 65.488 7.37953H66.6982C66.8408 7.31055 66.9117 7.31055 66.9829 7.31055Z" fill="white"/>
<path d="M86.4867 7.5863C87.127 7.93112 87.5544 8.4139 87.8391 9.10355C88.1238 9.7932 88.266 10.6208 88.3373 11.6553C88.4086 12.6897 88.4086 13.8622 88.4086 15.2415V22.9656C88.4086 23.1036 88.4086 23.2415 88.4086 23.2415C88.3373 23.3105 88.266 23.3105 88.1238 23.3105H87.0562C86.9136 23.3105 86.7714 23.3105 86.7714 23.2415C86.7002 23.2415 86.7002 23.1036 86.7002 22.9656V15.2415C86.7002 14.2759 86.6289 13.4484 86.4867 12.8966C86.3441 12.3449 86.202 11.9311 85.9881 11.6553C85.7034 11.3794 85.4186 11.2415 85.1339 11.1725C84.7783 11.1036 84.4223 11.1036 83.9241 11.1036C83.4255 11.1036 82.9986 11.1036 82.6426 11.1725C82.2866 11.2415 82.0018 11.3794 81.7884 11.6553C81.5749 11.9311 81.2902 12.3449 81.0767 12.8277C80.8629 13.3794 80.5782 14.138 80.2934 15.0346C79.7239 16.7587 79.2971 18.138 78.8697 19.2415C78.4428 20.3449 78.0868 21.1725 77.7308 21.7932C77.3039 22.4139 76.8766 22.8277 76.4497 23.0346C75.9515 23.2415 75.3821 23.3794 74.67 23.3794C73.5311 23.3794 72.6769 23.1725 72.1074 22.8277C71.4671 22.4828 71.0397 21.9311 70.755 21.2415C70.4703 20.5518 70.3281 19.6553 70.2568 18.6208C70.1855 17.5863 70.1855 16.4139 70.1855 15.0346V7.5863C70.1855 7.44837 70.1855 7.31045 70.2568 7.31045C70.2568 7.31045 70.399 7.31045 70.5416 7.31045H71.6092C71.7518 7.31045 71.894 7.31045 71.894 7.31045C71.894 7.37939 71.894 7.44837 71.894 7.5863V15.1036C71.894 16.069 71.9652 16.8966 72.1074 17.4484C72.25 18.069 72.3921 18.4828 72.6769 18.7587C72.8907 19.0346 73.1755 19.1725 73.5311 19.2415C73.8871 19.3105 74.2431 19.3105 74.67 19.3105C75.2395 19.3105 75.6668 19.2415 75.9515 19.1725C76.3071 19.1036 76.5919 18.8967 76.8057 18.6208C77.0192 18.3449 77.2326 17.9311 77.4461 17.3794C77.6599 16.8277 77.9447 16.069 78.2294 15.1725C78.7989 13.5173 79.2258 12.138 79.5818 11.1036C80.0087 10.069 80.3647 9.24147 80.792 8.62077C81.1476 8.0001 81.5749 7.5863 82.0731 7.37939C82.5713 7.17249 83.1408 7.10355 83.8528 7.10355C84.9917 7.03457 85.8459 7.24147 86.4867 7.5863Z" fill="white"/>
<path d="M99.7984 11.1726C98.3748 11.1726 97.2358 11.1726 96.3108 11.2416C95.3853 11.3105 94.6732 11.4484 94.175 11.7243C93.6769 12.0002 93.3208 12.414 93.1074 12.8967C92.8939 13.4485 92.8227 14.2071 92.8227 15.2416C92.8227 16.276 92.8939 17.0347 93.1074 17.5864C93.3208 18.1381 93.6769 18.5519 94.175 18.7588C94.6732 19.0347 95.3853 19.1726 96.3108 19.2416C97.2358 19.3105 98.3748 19.3105 99.7984 19.3105H106.775C107.13 19.3105 107.273 19.3105 107.344 19.3795C107.415 19.4485 107.415 19.6553 107.415 19.9312V20.6209C107.415 21.5864 107.059 22.345 106.276 22.6898C105.493 23.1036 104.283 23.3105 102.575 23.3105H99.7984C97.7344 23.3105 96.0969 23.1726 94.8871 22.8278C93.6769 22.4829 92.8227 22.0002 92.2532 21.3105C91.6837 20.6209 91.3277 19.7933 91.2564 18.7588C91.1143 17.7243 91.043 16.5519 91.043 15.1726C91.043 13.7933 91.1143 12.6209 91.2564 11.5864C91.399 10.5519 91.755 9.72432 92.2532 9.03467C92.7514 8.34502 93.6769 7.86224 94.8871 7.51741C96.0969 7.17259 97.6631 7.03467 99.7984 7.03467H102.575C104.283 7.03467 105.564 7.24157 106.276 7.65534C107.059 8.06914 107.415 8.75879 107.415 9.72432V10.414C107.415 10.7588 107.415 10.8967 107.344 10.9657C107.273 11.0347 107.059 11.0347 106.775 11.0347H99.7984V11.1726Z" fill="white"/>
<path d="M116.74 23.2417C116.598 23.2417 116.455 23.2417 116.455 23.1728C116.455 23.1728 116.384 23.0348 116.384 22.8969V11.5176C116.384 11.3796 116.384 11.2417 116.313 11.2417C116.313 11.2417 116.171 11.1728 116.028 11.1728H109.551C109.195 11.1728 109.052 11.1728 108.981 11.1038C108.91 11.0348 108.91 10.8279 108.91 10.5521V10.0693C108.91 9.58652 108.981 9.17276 109.124 8.82789C109.266 8.48307 109.551 8.20723 109.907 7.93135C110.263 7.72448 110.689 7.51758 111.33 7.37962C111.9 7.2417 112.611 7.2417 113.466 7.2417H121.509C123.218 7.2417 124.357 7.4486 125.068 7.93135C125.709 8.41413 126.065 9.10378 126.065 10.0693V10.5521C126.065 10.8969 126.065 11.0348 125.994 11.1038C125.923 11.1728 125.709 11.1728 125.424 11.1728H118.947C118.805 11.1728 118.662 11.1728 118.662 11.2417C118.662 11.2417 118.591 11.3796 118.591 11.5176V22.9659C118.591 23.1038 118.591 23.2417 118.52 23.2417C118.52 23.2417 118.377 23.3107 118.235 23.3107H116.74V23.2417Z" fill="white"/>
<path d="M144.857 15.2413C144.857 16.6206 144.786 17.793 144.643 18.8275C144.501 19.862 144.145 20.7586 143.647 21.4482C143.077 22.1379 142.223 22.6896 141.013 23.0344C139.803 23.3793 138.237 23.5861 136.101 23.5861C133.966 23.5861 132.4 23.3793 131.19 23.0344C129.98 22.6896 129.125 22.1379 128.556 21.4482C127.986 20.7586 127.63 19.862 127.559 18.8275C127.417 17.793 127.346 16.6206 127.346 15.2413C127.346 13.862 127.417 12.6896 127.559 11.6551C127.702 10.6206 128.058 9.72409 128.556 9.03445C129.125 8.34476 129.98 7.79303 131.19 7.44821C132.4 7.10339 133.966 6.89648 136.101 6.89648C138.237 6.89648 139.803 7.10339 141.013 7.44821C142.223 7.79303 143.077 8.34476 143.647 9.03445C144.216 9.72409 144.572 10.6206 144.643 11.6551C144.786 12.6896 144.857 13.862 144.857 15.2413ZM129.125 15.2413C129.125 16.2758 129.197 17.0344 129.41 17.6551C129.624 18.2068 129.98 18.6206 130.478 18.8965C130.976 19.1724 131.688 19.3103 132.613 19.3793C133.539 19.4482 134.678 19.4482 136.101 19.4482C137.525 19.4482 138.664 19.4482 139.518 19.3793C140.372 19.3103 141.155 19.1724 141.654 18.8965C142.152 18.6206 142.508 18.2068 142.721 17.6551C142.935 17.1034 143.006 16.2758 143.006 15.2413C143.006 14.2068 142.935 13.4482 142.721 12.8275C142.508 12.2758 142.152 11.862 141.654 11.5861C141.155 11.3103 140.443 11.1724 139.518 11.1034C138.593 11.0344 137.454 11.0344 136.101 11.0344C134.678 11.0344 133.539 11.0344 132.613 11.1034C131.688 11.1724 130.976 11.3103 130.478 11.5861C129.98 11.862 129.624 12.2758 129.41 12.8275C129.197 13.3793 129.125 14.2068 129.125 15.2413Z" fill="white"/>
<path d="M54.0283 36.7588H53.3875L50.398 33.9312V36.7588H49.9707V31.0347H50.398V33.7243L53.3162 31.0347H53.8857L50.8962 33.7933L54.0283 36.7588Z" fill="white"/>
<path d="M58.4414 32.6207V36.6897H58.0145V32.9656H55.8787V34.9656C55.8787 35.6552 55.7366 36.069 55.5227 36.3449C55.2384 36.6207 54.9537 36.6897 54.4551 36.6897V36.2759C54.8111 36.2759 55.0245 36.2069 55.238 36C55.4518 35.7931 55.4518 35.4483 55.4518 34.8966V32.5518H58.4414V32.6207Z" fill="white"/>
<path d="M63.1379 32.6206H63.4939V36.6896H63.0666V33.3103L60.3619 36.6896H60.0059V32.6206H60.4332V35.9999L63.1379 32.6206Z" fill="white"/>
<path d="M68.1213 32.6206H68.5486V36.6896H68.1213V34.8275H65.4874V36.6896H65.0605V32.6206H65.4874V34.4827H68.1213V32.6206Z" fill="white"/>
<path d="M73.176 32.6206H73.5321V36.6896H73.1052V33.3103L70.4713 36.7585H70.1152V32.6896H70.4713V36.0689L73.176 32.6206Z" fill="white"/>
<path d="M78.1584 32.6206H78.5858V36.6896H78.1584V34.8275H75.525V36.6896H75.0977V32.6206H75.525V34.4827H78.1584V32.6206Z" fill="white"/>
<path d="M82.7859 32.6206V33.0344H80.5792V36.7585H80.1523V32.6896H82.7859V32.6206Z" fill="white"/>
<path d="M85.5621 36.8276C84.9213 36.8276 84.4231 36.6207 83.9962 36.2069C83.5689 35.7931 83.3555 35.3104 83.3555 34.6897C83.3555 34.069 83.5689 33.5862 83.9962 33.1725C84.4231 32.7587 84.9213 32.5518 85.5621 32.5518C86.2028 32.5518 86.701 32.7587 87.1279 33.1725C87.5552 33.5862 87.7687 34.069 87.7687 34.6897C87.7687 35.3104 87.5552 35.7931 87.1279 36.2069C86.701 36.6207 86.2028 36.8276 85.5621 36.8276ZM84.281 35.9311C84.6366 36.2759 85.0639 36.4138 85.5621 36.4138C86.0603 36.4138 86.4876 36.2759 86.8432 35.9311C87.1992 35.5862 87.3418 35.1725 87.3418 34.6897C87.3418 34.2069 87.1992 33.7931 86.8432 33.4483C86.4876 33.1035 86.0603 32.9656 85.5621 32.9656C85.0639 32.9656 84.6366 33.1035 84.281 33.4483C83.9249 33.7931 83.7824 34.2069 83.7824 34.6897C83.7824 35.1725 83.9962 35.5862 84.281 35.9311Z" fill="white"/>
<path d="M91.6833 34.621C92.1815 34.7589 92.3953 35.1037 92.3953 35.5865C92.3953 35.9313 92.2528 36.2072 92.0393 36.4141C91.8259 36.621 91.4698 36.7589 91.0425 36.7589H88.9785V32.6899H90.9004C91.3273 32.6899 91.612 32.7589 91.8259 32.9658C92.0393 33.1727 92.1815 33.4486 92.1815 33.7244C92.1815 34.1382 92.0393 34.483 91.6833 34.621ZM90.9717 33.0348H89.4767V34.483H90.9717C91.2564 34.483 91.4698 34.4141 91.612 34.2761C91.7546 34.1382 91.8259 34.0003 91.8259 33.7244C91.8259 33.5175 91.7546 33.3106 91.612 33.2417C91.4698 33.1727 91.1851 33.0348 90.9717 33.0348ZM91.1138 36.3451C91.3986 36.3451 91.612 36.2761 91.7546 36.1382C91.8967 36.0003 91.968 35.7934 91.968 35.5865C91.968 35.3796 91.8967 35.1727 91.7546 35.0348C91.612 34.8968 91.3986 34.8279 91.1138 34.8279H89.4767V36.2761H91.1138V36.3451Z" fill="white"/>
<path d="M97.3066 32.6207H97.7339V36.6897H97.3066V35.7931C97.0931 36.138 96.8797 36.3449 96.595 36.5518C96.3102 36.7587 95.9542 36.8276 95.5269 36.8276C94.9574 36.8276 94.388 36.6207 93.9611 36.2069C93.5338 35.7931 93.3203 35.3104 93.3203 34.6897C93.3203 34.069 93.5338 33.5862 93.9611 33.1725C94.388 32.7587 94.8866 32.5518 95.5269 32.5518C95.9542 32.5518 96.3102 32.6207 96.595 32.8276C96.8797 33.0345 97.1644 33.2414 97.3066 33.5863V32.6207ZM94.2458 35.9311C94.6018 36.2759 95.0287 36.4138 95.5269 36.4138C96.0255 36.4138 96.4524 36.2759 96.8084 35.9311C97.1644 35.5862 97.3066 35.1725 97.3066 34.6897C97.3066 34.2069 97.1644 33.7931 96.8084 33.4483C96.4524 33.1035 96.0255 32.9656 95.5269 32.9656C95.0287 32.9656 94.6018 33.1035 94.2458 33.4483C93.8898 33.7931 93.7476 34.2069 93.7476 34.6897C93.7476 35.1725 93.8898 35.5862 94.2458 35.9311Z" fill="white"/>
<path d="M102.22 32.6206V36.6896H101.793V35.1723H100.867L99.5148 36.7585H98.9453L100.298 35.1723C99.9417 35.1034 99.6569 35.0344 99.4435 34.7585C99.23 34.4827 99.0879 34.2758 99.0879 33.931C99.0879 33.5861 99.23 33.2413 99.5148 33.0344C99.7995 32.8275 100.084 32.6896 100.511 32.6896H102.22V32.6206ZM100.582 34.7585H101.864V33.0344H100.582C100.298 33.0344 100.084 33.1034 99.8708 33.2413C99.6574 33.3792 99.5861 33.5861 99.5861 33.862C99.5861 34.1379 99.6574 34.3448 99.8708 34.4827C100.084 34.6896 100.298 34.7585 100.582 34.7585Z" fill="white"/>
<path d="M109.552 36.7585H108.982L106.704 34.7585V36.7585H106.277V32.6896H106.704V34.4827L108.84 32.6206H109.409L107.132 34.6206L109.552 36.7585Z" fill="white"/>
<path d="M112.113 36.8276C111.472 36.8276 110.974 36.6207 110.547 36.2069C110.12 35.7931 109.906 35.3104 109.906 34.6897C109.906 34.069 110.12 33.5862 110.547 33.1725C110.974 32.7587 111.472 32.5518 112.113 32.5518C112.754 32.5518 113.252 32.7587 113.679 33.1725C114.106 33.5862 114.32 34.069 114.32 34.6897C114.32 35.3104 114.106 35.7931 113.679 36.2069C113.252 36.6207 112.754 36.8276 112.113 36.8276ZM110.832 35.9311C111.188 36.2759 111.615 36.4138 112.113 36.4138C112.611 36.4138 113.038 36.2759 113.394 35.9311C113.75 35.5862 113.893 35.1725 113.893 34.6897C113.893 34.2069 113.75 33.7931 113.394 33.4483C113.038 33.1035 112.611 32.9656 112.113 32.9656C111.615 32.9656 111.188 33.1035 110.832 33.4483C110.476 33.7931 110.334 34.2069 110.334 34.6897C110.334 35.1725 110.547 35.5862 110.832 35.9311Z" fill="white"/>
<path d="M119.731 32.6206V36.6896H119.304V33.2413L117.738 35.6551H117.667L116.101 33.2413V36.7585H115.674V32.6896H116.172L117.738 35.0344L119.304 32.6896H119.731V32.6206Z" fill="white"/>
<path d="M124.785 32.6206V36.6896H124.358V32.9654H121.724V36.6896H121.297V32.6206H124.785Z" fill="white"/>
<path d="M130.051 32.6207H130.478V36.6897H130.051V35.7931C129.837 36.138 129.623 36.3449 129.339 36.5518C129.054 36.7587 128.698 36.8276 128.271 36.8276C127.702 36.8276 127.132 36.6207 126.705 36.2069C126.278 35.7931 126.064 35.3104 126.064 34.6897C126.064 34.069 126.278 33.5862 126.705 33.1725C127.132 32.7587 127.63 32.5518 128.271 32.5518C128.698 32.5518 129.054 32.6207 129.339 32.8276C129.623 33.0345 129.908 33.2414 130.051 33.5863V32.6207ZM126.99 35.9311C127.346 36.2759 127.773 36.4138 128.271 36.4138C128.769 36.4138 129.197 36.2759 129.553 35.9311C129.908 35.5862 130.051 35.1725 130.051 34.6897C130.051 34.2069 129.908 33.7931 129.553 33.4483C129.197 33.1035 128.769 32.9656 128.271 32.9656C127.773 32.9656 127.346 33.1035 126.99 33.4483C126.634 33.7931 126.491 34.2069 126.491 34.6897C126.42 35.1725 126.634 35.5862 126.99 35.9311Z" fill="white"/>
<path d="M135.033 32.6206H135.461V36.6896H135.033V34.8275H132.4V36.6896H131.973V32.6206H132.4V34.4827H135.033V32.6206Z" fill="white"/>
<path d="M140.159 32.6206H140.515V36.6896H140.089V33.3103L137.383 36.6896H137.027V32.6206H137.455V35.9999L140.159 32.6206Z" fill="white"/>
<path d="M145.001 32.6206V36.6896H144.574V35.1723H143.648L142.296 36.7585H141.727L143.079 35.1723C142.723 35.1034 142.438 35.0344 142.225 34.7585C142.011 34.4827 141.869 34.2758 141.869 33.931C141.869 33.5861 142.011 33.2413 142.296 33.0344C142.581 32.8275 142.866 32.6896 143.292 32.6896H145.001V32.6206ZM143.364 34.7585H144.645V33.0344H143.364C143.079 33.0344 142.866 33.1034 142.652 33.2413C142.438 33.3792 142.367 33.5861 142.367 33.862C142.367 34.1379 142.438 34.3448 142.652 34.4827C142.866 34.6896 143.079 34.7585 143.364 34.7585Z" fill="white"/>
<path d="M26.9787 16.7587C26.2669 16.4828 24.9856 15.9311 23.2772 15.9311C22.7789 15.9311 21.5688 15.9311 20.2163 16.4139C19.9316 16.4828 19.718 16.6208 19.0774 16.8277C19.0774 16.8277 18.0808 17.2415 17.2266 17.4483C16.3724 17.7242 12.315 18.6897 8.75584 16.5518C7.97284 16.069 6.69153 15.3104 6.12206 13.7932C5.76617 12.8277 5.83733 11.9311 5.90853 11.3794C5.48143 12.0001 5.05433 12.6208 4.62723 13.2415C4.34249 13.7242 4.05776 14.207 3.77304 14.6208C3.34594 15.1725 2.84766 16.069 2.84766 17.0346C2.91884 19.7242 6.69153 21.5173 8.75584 22.5518C10.9625 23.5863 12.6709 23.7932 13.2404 23.8621C14.7352 24.0001 15.803 23.7932 16.5148 23.7242C19.0062 23.3794 23.3484 23.3794 25.911 24.7587C29.8972 26.8277 30.4667 32.5518 30.5379 34.0001C31.2497 33.0346 32.6734 30.9656 33.0293 27.9311C33.3852 25.3794 32.8869 23.1035 32.1751 21.3104C31.6057 20.207 29.8972 18.0001 26.9787 16.7587Z" fill="url(#paint0_linear)"/>
<path d="M30.6099 34C31.3218 33.1035 32.3183 31.5862 32.959 29.5172C33.6708 27.0345 33.4573 24.9655 33.3149 24.0689C33.1725 23.1035 32.6031 18.2758 28.688 14.7586C22.9933 9.72412 15.1632 11.5862 14.5938 11.7931C15.1632 12 16.0886 12.2758 17.2275 12.5517C18.7936 12.9655 19.6478 13.1035 20.3596 13.2414C22.7086 13.7931 24.6306 14.7586 25.4136 15.2414C25.6983 15.3793 28.8304 17.2414 30.6811 20.6207C34.0267 26.6207 31.037 33.1724 30.6099 34Z" fill="url(#paint1_linear)"/>
<path d="M27.2627 32.6897C26.9779 30.4139 25.4831 29.0346 24.9848 28.6208C24.7713 28.4139 23.9883 27.7932 22.4222 27.1725C18.5784 25.7242 14.3073 26.0001 11.6736 26.8966C11.3888 27.0346 10.5347 27.3104 9.25336 27.7242C8.18563 28.0691 7.04669 28.3449 6.47722 28.4139C5.48065 28.6208 3.48753 28.8277 0.355469 27.8622C0.42665 28.0691 0.497834 28.207 0.569017 28.4139C0.711385 28.6897 0.924936 29.1035 1.28085 29.5173C1.28085 29.5173 2.13505 30.8277 3.06043 31.9311C4.34171 33.4484 15.1615 42.8277 23.2052 38.8966C23.9883 38.4829 25.3407 37.7242 26.6221 36.0691C26.9068 35.5863 27.4762 34.3449 27.2627 32.6897Z" fill="url(#paint2_linear)"/>
<path d="M13.8809 11.311C16.1588 13.0351 18.1519 12.2075 22.067 12.9662C24.0601 13.311 26.765 14.1386 29.8971 16.0696C29.6835 15.7938 29.3988 15.38 28.9717 14.8282C27.6192 13.1041 26.4091 12.2075 25.7685 11.5869C23.4906 9.51788 21.0704 5.51788 20.7145 1.65581C20.6433 0.966154 20.6433 0.483397 20.2874 0.207534C19.0773 -0.757984 15.2334 2.20753 12.1013 4.89721C11.8166 5.17305 11.4607 5.6558 11.3183 6.2765C10.6777 8.82823 13.6674 11.1731 13.8809 11.311Z" fill="url(#paint3_linear)"/>
<path d="M5.98027 11.3792C6.12263 11.1723 6.6209 10.3447 7.33274 10.2067C8.40051 9.99984 9.11231 11.3792 10.6783 12.7585C13.1698 15.0343 16.8713 16.4826 20.0745 16.3447C20.9999 16.2757 21.7117 16.1378 21.7117 16.2067C21.7829 16.4136 18.4373 18.1378 14.5934 18.1378C10.8919 18.1378 6.33617 16.4826 5.69553 13.9309C5.33963 12.4826 5.98027 11.3792 5.98027 11.3792Z" fill="url(#paint4_linear)"/>
<path d="M0.711859 28.414C-0.782986 26.7588 0.427128 22.8967 1.21014 22.8277C1.56605 22.7588 1.70842 23.5864 2.77617 24.6898C3.98628 25.8623 5.33876 26.276 5.97939 26.4829C7.11833 26.8277 8.1149 26.8277 10.108 26.8967C11.8876 26.9657 12.5562 26.5978 12.5562 26.6668C12.6986 27.0806 3.20327 31.1726 0.711859 28.414Z" fill="url(#paint5_linear)"/>
<path d="M31.6047 8.41384C33.6883 8.41384 35.3775 6.77737 35.3775 4.75871C35.3775 2.73999 33.6883 1.10352 31.6047 1.10352C29.5211 1.10352 27.832 2.73999 27.832 4.75871C27.832 6.77737 29.5211 8.41384 31.6047 8.41384Z" fill="url(#paint6_linear)"/>
</g>
<defs>
<linearGradient id="paint0_linear" x1="2.90973" y1="22.673" x2="33.2488" y2="22.673" gradientUnits="userSpaceOnUse">
<stop stop-color="#3DDEED"/>
<stop offset="1" stop-color="#6118D5"/>
</linearGradient>
<linearGradient id="paint1_linear" x1="14.5598" y1="22.6239" x2="33.473" y2="22.6239" gradientUnits="userSpaceOnUse">
<stop stop-color="#3DDEED"/>
<stop offset="1" stop-color="#6118D5"/>
</linearGradient>
<linearGradient id="paint2_linear" x1="0.398819" y1="33.11" x2="27.3108" y2="33.11" gradientUnits="userSpaceOnUse">
<stop stop-color="#3DDEED"/>
<stop offset="1" stop-color="#6118D5"/>
</linearGradient>
<linearGradient id="paint3_linear" x1="11.2201" y1="8.01031" x2="29.9013" y2="8.01031" gradientUnits="userSpaceOnUse">
<stop stop-color="#3DDEED"/>
<stop offset="1" stop-color="#6118D5"/>
</linearGradient>
<linearGradient id="paint4_linear" x1="5.57799" y1="14.1444" x2="21.7448" y2="14.1444" gradientUnits="userSpaceOnUse">
<stop stop-color="#3D91ED"/>
<stop offset="0.0304878" stop-color="#3D93ED" stop-opacity="0.9695"/>
<stop offset="0.9512" stop-color="#3DDEED" stop-opacity="0"/>
<stop offset="1" stop-color="#3DDEED" stop-opacity="0.0833333"/>
</linearGradient>
<linearGradient id="paint5_linear" x1="2.76882e-05" y1="26.1229" x2="12.4579" y2="26.1229" gradientUnits="userSpaceOnUse">
<stop stop-color="#3D91ED"/>
<stop offset="0.9512" stop-color="#3DDEED" stop-opacity="0"/>
<stop offset="1" stop-color="#3DDEED" stop-opacity="0.0833333"/>
</linearGradient>
<linearGradient id="paint6_linear" x1="34.2463" y1="2.20975" x2="29.1221" y2="7.49868" gradientUnits="userSpaceOnUse">
<stop stop-color="#3DDEED"/>
<stop offset="0.5976" stop-color="#6118D5"/>
</linearGradient>
<clipPath id="clip0">
<rect width="145" height="40" fill="white"/>
</clipPath>
</defs>
</svg>
