<svg width="16" height="16" viewBox="0 0 16 16" fill="none" xmlns="http://www.w3.org/2000/svg">
<g clip-path="url(#clip0)">
<path d="M15.9816 4.70404C15.9441 3.8539 15.8067 3.26944 15.6097 2.76299C15.4066 2.22541 15.094 1.74412 14.6845 1.34401C14.2844 0.937683 13.7999 0.621948 13.2686 0.421957C12.7592 0.22502 12.1778 0.0875415 11.3276 0.0500586C10.4712 0.00940124 10.1992 0 8.02695 0C5.85465 0 5.58275 0.00940124 4.72943 0.0468842C3.87929 0.0843671 3.29483 0.221967 2.7885 0.418783C2.2508 0.621948 1.76951 0.934509 1.3694 1.34401C0.963073 1.74412 0.64746 2.22858 0.447348 2.75994C0.25041 3.26944 0.112932 3.85073 0.0754492 4.70087C0.0347919 5.55736 0.0253906 5.82926 0.0253906 8.00156C0.0253906 10.1739 0.0347919 10.4458 0.0722748 11.2991C0.109758 12.1492 0.247358 12.7337 0.444296 13.2401C0.64746 13.7777 0.963073 14.259 1.3694 14.6591C1.76951 15.0654 2.25397 15.3812 2.78533 15.5812C3.29483 15.7781 3.87612 15.9156 4.72638 15.9531C5.57957 15.9907 5.8516 16 8.0239 16C10.1962 16 10.4681 15.9907 11.3214 15.9531C12.1716 15.9156 12.756 15.7781 13.2623 15.5812C14.3376 15.1654 15.1878 14.3153 15.6035 13.2401C15.8003 12.7306 15.9379 12.1492 15.9754 11.2991C16.0129 10.4458 16.0223 10.1739 16.0223 8.00156C16.0223 5.82926 16.0191 5.55736 15.9816 4.70404ZM14.5408 11.2366C14.5064 12.018 14.3751 12.4399 14.2657 12.7212C13.9969 13.4183 13.4437 13.9715 12.7466 14.2403C12.4653 14.3497 12.0403 14.481 11.262 14.5153C10.418 14.5529 10.1649 14.5622 8.03013 14.5622C5.89531 14.5622 5.63903 14.5529 4.79817 14.5153C4.01677 14.481 3.59481 14.3497 3.31351 14.2403C2.96664 14.1121 2.6509 13.909 2.39463 13.6433C2.12895 13.3838 1.92579 13.0713 1.79759 12.7244C1.68819 12.4431 1.55694 12.018 1.52263 11.2397C1.48503 10.3958 1.47575 10.1426 1.47575 8.00779C1.47575 5.87297 1.48503 5.6167 1.52263 4.77596C1.55694 3.99455 1.68819 3.5726 1.79759 3.29129C1.92579 2.9443 2.12895 2.62869 2.3978 2.37229C2.65713 2.10661 2.96969 1.90345 3.31668 1.77537C3.59799 1.66597 4.02312 1.53472 4.80135 1.50029C5.64526 1.46281 5.89848 1.45341 8.03318 1.45341C10.1712 1.45341 10.4243 1.46281 11.2651 1.50029C12.0465 1.53472 12.4685 1.66597 12.7498 1.77537C13.0967 1.90345 13.4124 2.10661 13.6687 2.37229C13.9344 2.63174 14.1375 2.9443 14.2657 3.29129C14.3751 3.5726 14.5064 3.99761 14.5408 4.77596C14.5783 5.61987 14.5877 5.87297 14.5877 8.00779C14.5877 10.1426 14.5783 10.3927 14.5408 11.2366Z" fill="#9ECFFF"/>
<path d="M8.0301 3.89062C5.76098 3.89062 3.91992 5.73156 3.91992 8.0008C3.91992 10.27 5.76098 12.111 8.0301 12.111C10.2993 12.111 12.1403 10.27 12.1403 8.0008C12.1403 5.73156 10.2993 3.89062 8.0301 3.89062ZM8.0301 10.667C6.55801 10.667 5.36393 9.47301 5.36393 8.0008C5.36393 6.52859 6.55801 5.33463 8.0301 5.33463C9.50231 5.33463 10.6963 6.52859 10.6963 8.0008C10.6963 9.47301 9.50231 10.667 8.0301 10.667V10.667Z" fill="#9ECFFF"/>
<path d="M13.261 3.72907C13.261 4.25896 12.8313 4.68861 12.3013 4.68861C11.7714 4.68861 11.3418 4.25896 11.3418 3.72907C11.3418 3.19906 11.7714 2.76953 12.3013 2.76953C12.8313 2.76953 13.261 3.19906 13.261 3.72907V3.72907Z" fill="#9ECFFF"/>
</g>
<defs>
<clipPath id="clip0">
<rect width="16" height="16" fill="white"/>
</clipPath>
</defs>
</svg>
