<svg width="56" height="37" viewBox="0 0 56 37" fill="none" xmlns="http://www.w3.org/2000/svg">
<path d="M55.8229 10.8643C55.8206 10.8474 55.8176 10.8309 55.8143 10.8143C55.5856 9.51524 55.1484 8.25447 54.5154 7.09268L53.018 4.34396C53.0169 4.34189 53.0158 4.33992 53.0146 4.33784L52.4502 3.30183C51.3407 1.26526 49.2108 0 46.8915 0H37.2209C35.1873 0 33.496 1.48981 33.1789 3.43516L32.9619 3.29614C32.9618 3.29603 32.9616 3.29593 32.9613 3.29582L29.15 0.854114C28.2779 0.295314 27.2694 0 26.2336 0H16.2293C13.8616 0 11.5243 0.795598 9.64792 2.24034C9.28895 2.51673 9.2219 3.03178 9.49829 3.39075C9.77468 3.74983 10.2898 3.81677 10.6488 3.54038C12.2399 2.31537 14.2218 1.64063 16.2293 1.64063H26.2336C26.9551 1.64063 27.6575 1.84637 28.265 2.23553L31.4387 4.26882L26.1948 14.3826C25.6718 15.3914 24.6408 16.0182 23.5044 16.0182H17.5103C15.2312 16.0182 13.3204 17.6713 12.9187 19.8412H11.0765V17.3651C11.0765 16.9121 10.7092 16.5448 10.2562 16.5448C9.80312 16.5448 9.43584 16.9121 9.43584 17.3651V19.8412H7.64612V17.3651C7.64612 16.9121 7.27884 16.5448 6.82581 16.5448C6.37277 16.5448 6.00549 16.9121 6.00549 17.3651V20.0447C4.85234 20.4876 4.03137 21.606 4.03137 22.9131V24.0983H3.12267C2.30542 24.0983 1.64053 23.4334 1.64053 22.6161V19.1815C1.64053 17.7257 2.04609 16.3023 2.81336 15.0652L8.29275 6.23036C8.53152 5.84536 8.41306 5.33972 8.02806 5.10084C7.64284 4.86197 7.1372 4.98053 6.89854 5.36553L1.41915 14.2003C0.490769 15.6978 0 17.4202 0 19.1818V22.6164C0 24.3383 1.40088 25.7392 3.12278 25.7392H4.03148V26.4197C4.03148 28.1136 5.40961 29.4916 7.1034 29.4916H8.71768C9.01562 33.2912 12.2004 36.2925 16.0752 36.2925C19.9499 36.2925 23.1348 33.2912 23.4326 29.4916H34.3049C34.6028 33.2912 37.7876 36.2925 41.6624 36.2925C43.1769 36.2925 44.6326 35.837 45.872 34.9754C46.244 34.7168 46.336 34.2056 46.0773 33.8336C45.8188 33.4616 45.3078 33.3697 44.9356 33.6282C43.9723 34.2978 42.8404 34.6517 41.6623 34.6517C38.4962 34.6517 35.9204 32.0759 35.9204 28.9098C35.9204 25.7437 38.4962 23.1678 41.6623 23.1678C44.8284 23.1678 47.4043 25.7436 47.4043 28.9098C47.4043 29.614 47.2785 30.3013 47.0304 30.9528C46.8692 31.3762 47.0817 31.8501 47.5051 32.0113C47.9284 32.1725 48.4024 31.96 48.5637 31.5366C48.814 30.8788 48.9662 30.193 49.0207 29.4916H52.9281C54.622 29.4916 56 28.1135 56 26.4197V12.9219C56.0003 12.2314 55.9395 11.5427 55.8229 10.8643ZM51.808 5.55224L53.0747 7.87756C53.4414 8.55055 53.7325 9.26182 53.9444 9.99584L44.5769 8.66211C44.2871 8.62088 44.0685 8.36899 44.0685 8.0763V6.14407C44.0685 5.8178 44.334 5.55224 44.6604 5.55224H51.808ZM17.5105 17.6589H23.5046C25.2563 17.6589 26.8453 16.6929 27.6516 15.1379L32.8263 5.15772L33.125 5.34912V19.6517C32.7534 19.7756 32.3613 19.8414 31.963 19.8414H14.6029C14.9717 18.5829 16.1382 17.6589 17.5105 17.6589ZM16.0752 34.6518C12.9091 34.6518 10.3332 32.076 10.3332 28.91C10.3332 25.7439 12.909 23.1679 16.0752 23.1679C19.2413 23.1679 21.817 25.7437 21.817 28.91C21.8172 32.076 19.2413 34.6518 16.0752 34.6518ZM54.3597 26.4197C54.3597 27.2089 53.7175 27.851 52.9284 27.851H48.968C48.4528 24.2802 45.3737 21.5273 41.6625 21.5273C37.9513 21.5273 34.8722 24.2803 34.357 27.851H23.3807C22.8654 24.2802 19.7864 21.5273 16.0752 21.5273C12.3639 21.5273 9.2849 24.2803 8.76963 27.851H7.1034C6.31415 27.851 5.67211 27.2088 5.67211 26.4197V22.9132C5.67211 22.124 6.31426 21.4819 7.1034 21.4819H31.963C32.7629 21.4819 33.5453 21.2986 34.2547 20.9602C34.2834 20.9485 34.3112 20.9356 34.3382 20.9209C34.917 20.6325 35.4446 20.2391 35.889 19.7539L36.8639 18.6897C37.7494 17.7228 39.0877 17.3271 40.3567 17.6568L54.3597 21.296V26.4197ZM54.3597 19.6009L51.4235 18.8378V16.8076C51.4235 16.281 51.8519 15.8526 52.3786 15.8526H54.3597V19.6009ZM54.3598 14.2119H52.3786C50.9473 14.2119 49.7829 15.3764 49.7829 16.8076V18.4114L40.7694 16.0689C38.911 15.5858 36.9508 16.1655 35.6541 17.5815L34.7656 18.5514V4.09612C34.7656 2.74227 35.8671 1.64074 37.221 1.64074H46.8916C48.5417 1.64074 50.0604 2.50678 50.9064 3.9116H44.6605C43.4295 3.9116 42.428 4.91304 42.428 6.14407V8.0763C42.428 9.18066 43.2525 10.1308 44.3458 10.2865L54.2874 11.7019C54.3348 12.1064 54.3598 12.5138 54.3598 12.922V14.2119Z" fill="white"/>
<path d="M12.3315 12.2861C12.6483 12.835 13.2161 13.1628 13.8499 13.1628H15.9832C16.2651 13.1628 16.5136 13.0206 16.6612 12.8041C16.74 12.9818 16.8617 13.1402 17.0205 13.2588L18.308 14.2205C18.4553 14.3305 18.6275 14.3837 18.7982 14.3837C19.0481 14.3837 19.295 14.2698 19.4561 14.0542C19.656 13.7865 19.6674 13.4369 19.5144 13.1629H20.9133C21.5471 13.1629 22.1149 12.8351 22.4318 12.2862C22.7487 11.7372 22.7487 11.0817 22.4318 10.5328L21.256 8.49619C21.1522 8.31648 20.9905 8.19168 20.8082 8.13011C20.8711 8.00914 20.9132 7.8769 20.9296 7.73898L21.1187 6.14319C21.172 5.69333 20.8505 5.28535 20.4007 5.23209C20.0688 5.1926 19.7604 5.35765 19.5996 5.62726L18.9001 4.41582C18.5832 3.86686 18.0155 3.53906 17.3816 3.53906C16.7476 3.53906 16.1801 3.86675 15.8631 4.41582L14.6873 6.45239C14.5835 6.6321 14.5563 6.83455 14.5941 7.02322C14.4578 7.02924 14.3223 7.05888 14.1947 7.11368L12.7181 7.74773C12.3018 7.92656 12.1093 8.4089 12.2881 8.82519C12.42 9.13221 12.717 9.31694 13.0309 9.32132L12.3315 10.5328C12.0145 11.0816 12.0145 11.7371 12.3315 12.2861ZM13.7523 11.353L14.4518 10.1413C14.5966 10.3843 14.8612 10.5425 15.1551 10.5425C15.1873 10.5425 15.2199 10.5405 15.2527 10.5367C15.7025 10.4834 16.0241 10.0755 15.9707 9.6256L15.7816 8.02981C15.7653 7.89178 15.7231 7.75965 15.6602 7.63857C15.8424 7.57699 16.0042 7.4522 16.108 7.27249L17.2838 5.23592C17.2919 5.22192 17.3164 5.17948 17.3815 5.17948C17.4466 5.17948 17.4711 5.22192 17.4792 5.23592L18.1787 6.44747C17.8649 6.45185 17.5677 6.63647 17.4358 6.94349C17.2571 7.35977 17.4496 7.84212 17.8659 8.02095L19.3423 8.655C19.4701 8.70991 19.6057 8.73867 19.742 8.74469C19.7039 8.93358 19.7311 9.13636 19.835 9.31629L19.944 9.50507C19.944 9.50518 19.9441 9.50529 19.9441 9.5054L21.0108 11.3529C21.0189 11.3668 21.0434 11.4093 21.0108 11.4656C20.9782 11.5221 20.9292 11.5221 20.9131 11.5221H19.5143C19.6674 11.2481 19.6559 10.8985 19.456 10.6308C19.1848 10.2677 18.6708 10.1933 18.3079 10.4644L17.0203 11.4261C16.8616 11.5447 16.7398 11.7031 16.6611 11.8808C16.5135 11.6644 16.265 11.5221 15.9831 11.5221H13.8498C13.8338 11.5221 13.7848 11.5221 13.7522 11.4656C13.7197 11.4093 13.7442 11.3669 13.7523 11.353Z" fill="white"/>
<path d="M37.8672 28.9107C37.8672 31.0044 39.5705 32.7077 41.6642 32.7077C43.7578 32.7077 45.4611 31.0044 45.4611 28.9107C45.4611 26.817 43.7578 25.1137 41.6642 25.1137C39.5705 25.1137 37.8672 26.817 37.8672 28.9107ZM43.8206 28.9107C43.8206 30.0997 42.8533 31.067 41.6643 31.067C40.4752 31.067 39.5079 30.0997 39.5079 28.9107C39.5079 27.7217 40.4752 26.7544 41.6643 26.7544C42.8533 26.7544 43.8206 27.7217 43.8206 28.9107Z" fill="white"/>
<path d="M43.5835 12.3537H41.5859C41.1329 12.3537 40.7656 12.721 40.7656 13.174C40.7656 13.6271 41.1329 13.9943 41.5859 13.9943H43.5835C44.0365 13.9943 44.4038 13.6271 44.4038 13.174C44.4038 12.721 44.0365 12.3537 43.5835 12.3537Z" fill="white"/>
<path d="M16.0743 25.1137C13.9807 25.1137 12.2773 26.817 12.2773 28.9107C12.2773 31.0044 13.9807 32.7077 16.0743 32.7077C18.168 32.7077 19.8713 31.0044 19.8713 28.9107C19.8713 26.817 18.168 25.1137 16.0743 25.1137ZM16.0743 31.067C14.8853 31.067 13.918 30.0997 13.918 28.9107C13.918 27.7217 14.8853 26.7544 16.0743 26.7544C17.2633 26.7544 18.2307 27.7217 18.2307 28.9107C18.2307 30.0997 17.2633 31.067 16.0743 31.067Z" fill="white"/>
</svg>
