<svg width="62" height="62" viewBox="0 0 62 62" fill="none" xmlns="http://www.w3.org/2000/svg">
<path d="M58.8229 23.8643C58.8206 23.8474 58.8176 23.8309 58.8143 23.8143C58.5856 22.5152 58.1484 21.2545 57.5154 20.0927L56.018 17.344C56.0169 17.3419 56.0158 17.3399 56.0146 17.3378L55.4502 16.3018C54.3407 14.2653 52.2108 13 49.8915 13H40.2209C38.1873 13 36.496 14.4898 36.1789 16.4352L35.9619 16.2961C35.9618 16.296 35.9616 16.2959 35.9613 16.2958L32.15 13.8541C31.2779 13.2953 30.2694 13 29.2336 13H19.2293C16.8616 13 14.5243 13.7956 12.6479 15.2403C12.2889 15.5167 12.2219 16.0318 12.4983 16.3908C12.7747 16.7498 13.2898 16.8168 13.6488 16.5404C15.2399 15.3154 17.2218 14.6406 19.2293 14.6406H29.2336C29.9551 14.6406 30.6575 14.8464 31.265 15.2355L34.4387 17.2688L29.1948 27.3826C28.6718 28.3914 27.6408 29.0182 26.5044 29.0182H20.5103C18.2312 29.0182 16.3204 30.6713 15.9187 32.8412H14.0765V30.3651C14.0765 29.9121 13.7092 29.5448 13.2562 29.5448C12.8031 29.5448 12.4358 29.9121 12.4358 30.3651V32.8412H10.6461V30.3651C10.6461 29.9121 10.2788 29.5448 9.82581 29.5448C9.37277 29.5448 9.00549 29.9121 9.00549 30.3651V33.0447C7.85234 33.4876 7.03137 34.606 7.03137 35.9131V37.0983H6.12267C5.30542 37.0983 4.64053 36.4334 4.64053 35.6161V32.1815C4.64053 30.7257 5.04609 29.3023 5.81336 28.0652L11.2928 19.2304C11.5315 18.8454 11.4131 18.3397 11.0281 18.1008C10.6428 17.862 10.1372 17.9805 9.89854 18.3655L4.41915 27.2003C3.49077 28.6978 3 30.4202 3 32.1818V35.6164C3 37.3383 4.40088 38.7392 6.12278 38.7392H7.03148V39.4197C7.03148 41.1136 8.40961 42.4916 10.1034 42.4916H11.7177C12.0156 46.2912 15.2004 49.2925 19.0752 49.2925C22.9499 49.2925 26.1348 46.2912 26.4326 42.4916H37.3049C37.6028 46.2912 40.7876 49.2925 44.6624 49.2925C46.1769 49.2925 47.6326 48.837 48.872 47.9754C49.244 47.7168 49.336 47.2056 49.0773 46.8336C48.8188 46.4616 48.3078 46.3697 47.9356 46.6282C46.9723 47.2978 45.8404 47.6517 44.6623 47.6517C41.4962 47.6517 38.9204 45.0759 38.9204 41.9098C38.9204 38.7437 41.4962 36.1678 44.6623 36.1678C47.8284 36.1678 50.4043 38.7436 50.4043 41.9098C50.4043 42.614 50.2785 43.3013 50.0304 43.9528C49.8692 44.3762 50.0817 44.8501 50.5051 45.0113C50.9284 45.1725 51.4024 44.96 51.5637 44.5366C51.814 43.8788 51.9662 43.193 52.0207 42.4916H55.9281C57.622 42.4916 59 41.1135 59 39.4197V25.9219C59.0003 25.2314 58.9395 24.5427 58.8229 23.8643ZM54.808 18.5522L56.0747 20.8776C56.4414 21.5506 56.7325 22.2618 56.9444 22.9958L47.5769 21.6621C47.2871 21.6209 47.0685 21.369 47.0685 21.0763V19.1441C47.0685 18.8178 47.334 18.5522 47.6604 18.5522H54.808ZM20.5105 30.6589H26.5046C28.2563 30.6589 29.8453 29.6929 30.6516 28.1379L35.8263 18.1577L36.125 18.3491V32.6517C35.7534 32.7756 35.3613 32.8414 34.963 32.8414H17.6029C17.9717 31.5829 19.1382 30.6589 20.5105 30.6589ZM19.0752 47.6518C15.9091 47.6518 13.3332 45.076 13.3332 41.91C13.3332 38.7439 15.909 36.1679 19.0752 36.1679C22.2413 36.1679 24.817 38.7437 24.817 41.91C24.8172 45.076 22.2413 47.6518 19.0752 47.6518ZM57.3597 39.4197C57.3597 40.2089 56.7175 40.851 55.9284 40.851H51.968C51.4528 37.2802 48.3737 34.5273 44.6625 34.5273C40.9513 34.5273 37.8722 37.2803 37.357 40.851H26.3807C25.8654 37.2802 22.7864 34.5273 19.0752 34.5273C15.3639 34.5273 12.2849 37.2803 11.7696 40.851H10.1034C9.31415 40.851 8.67211 40.2088 8.67211 39.4197V35.9132C8.67211 35.124 9.31426 34.4819 10.1034 34.4819H34.963C35.7629 34.4819 36.5453 34.2986 37.2547 33.9602C37.2834 33.9485 37.3112 33.9356 37.3382 33.9209C37.917 33.6325 38.4446 33.2391 38.889 32.7539L39.8639 31.6897C40.7494 30.7228 42.0877 30.3271 43.3567 30.6568L57.3597 34.296V39.4197ZM57.3597 32.6009L54.4235 31.8378V29.8076C54.4235 29.281 54.8519 28.8526 55.3786 28.8526H57.3597V32.6009ZM57.3598 27.2119H55.3786C53.9473 27.2119 52.7829 28.3764 52.7829 29.8076V31.4114L43.7694 29.0689C41.911 28.5858 39.9508 29.1655 38.6541 30.5815L37.7656 31.5514V17.0961C37.7656 15.7423 38.8671 14.6407 40.221 14.6407H49.8916C51.5417 14.6407 53.0604 15.5068 53.9064 16.9116H47.6605C46.4295 16.9116 45.428 17.913 45.428 19.1441V21.0763C45.428 22.1807 46.2525 23.1308 47.3458 23.2865L57.2874 24.7019C57.3348 25.1064 57.3598 25.5138 57.3598 25.922V27.2119Z" fill="white"/>
<path d="M15.3315 25.2861C15.6483 25.835 16.2161 26.1628 16.8499 26.1628H18.9832C19.2651 26.1628 19.5136 26.0206 19.6612 25.8041C19.74 25.9818 19.8617 26.1402 20.0205 26.2588L21.308 27.2205C21.4553 27.3305 21.6275 27.3837 21.7982 27.3837C22.0481 27.3837 22.295 27.2698 22.4561 27.0542C22.656 26.7865 22.6674 26.4369 22.5144 26.1629H23.9133C24.5471 26.1629 25.1149 25.8351 25.4318 25.2862C25.7487 24.7372 25.7487 24.0817 25.4318 23.5328L24.256 21.4962C24.1522 21.3165 23.9905 21.1917 23.8082 21.1301C23.8711 21.0091 23.9132 20.8769 23.9296 20.739L24.1187 19.1432C24.172 18.6933 23.8505 18.2854 23.4007 18.2321C23.0688 18.1926 22.7604 18.3577 22.5996 18.6273L21.9001 17.4158C21.5832 16.8669 21.0155 16.5391 20.3816 16.5391C19.7476 16.5391 19.1801 16.8668 18.8631 17.4158L17.6873 19.4524C17.5835 19.6321 17.5563 19.8346 17.5941 20.0232C17.4578 20.0292 17.3223 20.0589 17.1947 20.1137L15.7181 20.7477C15.3018 20.9266 15.1093 21.4089 15.2881 21.8252C15.42 22.1322 15.717 22.3169 16.0309 22.3213L15.3315 23.5328C15.0145 24.0816 15.0145 24.7371 15.3315 25.2861ZM16.7523 24.353L17.4518 23.1413C17.5966 23.3843 17.8612 23.5425 18.1551 23.5425C18.1873 23.5425 18.2199 23.5405 18.2527 23.5367C18.7025 23.4834 19.0241 23.0755 18.9707 22.6256L18.7816 21.0298C18.7653 20.8918 18.7231 20.7597 18.6602 20.6386C18.8424 20.577 19.0042 20.4522 19.108 20.2725L20.2838 18.2359C20.2919 18.2219 20.3164 18.1795 20.3815 18.1795C20.4466 18.1795 20.4711 18.2219 20.4792 18.2359L21.1787 19.4475C20.8649 19.4518 20.5677 19.6365 20.4358 19.9435C20.2571 20.3598 20.4496 20.8421 20.8659 21.0209L22.3423 21.655C22.4701 21.7099 22.6057 21.7387 22.742 21.7447C22.7039 21.9336 22.7311 22.1364 22.835 22.3163L22.944 22.5051C22.944 22.5052 22.9441 22.5053 22.9441 22.5054L24.0108 24.3529C24.0189 24.3668 24.0434 24.4093 24.0108 24.4656C23.9782 24.5221 23.9292 24.5221 23.9131 24.5221H22.5143C22.6674 24.2481 22.6559 23.8985 22.456 23.6308C22.1848 23.2677 21.6708 23.1933 21.3079 23.4644L20.0203 24.4261C19.8616 24.5447 19.7398 24.7031 19.6611 24.8808C19.5135 24.6644 19.265 24.5221 18.9831 24.5221H16.8498C16.8338 24.5221 16.7848 24.5221 16.7522 24.4656C16.7197 24.4093 16.7442 24.3669 16.7523 24.353Z" fill="white"/>
<path d="M40.8672 41.9107C40.8672 44.0044 42.5705 45.7077 44.6642 45.7077C46.7578 45.7077 48.4611 44.0044 48.4611 41.9107C48.4611 39.817 46.7578 38.1137 44.6642 38.1137C42.5705 38.1137 40.8672 39.817 40.8672 41.9107ZM46.8206 41.9107C46.8206 43.0997 45.8533 44.067 44.6643 44.067C43.4752 44.067 42.5079 43.0997 42.5079 41.9107C42.5079 40.7217 43.4752 39.7544 44.6643 39.7544C45.8533 39.7544 46.8206 40.7217 46.8206 41.9107Z" fill="white"/>
<path d="M46.5835 25.3537H44.5859C44.1329 25.3537 43.7656 25.721 43.7656 26.174C43.7656 26.6271 44.1329 26.9943 44.5859 26.9943H46.5835C47.0365 26.9943 47.4038 26.6271 47.4038 26.174C47.4038 25.721 47.0365 25.3537 46.5835 25.3537Z" fill="white"/>
<path d="M19.0743 38.1137C16.9807 38.1137 15.2773 39.817 15.2773 41.9107C15.2773 44.0044 16.9807 45.7077 19.0743 45.7077C21.168 45.7077 22.8713 44.0044 22.8713 41.9107C22.8713 39.817 21.168 38.1137 19.0743 38.1137ZM19.0743 44.067C17.8853 44.067 16.918 43.0997 16.918 41.9107C16.918 40.7217 17.8853 39.7544 19.0743 39.7544C20.2633 39.7544 21.2307 40.7217 21.2307 41.9107C21.2307 43.0997 20.2633 44.067 19.0743 44.067Z" fill="white"/>
</svg>
