<svg width="62" height="62" viewBox="0 0 62 62" fill="none" xmlns="http://www.w3.org/2000/svg">
<path d="M29.2253 48.4865H31.4417C32.088 48.4865 32.6137 47.9607 32.6137 47.3144V46.8285H33.0996C33.7458 46.8285 34.2715 46.3027 34.2715 45.6564V43.4429C34.2715 42.7966 33.7458 42.2708 33.0996 42.2708H32.6137V41.7849C32.6137 41.1386 32.088 40.6129 31.4417 40.6129H29.2253C28.5806 40.6129 28.0562 41.1386 28.0562 41.7849V42.2708H27.5704C26.9242 42.2708 26.3984 42.7966 26.3984 43.4429V45.6564C26.3984 46.3027 26.9242 46.8285 27.5704 46.8285H28.0562V47.3144C28.0562 47.9607 28.5807 48.4865 29.2253 48.4865ZM27.9623 45.2647V43.8349H28.8381C29.2701 43.8349 29.62 43.4848 29.62 43.053V42.1769H31.0499V43.0529C31.0499 43.4847 31.3999 43.8348 31.8318 43.8348H32.7077V45.2646H31.8318C31.3999 45.2646 31.0499 45.6147 31.0499 46.0466V46.9225H29.62V46.0466C29.62 45.6147 29.2701 45.2646 28.8381 45.2646H27.9623V45.2647Z" fill="white"/>
<path d="M32.3759 51.8688H36.3624C37.7485 51.8688 38.876 50.7412 38.876 49.3551V40.1258C38.876 38.7414 37.7485 37.615 36.3624 37.615H24.5888C23.2044 37.615 22.0781 38.7413 22.0781 40.1258V49.3551C22.0781 50.7412 23.2044 51.8688 24.5888 51.8688H28.8029C29.2349 51.8688 29.5849 51.5188 29.5849 51.0869C29.5849 50.6551 29.2349 50.305 28.8029 50.305H24.5888C24.0667 50.305 23.642 49.8789 23.642 49.3551V40.1258C23.642 39.6037 24.0667 39.1788 24.5888 39.1788H36.3624C36.8861 39.1788 37.3122 39.6036 37.3122 40.1258V49.3551C37.3122 49.8789 36.8861 50.305 36.3624 50.305H32.3759C31.944 50.305 31.594 50.6551 31.594 51.0869C31.594 51.5188 31.944 51.8688 32.3759 51.8688Z" fill="white"/>
<path d="M43.507 7.09052H42.6754V6.78192C42.6754 6.35009 42.3254 6 41.8935 6H22.9299C22.709 6 22.4983 6.09341 22.35 6.2573L19.7675 9.11172C19.5828 9.31544 19.4081 9.5055 19.2446 9.68305C18.1172 10.9084 17.4367 11.648 17.6694 12.5321C17.8703 13.2955 18.6769 13.6523 19.5181 13.924C21.1788 14.4616 22.0268 15.5164 22.3539 17.4508C22.4175 17.827 22.7434 18.1024 23.1249 18.1024H24.1694V20.5135H21.6386C20.8505 20.5135 20.2094 21.1545 20.2094 21.9426V26.2307C20.2094 26.6077 20.3573 26.9501 20.5966 27.2057C20.5966 27.2057 17.563 33.1258 17.4864 33.2496C17.1535 33.7874 17.0178 34.1211 17.0178 35.2733L17.0119 41.5267C17.0115 41.9586 17.3613 42.309 17.7931 42.3094H17.7938C18.2253 42.3094 18.5753 41.9597 18.5757 41.5282L18.5817 35.2741C18.5817 34.4514 18.6314 34.3711 18.816 34.0727C18.9006 33.9361 22.1204 27.66 22.1204 27.66H33.666C34.9969 30.5555 37.1929 32.7244 40.3649 34.2801C42.3284 35.2409 42.4087 37.0521 42.3816 40.1705C42.3791 40.4627 42.3765 40.7587 42.3765 41.0576V54.1702C42.3765 54.6679 41.9729 55.0728 41.4769 55.0728H19.4635C19.2246 55.0728 18.9987 54.9781 18.8273 54.8061C18.6566 54.6349 18.5631 54.4099 18.5639 54.1712L18.5756 45.0984C18.5762 44.6666 18.2266 44.3161 17.7948 44.3155C17.7943 44.3155 17.794 44.3155 17.7937 44.3155C17.3623 44.3155 17.0124 44.6649 17.0118 45.0963L17 54.1676C16.9978 54.8236 17.2536 55.4425 17.7197 55.9102C18.1868 56.3784 18.806 56.6364 19.4635 56.6364H41.4768C42.8351 56.6364 43.9402 55.53 43.9402 54.1699V41.0574C43.9402 40.7631 43.9427 40.4716 43.9453 40.1838C43.9704 37.299 43.9963 34.3158 41.0528 32.8755C38.3165 31.5335 36.457 29.7714 35.262 27.3729C35.6103 27.1119 35.8371 26.6977 35.8371 26.2306V21.9425C35.8371 21.1544 35.1946 20.5133 34.405 20.5133H31.1087V18.1023H31.3405C31.5697 18.1023 31.7872 18.0018 31.9358 17.8273C32.9816 16.5992 34.2251 15.8503 36.0876 15.4404C36.1149 17.9528 36.5418 20.6213 38.548 23.3427C39.428 24.5387 40.6374 24.9957 41.6713 24.9957C42.296 24.9957 42.8569 24.8287 43.2419 24.5569C43.9572 24.052 44.1248 23.2087 43.6503 22.5074C41.9059 19.9177 41.0729 17.3248 41.1694 14.7926C41.8429 14.4574 42.5557 13.8389 42.662 12.9926H43.5072C44.8263 12.9926 45.8996 11.9193 45.8996 10.6001V9.48298C45.8996 8.16383 44.8263 7.09052 43.507 7.09052ZM34.2732 22.0773V26.0959H34.1774H21.7733V22.0773H24.9513H30.3268H34.2732ZM25.7332 20.5135V18.1024H29.5449V20.5135H25.7332ZM30.9886 16.5385H23.7621C23.2406 14.4057 22.0322 13.0941 19.9992 12.4359C19.56 12.2941 19.3407 12.1854 19.2345 12.12C19.3962 11.828 23.2768 7.56373 23.2768 7.56373H41.1116V12.7752C41.1116 12.9599 40.7178 13.3178 40.29 13.4727C36.2399 13.5383 33.2433 14.0935 30.9886 16.5385ZM42.3015 23.3042C42.1923 23.3661 41.9798 23.4416 41.6716 23.4416C41.6655 23.4416 41.6594 23.4416 41.6533 23.4415C41.3229 23.4383 40.4815 23.332 39.8071 22.4154C38.0788 20.0709 37.6548 17.8025 37.6503 15.1895C38.2449 15.1235 38.8913 15.0791 39.6 15.0545C39.5767 17.7715 40.501 20.6033 42.3015 23.3042ZM44.3358 10.6001C44.3358 11.057 43.9641 11.4288 43.5072 11.4288H42.6755V8.65435H43.5072C43.9641 8.65435 44.3358 9.02613 44.3358 9.48308V10.6001Z" fill="white"/>
</svg>
