<svg width="42" height="54" viewBox="0 0 42 54" fill="none" xmlns="http://www.w3.org/2000/svg">
<path d="M12.2253 45.2291H14.4417C15.088 45.2291 15.6137 44.7034 15.6137 44.0571V43.5711H16.0996C16.7458 43.5711 17.2715 43.0454 17.2715 42.3991V40.1855C17.2715 39.5393 16.7458 39.0135 16.0996 39.0135H15.6137V38.5276C15.6137 37.8813 15.088 37.3555 14.4417 37.3555H12.2253C11.5806 37.3555 11.0562 37.8813 11.0562 38.5276V39.0135H10.5704C9.9242 39.0135 9.39844 39.5393 9.39844 40.1855V42.3991C9.39844 43.0454 9.9242 43.5711 10.5704 43.5711H11.0562V44.0571C11.0562 44.7034 11.5807 45.2291 12.2253 45.2291ZM10.9623 42.0074V40.5776H11.8381C12.2701 40.5776 12.62 40.2275 12.62 39.7956V38.9196H14.0499V39.7955C14.0499 40.2274 14.3999 40.5774 14.8318 40.5774H15.7077V42.0073H14.8318C14.3999 42.0073 14.0499 42.3574 14.0499 42.7892V43.6652H12.62V42.7892C12.62 42.3574 12.2701 42.0073 11.8381 42.0073H10.9623V42.0074Z" fill="white"/>
<path d="M15.3759 48.6115H19.3624C20.7485 48.6115 21.876 47.4839 21.876 46.0978V36.8685C21.876 35.484 20.7485 34.3577 19.3624 34.3577H7.58881C6.2044 34.3577 5.07812 35.4839 5.07812 36.8685V46.0978C5.07812 47.4839 6.2044 48.6115 7.58881 48.6115H11.8029C12.2349 48.6115 12.5849 48.2614 12.5849 47.8296C12.5849 47.3978 12.2349 47.0477 11.8029 47.0477H7.58881C7.0667 47.0477 6.64196 46.6216 6.64196 46.0978V36.8685C6.64196 36.3463 7.0667 35.9215 7.58881 35.9215H19.3624C19.8861 35.9215 20.3122 36.3462 20.3122 36.8685V46.0978C20.3122 46.6216 19.8861 47.0477 19.3624 47.0477H15.3759C14.944 47.0477 14.594 47.3978 14.594 47.8296C14.594 48.2614 14.944 48.6115 15.3759 48.6115Z" fill="white"/>
<path d="M33.1873 9.38509H33.1764C32.7445 9.38509 32.3945 9.73518 32.3945 10.167C32.3945 10.5988 32.7445 10.9489 33.1764 10.9489H33.1873C33.6192 10.9489 33.9692 10.5988 33.9692 10.167C33.9692 9.73518 33.6192 9.38509 33.1873 9.38509Z" fill="white"/>
<path d="M37.2084 0.844739H37.196C36.7641 0.844739 36.4141 1.19483 36.4141 1.62666C36.4141 2.05848 36.7641 2.40858 37.196 2.40858H37.2084C37.6403 2.40858 37.9903 2.05848 37.9903 1.62666C37.9903 1.19483 37.6402 0.844739 37.2084 0.844739Z" fill="white"/>
<path d="M41.2155 1.56384H41.2221C41.654 1.56384 42.0008 1.21375 42.0008 0.781918C42.0008 0.350091 41.6473 0 41.2155 0C40.7837 0 40.4336 0.350091 40.4336 0.781918C40.4336 1.21375 40.7836 1.56384 41.2155 1.56384Z" fill="white"/>
<path d="M33.1804 3.25116H33.1892C33.6212 3.25116 33.9667 2.90107 33.9667 2.46924C33.9667 2.03741 33.6123 1.68732 33.1804 1.68732C32.7484 1.68732 32.3984 2.03741 32.3984 2.46924C32.3984 2.90107 32.7485 3.25116 33.1804 3.25116Z" fill="white"/>
<path d="M31.1218 5.52979C30.6898 5.52979 30.3398 5.88134 30.3398 6.31316C30.3398 6.74499 30.6898 7.09508 31.1218 7.09508C31.5537 7.09508 31.9037 6.74499 31.9037 6.31316V6.31024C31.9037 5.87842 31.5536 5.52979 31.1218 5.52979Z" fill="white"/>
<path d="M37.196 10.232C36.7641 10.232 36.4141 10.5821 36.4141 11.0139C36.4141 11.4457 36.7641 11.7958 37.196 11.7958H37.2011C37.633 11.7958 37.9805 11.4457 37.9805 11.0139C37.9805 10.5821 37.6278 10.232 37.196 10.232Z" fill="white"/>
<path d="M41.2155 11.0766C40.7836 11.0766 40.4336 11.4267 40.4336 11.8585C40.4336 12.2903 40.7836 12.6404 41.2155 12.6404H41.222C41.6539 12.6404 42.0006 12.2903 42.0006 11.8585C42.0006 11.4267 41.6473 11.0766 41.2155 11.0766Z" fill="white"/>
<path d="M35.7663 5.52973C35.3344 5.52973 34.9844 5.87982 34.9844 6.31165C34.9844 6.74348 35.3344 7.09357 35.7663 7.09357H35.7765C36.2085 7.09357 36.5533 6.74348 36.5533 6.31165C36.5533 5.87982 36.1982 5.52973 35.7663 5.52973Z" fill="white"/>
<path d="M40.9629 6.86012C41.2683 6.55475 41.2667 6.0611 40.9613 5.75584C40.656 5.45048 40.1596 5.45204 39.854 5.7573C39.5487 6.06267 39.5487 6.55778 39.854 6.86304C40.0068 7.01567 40.2069 7.09209 40.407 7.09209C40.6071 7.09209 40.8072 7.01577 40.96 6.86304L40.9629 6.86012Z" fill="white"/>
<path d="M26.507 3.83319H25.6754V3.52459C25.6754 3.09276 25.3254 2.74267 24.8935 2.74267H5.92987C5.70896 2.74267 5.49826 2.83608 5.35 2.99997L2.76748 5.85439C2.58285 6.05811 2.40811 6.24817 2.24464 6.42572C1.11722 7.65103 0.436742 8.39062 0.669441 9.27482C0.870341 10.0382 1.67686 10.3949 2.5181 10.6666C4.17879 11.2043 5.02681 12.259 5.35386 14.1935C5.41746 14.5697 5.74336 14.8451 6.12494 14.8451H7.16937V17.2561H4.63856C3.85049 17.2561 3.20942 17.8972 3.20942 18.6853V22.9734C3.20942 23.3504 3.35726 23.6928 3.59663 23.9484C3.59663 23.9484 0.562995 29.8685 0.486367 29.9922C0.153479 30.5301 0.0178418 30.8638 0.0178418 32.0159L0.0118989 38.2694C0.0114819 38.7012 0.36126 39.0516 0.793088 39.0521H0.793817C1.22533 39.0521 1.57532 38.7024 1.57574 38.2709L1.58168 32.0168C1.58168 31.1941 1.63141 31.1138 1.81605 30.8153C1.9006 30.6787 5.12043 24.4026 5.12043 24.4026H16.666C17.9969 27.2981 20.1929 29.4671 23.3649 31.0228C25.3284 31.9836 25.4087 33.7947 25.3816 36.9131C25.3791 37.2054 25.3765 37.5014 25.3765 37.8003V50.9128C25.3765 51.4105 24.9729 51.8155 24.4769 51.8155H2.46347C2.22462 51.8155 1.9987 51.7208 1.82731 51.5488C1.65664 51.3776 1.56312 51.1526 1.56385 50.9139L1.57563 41.8411C1.57615 41.4093 1.22658 41.0588 0.794756 41.0581C0.794339 41.0581 0.794026 41.0581 0.793713 41.0581C0.362303 41.0581 0.0124203 41.4076 0.0117947 41.839L1.39416e-05 50.9103C-0.00217543 51.5663 0.253564 52.1852 0.719692 52.6528C1.18676 53.1211 1.80604 53.3791 2.46347 53.3791H24.4768C25.8351 53.3791 26.9402 52.2726 26.9402 50.9126V37.8C26.9402 37.5057 26.9427 37.2142 26.9453 36.9265C26.9704 34.0416 26.9963 31.0584 24.0528 29.6182C21.3165 28.2762 19.457 26.514 18.262 24.1155C18.6103 23.8546 18.8371 23.4404 18.8371 22.9733V18.6852C18.8371 17.8971 18.1946 17.256 17.405 17.256H14.1087V14.845H14.3405C14.5697 14.845 14.7872 14.7445 14.9358 14.57C15.9816 13.3418 17.2251 12.593 19.0876 12.183C19.1149 14.6955 19.5418 17.3639 21.548 20.0854C22.428 21.2813 23.6374 21.7384 24.6713 21.7384C25.296 21.7384 25.8569 21.5714 26.2419 21.2996C26.9572 20.7947 27.1248 19.9513 26.6503 19.2501C24.9059 16.6604 24.0729 14.0675 24.1694 11.5353C24.8429 11.2001 25.5557 10.5816 25.662 9.73532H26.5072C27.8263 9.73532 28.8996 8.662 28.8996 7.34275V6.22565C28.8996 4.9065 27.8263 3.83319 26.507 3.83319ZM17.2732 18.82V22.8386H17.1774H4.77326V18.82H7.95129H13.3268H17.2732ZM8.73321 17.2561V14.8451H12.5449V17.2561H8.73321ZM13.9886 13.2812H6.76215C6.24056 11.1484 5.03223 9.83676 2.99924 9.17859C2.56001 9.0368 2.34066 8.92806 2.23453 8.8627C2.39623 8.57067 6.27684 4.3064 6.27684 4.3064H24.1116V9.51784C24.1116 9.70258 23.7178 10.0605 23.29 10.2154C19.2399 10.281 16.2433 10.8362 13.9886 13.2812ZM25.3015 20.0468C25.1923 20.1088 24.9798 20.1843 24.6716 20.1843C24.6655 20.1843 24.6594 20.1843 24.6533 20.1841C24.3229 20.181 23.4815 20.0747 22.8071 19.1581C21.0788 16.8136 20.6548 14.5452 20.6503 11.9322C21.2449 11.8662 21.8913 11.8218 22.6 11.7972C22.5767 14.5142 23.501 17.346 25.3015 20.0468ZM27.3358 7.34275C27.3358 7.7997 26.9641 8.17148 26.5072 8.17148H25.6755V5.39702H26.5072C26.9641 5.39702 27.3358 5.7688 27.3358 6.22575V7.34275Z" fill="white"/>
</svg>
