<svg width="62" height="62" viewBox="0 0 62 62" fill="none" xmlns="http://www.w3.org/2000/svg">
<path d="M55.3014 50.3208V26.3836C55.2952 23.9785 54.0227 21.7544 51.9525 20.5301L41.8456 14.5849C40.8006 13.9644 39.6068 13.6392 38.3914 13.6439H38.2216L37.712 9.02272C37.5211 7.30216 36.0671 6.00027 34.336 6H27.8557C26.1245 6.00027 24.6705 7.30216 24.4796 9.02272L23.9658 13.6439H23.8766C22.4694 13.6439 21.3287 14.7846 21.3287 16.1918V18.7398C21.3331 19.8157 22.0129 20.7728 23.0273 21.1314V23.7295C17.7442 21.8413 11.8477 23.6316 8.50617 28.1383C5.16461 32.645 5.16461 38.8072 8.50617 43.3139C11.8477 47.8206 17.7442 49.6109 23.0273 47.7227V50.3208C22.0129 50.6794 21.3331 51.6366 21.3287 52.7125V54.4111C21.3287 55.8183 22.4694 56.959 23.8766 56.959H54.452C55.8592 56.959 57 55.8183 57 54.4111V52.7125C56.9955 51.6366 56.3157 50.6794 55.3014 50.3208ZM27.8557 7.69863H34.336C35.2006 7.69982 35.9263 8.35026 36.0219 9.20957L36.1391 10.2466H26.0526L26.1698 9.20957C26.2653 8.35026 26.9911 7.69982 27.8557 7.69863ZM25.864 11.9452H36.3285L36.517 13.6439H25.6746L25.864 11.9452ZM18.7807 24.685C21.4143 24.6845 23.9604 25.6304 25.9549 27.3501L24.2809 29.025C23.2132 28.178 21.967 27.5846 20.6365 27.2898C19.0264 26.9681 17.4603 28.0124 17.1385 29.6225C16.8168 31.2326 17.8611 32.7986 19.4712 33.1204C19.6538 33.1644 19.8318 33.2255 20.0029 33.303L10.4056 42.9003C7.59463 39.6308 6.94722 35.0228 8.74843 31.1053C10.5496 27.1878 14.469 24.6796 18.7807 24.685ZM21.2522 32.0537C20.8102 31.7711 20.3212 31.5698 19.8084 31.4591C19.361 31.3711 18.9947 31.0507 18.848 30.619C18.7013 30.1873 18.7965 29.7101 19.0977 29.3677C19.3988 29.0253 19.86 28.87 20.3069 28.9604C21.3099 29.1833 22.2529 29.6202 23.0715 30.2412L21.2522 32.0537ZM24.2843 31.4235C25.1462 32.53 25.602 33.8991 25.5752 35.3015C25.5752 36.005 25.0049 36.5754 24.3013 36.5754C23.5977 36.5754 23.0273 36.005 23.0273 35.3015C23.0373 34.5784 22.8372 33.8679 22.4515 33.2563L24.2843 31.4235ZM11.6065 44.1021L21.1843 34.5235C21.2792 34.7719 21.3281 35.0355 21.3287 35.3015C21.3287 36.9432 22.6595 38.2741 24.3013 38.2741C25.943 38.2741 27.2739 36.9432 27.2739 35.3015C27.3104 33.4464 26.6772 31.6402 25.4903 30.214L27.1533 28.5519C30.9053 32.9261 30.6562 39.4518 26.5816 43.5272C22.5071 47.6026 15.9815 47.8531 11.6065 44.1021ZM55.3014 54.4111C55.3014 54.8802 54.9211 55.2604 54.452 55.2604H23.8766C23.4075 55.2604 23.0273 54.8802 23.0273 54.4111V52.7125C23.0273 52.2434 23.4075 51.8631 23.8766 51.8631H28.9725C29.4416 51.8631 29.8218 51.4829 29.8218 51.0138C29.8218 50.5448 29.4416 50.1645 28.9725 50.1645H24.7259V46.9847C28.628 44.9192 31.1825 40.9806 31.4772 36.5754H34.189C34.6167 38.2319 36.2094 39.3119 37.9065 39.0963C39.6036 38.8807 40.8757 37.4369 40.8757 35.7261C40.8757 34.0154 39.6036 32.5715 37.9065 32.3559C36.2094 32.1404 34.6167 33.2204 34.189 34.8768H31.4772C31.1825 30.4716 28.628 26.5331 24.7259 24.4676V21.2877H27.2739C27.7429 21.2877 28.1232 20.9075 28.1232 20.4384C28.1232 19.9693 27.7429 19.5891 27.2739 19.5891H23.8766C23.4075 19.5891 23.0273 19.2088 23.0273 18.7398V16.1918C23.0273 15.7227 23.4075 15.3425 23.8766 15.3425H38.3914C39.3011 15.3401 40.1943 15.5846 40.9759 16.05L51.0904 21.9952C52.6431 22.9127 53.5977 24.5801 53.6027 26.3836V50.1645H35.7671C35.298 50.1645 34.9177 50.5448 34.9177 51.0138C34.9177 51.4829 35.298 51.8631 35.7671 51.8631H54.452C54.9211 51.8631 55.3014 52.2434 55.3014 52.7125V54.4111ZM35.7671 35.7261C35.7671 34.788 36.5276 34.0275 37.4657 34.0275C38.4038 34.0275 39.1643 34.788 39.1643 35.7261C39.1643 36.6642 38.4038 37.4247 37.4657 37.4247C36.5276 37.4247 35.7671 36.6642 35.7671 35.7261Z" fill="white"/>
<path d="M39.165 19.5886H31.5212C31.0521 19.5886 30.6719 19.9689 30.6719 20.4379C30.6719 20.907 31.0521 21.2873 31.5212 21.2873H39.165C39.6341 21.2873 40.0144 20.907 40.0144 20.4379C40.0144 19.9689 39.6341 19.5886 39.165 19.5886Z" fill="white"/>
<path d="M43.2245 28.3615L44.2598 29.052V42.5214C44.2598 44.3976 45.7808 45.9186 47.6571 45.9186C49.5333 45.9186 51.0543 44.3976 51.0543 42.5214V27.2336C51.0557 26.0975 50.4877 25.0362 49.5417 24.4071L46.9937 22.7085C45.433 21.6798 43.3346 22.1052 42.2976 23.6604C41.2607 25.2156 41.6748 27.3163 43.2245 28.3615ZM43.6958 24.5923C44.2164 23.8122 45.2707 23.6015 46.051 24.1217L48.5989 25.8204C49.0716 26.1353 49.3556 26.6657 49.3557 27.2336V42.5214C49.3557 43.4595 48.5952 44.22 47.6571 44.22C46.7189 44.22 45.9584 43.4595 45.9584 42.5214V28.5968C45.9585 28.3129 45.8166 28.0477 45.5805 27.8902L44.1672 26.9483C43.7922 26.6984 43.5319 26.3098 43.4434 25.8679C43.355 25.4261 43.4458 24.9672 43.6958 24.5923Z" fill="white"/>
<path d="M13.2617 35.7267C14.9034 35.7267 16.2343 34.3958 16.2343 32.7541C16.2343 31.1124 14.9034 29.7815 13.2617 29.7815C11.6199 29.7815 10.2891 31.1124 10.2891 32.7541C10.2891 34.3958 11.6199 35.7267 13.2617 35.7267ZM13.2617 31.4801C13.9653 31.4801 14.5357 32.0505 14.5357 32.7541C14.5357 33.4577 13.9653 34.0281 13.2617 34.0281C12.5581 34.0281 11.9877 33.4577 11.9877 32.7541C11.9877 32.0505 12.5581 31.4801 13.2617 31.4801Z" fill="white"/>
<path d="M20.4793 38.2746C18.603 38.2746 17.082 39.7956 17.082 41.6719C17.082 43.5481 18.603 45.0692 20.4793 45.0692C22.3556 45.0692 23.8766 43.5481 23.8766 41.6719C23.8766 39.7956 22.3556 38.2746 20.4793 38.2746ZM20.4793 43.3705C19.5412 43.3705 18.7807 42.61 18.7807 41.6719C18.7807 40.7337 19.5412 39.9732 20.4793 39.9732C21.4174 39.9732 22.1779 40.7337 22.1779 41.6719C22.1779 42.61 21.4174 43.3705 20.4793 43.3705Z" fill="white"/>
</svg>
