<svg width="51" height="51" viewBox="0 0 51 51" fill="none" xmlns="http://www.w3.org/2000/svg">
<path d="M49.3014 44.3208V20.3836C49.2952 17.9785 48.0227 15.7544 45.9525 14.5301L35.8456 8.5849C34.8006 7.96444 33.6068 7.6392 32.3914 7.64386H32.2216L31.712 3.02272C31.5211 1.30216 30.0671 0.000266397 28.336 0H21.8557C20.1245 0.000266397 18.6705 1.30216 18.4796 3.02272L17.9658 7.64386H17.8766C16.4694 7.64386 15.3287 8.78461 15.3287 10.1918V12.7398C15.3331 13.8157 16.0129 14.7728 17.0273 15.1314V17.7295C11.7442 15.8413 5.84773 17.6316 2.50617 22.1383C-0.83539 26.645 -0.83539 32.8072 2.50617 37.3139C5.84773 41.8206 11.7442 43.6109 17.0273 41.7227V44.3208C16.0129 44.6794 15.3331 45.6366 15.3287 46.7125V48.4111C15.3287 49.8183 16.4694 50.959 17.8766 50.959H48.452C49.8592 50.959 51 49.8183 51 48.4111V46.7125C50.9955 45.6366 50.3157 44.6794 49.3014 44.3208ZM21.8557 1.69863H28.336C29.2006 1.69982 29.9263 2.35026 30.0219 3.20957L30.1391 4.24659H20.0526L20.1698 3.20957C20.2653 2.35026 20.9911 1.69982 21.8557 1.69863ZM19.864 5.94522H30.3285L30.517 7.64386H19.6746L19.864 5.94522ZM12.7807 18.685C15.4143 18.6845 17.9604 19.6304 19.9549 21.3501L18.2809 23.025C17.2132 22.178 15.967 21.5846 14.6365 21.2898C13.0264 20.9681 11.4603 22.0124 11.1385 23.6225C10.8168 25.2326 11.8611 26.7986 13.4712 27.1204C13.6538 27.1644 13.8318 27.2255 14.0029 27.303L4.40558 36.9003C1.59463 33.6308 0.947224 29.0228 2.74843 25.1053C4.54964 21.1878 8.46896 18.6796 12.7807 18.685ZM15.2522 26.0537C14.8102 25.7711 14.3212 25.5698 13.8084 25.4591C13.361 25.3711 12.9947 25.0507 12.848 24.619C12.7013 24.1873 12.7965 23.7101 13.0977 23.3677C13.3988 23.0253 13.86 22.87 14.3069 22.9604C15.3099 23.1833 16.2529 23.6202 17.0715 24.2412L15.2522 26.0537ZM18.2843 25.4235C19.1462 26.53 19.602 27.8991 19.5752 29.3015C19.5752 30.005 19.0049 30.5754 18.3013 30.5754C17.5977 30.5754 17.0273 30.005 17.0273 29.3015C17.0373 28.5784 16.8372 27.8679 16.4515 27.2563L18.2843 25.4235ZM5.60652 38.1021L15.1843 28.5235C15.2792 28.7719 15.3281 29.0355 15.3287 29.3015C15.3287 30.9432 16.6595 32.2741 18.3013 32.2741C19.943 32.2741 21.2739 30.9432 21.2739 29.3015C21.3104 27.4464 20.6772 25.6402 19.4903 24.214L21.1533 22.5519C24.9053 26.9261 24.6562 33.4518 20.5816 37.5272C16.5071 41.6026 9.98152 41.8531 5.60652 38.1021ZM49.3014 48.4111C49.3014 48.8802 48.9211 49.2604 48.452 49.2604H17.8766C17.4075 49.2604 17.0273 48.8802 17.0273 48.4111V46.7125C17.0273 46.2434 17.4075 45.8631 17.8766 45.8631H22.9725C23.4416 45.8631 23.8218 45.4829 23.8218 45.0138C23.8218 44.5448 23.4416 44.1645 22.9725 44.1645H18.7259V40.9847C22.628 38.9192 25.1825 34.9806 25.4772 30.5754H28.189C28.6167 32.2319 30.2094 33.3119 31.9065 33.0963C33.6036 32.8807 34.8757 31.4369 34.8757 29.7261C34.8757 28.0154 33.6036 26.5715 31.9065 26.3559C30.2094 26.1404 28.6167 27.2204 28.189 28.8768H25.4772C25.1825 24.4716 22.628 20.5331 18.7259 18.4676V15.2877H21.2739C21.7429 15.2877 22.1232 14.9075 22.1232 14.4384C22.1232 13.9693 21.7429 13.5891 21.2739 13.5891H17.8766C17.4075 13.5891 17.0273 13.2088 17.0273 12.7398V10.1918C17.0273 9.72274 17.4075 9.34249 17.8766 9.34249H32.3914C33.3011 9.34011 34.1943 9.58463 34.9759 10.05L45.0904 15.9952C46.6431 16.9127 47.5977 18.5801 47.6027 20.3836V44.1645H29.7671C29.298 44.1645 28.9177 44.5448 28.9177 45.0138C28.9177 45.4829 29.298 45.8631 29.7671 45.8631H48.452C48.9211 45.8631 49.3014 46.2434 49.3014 46.7125V48.4111ZM29.7671 29.7261C29.7671 28.788 30.5276 28.0275 31.4657 28.0275C32.4038 28.0275 33.1643 28.788 33.1643 29.7261C33.1643 30.6642 32.4038 31.4247 31.4657 31.4247C30.5276 31.4247 29.7671 30.6642 29.7671 29.7261Z" fill="white"/>
<path d="M33.165 13.5886H25.5212C25.0521 13.5886 24.6719 13.9689 24.6719 14.4379C24.6719 14.907 25.0521 15.2873 25.5212 15.2873H33.165C33.6341 15.2873 34.0144 14.907 34.0144 14.4379C34.0144 13.9689 33.6341 13.5886 33.165 13.5886Z" fill="white"/>
<path d="M37.2245 22.3615L38.2598 23.052V36.5214C38.2598 38.3976 39.7808 39.9186 41.6571 39.9186C43.5333 39.9186 45.0543 38.3976 45.0543 36.5214V21.2336C45.0557 20.0975 44.4877 19.0362 43.5417 18.4071L40.9937 16.7085C39.433 15.6798 37.3346 16.1052 36.2976 17.6604C35.2607 19.2156 35.6748 21.3163 37.2245 22.3615ZM37.6958 18.5923C38.2164 17.8122 39.2707 17.6015 40.051 18.1217L42.5989 19.8204C43.0716 20.1353 43.3556 20.6657 43.3557 21.2336V36.5214C43.3557 37.4595 42.5952 38.22 41.6571 38.22C40.7189 38.22 39.9584 37.4595 39.9584 36.5214V22.5968C39.9585 22.3129 39.8166 22.0477 39.5805 21.8902L38.1672 20.9483C37.7922 20.6984 37.5319 20.3098 37.4434 19.8679C37.355 19.4261 37.4458 18.9672 37.6958 18.5923Z" fill="white"/>
<path d="M7.26167 29.7267C8.9034 29.7267 10.2343 28.3958 10.2343 26.7541C10.2343 25.1124 8.9034 23.7815 7.26167 23.7815C5.61995 23.7815 4.28906 25.1124 4.28906 26.7541C4.28906 28.3958 5.61995 29.7267 7.26167 29.7267ZM7.26167 25.4801C7.96527 25.4801 8.53565 26.0505 8.53565 26.7541C8.53565 27.4577 7.96527 28.0281 7.26167 28.0281C6.55808 28.0281 5.9877 27.4577 5.9877 26.7541C5.9877 26.0505 6.55808 25.4801 7.26167 25.4801Z" fill="white"/>
<path d="M14.4793 32.2746C12.603 32.2746 11.082 33.7956 11.082 35.6719C11.082 37.5481 12.603 39.0692 14.4793 39.0692C16.3556 39.0692 17.8766 37.5481 17.8766 35.6719C17.8766 33.7956 16.3556 32.2746 14.4793 32.2746ZM14.4793 37.3705C13.5412 37.3705 12.7807 36.61 12.7807 35.6719C12.7807 34.7337 13.5412 33.9732 14.4793 33.9732C15.4174 33.9732 16.1779 34.7337 16.1779 35.6719C16.1779 36.61 15.4174 37.3705 14.4793 37.3705Z" fill="white"/>
</svg>
