<svg width="62" height="62" viewBox="0 0 62 62" fill="none" xmlns="http://www.w3.org/2000/svg">
<path d="M56.517 30.1313L45.8744 23.5671C45.5601 23.3731 45.165 23.3645 44.8422 23.5445C44.5196 23.7247 44.3196 24.0652 44.3196 24.4348V29.9794H42.0469C41.4838 29.9794 41.0273 30.4359 41.0273 30.999C41.0273 31.5622 41.4839 32.0186 42.0469 32.0186H44.3196V37.5632C44.3196 37.9328 44.5196 38.2733 44.8422 38.4535C44.9969 38.5398 45.1681 38.5828 45.3391 38.5828C45.5249 38.5828 45.7106 38.532 45.8744 38.4309L56.517 31.8667C56.8182 31.681 57.0014 31.3525 57.0014 30.9989C57.0014 30.6453 56.8181 30.3169 56.517 30.1313ZM46.3588 35.7365V26.2617L54.0395 30.999L46.3588 35.7365Z" fill="white"/>
<path d="M37.5643 44.3182H32.0197V32.0197H35.3161C35.8793 32.0197 36.3357 31.5632 36.3357 31.0001C36.3357 30.437 35.8792 29.9805 35.3161 29.9805H32.0197V17.6819H37.5643C37.9339 17.6819 38.2744 17.4819 38.4546 17.1593C38.6348 16.8366 38.6261 16.4416 38.432 16.1271L31.8677 5.48435C31.6821 5.18342 31.3537 5 31 5C30.6463 5 30.3179 5.18332 30.1322 5.48435L23.5681 16.127C23.3741 16.4415 23.3654 16.8364 23.5455 17.1592C23.7256 17.4818 24.0662 17.6818 24.4358 17.6818H29.9804V29.9804H17.6819V24.4358C17.6819 24.0662 17.4819 23.7257 17.1593 23.5455C16.8366 23.3653 16.4415 23.374 16.1271 23.5681L5.48435 30.1322C5.18332 30.3179 5 30.6464 5 31C5 31.3536 5.18332 31.6821 5.48435 31.8678L16.127 38.432C16.2907 38.5331 16.4764 38.5839 16.6623 38.5839C16.8334 38.5839 17.0045 38.5409 17.1592 38.4546C17.4818 38.2744 17.6818 37.9339 17.6818 37.5643V32.0197H29.9804V44.3182H24.4358C24.0662 44.3182 23.7257 44.5182 23.5455 44.8408C23.3653 45.1635 23.374 45.5585 23.5681 45.873L30.1322 56.5156C30.3179 56.8168 30.6464 57 31 57C31.3536 57 31.6821 56.8167 31.8677 56.5156L38.432 45.873C38.626 45.5585 38.6347 45.1636 38.4546 44.8408C38.2745 44.5181 37.9339 44.3182 37.5643 44.3182ZM15.6426 35.7375L7.96187 31L15.6426 26.2626V35.7375ZM26.2626 15.6427L31 7.96187L35.7374 15.6426H26.2626V15.6427ZM31 54.0382L26.2626 46.3575H35.7374L31 54.0382Z" fill="white"/>
<path d="M38.7857 29.9797C37.4736 29.9797 37.4714 32.0189 38.7857 32.0189C40.0979 32.019 40.1001 29.9797 38.7857 29.9797Z" fill="white"/>
</svg>
