<svg width="53" height="52" viewBox="0 0 53 52" fill="none" xmlns="http://www.w3.org/2000/svg">
<path d="M51.517 25.1313L40.8744 18.5671C40.5601 18.3731 40.165 18.3645 39.8422 18.5445C39.5196 18.7247 39.3196 19.0652 39.3196 19.4348V24.9794H37.0469C36.4838 24.9794 36.0273 25.4359 36.0273 25.999C36.0273 26.5622 36.4839 27.0186 37.0469 27.0186H39.3196V32.5632C39.3196 32.9328 39.5196 33.2733 39.8422 33.4535C39.9969 33.5398 40.1681 33.5828 40.3391 33.5828C40.5249 33.5828 40.7106 33.532 40.8744 33.4309L51.517 26.8667C51.8182 26.681 52.0014 26.3525 52.0014 25.9989C52.0014 25.6453 51.8181 25.3169 51.517 25.1313ZM41.3588 30.7365V21.2617L49.0395 25.999L41.3588 30.7365Z" fill="white"/>
<path d="M32.5643 39.3182H27.0197V27.0197H30.3161C30.8793 27.0197 31.3357 26.5632 31.3357 26.0001C31.3357 25.437 30.8792 24.9805 30.3161 24.9805H27.0197V12.6819H32.5643C32.9339 12.6819 33.2744 12.4819 33.4546 12.1593C33.6348 11.8366 33.6261 11.4416 33.432 11.1271L26.8677 0.484352C26.6821 0.183422 26.3537 0 26 0C25.6463 0 25.3179 0.18332 25.1322 0.484352L18.5681 11.127C18.3741 11.4415 18.3654 11.8364 18.5455 12.1592C18.7256 12.4818 19.0662 12.6818 19.4358 12.6818H24.9804V24.9804H12.6819V19.4358C12.6819 19.0662 12.4819 18.7257 12.1593 18.5455C11.8366 18.3653 11.4415 18.374 11.1271 18.5681L0.484351 25.1322C0.18332 25.3179 0 25.6464 0 26C0 26.3536 0.18332 26.6821 0.484351 26.8678L11.127 33.432C11.2907 33.5331 11.4764 33.5839 11.6623 33.5839C11.8334 33.5839 12.0045 33.5409 12.1592 33.4546C12.4818 33.2744 12.6818 32.9339 12.6818 32.5643V27.0197H24.9804V39.3182H19.4358C19.0662 39.3182 18.7257 39.5182 18.5455 39.8408C18.3653 40.1635 18.374 40.5585 18.5681 40.873L25.1322 51.5156C25.3179 51.8168 25.6464 52 26 52C26.3536 52 26.6821 51.8167 26.8677 51.5156L33.432 40.873C33.626 40.5585 33.6347 40.1636 33.4546 39.8408C33.2745 39.5181 32.9339 39.3182 32.5643 39.3182ZM10.6426 30.7375L2.96187 26L10.6426 21.2626V30.7375ZM21.2626 10.6427L26 2.96187L30.7374 10.6426H21.2626V10.6427ZM26 49.0382L21.2626 41.3575H30.7374L26 49.0382Z" fill="white"/>
<path d="M33.7857 24.9797C32.4736 24.9797 32.4714 27.0189 33.7857 27.0189C35.0979 27.019 35.1001 24.9797 33.7857 24.9797Z" fill="white"/>
</svg>
