<svg width="63" height="49" viewBox="0 0 63 49" fill="none" xmlns="http://www.w3.org/2000/svg">
<g filter="url(#filter0_di)">
<path d="M52.7077 13.1689C52.4583 12.8646 52.0861 12.687 51.6957 12.687H46.7321C45.5073 9.45627 43.9115 6.29081 42.0977 5.09592C35.8231 0.968025 19.18 0.968025 12.9054 5.09592C11.0903 6.29211 9.50103 9.4615 8.26961 12.687H3.30607C2.91171 12.687 2.54085 12.8646 2.29404 13.1689C2.04593 13.4719 1.94668 13.8728 2.02765 14.258L2.76284 17.8205C2.8882 18.4277 3.4236 18.8612 4.04127 18.8612H5.51166C4.0922 20.4988 3.40401 22.5608 3.39487 24.6241C3.38573 27.1732 4.35337 29.4768 6.12279 31.1065C6.14238 31.1235 6.16197 31.1353 6.18025 31.1522V36.1368C6.18025 37.2168 7.05778 38.0956 8.13903 38.0956H12.7173C13.7986 38.0956 14.6761 37.2168 14.6761 36.1368V34.1336H40.3243V36.1368C40.3243 37.2168 41.2019 38.0956 42.2831 38.0956H46.8614C47.94 38.0956 48.8202 37.2168 48.8202 36.1368V31.2502C50.698 29.5303 51.5951 27.1641 51.6069 24.8017C51.6147 22.6679 50.8952 20.5302 49.3922 18.8586H50.9605C51.5808 18.8586 52.1162 18.4251 52.2389 17.8165L52.9754 14.2554C53.0511 13.8728 52.9558 13.4745 52.7077 13.1689ZM15.0561 8.36716C20.0575 5.07503 34.9429 5.07503 39.9417 8.36716C40.9133 9.00444 42.163 11.5809 43.3082 14.736H11.6922C12.8349 11.5823 14.0846 9.00705 15.0561 8.36716ZM9.19807 25.1151C9.19807 22.9865 10.9244 21.2628 13.0516 21.2628C15.1815 21.2628 16.9052 22.9865 16.9052 25.1151C16.9052 27.2437 15.1815 28.9688 13.0516 28.9688C10.9244 28.9688 9.19807 27.2437 9.19807 25.1151ZM41.9997 28.9688C39.8725 28.9688 38.1462 27.2437 38.1462 25.1151C38.1462 22.9865 39.8725 21.2628 41.9997 21.2628C44.1296 21.2628 45.8533 22.9865 45.8533 25.1151C45.8533 27.2437 44.127 28.9688 41.9997 28.9688Z" fill="white"/>
<path d="M52.7077 13.1689C52.4583 12.8646 52.0861 12.687 51.6957 12.687H46.7321C45.5073 9.45627 43.9115 6.29081 42.0977 5.09592C35.8231 0.968025 19.18 0.968025 12.9054 5.09592C11.0903 6.29211 9.50103 9.4615 8.26961 12.687H3.30607C2.91171 12.687 2.54085 12.8646 2.29404 13.1689C2.04593 13.4719 1.94668 13.8728 2.02765 14.258L2.76284 17.8205C2.8882 18.4277 3.4236 18.8612 4.04127 18.8612H5.51166C4.0922 20.4988 3.40401 22.5608 3.39487 24.6241C3.38573 27.1732 4.35337 29.4768 6.12279 31.1065C6.14238 31.1235 6.16197 31.1353 6.18025 31.1522V36.1368C6.18025 37.2168 7.05778 38.0956 8.13903 38.0956H12.7173C13.7986 38.0956 14.6761 37.2168 14.6761 36.1368V34.1336H40.3243V36.1368C40.3243 37.2168 41.2019 38.0956 42.2831 38.0956H46.8614C47.94 38.0956 48.8202 37.2168 48.8202 36.1368V31.2502C50.698 29.5303 51.5951 27.1641 51.6069 24.8017C51.6147 22.6679 50.8952 20.5302 49.3922 18.8586H50.9605C51.5808 18.8586 52.1162 18.4251 52.2389 17.8165L52.9754 14.2554C53.0511 13.8728 52.9558 13.4745 52.7077 13.1689ZM15.0561 8.36716C20.0575 5.07503 34.9429 5.07503 39.9417 8.36716C40.9133 9.00444 42.163 11.5809 43.3082 14.736H11.6922C12.8349 11.5823 14.0846 9.00705 15.0561 8.36716ZM9.19807 25.1151C9.19807 22.9865 10.9244 21.2628 13.0516 21.2628C15.1815 21.2628 16.9052 22.9865 16.9052 25.1151C16.9052 27.2437 15.1815 28.9688 13.0516 28.9688C10.9244 28.9688 9.19807 27.2437 9.19807 25.1151ZM41.9997 28.9688C39.8725 28.9688 38.1462 27.2437 38.1462 25.1151C38.1462 22.9865 39.8725 21.2628 41.9997 21.2628C44.1296 21.2628 45.8533 22.9865 45.8533 25.1151C45.8533 27.2437 44.127 28.9688 41.9997 28.9688Z" fill="url(#paint0_linear)"/>
</g>
<defs>
<filter id="filter0_di" x="0" y="0" width="63.0008" height="48.0956" filterUnits="userSpaceOnUse" color-interpolation-filters="sRGB">
<feFlood flood-opacity="0" result="BackgroundImageFix"/>
<feColorMatrix in="SourceAlpha" type="matrix" values="0 0 0 0 0 0 0 0 0 0 0 0 0 0 0 0 0 0 127 0"/>
<feOffset dx="4" dy="4"/>
<feGaussianBlur stdDeviation="3"/>
<feColorMatrix type="matrix" values="0 0 0 0 0.631373 0 0 0 0 0.8 0 0 0 0 1 0 0 0 0.9 0"/>
<feBlend mode="normal" in2="BackgroundImageFix" result="effect1_dropShadow"/>
<feBlend mode="normal" in="SourceGraphic" in2="effect1_dropShadow" result="shape"/>
<feColorMatrix in="SourceAlpha" type="matrix" values="0 0 0 0 0 0 0 0 0 0 0 0 0 0 0 0 0 0 127 0" result="hardAlpha"/>
<feOffset dy="4"/>
<feGaussianBlur stdDeviation="2"/>
<feComposite in2="hardAlpha" operator="arithmetic" k2="-1" k3="1"/>
<feColorMatrix type="matrix" values="0 0 0 0 0.466667 0 0 0 0 0.639216 0 0 0 0 1 0 0 0 1 0"/>
<feBlend mode="normal" in2="shape" result="effect2_innerShadow"/>
</filter>
<linearGradient id="paint0_linear" x1="2" y1="7.26801" x2="56.5592" y2="29.2729" gradientUnits="userSpaceOnUse">
<stop stop-color="#967EF5"/>
<stop offset="0.320028" stop-color="#7CA1FF"/>
<stop offset="1" stop-color="#85C4FF"/>
</linearGradient>
</defs>
</svg>
