<svg width="62" height="62" viewBox="0 0 62 62" fill="none" xmlns="http://www.w3.org/2000/svg">
<g clip-path="url(#clip0)">
<g clip-path="url(#clip1)" filter="url(#filter0_di)">
<path d="M44.043 44.9376V35.9792C44.043 33.0158 46.4546 30.6042 49.418 30.6042C50.407 30.6042 51.2096 31.4069 51.2096 32.3959C51.2096 33.3921 50.3962 34.2001 49.3965 34.1876C48.4146 34.175 47.6263 34.9974 47.6263 35.9792V41.3542C47.6263 43.334 46.0228 44.9376 44.043 44.9376Z" fill="white" fill-opacity="0.01"/>
<path d="M44.043 44.9376V35.9792C44.043 33.0158 46.4546 30.6042 49.418 30.6042C50.407 30.6042 51.2096 31.4069 51.2096 32.3959C51.2096 33.3921 50.3962 34.2001 49.3965 34.1876C48.4146 34.175 47.6263 34.9974 47.6263 35.9792V41.3542C47.6263 43.334 46.0228 44.9376 44.043 44.9376Z" fill="url(#paint0_linear)" fill-opacity="0.01"/>
<path d="M18.9596 44.9376V35.9792C18.9596 33.0158 16.5481 30.6042 13.5846 30.6042C12.5956 30.6042 11.793 31.4069 11.793 32.3959C11.793 33.3921 12.6064 34.2001 13.6061 34.1876C14.588 34.175 15.3763 34.9974 15.3763 35.9792V41.3542C15.3763 43.334 16.9798 44.9376 18.9596 44.9376Z" fill="white" fill-opacity="0.01"/>
<path d="M18.9596 44.9376V35.9792C18.9596 33.0158 16.5481 30.6042 13.5846 30.6042C12.5956 30.6042 11.793 31.4069 11.793 32.3959C11.793 33.3921 12.6064 34.2001 13.6061 34.1876C14.588 34.175 15.3763 34.9974 15.3763 35.9792V41.3542C15.3763 43.334 16.9798 44.9376 18.9596 44.9376Z" fill="url(#paint1_linear)" fill-opacity="0.01"/>
<path d="M39.1146 53.0001H23.8854C22.8964 53.0001 22.0938 52.1974 22.0938 51.2084C22.0938 50.2194 22.8964 49.4167 23.8854 49.4167H39.1146C40.1036 49.4167 40.9062 50.2194 40.9062 51.2084C40.9062 52.1974 40.1036 53.0001 39.1146 53.0001Z" fill="white" fill-opacity="0.01"/>
<path d="M39.1146 53.0001H23.8854C22.8964 53.0001 22.0938 52.1974 22.0938 51.2084C22.0938 50.2194 22.8964 49.4167 23.8854 49.4167H39.1146C40.1036 49.4167 40.9062 50.2194 40.9062 51.2084C40.9062 52.1974 40.1036 53.0001 39.1146 53.0001Z" fill="url(#paint2_linear)" fill-opacity="0.01"/>
<path d="M31.4987 52.9999C30.5097 52.9999 29.707 52.1973 29.707 51.2083V43.5937C29.707 42.6047 30.5097 41.802 31.4987 41.802C32.4877 41.802 33.2904 42.6047 33.2904 43.5937V51.2083C33.2904 52.1973 32.4877 52.9999 31.4987 52.9999Z" fill="white" fill-opacity="0.01"/>
<path d="M31.4987 52.9999C30.5097 52.9999 29.707 52.1973 29.707 51.2083V43.5937C29.707 42.6047 30.5097 41.802 31.4987 41.802C32.4877 41.802 33.2904 42.6047 33.2904 43.5937V51.2083C33.2904 52.1973 32.4877 52.9999 31.4987 52.9999Z" fill="url(#paint3_linear)" fill-opacity="0.01"/>
<path d="M40.5679 33.2917H22.4327C21.5046 33.2917 20.6302 32.8832 20.0336 32.1737C19.4352 31.4642 19.1844 30.5325 19.3438 29.6187L22.3037 12.5979C22.5652 11.0929 23.8642 10 25.3925 10H37.6063C39.1364 10 40.4353 11.0929 40.6951 12.5997L43.655 29.6205C43.8144 30.5343 43.5636 31.466 42.9652 32.1755C42.3703 32.8832 41.496 33.2917 40.5679 33.2917Z" fill="white" fill-opacity="0.01"/>
<path d="M40.5679 33.2917H22.4327C21.5046 33.2917 20.6302 32.8832 20.0336 32.1737C19.4352 31.4642 19.1844 30.5325 19.3438 29.6187L22.3037 12.5979C22.5652 11.0929 23.8642 10 25.3925 10H37.6063C39.1364 10 40.4353 11.0929 40.6951 12.5997L43.655 29.6205C43.8144 30.5343 43.5636 31.466 42.9652 32.1755C42.3703 32.8832 41.496 33.2917 40.5679 33.2917Z" fill="url(#paint4_linear)" fill-opacity="0.01"/>
<path d="M44.4909 44.9374H18.5117C17.77 44.9374 17.168 44.3354 17.168 43.5937V40.0103C17.168 37.2924 19.3771 35.0833 22.0951 35.0833H40.9075C43.6255 35.0833 45.8346 37.2924 45.8346 40.0103V43.5937C45.8346 44.3354 45.2326 44.9374 44.4909 44.9374Z" fill="white" fill-opacity="0.01"/>
<path d="M44.4909 44.9374H18.5117C17.77 44.9374 17.168 44.3354 17.168 43.5937V40.0103C17.168 37.2924 19.3771 35.0833 22.0951 35.0833H40.9075C43.6255 35.0833 45.8346 37.2924 45.8346 40.0103V43.5937C45.8346 44.3354 45.2326 44.9374 44.4909 44.9374Z" fill="url(#paint5_linear)" fill-opacity="0.01"/>
</g>
<g clip-path="url(#clip2)">
<path d="M44.043 44.9376V35.9792C44.043 33.0158 46.4546 30.6042 49.418 30.6042C50.407 30.6042 51.2096 31.4069 51.2096 32.3959C51.2096 33.3921 50.3962 34.2001 49.3965 34.1876C48.4146 34.175 47.6263 34.9974 47.6263 35.9792V41.3542C47.6263 43.334 46.0228 44.9376 44.043 44.9376Z" fill="white"/>
<path d="M44.043 44.9376V35.9792C44.043 33.0158 46.4546 30.6042 49.418 30.6042C50.407 30.6042 51.2096 31.4069 51.2096 32.3959C51.2096 33.3921 50.3962 34.2001 49.3965 34.1876C48.4146 34.175 47.6263 34.9974 47.6263 35.9792V41.3542C47.6263 43.334 46.0228 44.9376 44.043 44.9376Z" fill="url(#paint6_linear)"/>
<path d="M18.9596 44.9376V35.9792C18.9596 33.0158 16.5481 30.6042 13.5846 30.6042C12.5956 30.6042 11.793 31.4069 11.793 32.3959C11.793 33.3921 12.6064 34.2001 13.6061 34.1876C14.588 34.175 15.3763 34.9974 15.3763 35.9792V41.3542C15.3763 43.334 16.9798 44.9376 18.9596 44.9376Z" fill="white"/>
<path d="M18.9596 44.9376V35.9792C18.9596 33.0158 16.5481 30.6042 13.5846 30.6042C12.5956 30.6042 11.793 31.4069 11.793 32.3959C11.793 33.3921 12.6064 34.2001 13.6061 34.1876C14.588 34.175 15.3763 34.9974 15.3763 35.9792V41.3542C15.3763 43.334 16.9798 44.9376 18.9596 44.9376Z" fill="url(#paint7_linear)"/>
<path d="M39.1146 53.0001H23.8854C22.8964 53.0001 22.0938 52.1974 22.0938 51.2084C22.0938 50.2194 22.8964 49.4167 23.8854 49.4167H39.1146C40.1036 49.4167 40.9062 50.2194 40.9062 51.2084C40.9062 52.1974 40.1036 53.0001 39.1146 53.0001Z" fill="white"/>
<path d="M39.1146 53.0001H23.8854C22.8964 53.0001 22.0938 52.1974 22.0938 51.2084C22.0938 50.2194 22.8964 49.4167 23.8854 49.4167H39.1146C40.1036 49.4167 40.9062 50.2194 40.9062 51.2084C40.9062 52.1974 40.1036 53.0001 39.1146 53.0001Z" fill="url(#paint8_linear)"/>
<path d="M31.4987 52.9999C30.5097 52.9999 29.707 52.1973 29.707 51.2083V43.5937C29.707 42.6047 30.5097 41.802 31.4987 41.802C32.4877 41.802 33.2904 42.6047 33.2904 43.5937V51.2083C33.2904 52.1973 32.4877 52.9999 31.4987 52.9999Z" fill="white"/>
<path d="M31.4987 52.9999C30.5097 52.9999 29.707 52.1973 29.707 51.2083V43.5937C29.707 42.6047 30.5097 41.802 31.4987 41.802C32.4877 41.802 33.2904 42.6047 33.2904 43.5937V51.2083C33.2904 52.1973 32.4877 52.9999 31.4987 52.9999Z" fill="url(#paint9_linear)"/>
<path d="M40.5679 33.2917H22.4327C21.5046 33.2917 20.6302 32.8832 20.0336 32.1737C19.4352 31.4642 19.1844 30.5325 19.3438 29.6187L22.3037 12.5979C22.5652 11.0929 23.8642 10 25.3925 10H37.6063C39.1364 10 40.4353 11.0929 40.6951 12.5997L43.655 29.6205C43.8144 30.5343 43.5636 31.466 42.9652 32.1755C42.3703 32.8832 41.496 33.2917 40.5679 33.2917Z" fill="white"/>
<path d="M40.5679 33.2917H22.4327C21.5046 33.2917 20.6302 32.8832 20.0336 32.1737C19.4352 31.4642 19.1844 30.5325 19.3438 29.6187L22.3037 12.5979C22.5652 11.0929 23.8642 10 25.3925 10H37.6063C39.1364 10 40.4353 11.0929 40.6951 12.5997L43.655 29.6205C43.8144 30.5343 43.5636 31.466 42.9652 32.1755C42.3703 32.8832 41.496 33.2917 40.5679 33.2917Z" fill="url(#paint10_linear)"/>
<path d="M44.4909 44.9374H18.5117C17.77 44.9374 17.168 44.3354 17.168 43.5937V40.0103C17.168 37.2924 19.3771 35.0833 22.0951 35.0833H40.9075C43.6255 35.0833 45.8346 37.2924 45.8346 40.0103V43.5937C45.8346 44.3354 45.2326 44.9374 44.4909 44.9374Z" fill="white"/>
<path d="M44.4909 44.9374H18.5117C17.77 44.9374 17.168 44.3354 17.168 43.5937V40.0103C17.168 37.2924 19.3771 35.0833 22.0951 35.0833H40.9075C43.6255 35.0833 45.8346 37.2924 45.8346 40.0103V43.5937C45.8346 44.3354 45.2326 44.9374 44.4909 44.9374Z" fill="url(#paint11_linear)"/>
</g>
</g>
<defs>
<filter id="filter0_di" x="8" y="8" width="55" height="55" filterUnits="userSpaceOnUse" color-interpolation-filters="sRGB">
<feFlood flood-opacity="0" result="BackgroundImageFix"/>
<feColorMatrix in="SourceAlpha" type="matrix" values="0 0 0 0 0 0 0 0 0 0 0 0 0 0 0 0 0 0 127 0"/>
<feOffset dx="4" dy="4"/>
<feGaussianBlur stdDeviation="3"/>
<feColorMatrix type="matrix" values="0 0 0 0 0.631373 0 0 0 0 0.8 0 0 0 0 1 0 0 0 0.9 0"/>
<feBlend mode="normal" in2="BackgroundImageFix" result="effect1_dropShadow"/>
<feBlend mode="normal" in="SourceGraphic" in2="effect1_dropShadow" result="shape"/>
<feColorMatrix in="SourceAlpha" type="matrix" values="0 0 0 0 0 0 0 0 0 0 0 0 0 0 0 0 0 0 127 0" result="hardAlpha"/>
<feOffset dy="4"/>
<feGaussianBlur stdDeviation="2"/>
<feComposite in2="hardAlpha" operator="arithmetic" k2="-1" k3="1"/>
<feColorMatrix type="matrix" values="0 0 0 0 0.466667 0 0 0 0 0.639216 0 0 0 0 1 0 0 0 1 0"/>
<feBlend mode="normal" in2="shape" result="effect2_innerShadow"/>
</filter>
<linearGradient id="paint0_linear" x1="44.043" y1="32.6961" x2="52.7788" y2="33.943" gradientUnits="userSpaceOnUse">
<stop stop-color="#967EF5"/>
<stop offset="0.320028" stop-color="#7CA1FF"/>
<stop offset="1" stop-color="#85C4FF"/>
</linearGradient>
<linearGradient id="paint1_linear" x1="11.793" y1="32.6961" x2="20.5288" y2="33.943" gradientUnits="userSpaceOnUse">
<stop stop-color="#967EF5"/>
<stop offset="0.320028" stop-color="#7CA1FF"/>
<stop offset="1" stop-color="#85C4FF"/>
</linearGradient>
<linearGradient id="paint2_linear" x1="22.0938" y1="49.9397" x2="29.3026" y2="60.743" gradientUnits="userSpaceOnUse">
<stop stop-color="#967EF5"/>
<stop offset="0.320028" stop-color="#7CA1FF"/>
<stop offset="1" stop-color="#85C4FF"/>
</linearGradient>
<linearGradient id="paint3_linear" x1="29.707" y1="43.4363" x2="34.1271" y2="43.84" gradientUnits="userSpaceOnUse">
<stop stop-color="#967EF5"/>
<stop offset="0.320028" stop-color="#7CA1FF"/>
<stop offset="1" stop-color="#85C4FF"/>
</linearGradient>
<linearGradient id="paint4_linear" x1="19.2969" y1="13.3993" x2="47.1591" y2="21.7327" gradientUnits="userSpaceOnUse">
<stop stop-color="#967EF5"/>
<stop offset="0.320028" stop-color="#7CA1FF"/>
<stop offset="1" stop-color="#85C4FF"/>
</linearGradient>
<linearGradient id="paint5_linear" x1="17.168" y1="36.5214" x2="38.2713" y2="54.0456" gradientUnits="userSpaceOnUse">
<stop stop-color="#967EF5"/>
<stop offset="0.320028" stop-color="#7CA1FF"/>
<stop offset="1" stop-color="#85C4FF"/>
</linearGradient>
<linearGradient id="paint6_linear" x1="44.043" y1="32.6961" x2="52.7788" y2="33.943" gradientUnits="userSpaceOnUse">
<stop stop-color="#967EF5"/>
<stop offset="0.320028" stop-color="#7CA1FF"/>
<stop offset="1" stop-color="#85C4FF"/>
</linearGradient>
<linearGradient id="paint7_linear" x1="11.793" y1="32.6961" x2="20.5288" y2="33.943" gradientUnits="userSpaceOnUse">
<stop stop-color="#967EF5"/>
<stop offset="0.320028" stop-color="#7CA1FF"/>
<stop offset="1" stop-color="#85C4FF"/>
</linearGradient>
<linearGradient id="paint8_linear" x1="22.0938" y1="49.9397" x2="29.3026" y2="60.743" gradientUnits="userSpaceOnUse">
<stop stop-color="#967EF5"/>
<stop offset="0.320028" stop-color="#7CA1FF"/>
<stop offset="1" stop-color="#85C4FF"/>
</linearGradient>
<linearGradient id="paint9_linear" x1="29.707" y1="43.4363" x2="34.1271" y2="43.84" gradientUnits="userSpaceOnUse">
<stop stop-color="#967EF5"/>
<stop offset="0.320028" stop-color="#7CA1FF"/>
<stop offset="1" stop-color="#85C4FF"/>
</linearGradient>
<linearGradient id="paint10_linear" x1="19.2969" y1="13.3993" x2="47.1591" y2="21.7327" gradientUnits="userSpaceOnUse">
<stop stop-color="#967EF5"/>
<stop offset="0.320028" stop-color="#7CA1FF"/>
<stop offset="1" stop-color="#85C4FF"/>
</linearGradient>
<linearGradient id="paint11_linear" x1="17.168" y1="36.5214" x2="38.2713" y2="54.0456" gradientUnits="userSpaceOnUse">
<stop stop-color="#967EF5"/>
<stop offset="0.320028" stop-color="#7CA1FF"/>
<stop offset="1" stop-color="#85C4FF"/>
</linearGradient>
<clipPath id="clip0">
<rect width="62" height="62" fill="white"/>
</clipPath>
<clipPath id="clip1">
<rect width="43" height="43" fill="white" transform="translate(10 10)"/>
</clipPath>
<clipPath id="clip2">
<rect width="43" height="43" fill="white" transform="translate(10 10)"/>
</clipPath>
</defs>
</svg>
