<svg width="43" height="43" viewBox="0 0 43 43" fill="none" xmlns="http://www.w3.org/2000/svg">
<g clip-path="url(#clip0)">
<path d="M34.043 34.9376V25.9792C34.043 23.0158 36.4546 20.6042 39.418 20.6042C40.407 20.6042 41.2096 21.4069 41.2096 22.3959C41.2096 23.3921 40.3962 24.2001 39.3965 24.1876C38.4146 24.175 37.6263 24.9974 37.6263 25.9792V31.3542C37.6263 33.334 36.0228 34.9376 34.043 34.9376Z" fill="white"/>
<path d="M34.043 34.9376V25.9792C34.043 23.0158 36.4546 20.6042 39.418 20.6042C40.407 20.6042 41.2096 21.4069 41.2096 22.3959C41.2096 23.3921 40.3962 24.2001 39.3965 24.1876C38.4146 24.175 37.6263 24.9974 37.6263 25.9792V31.3542C37.6263 33.334 36.0228 34.9376 34.043 34.9376Z" fill="url(#paint0_linear)"/>
<path d="M8.95964 34.9376V25.9792C8.95964 23.0158 6.54805 20.6042 3.58464 20.6042C2.59564 20.6042 1.79297 21.4069 1.79297 22.3959C1.79297 23.3921 2.60639 24.2001 3.60614 24.1876C4.58797 24.175 5.3763 24.9974 5.3763 25.9792V31.3542C5.3763 33.334 6.97984 34.9376 8.95964 34.9376Z" fill="white"/>
<path d="M8.95964 34.9376V25.9792C8.95964 23.0158 6.54805 20.6042 3.58464 20.6042C2.59564 20.6042 1.79297 21.4069 1.79297 22.3959C1.79297 23.3921 2.60639 24.2001 3.60614 24.1876C4.58797 24.175 5.3763 24.9974 5.3763 25.9792V31.3542C5.3763 33.334 6.97984 34.9376 8.95964 34.9376Z" fill="url(#paint1_linear)"/>
<path d="M29.1146 43.0001H13.8854C12.8964 43.0001 12.0938 42.1974 12.0938 41.2084C12.0938 40.2194 12.8964 39.4167 13.8854 39.4167H29.1146C30.1036 39.4167 30.9062 40.2194 30.9062 41.2084C30.9062 42.1974 30.1036 43.0001 29.1146 43.0001Z" fill="white"/>
<path d="M29.1146 43.0001H13.8854C12.8964 43.0001 12.0938 42.1974 12.0938 41.2084C12.0938 40.2194 12.8964 39.4167 13.8854 39.4167H29.1146C30.1036 39.4167 30.9062 40.2194 30.9062 41.2084C30.9062 42.1974 30.1036 43.0001 29.1146 43.0001Z" fill="url(#paint2_linear)"/>
<path d="M21.4987 42.9999C20.5097 42.9999 19.707 42.1973 19.707 41.2083V33.5937C19.707 32.6047 20.5097 31.802 21.4987 31.802C22.4877 31.802 23.2904 32.6047 23.2904 33.5937V41.2083C23.2904 42.1973 22.4877 42.9999 21.4987 42.9999Z" fill="white"/>
<path d="M21.4987 42.9999C20.5097 42.9999 19.707 42.1973 19.707 41.2083V33.5937C19.707 32.6047 20.5097 31.802 21.4987 31.802C22.4877 31.802 23.2904 32.6047 23.2904 33.5937V41.2083C23.2904 42.1973 22.4877 42.9999 21.4987 42.9999Z" fill="url(#paint3_linear)"/>
<path d="M30.5679 23.2917H12.4327C11.5046 23.2917 10.6302 22.8832 10.0336 22.1737C9.4352 21.4642 9.18437 20.5325 9.34383 19.6187L12.3037 2.59792C12.5652 1.09292 13.8642 0 15.3925 0H27.6063C29.1364 0 30.4353 1.09292 30.6951 2.59971L33.655 19.6205C33.8144 20.5343 33.5636 21.466 32.9652 22.1755C32.3703 22.8832 31.496 23.2917 30.5679 23.2917Z" fill="white"/>
<path d="M30.5679 23.2917H12.4327C11.5046 23.2917 10.6302 22.8832 10.0336 22.1737C9.4352 21.4642 9.18437 20.5325 9.34383 19.6187L12.3037 2.59792C12.5652 1.09292 13.8642 0 15.3925 0H27.6063C29.1364 0 30.4353 1.09292 30.6951 2.59971L33.655 19.6205C33.8144 20.5343 33.5636 21.466 32.9652 22.1755C32.3703 22.8832 31.496 23.2917 30.5679 23.2917Z" fill="url(#paint4_linear)"/>
<path d="M34.4909 34.9374H8.51172C7.76997 34.9374 7.16797 34.3354 7.16797 33.5937V30.0103C7.16797 27.2924 9.37709 25.0833 12.0951 25.0833H30.9075C33.6255 25.0833 35.8346 27.2924 35.8346 30.0103V33.5937C35.8346 34.3354 35.2326 34.9374 34.4909 34.9374Z" fill="white"/>
<path d="M34.4909 34.9374H8.51172C7.76997 34.9374 7.16797 34.3354 7.16797 33.5937V30.0103C7.16797 27.2924 9.37709 25.0833 12.0951 25.0833H30.9075C33.6255 25.0833 35.8346 27.2924 35.8346 30.0103V33.5937C35.8346 34.3354 35.2326 34.9374 34.4909 34.9374Z" fill="url(#paint5_linear)"/>
</g>
<defs>
<linearGradient id="paint0_linear" x1="34.043" y1="22.6961" x2="42.7788" y2="23.943" gradientUnits="userSpaceOnUse">
<stop stop-color="#967EF5"/>
<stop offset="0.320028" stop-color="#7CA1FF"/>
<stop offset="1" stop-color="#85C4FF"/>
</linearGradient>
<linearGradient id="paint1_linear" x1="1.79297" y1="22.6961" x2="10.5288" y2="23.943" gradientUnits="userSpaceOnUse">
<stop stop-color="#967EF5"/>
<stop offset="0.320028" stop-color="#7CA1FF"/>
<stop offset="1" stop-color="#85C4FF"/>
</linearGradient>
<linearGradient id="paint2_linear" x1="12.0938" y1="39.9397" x2="19.3026" y2="50.743" gradientUnits="userSpaceOnUse">
<stop stop-color="#967EF5"/>
<stop offset="0.320028" stop-color="#7CA1FF"/>
<stop offset="1" stop-color="#85C4FF"/>
</linearGradient>
<linearGradient id="paint3_linear" x1="19.707" y1="33.4363" x2="24.1271" y2="33.84" gradientUnits="userSpaceOnUse">
<stop stop-color="#967EF5"/>
<stop offset="0.320028" stop-color="#7CA1FF"/>
<stop offset="1" stop-color="#85C4FF"/>
</linearGradient>
<linearGradient id="paint4_linear" x1="9.29688" y1="3.39932" x2="37.1591" y2="11.7327" gradientUnits="userSpaceOnUse">
<stop stop-color="#967EF5"/>
<stop offset="0.320028" stop-color="#7CA1FF"/>
<stop offset="1" stop-color="#85C4FF"/>
</linearGradient>
<linearGradient id="paint5_linear" x1="7.16797" y1="26.5214" x2="28.2713" y2="44.0456" gradientUnits="userSpaceOnUse">
<stop stop-color="#967EF5"/>
<stop offset="0.320028" stop-color="#7CA1FF"/>
<stop offset="1" stop-color="#85C4FF"/>
</linearGradient>
<clipPath id="clip0">
<rect width="43" height="43" fill="white"/>
</clipPath>
</defs>
</svg>
