<svg width="62" height="62" viewBox="0 0 62 62" fill="none" xmlns="http://www.w3.org/2000/svg">
<g clip-path="url(#clip0)">
<g filter="url(#filter0_di)">
<path d="M46.4315 51.3262V48.5504C47.4948 48.0529 48.2333 46.9732 48.2333 45.7235C48.2333 44.0031 46.8335 42.6034 45.1131 42.6034C43.3927 42.6034 41.993 44.0031 41.993 45.7235C41.993 46.9732 42.7315 48.0529 43.7948 48.5504V51.3262C41.2542 50.7285 39.3563 48.4443 39.3563 45.7235C39.3563 42.5491 41.9388 39.9667 45.1131 39.9667C45.5643 39.9667 46.0023 40.0206 46.4236 40.1191V17.9796H36.9747V51.3488H34.338V12.7525H32.1977V8.99998H14.1403V12.7525H12V54L50.8185 53.9852V51.3485H46.4318L46.4315 51.3262ZM43.0254 28.5774H40.3887V22.0814H43.0254V28.5774Z" fill="white" fill-opacity="0.01"/>
<path d="M46.4315 51.3262V48.5504C47.4948 48.0529 48.2333 46.9732 48.2333 45.7235C48.2333 44.0031 46.8335 42.6034 45.1131 42.6034C43.3927 42.6034 41.993 44.0031 41.993 45.7235C41.993 46.9732 42.7315 48.0529 43.7948 48.5504V51.3262C41.2542 50.7285 39.3563 48.4443 39.3563 45.7235C39.3563 42.5491 41.9388 39.9667 45.1131 39.9667C45.5643 39.9667 46.0023 40.0206 46.4236 40.1191V17.9796H36.9747V51.3488H34.338V12.7525H32.1977V8.99998H14.1403V12.7525H12V54L50.8185 53.9852V51.3485H46.4318L46.4315 51.3262ZM43.0254 28.5774H40.3887V22.0814H43.0254V28.5774Z" fill="url(#paint0_linear)" fill-opacity="0.01"/>
</g>
<rect x="17" y="20" width="4" height="9" fill="#D9E1FF" fill-opacity="0.01"/>
<rect x="17" y="33" width="4" height="9" fill="#DBE5FE" fill-opacity="0.01"/>
<rect x="25" y="20" width="4" height="9" fill="#D7E1FE" fill-opacity="0.01"/>
<rect x="25" y="33" width="4" height="9" fill="#DCE5FE" fill-opacity="0.01"/>
<path d="M46.4315 51.3262V48.5504C47.4948 48.0529 48.2333 46.9732 48.2333 45.7235C48.2333 44.0031 46.8335 42.6034 45.1131 42.6034C43.3927 42.6034 41.993 44.0031 41.993 45.7235C41.993 46.9732 42.7315 48.0529 43.7948 48.5504V51.3262C41.2542 50.7285 39.3563 48.4443 39.3563 45.7235C39.3563 42.5491 41.9388 39.9667 45.1131 39.9667C45.5643 39.9667 46.0023 40.0206 46.4236 40.1191V17.9796H36.9747V51.3488H34.338V12.7525H32.1977V8.99998H14.1403V12.7525H12V54L50.8185 53.9852V51.3485H46.4318L46.4315 51.3262ZM43.0254 28.5774H40.3887V22.0814H43.0254V28.5774Z" fill="white"/>
<path d="M46.4315 51.3262V48.5504C47.4948 48.0529 48.2333 46.9732 48.2333 45.7235C48.2333 44.0031 46.8335 42.6034 45.1131 42.6034C43.3927 42.6034 41.993 44.0031 41.993 45.7235C41.993 46.9732 42.7315 48.0529 43.7948 48.5504V51.3262C41.2542 50.7285 39.3563 48.4443 39.3563 45.7235C39.3563 42.5491 41.9388 39.9667 45.1131 39.9667C45.5643 39.9667 46.0023 40.0206 46.4236 40.1191V17.9796H36.9747V51.3488H34.338V12.7525H32.1977V8.99998H14.1403V12.7525H12V54L50.8185 53.9852V51.3485H46.4318L46.4315 51.3262ZM43.0254 28.5774H40.3887V22.0814H43.0254V28.5774Z" fill="url(#paint1_linear)"/>
<rect x="17" y="20" width="4" height="9" fill="#D9E1FF"/>
<rect x="17" y="33" width="4" height="9" fill="#DBE5FE"/>
<rect x="25" y="20" width="4" height="9" fill="#D7E1FE"/>
<rect x="25" y="33" width="4" height="9" fill="#DCE5FE"/>
</g>
<defs>
<filter id="filter0_di" x="10.5" y="7" width="50.8185" height="57" filterUnits="userSpaceOnUse" color-interpolation-filters="sRGB">
<feFlood flood-opacity="0" result="BackgroundImageFix"/>
<feColorMatrix in="SourceAlpha" type="matrix" values="0 0 0 0 0 0 0 0 0 0 0 0 0 0 0 0 0 0 127 0"/>
<feOffset dx="4.5" dy="4"/>
<feGaussianBlur stdDeviation="3"/>
<feColorMatrix type="matrix" values="0 0 0 0 0.631373 0 0 0 0 0.8 0 0 0 0 1 0 0 0 0.9 0"/>
<feBlend mode="normal" in2="BackgroundImageFix" result="effect1_dropShadow"/>
<feBlend mode="normal" in="SourceGraphic" in2="effect1_dropShadow" result="shape"/>
<feColorMatrix in="SourceAlpha" type="matrix" values="0 0 0 0 0 0 0 0 0 0 0 0 0 0 0 0 0 0 127 0" result="hardAlpha"/>
<feOffset dy="4"/>
<feGaussianBlur stdDeviation="2"/>
<feComposite in2="hardAlpha" operator="arithmetic" k2="-1" k3="1"/>
<feColorMatrix type="matrix" values="0 0 0 0 0.466667 0 0 0 0 0.639216 0 0 0 0 1 0 0 0 1 0"/>
<feBlend mode="normal" in2="shape" result="effect2_innerShadow"/>
</filter>
<linearGradient id="paint0_linear" x1="12" y1="15.5676" x2="57.5219" y2="26.7768" gradientUnits="userSpaceOnUse">
<stop stop-color="#967EF5"/>
<stop offset="0.320028" stop-color="#7CA1FF"/>
<stop offset="1" stop-color="#85C4FF"/>
</linearGradient>
<linearGradient id="paint1_linear" x1="12" y1="15.5676" x2="57.5219" y2="26.7768" gradientUnits="userSpaceOnUse">
<stop stop-color="#967EF5"/>
<stop offset="0.320028" stop-color="#7CA1FF"/>
<stop offset="1" stop-color="#85C4FF"/>
</linearGradient>
<clipPath id="clip0">
<rect width="62" height="62" fill="white"/>
</clipPath>
</defs>
</svg>
