<svg width="51" height="37" viewBox="0 0 51 37" fill="none" xmlns="http://www.w3.org/2000/svg">
<path d="M50.7077 11.1689C50.4583 10.8646 50.0861 10.687 49.6957 10.687H44.7321C43.5073 7.45627 41.9115 4.29081 40.0977 3.09592C33.8231 -1.03198 17.18 -1.03198 10.9054 3.09592C9.09025 4.29211 7.50103 7.4615 6.26961 10.687H1.30607C0.911708 10.687 0.540846 10.8646 0.294041 11.1689C0.0459289 11.4719 -0.0533157 11.8728 0.027647 12.258L0.762841 15.8205C0.888203 16.4277 1.4236 16.8612 2.04127 16.8612H3.51166C2.0922 18.4988 1.40401 20.5608 1.39487 22.6241C1.38573 25.1732 2.35337 27.4768 4.12279 29.1065C4.14238 29.1235 4.16197 29.1353 4.18025 29.1522V34.1368C4.18025 35.2168 5.05778 36.0956 6.13903 36.0956H10.7173C11.7986 36.0956 12.6761 35.2168 12.6761 34.1368V32.1336H38.3243V34.1368C38.3243 35.2168 39.2019 36.0956 40.2831 36.0956H44.8614C45.94 36.0956 46.8202 35.2168 46.8202 34.1368V29.2502C48.698 27.5303 49.5951 25.1641 49.6069 22.8017C49.6147 20.6679 48.8952 18.5302 47.3922 16.8586H48.9605C49.5808 16.8586 50.1162 16.4251 50.2389 15.8165L50.9754 12.2554C51.0511 11.8728 50.9558 11.4745 50.7077 11.1689ZM13.0561 6.36716C18.0575 3.07503 32.9429 3.07503 37.9417 6.36716C38.9133 7.00444 40.163 9.58095 41.3082 12.736H9.69225C10.8349 9.58225 12.0846 7.00705 13.0561 6.36716ZM7.19807 23.1151C7.19807 20.9865 8.92441 19.2628 11.0516 19.2628C13.1815 19.2628 14.9052 20.9865 14.9052 23.1151C14.9052 25.2437 13.1815 26.9688 11.0516 26.9688C8.92441 26.9688 7.19807 25.2437 7.19807 23.1151ZM39.9997 26.9688C37.8725 26.9688 36.1462 25.2437 36.1462 23.1151C36.1462 20.9865 37.8725 19.2628 39.9997 19.2628C42.1296 19.2628 43.8533 20.9865 43.8533 23.1151C43.8533 25.2437 42.127 26.9688 39.9997 26.9688Z" fill="white"/>
<path d="M50.7077 11.1689C50.4583 10.8646 50.0861 10.687 49.6957 10.687H44.7321C43.5073 7.45627 41.9115 4.29081 40.0977 3.09592C33.8231 -1.03198 17.18 -1.03198 10.9054 3.09592C9.09025 4.29211 7.50103 7.4615 6.26961 10.687H1.30607C0.911708 10.687 0.540846 10.8646 0.294041 11.1689C0.0459289 11.4719 -0.0533157 11.8728 0.027647 12.258L0.762841 15.8205C0.888203 16.4277 1.4236 16.8612 2.04127 16.8612H3.51166C2.0922 18.4988 1.40401 20.5608 1.39487 22.6241C1.38573 25.1732 2.35337 27.4768 4.12279 29.1065C4.14238 29.1235 4.16197 29.1353 4.18025 29.1522V34.1368C4.18025 35.2168 5.05778 36.0956 6.13903 36.0956H10.7173C11.7986 36.0956 12.6761 35.2168 12.6761 34.1368V32.1336H38.3243V34.1368C38.3243 35.2168 39.2019 36.0956 40.2831 36.0956H44.8614C45.94 36.0956 46.8202 35.2168 46.8202 34.1368V29.2502C48.698 27.5303 49.5951 25.1641 49.6069 22.8017C49.6147 20.6679 48.8952 18.5302 47.3922 16.8586H48.9605C49.5808 16.8586 50.1162 16.4251 50.2389 15.8165L50.9754 12.2554C51.0511 11.8728 50.9558 11.4745 50.7077 11.1689ZM13.0561 6.36716C18.0575 3.07503 32.9429 3.07503 37.9417 6.36716C38.9133 7.00444 40.163 9.58095 41.3082 12.736H9.69225C10.8349 9.58225 12.0846 7.00705 13.0561 6.36716ZM7.19807 23.1151C7.19807 20.9865 8.92441 19.2628 11.0516 19.2628C13.1815 19.2628 14.9052 20.9865 14.9052 23.1151C14.9052 25.2437 13.1815 26.9688 11.0516 26.9688C8.92441 26.9688 7.19807 25.2437 7.19807 23.1151ZM39.9997 26.9688C37.8725 26.9688 36.1462 25.2437 36.1462 23.1151C36.1462 20.9865 37.8725 19.2628 39.9997 19.2628C42.1296 19.2628 43.8533 20.9865 43.8533 23.1151C43.8533 25.2437 42.127 26.9688 39.9997 26.9688Z" fill="url(#paint0_linear)"/>
<defs>
<linearGradient id="paint0_linear" x1="4.42454e-07" y1="5.26801" x2="54.5592" y2="27.2729" gradientUnits="userSpaceOnUse">
<stop stop-color="#967EF5"/>
<stop offset="0.320028" stop-color="#7CA1FF"/>
<stop offset="1" stop-color="#85C4FF"/>
</linearGradient>
</defs>
</svg>
