<svg width="62" height="62" viewBox="0 0 62 62" fill="none" xmlns="http://www.w3.org/2000/svg">
<g clip-path="url(#clip0)">
<g clip-path="url(#clip1)" filter="url(#filter0_di)">
<path d="M55.3862 30.9263C56.2744 29.9494 56.1886 28.4522 55.1946 27.5829L33.2959 8.4214C32.3019 7.55217 30.7083 7.57038 29.7353 8.46245L7.76209 28.6045C6.78903 29.4966 6.74127 30.992 7.65635 31.9432L8.20725 32.5169C9.12121 33.4681 10.5985 33.5815 11.5048 32.7694L13.147 31.2988V52.8288C13.147 54.1497 14.2173 55.2191 15.5373 55.2191H24.1025C25.4225 55.2191 26.4928 54.1497 26.4928 52.8288V37.7665H37.4178V52.8288C37.3988 54.1487 38.3433 55.2181 39.6633 55.2181H48.7402C50.0602 55.2181 51.1306 54.1487 51.1306 52.8278V31.602C51.1306 31.602 51.5842 31.9994 52.1437 32.4912C52.7023 32.982 53.8755 32.5885 54.7637 31.6106L55.3862 30.9263Z" fill="url(#paint0_linear)" fill-opacity="0.01"/>
</g>
<g clip-path="url(#clip2)">
<path d="M55.3862 30.9263C56.2744 29.9494 56.1886 28.4522 55.1946 27.5829L33.2959 8.4214C32.3019 7.55217 30.7083 7.57038 29.7353 8.46245L7.76209 28.6045C6.78903 29.4966 6.74127 30.992 7.65635 31.9432L8.20725 32.5169C9.12121 33.4681 10.5985 33.5815 11.5048 32.7694L13.147 31.2988V52.8288C13.147 54.1497 14.2173 55.2191 15.5373 55.2191H24.1025C25.4225 55.2191 26.4928 54.1497 26.4928 52.8288V37.7665H37.4178V52.8288C37.3988 54.1487 38.3433 55.2181 39.6633 55.2181H48.7402C50.0602 55.2181 51.1306 54.1487 51.1306 52.8278V31.602C51.1306 31.602 51.5842 31.9994 52.1437 32.4912C52.7023 32.982 53.8755 32.5885 54.7637 31.6106L55.3862 30.9263Z" fill="white"/>
<path d="M55.3862 30.9263C56.2744 29.9494 56.1886 28.4522 55.1946 27.5829L33.2959 8.4214C32.3019 7.55217 30.7083 7.57038 29.7353 8.46245L7.76209 28.6045C6.78903 29.4966 6.74127 30.992 7.65635 31.9432L8.20725 32.5169C9.12121 33.4681 10.5985 33.5815 11.5048 32.7694L13.147 31.2988V52.8288C13.147 54.1497 14.2173 55.2191 15.5373 55.2191H24.1025C25.4225 55.2191 26.4928 54.1497 26.4928 52.8288V37.7665H37.4178V52.8288C37.3988 54.1487 38.3433 55.2181 39.6633 55.2181H48.7402C50.0602 55.2181 51.1306 54.1487 51.1306 52.8278V31.602C51.1306 31.602 51.5842 31.9994 52.1437 32.4912C52.7023 32.982 53.8755 32.5885 54.7637 31.6106L55.3862 30.9263Z" fill="url(#paint1_linear)"/>
</g>
</g>
<defs>
<filter id="filter0_di" x="4" y="3" width="63" height="63" filterUnits="userSpaceOnUse" color-interpolation-filters="sRGB">
<feFlood flood-opacity="0" result="BackgroundImageFix"/>
<feColorMatrix in="SourceAlpha" type="matrix" values="0 0 0 0 0 0 0 0 0 0 0 0 0 0 0 0 0 0 127 0"/>
<feOffset dx="4" dy="3"/>
<feGaussianBlur stdDeviation="3.5"/>
<feColorMatrix type="matrix" values="0 0 0 0 0.633333 0 0 0 0 0.798925 0 0 0 0 1 0 0 0 0.9 0"/>
<feBlend mode="normal" in2="BackgroundImageFix" result="effect1_dropShadow"/>
<feBlend mode="normal" in="SourceGraphic" in2="effect1_dropShadow" result="shape"/>
<feColorMatrix in="SourceAlpha" type="matrix" values="0 0 0 0 0 0 0 0 0 0 0 0 0 0 0 0 0 0 127 0" result="hardAlpha"/>
<feOffset dy="4"/>
<feGaussianBlur stdDeviation="2"/>
<feComposite in2="hardAlpha" operator="arithmetic" k2="-1" k3="1"/>
<feColorMatrix type="matrix" values="0 0 0 0 0.466667 0 0 0 0 0.639766 0 0 0 0 1 0 0 0 1 0"/>
<feBlend mode="normal" in2="shape" result="effect2_innerShadow"/>
</filter>
<linearGradient id="paint0_linear" x1="7" y1="14.7046" x2="63.0711" y2="31.2372" gradientUnits="userSpaceOnUse">
<stop stop-color="#967EF5"/>
<stop offset="0.320028" stop-color="#7CA1FF"/>
<stop offset="1" stop-color="#85C4FF"/>
</linearGradient>
<linearGradient id="paint1_linear" x1="7" y1="14.7046" x2="63.0711" y2="31.2372" gradientUnits="userSpaceOnUse">
<stop stop-color="#967EF5"/>
<stop offset="0.320028" stop-color="#7CA1FF"/>
<stop offset="1" stop-color="#85C4FF"/>
</linearGradient>
<clipPath id="clip0">
<rect width="62" height="62" fill="white"/>
</clipPath>
<clipPath id="clip1">
<rect width="49" height="49" fill="white" transform="translate(7 7)"/>
</clipPath>
<clipPath id="clip2">
<rect width="49" height="49" fill="white" transform="translate(7 7)"/>
</clipPath>
</defs>
</svg>
