<svg width="49" height="49" viewBox="0 0 49 49" fill="none" xmlns="http://www.w3.org/2000/svg">
<path d="M48.3862 23.9263C49.2744 22.9494 49.1886 21.4522 48.1946 20.5829L26.2959 1.4214C25.3019 0.552168 23.7083 0.570377 22.7353 1.46245L0.76209 21.6045C-0.210968 22.4966 -0.258726 23.992 0.65635 24.9432L1.20725 25.5169C2.12121 26.4681 3.59852 26.5815 4.50482 25.7694L6.14697 24.2988V45.8288C6.14697 47.1497 7.2173 48.2191 8.53729 48.2191H17.1025C18.4225 48.2191 19.4928 47.1497 19.4928 45.8288V30.7665H30.4178V45.8288C30.3988 47.1487 31.3433 48.2181 32.6633 48.2181H41.7402C43.0602 48.2181 44.1306 47.1487 44.1306 45.8278V24.602C44.1306 24.602 44.5842 24.9994 45.1437 25.4912C45.7023 25.982 46.8755 25.5885 47.7637 24.6106L48.3862 23.9263Z" fill="white"/>
<path d="M48.3862 23.9263C49.2744 22.9494 49.1886 21.4522 48.1946 20.5829L26.2959 1.4214C25.3019 0.552168 23.7083 0.570377 22.7353 1.46245L0.76209 21.6045C-0.210968 22.4966 -0.258726 23.992 0.65635 24.9432L1.20725 25.5169C2.12121 26.4681 3.59852 26.5815 4.50482 25.7694L6.14697 24.2988V45.8288C6.14697 47.1497 7.2173 48.2191 8.53729 48.2191H17.1025C18.4225 48.2191 19.4928 47.1497 19.4928 45.8288V30.7665H30.4178V45.8288C30.3988 47.1487 31.3433 48.2181 32.6633 48.2181H41.7402C43.0602 48.2181 44.1306 47.1487 44.1306 45.8278V24.602C44.1306 24.602 44.5842 24.9994 45.1437 25.4912C45.7023 25.982 46.8755 25.5885 47.7637 24.6106L48.3862 23.9263Z" fill="url(#paint0_linear)"/>
<defs>
<linearGradient id="paint0_linear" x1="4.25097e-07" y1="7.70461" x2="56.0711" y2="24.2372" gradientUnits="userSpaceOnUse">
<stop stop-color="#967EF5"/>
<stop offset="0.320028" stop-color="#7CA1FF"/>
<stop offset="1" stop-color="#85C4FF"/>
</linearGradient>
</defs>
</svg>
