<svg width="62" height="62" viewBox="0 0 62 62" fill="none" xmlns="http://www.w3.org/2000/svg">
<g clip-path="url(#clip0)">
<g filter="url(#filter0_di)">
<path d="M55.7077 24.1689C55.4583 23.8646 55.0861 23.687 54.6957 23.687H49.7321C48.5073 20.4563 46.9115 17.2908 45.0977 16.0959C38.8231 11.968 22.18 11.968 15.9054 16.0959C14.0903 17.2921 12.501 20.4615 11.2696 23.687H6.30607C5.91171 23.687 5.54085 23.8646 5.29404 24.1689C5.04593 24.4719 4.94668 24.8728 5.02765 25.258L5.76284 28.8205C5.8882 29.4277 6.4236 29.8612 7.04127 29.8612H8.51166C7.0922 31.4988 6.40401 33.5608 6.39487 35.6241C6.38573 38.1732 7.35337 40.4768 9.12279 42.1065C9.14238 42.1235 9.16197 42.1353 9.18025 42.1522V47.1368C9.18025 48.2168 10.0578 49.0956 11.139 49.0956H15.7173C16.7986 49.0956 17.6761 48.2168 17.6761 47.1368V45.1336H43.3243V47.1368C43.3243 48.2168 44.2019 49.0956 45.2831 49.0956H49.8614C50.94 49.0956 51.8202 48.2168 51.8202 47.1368V42.2502C53.698 40.5303 54.5951 38.1641 54.6069 35.8017C54.6147 33.6679 53.8952 31.5302 52.3922 29.8586H53.9605C54.5808 29.8586 55.1162 29.4251 55.2389 28.8165L55.9754 25.2554C56.0511 24.8728 55.9558 24.4745 55.7077 24.1689ZM18.0561 19.3672C23.0575 16.075 37.9429 16.075 42.9417 19.3672C43.9133 20.0044 45.163 22.5809 46.3082 25.736H14.6922C15.8349 22.5823 17.0846 20.007 18.0561 19.3672ZM12.1981 36.1151C12.1981 33.9865 13.9244 32.2628 16.0516 32.2628C18.1815 32.2628 19.9052 33.9865 19.9052 36.1151C19.9052 38.2437 18.1815 39.9688 16.0516 39.9688C13.9244 39.9688 12.1981 38.2437 12.1981 36.1151ZM44.9997 39.9688C42.8725 39.9688 41.1462 38.2437 41.1462 36.1151C41.1462 33.9865 42.8725 32.2628 44.9997 32.2628C47.1296 32.2628 48.8533 33.9865 48.8533 36.1151C48.8533 38.2437 47.127 39.9688 44.9997 39.9688Z" fill="white" fill-opacity="0.01"/>
<path d="M55.7077 24.1689C55.4583 23.8646 55.0861 23.687 54.6957 23.687H49.7321C48.5073 20.4563 46.9115 17.2908 45.0977 16.0959C38.8231 11.968 22.18 11.968 15.9054 16.0959C14.0903 17.2921 12.501 20.4615 11.2696 23.687H6.30607C5.91171 23.687 5.54085 23.8646 5.29404 24.1689C5.04593 24.4719 4.94668 24.8728 5.02765 25.258L5.76284 28.8205C5.8882 29.4277 6.4236 29.8612 7.04127 29.8612H8.51166C7.0922 31.4988 6.40401 33.5608 6.39487 35.6241C6.38573 38.1732 7.35337 40.4768 9.12279 42.1065C9.14238 42.1235 9.16197 42.1353 9.18025 42.1522V47.1368C9.18025 48.2168 10.0578 49.0956 11.139 49.0956H15.7173C16.7986 49.0956 17.6761 48.2168 17.6761 47.1368V45.1336H43.3243V47.1368C43.3243 48.2168 44.2019 49.0956 45.2831 49.0956H49.8614C50.94 49.0956 51.8202 48.2168 51.8202 47.1368V42.2502C53.698 40.5303 54.5951 38.1641 54.6069 35.8017C54.6147 33.6679 53.8952 31.5302 52.3922 29.8586H53.9605C54.5808 29.8586 55.1162 29.4251 55.2389 28.8165L55.9754 25.2554C56.0511 24.8728 55.9558 24.4745 55.7077 24.1689ZM18.0561 19.3672C23.0575 16.075 37.9429 16.075 42.9417 19.3672C43.9133 20.0044 45.163 22.5809 46.3082 25.736H14.6922C15.8349 22.5823 17.0846 20.007 18.0561 19.3672ZM12.1981 36.1151C12.1981 33.9865 13.9244 32.2628 16.0516 32.2628C18.1815 32.2628 19.9052 33.9865 19.9052 36.1151C19.9052 38.2437 18.1815 39.9688 16.0516 39.9688C13.9244 39.9688 12.1981 38.2437 12.1981 36.1151ZM44.9997 39.9688C42.8725 39.9688 41.1462 38.2437 41.1462 36.1151C41.1462 33.9865 42.8725 32.2628 44.9997 32.2628C47.1296 32.2628 48.8533 33.9865 48.8533 36.1151C48.8533 38.2437 47.127 39.9688 44.9997 39.9688Z" fill="url(#paint0_linear)" fill-opacity="0.01"/>
</g>
<path d="M55.7077 24.1689C55.4583 23.8646 55.0861 23.687 54.6957 23.687H49.7321C48.5073 20.4563 46.9115 17.2908 45.0977 16.0959C38.8231 11.968 22.18 11.968 15.9054 16.0959C14.0903 17.2921 12.501 20.4615 11.2696 23.687H6.30607C5.91171 23.687 5.54085 23.8646 5.29404 24.1689C5.04593 24.4719 4.94668 24.8728 5.02765 25.258L5.76284 28.8205C5.8882 29.4277 6.4236 29.8612 7.04127 29.8612H8.51166C7.0922 31.4988 6.40401 33.5608 6.39487 35.6241C6.38573 38.1732 7.35337 40.4768 9.12279 42.1065C9.14238 42.1235 9.16197 42.1353 9.18025 42.1522V47.1368C9.18025 48.2168 10.0578 49.0956 11.139 49.0956H15.7173C16.7986 49.0956 17.6761 48.2168 17.6761 47.1368V45.1336H43.3243V47.1368C43.3243 48.2168 44.2019 49.0956 45.2831 49.0956H49.8614C50.94 49.0956 51.8202 48.2168 51.8202 47.1368V42.2502C53.698 40.5303 54.5951 38.1641 54.6069 35.8017C54.6147 33.6679 53.8952 31.5302 52.3922 29.8586H53.9605C54.5808 29.8586 55.1162 29.4251 55.2389 28.8165L55.9754 25.2554C56.0511 24.8728 55.9558 24.4745 55.7077 24.1689ZM18.0561 19.3672C23.0575 16.075 37.9429 16.075 42.9417 19.3672C43.9133 20.0044 45.163 22.5809 46.3082 25.736H14.6922C15.8349 22.5823 17.0846 20.007 18.0561 19.3672ZM12.1981 36.1151C12.1981 33.9865 13.9244 32.2628 16.0516 32.2628C18.1815 32.2628 19.9052 33.9865 19.9052 36.1151C19.9052 38.2437 18.1815 39.9688 16.0516 39.9688C13.9244 39.9688 12.1981 38.2437 12.1981 36.1151ZM44.9997 39.9688C42.8725 39.9688 41.1462 38.2437 41.1462 36.1151C41.1462 33.9865 42.8725 32.2628 44.9997 32.2628C47.1296 32.2628 48.8533 33.9865 48.8533 36.1151C48.8533 38.2437 47.127 39.9688 44.9997 39.9688Z" fill="white"/>
<path d="M55.7077 24.1689C55.4583 23.8646 55.0861 23.687 54.6957 23.687H49.7321C48.5073 20.4563 46.9115 17.2908 45.0977 16.0959C38.8231 11.968 22.18 11.968 15.9054 16.0959C14.0903 17.2921 12.501 20.4615 11.2696 23.687H6.30607C5.91171 23.687 5.54085 23.8646 5.29404 24.1689C5.04593 24.4719 4.94668 24.8728 5.02765 25.258L5.76284 28.8205C5.8882 29.4277 6.4236 29.8612 7.04127 29.8612H8.51166C7.0922 31.4988 6.40401 33.5608 6.39487 35.6241C6.38573 38.1732 7.35337 40.4768 9.12279 42.1065C9.14238 42.1235 9.16197 42.1353 9.18025 42.1522V47.1368C9.18025 48.2168 10.0578 49.0956 11.139 49.0956H15.7173C16.7986 49.0956 17.6761 48.2168 17.6761 47.1368V45.1336H43.3243V47.1368C43.3243 48.2168 44.2019 49.0956 45.2831 49.0956H49.8614C50.94 49.0956 51.8202 48.2168 51.8202 47.1368V42.2502C53.698 40.5303 54.5951 38.1641 54.6069 35.8017C54.6147 33.6679 53.8952 31.5302 52.3922 29.8586H53.9605C54.5808 29.8586 55.1162 29.4251 55.2389 28.8165L55.9754 25.2554C56.0511 24.8728 55.9558 24.4745 55.7077 24.1689ZM18.0561 19.3672C23.0575 16.075 37.9429 16.075 42.9417 19.3672C43.9133 20.0044 45.163 22.5809 46.3082 25.736H14.6922C15.8349 22.5823 17.0846 20.007 18.0561 19.3672ZM12.1981 36.1151C12.1981 33.9865 13.9244 32.2628 16.0516 32.2628C18.1815 32.2628 19.9052 33.9865 19.9052 36.1151C19.9052 38.2437 18.1815 39.9688 16.0516 39.9688C13.9244 39.9688 12.1981 38.2437 12.1981 36.1151ZM44.9997 39.9688C42.8725 39.9688 41.1462 38.2437 41.1462 36.1151C41.1462 33.9865 42.8725 32.2628 44.9997 32.2628C47.1296 32.2628 48.8533 33.9865 48.8533 36.1151C48.8533 38.2437 47.127 39.9688 44.9997 39.9688Z" fill="url(#paint1_linear)"/>
</g>
<defs>
<filter id="filter0_di" x="3" y="11" width="63.0008" height="48.0956" filterUnits="userSpaceOnUse" color-interpolation-filters="sRGB">
<feFlood flood-opacity="0" result="BackgroundImageFix"/>
<feColorMatrix in="SourceAlpha" type="matrix" values="0 0 0 0 0 0 0 0 0 0 0 0 0 0 0 0 0 0 127 0"/>
<feOffset dx="4" dy="4"/>
<feGaussianBlur stdDeviation="3"/>
<feColorMatrix type="matrix" values="0 0 0 0 0.631373 0 0 0 0 0.8 0 0 0 0 1 0 0 0 0.9 0"/>
<feBlend mode="normal" in2="BackgroundImageFix" result="effect1_dropShadow"/>
<feBlend mode="normal" in="SourceGraphic" in2="effect1_dropShadow" result="shape"/>
<feColorMatrix in="SourceAlpha" type="matrix" values="0 0 0 0 0 0 0 0 0 0 0 0 0 0 0 0 0 0 127 0" result="hardAlpha"/>
<feOffset dy="4"/>
<feGaussianBlur stdDeviation="2"/>
<feComposite in2="hardAlpha" operator="arithmetic" k2="-1" k3="1"/>
<feColorMatrix type="matrix" values="0 0 0 0 0.466667 0 0 0 0 0.639216 0 0 0 0 1 0 0 0 1 0"/>
<feBlend mode="normal" in2="shape" result="effect2_innerShadow"/>
</filter>
<linearGradient id="paint0_linear" x1="5" y1="18.268" x2="59.5592" y2="40.2729" gradientUnits="userSpaceOnUse">
<stop stop-color="#967EF5"/>
<stop offset="0.320028" stop-color="#7CA1FF"/>
<stop offset="1" stop-color="#85C4FF"/>
</linearGradient>
<linearGradient id="paint1_linear" x1="5" y1="18.268" x2="59.5592" y2="40.2729" gradientUnits="userSpaceOnUse">
<stop stop-color="#967EF5"/>
<stop offset="0.320028" stop-color="#7CA1FF"/>
<stop offset="1" stop-color="#85C4FF"/>
</linearGradient>
<clipPath id="clip0">
<rect width="62" height="62" fill="white"/>
</clipPath>
</defs>
</svg>
