<svg width="39" height="45" viewBox="0 0 39 45" fill="none" xmlns="http://www.w3.org/2000/svg">
<path d="M34.4315 42.3262V39.5504C35.4948 39.0529 36.2333 37.9732 36.2333 36.7235C36.2333 35.0031 34.8335 33.6034 33.1131 33.6034C31.3927 33.6034 29.993 35.0031 29.993 36.7235C29.993 37.9732 30.7315 39.0529 31.7948 39.5504V42.3262C29.2542 41.7285 27.3563 39.4443 27.3563 36.7235C27.3563 33.5491 29.9388 30.9667 33.1131 30.9667C33.5643 30.9667 34.0023 31.0206 34.4236 31.1191V8.97958H24.9747V42.3488H22.338V3.75249H20.1977V-2.39528e-05H2.14027V3.75249H0V45L38.8185 44.9852V42.3485H34.4318L34.4315 42.3262ZM31.0254 19.5774H28.3887V13.0814H31.0254V19.5774Z" fill="white"/>
<path d="M34.4315 42.3262V39.5504C35.4948 39.0529 36.2333 37.9732 36.2333 36.7235C36.2333 35.0031 34.8335 33.6034 33.1131 33.6034C31.3927 33.6034 29.993 35.0031 29.993 36.7235C29.993 37.9732 30.7315 39.0529 31.7948 39.5504V42.3262C29.2542 41.7285 27.3563 39.4443 27.3563 36.7235C27.3563 33.5491 29.9388 30.9667 33.1131 30.9667C33.5643 30.9667 34.0023 31.0206 34.4236 31.1191V8.97958H24.9747V42.3488H22.338V3.75249H20.1977V-2.39528e-05H2.14027V3.75249H0V45L38.8185 44.9852V42.3485H34.4318L34.4315 42.3262ZM31.0254 19.5774H28.3887V13.0814H31.0254V19.5774Z" fill="url(#paint0_linear)"/>
<rect x="5" y="11" width="4" height="9" fill="#D9E1FF"/>
<rect x="5" y="24" width="4" height="9" fill="#DBE5FE"/>
<rect x="13" y="11" width="4" height="9" fill="#D7E1FE"/>
<rect x="13" y="24" width="4" height="9" fill="#DCE5FE"/>
<defs>
<linearGradient id="paint0_linear" x1="3.36767e-07" y1="6.56757" x2="45.5219" y2="17.7768" gradientUnits="userSpaceOnUse">
<stop stop-color="#967EF5"/>
<stop offset="0.320028" stop-color="#7CA1FF"/>
<stop offset="1" stop-color="#85C4FF"/>
</linearGradient>
</defs>
</svg>
