<svg width="53" height="55" viewBox="0 0 53 55" fill="none" xmlns="http://www.w3.org/2000/svg">
<g clip-path="url(#clip0)" filter="url(#filter0_di)">
<path d="M35.043 36.9376V27.9792C35.043 25.0158 37.4546 22.6042 40.418 22.6042C41.407 22.6042 42.2096 23.4069 42.2096 24.3959C42.2096 25.3921 41.3962 26.2001 40.3965 26.1876C39.4146 26.175 38.6263 26.9974 38.6263 27.9792V33.3542C38.6263 35.334 37.0228 36.9376 35.043 36.9376Z" fill="white"/>
<path d="M35.043 36.9376V27.9792C35.043 25.0158 37.4546 22.6042 40.418 22.6042C41.407 22.6042 42.2096 23.4069 42.2096 24.3959C42.2096 25.3921 41.3962 26.2001 40.3965 26.1876C39.4146 26.175 38.6263 26.9974 38.6263 27.9792V33.3542C38.6263 35.334 37.0228 36.9376 35.043 36.9376Z" fill="url(#paint0_linear)"/>
<path d="M9.95964 36.9376V27.9792C9.95964 25.0158 7.54805 22.6042 4.58464 22.6042C3.59564 22.6042 2.79297 23.4069 2.79297 24.3959C2.79297 25.3921 3.60639 26.2001 4.60614 26.1876C5.58797 26.175 6.3763 26.9974 6.3763 27.9792V33.3542C6.3763 35.334 7.97984 36.9376 9.95964 36.9376Z" fill="white"/>
<path d="M9.95964 36.9376V27.9792C9.95964 25.0158 7.54805 22.6042 4.58464 22.6042C3.59564 22.6042 2.79297 23.4069 2.79297 24.3959C2.79297 25.3921 3.60639 26.2001 4.60614 26.1876C5.58797 26.175 6.3763 26.9974 6.3763 27.9792V33.3542C6.3763 35.334 7.97984 36.9376 9.95964 36.9376Z" fill="url(#paint1_linear)"/>
<path d="M30.1146 45.0001H14.8854C13.8964 45.0001 13.0938 44.1974 13.0938 43.2084C13.0938 42.2194 13.8964 41.4167 14.8854 41.4167H30.1146C31.1036 41.4167 31.9062 42.2194 31.9062 43.2084C31.9062 44.1974 31.1036 45.0001 30.1146 45.0001Z" fill="white"/>
<path d="M30.1146 45.0001H14.8854C13.8964 45.0001 13.0938 44.1974 13.0938 43.2084C13.0938 42.2194 13.8964 41.4167 14.8854 41.4167H30.1146C31.1036 41.4167 31.9062 42.2194 31.9062 43.2084C31.9062 44.1974 31.1036 45.0001 30.1146 45.0001Z" fill="url(#paint2_linear)"/>
<path d="M22.4987 44.9999C21.5097 44.9999 20.707 44.1973 20.707 43.2083V35.5937C20.707 34.6047 21.5097 33.802 22.4987 33.802C23.4877 33.802 24.2904 34.6047 24.2904 35.5937V43.2083C24.2904 44.1973 23.4877 44.9999 22.4987 44.9999Z" fill="white"/>
<path d="M22.4987 44.9999C21.5097 44.9999 20.707 44.1973 20.707 43.2083V35.5937C20.707 34.6047 21.5097 33.802 22.4987 33.802C23.4877 33.802 24.2904 34.6047 24.2904 35.5937V43.2083C24.2904 44.1973 23.4877 44.9999 22.4987 44.9999Z" fill="url(#paint3_linear)"/>
<path d="M31.5679 25.2917H13.4327C12.5046 25.2917 11.6302 24.8832 11.0336 24.1737C10.4352 23.4642 10.1844 22.5325 10.3438 21.6187L13.3037 4.59792C13.5652 3.09292 14.8642 2 16.3925 2H28.6063C30.1364 2 31.4353 3.09292 31.6951 4.59971L34.655 21.6205C34.8144 22.5343 34.5636 23.466 33.9652 24.1755C33.3703 24.8832 32.496 25.2917 31.5679 25.2917Z" fill="white"/>
<path d="M31.5679 25.2917H13.4327C12.5046 25.2917 11.6302 24.8832 11.0336 24.1737C10.4352 23.4642 10.1844 22.5325 10.3438 21.6187L13.3037 4.59792C13.5652 3.09292 14.8642 2 16.3925 2H28.6063C30.1364 2 31.4353 3.09292 31.6951 4.59971L34.655 21.6205C34.8144 22.5343 34.5636 23.466 33.9652 24.1755C33.3703 24.8832 32.496 25.2917 31.5679 25.2917Z" fill="url(#paint4_linear)"/>
<path d="M35.4909 36.9374H9.51172C8.76997 36.9374 8.16797 36.3354 8.16797 35.5937V32.0103C8.16797 29.2924 10.3771 27.0833 13.0951 27.0833H31.9075C34.6255 27.0833 36.8346 29.2924 36.8346 32.0103V35.5937C36.8346 36.3354 36.2326 36.9374 35.4909 36.9374Z" fill="white"/>
<path d="M35.4909 36.9374H9.51172C8.76997 36.9374 8.16797 36.3354 8.16797 35.5937V32.0103C8.16797 29.2924 10.3771 27.0833 13.0951 27.0833H31.9075C34.6255 27.0833 36.8346 29.2924 36.8346 32.0103V35.5937C36.8346 36.3354 36.2326 36.9374 35.4909 36.9374Z" fill="url(#paint5_linear)"/>
</g>
<defs>
<filter id="filter0_di" x="-1" y="0" width="55" height="55" filterUnits="userSpaceOnUse" color-interpolation-filters="sRGB">
<feFlood flood-opacity="0" result="BackgroundImageFix"/>
<feColorMatrix in="SourceAlpha" type="matrix" values="0 0 0 0 0 0 0 0 0 0 0 0 0 0 0 0 0 0 127 0"/>
<feOffset dx="4" dy="4"/>
<feGaussianBlur stdDeviation="3"/>
<feColorMatrix type="matrix" values="0 0 0 0 0.631373 0 0 0 0 0.8 0 0 0 0 1 0 0 0 0.9 0"/>
<feBlend mode="normal" in2="BackgroundImageFix" result="effect1_dropShadow"/>
<feBlend mode="normal" in="SourceGraphic" in2="effect1_dropShadow" result="shape"/>
<feColorMatrix in="SourceAlpha" type="matrix" values="0 0 0 0 0 0 0 0 0 0 0 0 0 0 0 0 0 0 127 0" result="hardAlpha"/>
<feOffset dy="4"/>
<feGaussianBlur stdDeviation="2"/>
<feComposite in2="hardAlpha" operator="arithmetic" k2="-1" k3="1"/>
<feColorMatrix type="matrix" values="0 0 0 0 0.466667 0 0 0 0 0.639216 0 0 0 0 1 0 0 0 1 0"/>
<feBlend mode="normal" in2="shape" result="effect2_innerShadow"/>
</filter>
<linearGradient id="paint0_linear" x1="35.043" y1="24.6961" x2="43.7788" y2="25.943" gradientUnits="userSpaceOnUse">
<stop stop-color="#967EF5"/>
<stop offset="0.320028" stop-color="#7CA1FF"/>
<stop offset="1" stop-color="#85C4FF"/>
</linearGradient>
<linearGradient id="paint1_linear" x1="2.79297" y1="24.6961" x2="11.5288" y2="25.943" gradientUnits="userSpaceOnUse">
<stop stop-color="#967EF5"/>
<stop offset="0.320028" stop-color="#7CA1FF"/>
<stop offset="1" stop-color="#85C4FF"/>
</linearGradient>
<linearGradient id="paint2_linear" x1="13.0938" y1="41.9397" x2="20.3026" y2="52.743" gradientUnits="userSpaceOnUse">
<stop stop-color="#967EF5"/>
<stop offset="0.320028" stop-color="#7CA1FF"/>
<stop offset="1" stop-color="#85C4FF"/>
</linearGradient>
<linearGradient id="paint3_linear" x1="20.707" y1="35.4363" x2="25.1271" y2="35.84" gradientUnits="userSpaceOnUse">
<stop stop-color="#967EF5"/>
<stop offset="0.320028" stop-color="#7CA1FF"/>
<stop offset="1" stop-color="#85C4FF"/>
</linearGradient>
<linearGradient id="paint4_linear" x1="10.2969" y1="5.39932" x2="38.1591" y2="13.7327" gradientUnits="userSpaceOnUse">
<stop stop-color="#967EF5"/>
<stop offset="0.320028" stop-color="#7CA1FF"/>
<stop offset="1" stop-color="#85C4FF"/>
</linearGradient>
<linearGradient id="paint5_linear" x1="8.16797" y1="28.5214" x2="29.2713" y2="46.0456" gradientUnits="userSpaceOnUse">
<stop stop-color="#967EF5"/>
<stop offset="0.320028" stop-color="#7CA1FF"/>
<stop offset="1" stop-color="#85C4FF"/>
</linearGradient>
<clipPath id="clip0">
<rect width="43" height="43" fill="white" transform="translate(1 2)"/>
</clipPath>
</defs>
</svg>
