<svg width="63" height="63" viewBox="0 0 63 63" fill="none" xmlns="http://www.w3.org/2000/svg">
<g clip-path="url(#clip0)" filter="url(#filter0_di)">
<path d="M51.3862 27.9263C52.2744 26.9494 52.1886 25.4522 51.1946 24.5829L29.2959 5.4214C28.3019 4.55217 26.7083 4.57038 25.7353 5.46245L3.76209 25.6045C2.78903 26.4966 2.74127 27.992 3.65635 28.9432L4.20725 29.5169C5.12121 30.4681 6.59852 30.5815 7.50482 29.7694L9.14697 28.2988V49.8288C9.14697 51.1497 10.2173 52.2191 11.5373 52.2191H20.1025C21.4225 52.2191 22.4928 51.1497 22.4928 49.8288V34.7665H33.4178V49.8288C33.3988 51.1487 34.3433 52.2181 35.6633 52.2181H44.7402C46.0602 52.2181 47.1306 51.1487 47.1306 49.8278V28.602C47.1306 28.602 47.5842 28.9994 48.1437 29.4912C48.7023 29.982 49.8755 29.5885 50.7637 28.6106L51.3862 27.9263Z" fill="white"/>
<path d="M51.3862 27.9263C52.2744 26.9494 52.1886 25.4522 51.1946 24.5829L29.2959 5.4214C28.3019 4.55217 26.7083 4.57038 25.7353 5.46245L3.76209 25.6045C2.78903 26.4966 2.74127 27.992 3.65635 28.9432L4.20725 29.5169C5.12121 30.4681 6.59852 30.5815 7.50482 29.7694L9.14697 28.2988V49.8288C9.14697 51.1497 10.2173 52.2191 11.5373 52.2191H20.1025C21.4225 52.2191 22.4928 51.1497 22.4928 49.8288V34.7665H33.4178V49.8288C33.3988 51.1487 34.3433 52.2181 35.6633 52.2181H44.7402C46.0602 52.2181 47.1306 51.1487 47.1306 49.8278V28.602C47.1306 28.602 47.5842 28.9994 48.1437 29.4912C48.7023 29.982 49.8755 29.5885 50.7637 28.6106L51.3862 27.9263Z" fill="url(#paint0_linear)"/>
</g>
<defs>
<filter id="filter0_di" x="0" y="0" width="63" height="63" filterUnits="userSpaceOnUse" color-interpolation-filters="sRGB">
<feFlood flood-opacity="0" result="BackgroundImageFix"/>
<feColorMatrix in="SourceAlpha" type="matrix" values="0 0 0 0 0 0 0 0 0 0 0 0 0 0 0 0 0 0 127 0"/>
<feOffset dx="4" dy="3"/>
<feGaussianBlur stdDeviation="3.5"/>
<feColorMatrix type="matrix" values="0 0 0 0 0.633333 0 0 0 0 0.798925 0 0 0 0 1 0 0 0 0.9 0"/>
<feBlend mode="normal" in2="BackgroundImageFix" result="effect1_dropShadow"/>
<feBlend mode="normal" in="SourceGraphic" in2="effect1_dropShadow" result="shape"/>
<feColorMatrix in="SourceAlpha" type="matrix" values="0 0 0 0 0 0 0 0 0 0 0 0 0 0 0 0 0 0 127 0" result="hardAlpha"/>
<feOffset dy="4"/>
<feGaussianBlur stdDeviation="2"/>
<feComposite in2="hardAlpha" operator="arithmetic" k2="-1" k3="1"/>
<feColorMatrix type="matrix" values="0 0 0 0 0.466667 0 0 0 0 0.639766 0 0 0 0 1 0 0 0 1 0"/>
<feBlend mode="normal" in2="shape" result="effect2_innerShadow"/>
</filter>
<linearGradient id="paint0_linear" x1="3" y1="11.7046" x2="59.0711" y2="28.2372" gradientUnits="userSpaceOnUse">
<stop stop-color="#967EF5"/>
<stop offset="0.320028" stop-color="#7CA1FF"/>
<stop offset="1" stop-color="#85C4FF"/>
</linearGradient>
<clipPath id="clip0">
<rect width="49" height="49" fill="white" transform="translate(3 4)"/>
</clipPath>
</defs>
</svg>
